<svg xmlns="http://www.w3.org/2000/svg" width="10" height="10" viewBox="0 0 10 10">
    <path fill="#3D2D73" fill-rule="nonzero" d="M9.984 4.35a.293.293 0 0 0-.242-.187l-3.1-.389-1.418-2.621A.297.297 0 0 0 4.956 1a.299.299 0 0 0-.264.159L3.341 3.81l-3.09.457a.292.292 0 0 0-.238.192.268.268 0 0 0 .08.286l2.265 2.027-.493 2.904c-.017.105.03.21.122.272a.31.31 0 0 0 .313.017L5.05 8.567l2.786 1.338c.1.048.221.039.312-.025a.271.271 0 0 0 .115-.274l-.565-2.892 2.214-2.078a.267.267 0 0 0 .071-.286zm-8.503.869A7.37 7.37 0 0 1 2 4.972l-.254.484-.265-.237zm1.52-.793l.061-.01c-.026.023-.053.044-.08.066a.342.342 0 0 0 .02-.056zm2.372-1.767a.395.395 0 0 0-.142.064l-.182.136c.093-.096.184-.194.274-.293l.05.093zm.346.64l.26.482c-.374.207-.739.434-1.094.674.27-.39.545-.777.834-1.156zm1.204 1.073c-.501.377-.985.77-1.454 1.175.104-.12.21-.24.318-.358.27-.294.574-.547.823-.856l.313.04zm.35.935c.133-.163.269-.325.406-.485a.41.41 0 0 0 .106-.342l.283.036c-.263.265-.528.529-.796.791zM2.942 6.87c.099 0 .199-.028.282-.098.229-.195.462-.38.699-.562A34.604 34.604 0 0 0 2.78 7.822l.161-.952zm1.595.642c-.194.246-.387.492-.577.74-.071.093-.087.186-.065.268l-.9.458a29.628 29.628 0 0 1 1.542-1.466zm1.287.173a1.97 1.97 0 0 0-.173.45.358.358 0 0 0-.009.09l-.29-.139c.159-.133.316-.266.472-.4zm.643.756c-.02.046-.04.091-.062.136L6.4 8.59l-.102-.049.169-.099zm-1.5-6.532l.046.086a.411.411 0 0 0-.061.062l-.178.23.193-.378zm-3.32 2.717a4.072 4.072 0 0 0-.406.378L.937 4.73l.712-.105zm.654 1.327c.446-.384.899-.76 1.359-1.13-.342.474-.688.946-1.051 1.405l-.308-.275zm5.188 3.16l.003-.001a.518.518 0 0 0 .067-.02l.012.06-.082-.04zm1.487-4.387l.007-.01a.359.359 0 0 0 .044-.08l.04.005-.09.085z"/>
</svg>
