<svg xmlns="http://www.w3.org/2000/svg" width="375" height="812" viewBox="0 0 375 812">
    <defs>
        <linearGradient id="a" x1="39.359%" x2="61.091%" y1=".107%" y2="101%">
            <stop offset="0%" stop-color="#FF7E67"/>
            <stop offset="100%" stop-color="#3D2D73"/>
        </linearGradient>
        <linearGradient id="b" x1="50%" x2="50%" y1="0%" y2="100%">
            <stop offset="0%" stop-color="#B2DCF4"/>
            <stop offset="100%" stop-color="#619EC1"/>
        </linearGradient>
    </defs>
    <g fill="none" fill-rule="evenodd">
        <path fill="url(#a)" d="M0 0h375v812H0z"/>
        <g opacity=".6">
            <path fill="#3483B0" fill-rule="nonzero" d="M45.972 105.327a.532.532 0 0 0-.436-.353l-5.581-.734-2.551-4.952A.53.53 0 0 0 36.92 99a.535.535 0 0 0-.475.3l-2.433 5.01-5.562.863a.532.532 0 0 0-.427.363c-.06.192-.005.4.142.539l4.078 3.83-.886 5.485a.523.523 0 0 0 .218.513.539.539 0 0 0 .563.034l4.953-2.643 5.014 2.527a.54.54 0 0 0 .563-.047.524.524 0 0 0 .206-.518l-1.017-5.463 3.985-3.924a.521.521 0 0 0 .129-.542zm-15.305 1.641c.302-.168.615-.321.933-.466l-.456.914-.477-.448zm2.735-1.497l.11-.017-.143.123a.67.67 0 0 0 .033-.106zm4.27-3.337a.696.696 0 0 0-.256.121l-.328.256c.168-.18.331-.366.493-.553l.09.176zm.622 1.208l.47.911c-.675.392-1.331.82-1.971 1.273.486-.737.982-1.468 1.501-2.184zm2.167 2.028a51 51 0 0 0-2.617 2.22c.188-.229.378-.455.573-.678.485-.555 1.034-1.032 1.482-1.616l.562.074zm.63 1.766c.24-.308.484-.614.73-.917a.8.8 0 0 0 .193-.645l.509.067c-.474.5-.95 1-1.433 1.495zm-7.795 2.952a.74.74 0 0 0 .509-.186c.412-.367.832-.718 1.257-1.06a65.453 65.453 0 0 0-2.057 3.045l.291-1.8zm2.873 1.213c-.35.463-.696.928-1.038 1.396-.13.178-.157.353-.118.508l-1.62.864a54.528 54.528 0 0 1 2.776-2.768zm2.316.326c-.138.28-.248.564-.312.852a.709.709 0 0 0-.015.169l-.52-.263c.283-.251.566-.503.847-.758zm1.157 1.429a7.09 7.09 0 0 1-.112.257c-.003.007-.005.015-.009.022l-.182-.093c.1-.063.202-.125.303-.186zm-2.7-12.338l.083.161a.76.76 0 0 0-.11.118c-.108.144-.213.29-.32.434l.347-.713zm-5.975 5.13c-.26.222-.505.461-.732.715l-.549-.515 1.281-.2zm1.177 2.508a89.487 89.487 0 0 1 2.445-2.133 76.03 76.03 0 0 1-1.891 2.653l-.554-.52zm9.339 5.967h.004a.9.9 0 0 0 .12-.038l.022.112-.146-.074zm2.676-8.284l.012-.019a.69.69 0 0 0 .079-.152l.073.01-.164.16z" opacity=".835"/>
            <path fill="#3483B0" fill-rule="nonzero" d="M22.99 176.605a.21.21 0 0 0-.17-.145l-2.17-.302-.993-2.04a.205.205 0 0 0-.188-.118.207.207 0 0 0-.185.123l-.945 2.063-2.164.356a.21.21 0 0 0-.166.15.224.224 0 0 0 .056.221l1.585 1.577-.344 2.259a.221.221 0 0 0 .085.211.202.202 0 0 0 .219.014l1.926-1.088 1.95 1.04a.2.2 0 0 0 .218-.02.222.222 0 0 0 .08-.212l-.395-2.25 1.55-1.616a.224.224 0 0 0 .05-.223zm-5.953.676c.118-.069.24-.132.363-.192l-.177.377-.186-.185zm1.07-.61l.055-.01-.07.064a.358.358 0 0 0 .016-.055zm1.654-1.38a.264.264 0 0 0-.1.05l-.127.105c.065-.075.13-.15.192-.228l.035.073zm.242.497l.183.375a9.967 9.967 0 0 0-.767.524c.19-.303.382-.604.584-.899zm.843.835c-.35.293-.69.599-1.018.914.073-.094.147-.187.223-.28.189-.228.402-.424.576-.665l.219.03zm.245.727c.093-.127.188-.253.284-.378a.343.343 0 0 0 .075-.265l.198.027c-.184.207-.37.412-.557.616zm-3.031 1.216c.07 0 .14-.022.197-.077.16-.151.324-.296.49-.437a27.1 27.1 0 0 0-.8 1.254l.113-.74zm1.117.499c-.136.19-.271.382-.404.575a.255.255 0 0 0-.046.21l-.63.355c.346-.395.708-.772 1.08-1.14zm.9.135a1.64 1.64 0 0 0-.12.35.309.309 0 0 0-.007.07l-.202-.108.33-.312zm.45.588c-.013.035-.028.07-.043.106l-.003.009-.072-.038a9.19 9.19 0 0 1 .119-.077zm-1.05-5.08l.033.066a.307.307 0 0 0-.043.048l-.124.18.134-.295zm-2.323 2.112c-.101.091-.197.19-.285.294l-.213-.212.498-.082zm.458 1.032c.311-.298.628-.591.95-.878-.239.368-.48.735-.735 1.093l-.215-.215zm3.634 2.466h.002a.433.433 0 0 0 .06-.02l.01.058-.072-.038zm1.04-3.4l.006-.01a.363.363 0 0 0 .04-.079l.035.005-.081.084z" opacity=".397"/>
            <path fill="#3483B0" fill-rule="nonzero" d="M346.962 129.56a.712.712 0 0 0-.58-.478l-7.442-.993-3.402-6.699a.712.712 0 0 0-1.277.015l-3.243 6.778-7.416 1.168a.713.713 0 0 0-.38 1.22l5.437 5.183-1.182 7.421a.713.713 0 0 0 1.042.74l6.604-3.576 6.686 3.418a.712.712 0 0 0 1.024-.763l-1.356-7.392 5.314-5.309a.713.713 0 0 0 .171-.732zm-20.406 2.22c.403-.226.82-.435 1.244-.63l-.609 1.237-.635-.606zm3.647-2.025l.146-.023-.19.166a.916.916 0 0 0 .044-.143zm5.692-4.515a.922.922 0 0 0-.34.164c-.147.114-.292.23-.438.346.224-.244.442-.495.658-.747l.12.237zm.83 1.635l.626 1.232c-.9.53-1.774 1.109-2.627 1.722a80.573 80.573 0 0 1 2.001-2.954zm2.89 2.743a68.264 68.264 0 0 0-3.49 3.003c.251-.31.505-.615.764-.917.647-.75 1.378-1.396 1.976-2.186l.75.1zm.839 2.39c.32-.418.646-.832.975-1.242.235-.292.3-.6.256-.872l.679.09c-.631.678-1.267 1.353-1.91 2.023zM330.062 136a.978.978 0 0 0 .677-.251c.55-.497 1.11-.972 1.677-1.435a88.644 88.644 0 0 0-2.742 4.12l.388-2.434zm3.83 1.641c-.465.627-.929 1.256-1.384 1.89-.173.24-.21.477-.157.687l-2.16 1.169a73.245 73.245 0 0 1 3.7-3.746zm3.089.442a5.239 5.239 0 0 0-.417 1.152.973.973 0 0 0-.02.228l-.695-.355c.38-.34.757-.68 1.132-1.025zm1.542 1.933a9.665 9.665 0 0 1-.15.347l-.011.03-.244-.125c.134-.085.27-.169.405-.252zm-3.6-16.693l.11.219c-.05.045-.1.096-.146.158-.144.195-.285.392-.427.588l.462-.965zm-7.966 6.942c-.348.3-.675.623-.977.966l-.732-.697 1.709-.269zm1.568 3.392c1.07-.982 2.157-1.944 3.261-2.886-.821 1.21-1.65 2.415-2.523 3.59l-.738-.704zm12.452 8.073h.006c.057-.014.11-.032.16-.052l.029.152-.195-.1zm3.568-11.208l.017-.025a.938.938 0 0 0 .104-.206l.097.013-.218.218z" opacity=".835"/>
            <path fill="#D4EBF9" fill-rule="nonzero" d="M60.986 131.35a.27.27 0 0 0-.218-.187l-2.79-.389-1.276-2.621a.263.263 0 0 0-.241-.153.267.267 0 0 0-.238.159l-1.216 2.652-2.781.457a.271.271 0 0 0-.214.192.287.287 0 0 0 .071.286l2.039 2.027-.443 2.904a.284.284 0 0 0 .11.272.26.26 0 0 0 .28.017l2.477-1.399 2.507 1.338c.09.048.2.039.281-.025a.285.285 0 0 0 .103-.274l-.508-2.892 1.993-2.078a.288.288 0 0 0 .064-.286zm-7.653.869c.152-.09.308-.17.467-.247l-.228.484-.239-.237zm1.368-.793l.055-.01-.071.066a.37.37 0 0 0 .016-.056zm2.135-1.767a.34.34 0 0 0-.128.064l-.164.136c.084-.096.166-.194.247-.293l.045.093zm.311.64l.235.482c-.338.207-.666.434-.986.674.244-.39.491-.777.751-1.156zm1.083 1.073c-.45.377-.885.77-1.308 1.175.094-.12.19-.24.286-.358.243-.294.517-.547.741-.856l.281.04zm.315.935c.12-.163.242-.325.366-.485a.44.44 0 0 0 .096-.342l.254.036c-.236.265-.475.529-.716.791zm-3.897 1.563c.09 0 .18-.028.254-.098.207-.195.417-.38.63-.562a34.843 34.843 0 0 0-1.03 1.612l.146-.952zm1.436.642c-.174.246-.348.492-.519.74a.328.328 0 0 0-.058.268l-.81.458c.444-.508.91-.993 1.387-1.466zm1.159.173a2.108 2.108 0 0 0-.157.45.397.397 0 0 0-.007.09l-.26-.139.424-.4zm.578.756a3.871 3.871 0 0 1-.056.136l-.004.012-.092-.049.152-.099zm-1.35-6.532l.042.086a.394.394 0 0 0-.055.062l-.16.23.173-.378zm-2.987 2.717a3.85 3.85 0 0 0-.367.378l-.274-.273.64-.105zm.588 1.327c.401-.384.809-.76 1.223-1.13-.308.474-.619.946-.946 1.405l-.277-.275zm4.67 3.16l.002-.001a.432.432 0 0 0 .06-.02l.01.06-.073-.04zm1.337-4.387l.007-.01a.373.373 0 0 0 .039-.08l.036.005-.082.085z" opacity=".835"/>
            <path fill="#D4EBF9" fill-rule="nonzero" d="M294.983 174.094a.33.33 0 0 0-.266-.229l-3.411-.474-1.56-3.204a.322.322 0 0 0-.294-.187.326.326 0 0 0-.29.194l-1.487 3.241-3.4.56a.331.331 0 0 0-.26.234.351.351 0 0 0 .086.349l2.493 2.478-.542 3.55a.348.348 0 0 0 .134.331.317.317 0 0 0 .344.022l3.026-1.71 3.065 1.635c.11.059.243.047.343-.03a.349.349 0 0 0 .126-.335l-.621-3.535 2.435-2.54a.351.351 0 0 0 .079-.35zm-9.353 1.062c.184-.109.376-.208.57-.302l-.279.592-.291-.29zm1.671-.969l.067-.01-.087.079a.452.452 0 0 0 .02-.069zm2.61-2.159a.415.415 0 0 0-.157.078l-.2.166c.102-.117.202-.237.301-.358l.055.114zm.38.782l.287.59c-.413.252-.814.53-1.205.823.298-.477.6-.95.918-1.413zm1.324 1.312a31.7 31.7 0 0 0-1.6 1.436c.116-.148.232-.294.35-.438.297-.36.633-.668.907-1.046l.343.048zm.385 1.142c.147-.199.296-.397.447-.593a.539.539 0 0 0 .117-.417l.311.043c-.29.324-.58.647-.875.967zm-4.763 1.91c.109.002.22-.034.31-.12.252-.238.51-.465.769-.686a42.585 42.585 0 0 0-1.257 1.97l.178-1.164zm1.755.785c-.213.3-.425.601-.634.904a.401.401 0 0 0-.072.329l-.99.559a34.365 34.365 0 0 1 1.696-1.792zm1.416.212a2.577 2.577 0 0 0-.191.55.485.485 0 0 0-.01.11l-.318-.17c.174-.163.347-.326.519-.49zm.707.924a4.734 4.734 0 0 1-.069.166l-.005.014-.112-.06.186-.12zm-1.65-7.984l.05.105a.482.482 0 0 0-.067.076c-.066.093-.13.187-.195.281l.211-.462zm-3.652 3.32c-.159.144-.309.298-.447.463l-.335-.334.782-.128zm.72 1.623c.49-.47.988-.93 1.494-1.38a49.27 49.27 0 0 1-1.156 1.716l-.339-.336zm5.707 3.861h.002a.528.528 0 0 0 .074-.025l.013.073-.09-.048zm1.635-5.36c.002-.005.005-.008.008-.012a.456.456 0 0 0 .047-.099l.045.006-.1.104z" opacity=".397"/>
            <path fill="#FFA190" fill-rule="nonzero" d="M322.958 68.677a.802.802 0 0 0-.653-.54l-8.373-1.123-3.827-7.573a.8.8 0 0 0-1.437.017l-3.648 7.662-8.343 1.32a.809.809 0 0 0-.428 1.38l6.117 5.858-1.33 8.39a.807.807 0 0 0 .792.932.8.8 0 0 0 .381-.097l7.43-4.042 7.52 3.865c.272.139.599.111.844-.072a.809.809 0 0 0 .31-.792l-1.527-8.355 5.979-6.002a.809.809 0 0 0 .193-.828zM300 71.187c.454-.257.923-.492 1.4-.713l-.685 1.398-.715-.685zm4.104-2.29l.163-.026-.213.188c.021-.055.038-.109.05-.162zm6.403-5.104a1.035 1.035 0 0 0-.383.186c-.165.129-.328.26-.492.39.251-.276.497-.559.74-.844l.135.268zm.934 1.848l.704 1.393a38.544 38.544 0 0 0-2.956 1.947 91.109 91.109 0 0 1 2.252-3.34zm3.25 3.1a76.9 76.9 0 0 0-3.926 3.395c.283-.349.569-.695.86-1.035.728-.85 1.55-1.579 2.223-2.472l.843.113zm.944 2.702c.362-.471.727-.94 1.098-1.403.264-.33.338-.677.288-.986l.763.102c-.71.766-1.425 1.53-2.149 2.287zm-11.69 4.515c.268.002.538-.082.762-.285a49.687 49.687 0 0 1 1.887-1.621 100.245 100.245 0 0 0-3.086 4.657l.436-2.751zm4.308 1.855c-.523.709-1.044 1.42-1.557 2.136-.194.271-.236.54-.176.776l-2.43 1.322a82.607 82.607 0 0 1 4.163-4.234zm3.475.5a5.94 5.94 0 0 0-.469 1.301 1.105 1.105 0 0 0-.022.259l-.781-.401c.426-.385.85-.77 1.272-1.16zm1.735 2.184c-.054.132-.109.263-.168.393l-.013.034-.274-.141c.15-.097.303-.192.455-.286zm-4.05-18.87l.125.247c-.057.051-.113.11-.165.18-.162.22-.32.442-.48.664l.52-1.091zm-8.962 7.848c-.39.339-.758.704-1.099 1.092l-.823-.788 1.922-.304zm1.765 3.834a135.043 135.043 0 0 1 3.668-3.263 116.284 116.284 0 0 1-2.838 4.058l-.83-.795zm14.008 9.126h.007c.064-.016.124-.036.18-.058l.032.17-.219-.112zm4.014-12.67l.02-.028c.051-.077.088-.155.117-.233l.109.015-.246.246z" opacity=".835"/>
            <path fill="#FFA190" fill-rule="nonzero" d="M329.978 163.839a.413.413 0 0 0-.339-.27l-4.34-.562-1.985-3.786a.413.413 0 0 0-.375-.22.417.417 0 0 0-.37.228l-1.892 3.83-4.326.661a.412.412 0 0 0-.332.278.395.395 0 0 0 .11.412l3.172 2.929-.69 4.195a.397.397 0 0 0 .17.392.424.424 0 0 0 .438.026l3.853-2.021 3.9 1.932c.14.07.31.056.437-.036a.397.397 0 0 0 .16-.396l-.79-4.178 3.099-3a.394.394 0 0 0 .1-.414zm-11.904 1.255c.235-.129.479-.247.726-.357l-.355.699-.37-.342zm2.128-1.146l.085-.013-.111.094a.506.506 0 0 0 .026-.08zm3.32-2.551a.545.545 0 0 0-.199.092l-.255.196c.13-.138.258-.28.384-.423l.07.135zm.485.923l.365.697c-.525.3-1.035.627-1.533.973a45.49 45.49 0 0 1 1.168-1.67zm1.685 1.55a39.503 39.503 0 0 0-2.036 1.698c.147-.174.295-.347.446-.518.377-.424.804-.789 1.153-1.235l.437.056zm.49 1.351c.187-.235.376-.47.568-.7a.604.604 0 0 0 .15-.494l.395.051c-.368.383-.738.765-1.114 1.143zm-6.063 2.258c.14.001.28-.04.396-.142.32-.281.647-.55.978-.811a50.01 50.01 0 0 0-1.6 2.328l.226-1.375zm2.235.927c-.272.355-.542.71-.808 1.068a.448.448 0 0 0-.091.389l-1.26.66a42.064 42.064 0 0 1 2.159-2.117zm1.801.25a2.902 2.902 0 0 0-.243.651.533.533 0 0 0-.012.13l-.405-.201c.222-.192.442-.385.66-.58zm.9 1.093a5.374 5.374 0 0 1-.087.196l-.007.017-.142-.07c.078-.049.157-.096.236-.143zm-2.1-9.436l.065.124a.586.586 0 0 0-.086.09c-.084.11-.166.221-.249.332l.27-.546zm-4.647 3.924c-.203.17-.393.352-.57.546l-.426-.393.996-.153zm.915 1.918a69.267 69.267 0 0 1 1.902-1.632c-.479.684-.962 1.365-1.471 2.03l-.43-.398zm7.264 4.563h.003a.709.709 0 0 0 .094-.03l.016.086-.113-.056zm2.08-6.335l.01-.014a.524.524 0 0 0 .062-.117l.056.007-.127.124z"/>
            <path fill="#FFA190" fill-rule="nonzero" d="M107.978 69.839a.413.413 0 0 0-.339-.27l-4.34-.562-1.985-3.786a.413.413 0 0 0-.375-.22.417.417 0 0 0-.37.228l-1.892 3.83-4.326.661a.412.412 0 0 0-.332.278.395.395 0 0 0 .11.412l3.172 2.929-.69 4.195a.397.397 0 0 0 .17.392.424.424 0 0 0 .438.026l3.853-2.021 3.9 1.932c.14.07.31.056.437-.036a.397.397 0 0 0 .16-.396l-.79-4.178 3.099-3a.394.394 0 0 0 .1-.414zm-11.904 1.255c.235-.129.479-.247.726-.357l-.355.699-.37-.342zm2.128-1.146l.085-.013-.111.094a.506.506 0 0 0 .026-.08zm3.32-2.551a.545.545 0 0 0-.199.092l-.255.196c.13-.138.258-.28.384-.423l.07.135zm.485.923l.365.697c-.525.3-1.035.627-1.533.973a45.49 45.49 0 0 1 1.168-1.67zm1.685 1.55a39.503 39.503 0 0 0-2.036 1.698c.147-.174.295-.347.446-.518.377-.424.804-.789 1.153-1.235l.437.056zm.49 1.351c.187-.235.376-.47.568-.7a.604.604 0 0 0 .15-.494l.395.051c-.368.383-.738.765-1.114 1.143zm-6.063 2.258c.14.001.28-.04.396-.142.32-.281.647-.55.978-.811a50.01 50.01 0 0 0-1.6 2.328l.226-1.375zm2.235.927c-.272.355-.542.71-.808 1.068a.448.448 0 0 0-.091.389l-1.26.66a42.064 42.064 0 0 1 2.159-2.117zm1.801.25a2.902 2.902 0 0 0-.243.651.533.533 0 0 0-.012.13l-.405-.201c.222-.192.442-.385.66-.58zm.9 1.093a5.374 5.374 0 0 1-.087.196l-.007.017-.142-.07c.078-.049.157-.096.236-.143zm-2.1-9.436l.065.124a.586.586 0 0 0-.086.09c-.084.11-.166.221-.249.332l.27-.546zm-4.647 3.924c-.203.17-.393.352-.57.546l-.426-.393.996-.153zm.915 1.918a69.267 69.267 0 0 1 1.902-1.632c-.479.684-.962 1.365-1.471 2.03l-.43-.398zm7.264 4.563h.003a.709.709 0 0 0 .094-.03l.016.086-.113-.056zm2.08-6.335l.01-.014a.524.524 0 0 0 .062-.117l.056.007-.127.124z" opacity=".835"/>
            <path fill="#FFA190" fill-rule="nonzero" d="M53.994 256.489a.12.12 0 0 0-.097-.083l-1.24-.173-.567-1.165a.117.117 0 0 0-.108-.068.118.118 0 0 0-.105.07l-.54 1.18-1.237.202a.12.12 0 0 0-.095.086.128.128 0 0 0 .032.127l.906.9-.197 1.292a.126.126 0 0 0 .049.12.115.115 0 0 0 .125.008l1.1-.622 1.115.595c.04.021.088.017.125-.011a.127.127 0 0 0 .046-.122l-.227-1.285.886-.924a.128.128 0 0 0 .029-.127zm-3.401.386c.067-.04.136-.076.207-.11l-.101.215-.106-.105zm.625-.337l.054-.009-.07.064a.356.356 0 0 0 .016-.055zm.931-.8a.151.151 0 0 0-.057.028l-.072.06c.037-.042.073-.086.11-.13l.02.041zm.139.284l.104.214c-.15.092-.296.193-.438.3.108-.174.218-.346.334-.514zm.481.477c-.2.167-.394.342-.582.522a7.3 7.3 0 0 1 .128-.16c.108-.13.23-.242.33-.38l.124.018zm.14.415c.053-.072.108-.144.163-.216.039-.05.05-.104.042-.151l.113.016c-.105.117-.21.235-.318.351zm-1.732.695c.04 0 .08-.013.113-.044.092-.086.185-.169.28-.25-.16.235-.311.474-.458.717l.065-.423zm.638.285l-.23.329a.146.146 0 0 0-.027.12l-.36.203c.198-.226.405-.442.617-.652zm.515.077a.937.937 0 0 0-.07.2.176.176 0 0 0-.003.04l-.115-.062.188-.178zm.29.336a2.774 2.774 0 0 1-.037.095l-.003.008-.06-.034.1-.069zm-.63-2.903l.02.038a.178.178 0 0 0-.025.028l-.075.102.08-.168zm-1.33 1.207a1.711 1.711 0 0 0-.163.169l-.122-.122.284-.047zm.26.59c.18-.17.36-.338.544-.502-.137.21-.275.42-.42.625l-.123-.123zm2.084 1.427h.002a.434.434 0 0 0 .06-.02l.01.058-.072-.038zm.592-1.92l.006-.01a.361.361 0 0 0 .04-.078l.035.005-.081.083zM358.994 222.489a.12.12 0 0 0-.097-.083l-1.24-.173-.567-1.165a.117.117 0 0 0-.108-.068.118.118 0 0 0-.105.07l-.54 1.18-1.237.202a.12.12 0 0 0-.095.086.128.128 0 0 0 .032.127l.906.9-.197 1.292a.126.126 0 0 0 .049.12.115.115 0 0 0 .125.008l1.1-.622 1.115.595c.04.021.088.017.125-.011a.127.127 0 0 0 .046-.122l-.227-1.285.886-.924a.128.128 0 0 0 .029-.127zm-3.401.386c.067-.04.136-.076.207-.11l-.101.215-.106-.105zm.625-.337l.054-.009-.07.064a.356.356 0 0 0 .016-.055zm.931-.8a.151.151 0 0 0-.057.028l-.072.06c.037-.042.073-.086.11-.13l.02.041zm.139.284l.104.214c-.15.092-.296.193-.438.3.108-.174.218-.346.334-.514zm.481.477c-.2.167-.394.342-.582.522a7.3 7.3 0 0 1 .128-.16c.108-.13.23-.242.33-.38l.124.018zm.14.415c.053-.072.108-.144.163-.216.039-.05.05-.104.042-.151l.113.016c-.105.117-.21.235-.318.351zm-1.732.695c.04 0 .08-.013.113-.044.092-.086.185-.169.28-.25-.16.235-.311.474-.458.717l.065-.423zm.638.285l-.23.329a.146.146 0 0 0-.027.12l-.36.203c.198-.226.405-.442.617-.652zm.515.077a.937.937 0 0 0-.07.2.176.176 0 0 0-.003.04l-.115-.062.188-.178zm.29.336a2.775 2.775 0 0 1-.037.095l-.003.008-.06-.034.1-.069zm-.63-2.903l.02.038a.178.178 0 0 0-.025.028l-.075.102.08-.168zm-1.33 1.207a1.711 1.711 0 0 0-.163.169l-.122-.122.284-.047zm.26.59c.18-.17.36-.338.544-.502-.137.21-.275.42-.42.625l-.123-.123zm2.084 1.427h.002a.434.434 0 0 0 .06-.02l.01.058-.072-.038zm.592-1.92l.006-.01a.361.361 0 0 0 .04-.078l.035.005-.081.083z" opacity=".397"/>
            <path fill="#FFF" fill-rule="nonzero" d="M302.994 232.489a.12.12 0 0 0-.097-.083l-1.24-.173-.567-1.165a.117.117 0 0 0-.108-.068.118.118 0 0 0-.105.07l-.54 1.18-1.237.202a.12.12 0 0 0-.095.086.128.128 0 0 0 .032.127l.906.9-.197 1.292a.126.126 0 0 0 .049.12.115.115 0 0 0 .125.008l1.1-.622 1.115.595c.04.021.088.017.125-.011a.127.127 0 0 0 .046-.122l-.227-1.285.886-.924a.128.128 0 0 0 .029-.127zm-3.401.386c.067-.04.136-.076.207-.11l-.101.215-.106-.105zm.625-.337l.054-.009-.07.064a.356.356 0 0 0 .016-.055zm.931-.8a.151.151 0 0 0-.057.028l-.072.06c.037-.042.073-.086.11-.13l.02.041zm.139.284l.104.214c-.15.092-.296.193-.438.3.108-.174.218-.346.334-.514zm.481.477c-.2.167-.394.342-.582.522a7.3 7.3 0 0 1 .128-.16c.108-.13.23-.242.33-.38l.124.018zm.14.415c.053-.072.108-.144.163-.216.039-.05.05-.104.042-.151l.113.016c-.105.117-.21.235-.318.351zm-1.732.695c.04 0 .08-.013.113-.044.092-.086.185-.169.28-.25-.16.235-.311.474-.458.717l.065-.423zm.638.285l-.23.329a.146.146 0 0 0-.027.12l-.36.203c.198-.226.405-.442.617-.652zm.515.077a.937.937 0 0 0-.07.2.176.176 0 0 0-.003.04l-.115-.062.188-.178zm.29.336a2.775 2.775 0 0 1-.037.095l-.003.008-.06-.034.1-.069zm-.63-2.903l.02.038a.178.178 0 0 0-.025.028l-.075.102.08-.168zm-1.33 1.207a1.711 1.711 0 0 0-.163.169l-.122-.122.284-.047zm.26.59c.18-.17.36-.338.544-.502-.137.21-.275.42-.42.625l-.123-.123zm2.084 1.427h.002a.434.434 0 0 0 .06-.02l.01.058-.072-.038zm.592-1.92l.006-.01a.361.361 0 0 0 .04-.078l.035.005-.081.083z" opacity=".397"/>
            <path fill="#FFF" fill-rule="nonzero" d="M219.994 120.489a.12.12 0 0 0-.097-.083l-1.24-.173-.567-1.165a.117.117 0 0 0-.108-.068.118.118 0 0 0-.105.07l-.54 1.18-1.237.202a.12.12 0 0 0-.095.086.128.128 0 0 0 .032.127l.906.9-.197 1.292a.126.126 0 0 0 .049.12.115.115 0 0 0 .125.008l1.1-.622 1.115.595c.04.021.088.017.125-.011a.127.127 0 0 0 .046-.122l-.227-1.285.886-.924a.128.128 0 0 0 .029-.127zm-3.401.386c.067-.04.136-.076.207-.11l-.101.215-.106-.105zm.625-.337l.054-.009-.07.064a.356.356 0 0 0 .016-.055zm.931-.8a.151.151 0 0 0-.057.028l-.072.06c.037-.042.073-.086.11-.13l.02.041zm.139.284l.104.214c-.15.092-.296.193-.438.3.108-.174.218-.346.334-.514zm.481.477c-.2.167-.394.342-.582.522l.128-.16c.108-.13.23-.242.33-.38l.124.018zm.14.415c.053-.072.108-.144.163-.216.039-.05.05-.104.042-.151l.113.016c-.105.117-.21.235-.318.351zm-1.732.695c.04 0 .08-.013.113-.044.092-.086.185-.169.28-.25-.16.235-.311.474-.458.717l.065-.423zm.638.285l-.23.329a.146.146 0 0 0-.027.12l-.36.203c.198-.226.405-.442.617-.652zm.515.077a.937.937 0 0 0-.07.2.176.176 0 0 0-.003.04l-.115-.062.188-.178zm.29.336a2.775 2.775 0 0 1-.037.095l-.003.008-.06-.034.1-.069zm-.63-2.903l.02.038a.178.178 0 0 0-.025.028l-.075.102.08-.168zm-1.33 1.207a1.711 1.711 0 0 0-.163.169l-.122-.122.284-.047zm.26.59c.18-.17.36-.338.544-.502-.137.21-.275.42-.42.625l-.123-.123zm2.084 1.427h.002a.434.434 0 0 0 .06-.02l.01.058-.072-.038zm.592-1.92l.006-.01a.361.361 0 0 0 .04-.078l.035.005-.081.083zM207.994 126.489a.12.12 0 0 0-.097-.083l-1.24-.173-.567-1.165a.117.117 0 0 0-.108-.068.118.118 0 0 0-.105.07l-.54 1.18-1.237.202a.12.12 0 0 0-.095.086.128.128 0 0 0 .032.127l.906.9-.197 1.292a.126.126 0 0 0 .049.12.115.115 0 0 0 .125.008l1.1-.622 1.115.595c.04.021.088.017.125-.011a.127.127 0 0 0 .046-.122l-.227-1.285.886-.924a.128.128 0 0 0 .029-.127zm-3.401.386c.067-.04.136-.076.207-.11l-.101.215-.106-.105zm.625-.337l.054-.009-.07.064a.356.356 0 0 0 .016-.055zm.931-.8a.151.151 0 0 0-.057.028l-.072.06c.037-.042.073-.086.11-.13l.02.041zm.139.284l.104.214c-.15.092-.296.193-.438.3.108-.174.218-.346.334-.514zm.481.477c-.2.167-.394.342-.582.522l.128-.16c.108-.13.23-.242.33-.38l.124.018zm.14.415c.053-.072.108-.144.163-.216.039-.05.05-.104.042-.151l.113.016c-.105.117-.21.235-.318.351zm-1.732.695c.04 0 .08-.013.113-.044.092-.086.185-.169.28-.25-.16.235-.311.474-.458.717l.065-.423zm.638.285l-.23.329a.146.146 0 0 0-.027.12l-.36.203c.198-.226.405-.442.617-.652zm.515.077a.937.937 0 0 0-.07.2.176.176 0 0 0-.003.04l-.115-.062.188-.178zm.29.336a2.775 2.775 0 0 1-.037.095l-.003.008-.06-.034.1-.069zm-.63-2.903l.02.038a.178.178 0 0 0-.025.028l-.075.102.08-.168zm-1.33 1.207a1.711 1.711 0 0 0-.163.169l-.122-.122.284-.047zm.26.59c.18-.17.36-.338.544-.502-.137.21-.275.42-.42.625l-.123-.123zm2.084 1.427h.002a.434.434 0 0 0 .06-.02l.01.058-.072-.038zm.592-1.92l.006-.01a.361.361 0 0 0 .04-.078l.035.005-.081.083zM95.994 95.489a.12.12 0 0 0-.097-.083l-1.24-.173-.567-1.165a.117.117 0 0 0-.108-.068.118.118 0 0 0-.105.07l-.54 1.18-1.237.202a.12.12 0 0 0-.095.086.128.128 0 0 0 .032.127l.906.9-.197 1.292a.126.126 0 0 0 .049.12.115.115 0 0 0 .125.008l1.1-.622 1.115.595c.04.021.088.017.125-.011a.127.127 0 0 0 .046-.122l-.227-1.285.886-.924a.128.128 0 0 0 .029-.127zm-3.401.386c.067-.04.136-.076.207-.11l-.101.215-.106-.105zm.625-.337l.054-.009-.07.064a.356.356 0 0 0 .016-.055zm.931-.8a.151.151 0 0 0-.057.028l-.072.06c.037-.042.073-.086.11-.13l.02.041zm.139.284l.104.214c-.15.092-.296.193-.438.3.108-.174.218-.346.334-.514zm.481.477c-.2.167-.394.342-.582.522l.128-.16c.108-.13.23-.242.33-.38l.124.018zm.14.415a13.7 13.7 0 0 1 .163-.216c.039-.05.05-.104.042-.151l.113.016a31.6 31.6 0 0 1-.318.351zm-1.732.695c.04 0 .08-.013.113-.044.092-.086.185-.169.28-.25-.16.235-.311.474-.458.717l.065-.423zm.638.285l-.23.329a.146.146 0 0 0-.027.12l-.36.203c.198-.226.405-.442.617-.652zm.515.077a.937.937 0 0 0-.07.2.176.176 0 0 0-.003.04l-.115-.062.188-.178zm.29.336a2.775 2.775 0 0 1-.037.095l-.003.008-.06-.034.1-.069zm-.63-2.903l.02.038a.178.178 0 0 0-.025.028l-.075.102.08-.168zm-1.33 1.207a1.711 1.711 0 0 0-.163.169l-.122-.122.284-.047zm.26.59c.18-.17.36-.338.544-.502-.137.21-.275.42-.42.625l-.123-.123zm2.084 1.427h.002a.434.434 0 0 0 .06-.02l.01.058-.072-.038zm.592-1.92l.006-.01a.361.361 0 0 0 .04-.078l.035.005-.081.083z" opacity=".835"/>
            <path fill="#FFA190" fill-rule="nonzero" d="M283.994 156.489a.12.12 0 0 0-.097-.083l-1.24-.173-.567-1.165a.117.117 0 0 0-.108-.068.118.118 0 0 0-.105.07l-.54 1.18-1.237.202a.12.12 0 0 0-.095.086.128.128 0 0 0 .032.127l.906.9-.197 1.292a.126.126 0 0 0 .049.12.115.115 0 0 0 .125.008l1.1-.622 1.115.595c.04.021.088.017.125-.011a.127.127 0 0 0 .046-.122l-.227-1.285.886-.924a.128.128 0 0 0 .029-.127zm-3.401.386c.067-.04.136-.076.207-.11l-.101.215-.106-.105zm.625-.337l.054-.009-.07.064a.356.356 0 0 0 .016-.055zm.931-.8a.151.151 0 0 0-.057.028l-.072.06c.037-.042.073-.086.11-.13l.02.041zm.139.284l.104.214c-.15.092-.296.193-.438.3.108-.174.218-.346.334-.514zm.481.477c-.2.167-.394.342-.582.522l.128-.16c.108-.13.23-.242.33-.38l.124.018zm.14.415c.053-.072.108-.144.163-.216.039-.05.05-.104.042-.151l.113.016c-.105.117-.21.235-.318.351zm-1.732.695c.04 0 .08-.013.113-.044.092-.086.185-.169.28-.25-.16.235-.311.474-.458.717l.065-.423zm.638.285l-.23.329a.146.146 0 0 0-.027.12l-.36.203c.198-.226.405-.442.617-.652zm.515.077a.937.937 0 0 0-.07.2.176.176 0 0 0-.003.04l-.115-.062.188-.178zm.29.336a2.775 2.775 0 0 1-.037.095l-.003.008-.06-.034.1-.069zm-.63-2.903l.02.038a.178.178 0 0 0-.025.028l-.075.102.08-.168zm-1.33 1.207a1.711 1.711 0 0 0-.163.169l-.122-.122.284-.047zm.26.59c.18-.17.36-.338.544-.502-.137.21-.275.42-.42.625l-.123-.123zm2.084 1.427h.002a.434.434 0 0 0 .06-.02l.01.058-.072-.038zm.592-1.92l.006-.01a.361.361 0 0 0 .04-.078l.035.005-.081.083z" opacity=".835"/>
            <path fill="#FFF" fill-rule="nonzero" d="M350.994 62.489a.12.12 0 0 0-.097-.083l-1.24-.173-.567-1.165a.117.117 0 0 0-.108-.068.118.118 0 0 0-.105.07l-.54 1.18-1.237.202a.12.12 0 0 0-.095.086.128.128 0 0 0 .032.127l.906.9-.197 1.292a.126.126 0 0 0 .049.12.115.115 0 0 0 .125.008l1.1-.622 1.115.595c.04.021.088.017.125-.011a.127.127 0 0 0 .046-.122l-.227-1.285.886-.924a.128.128 0 0 0 .029-.127zm-3.401.386c.067-.04.136-.076.207-.11l-.101.215-.106-.105zm.625-.337l.054-.009-.07.064a.356.356 0 0 0 .016-.055zm.931-.8a.151.151 0 0 0-.057.028l-.072.06c.037-.042.073-.086.11-.13l.02.041zm.139.284l.104.214c-.15.092-.296.193-.438.3.108-.174.218-.346.334-.514zm.481.477c-.2.167-.394.342-.582.522l.128-.16c.108-.13.23-.242.33-.38l.124.018zm.14.415c.053-.072.108-.144.163-.216.039-.05.05-.104.042-.151l.113.016c-.105.117-.21.235-.318.351zm-1.732.695c.04 0 .08-.013.113-.044.092-.086.185-.169.28-.25-.16.235-.311.474-.458.717l.065-.423zm.638.285l-.23.329a.146.146 0 0 0-.027.12l-.36.203c.198-.226.405-.442.617-.652zm.515.077a.937.937 0 0 0-.07.2.176.176 0 0 0-.003.04l-.115-.062.188-.178zm.29.336a2.775 2.775 0 0 1-.037.095l-.003.008-.06-.034.1-.069zm-.63-2.903l.02.038a.178.178 0 0 0-.025.028l-.075.102.08-.168zm-1.33 1.207a1.711 1.711 0 0 0-.163.169l-.122-.122.284-.047zm.26.59c.18-.17.36-.338.544-.502-.137.21-.275.42-.42.625l-.123-.123zm2.084 1.427h.002a.434.434 0 0 0 .06-.02l.01.058-.072-.038zm.592-1.92l.006-.01a.361.361 0 0 0 .04-.078l.035.005-.081.083z" opacity=".835"/>
            <path fill="url(#b)" fill-rule="nonzero" d="M351 35c0-2.327-.668-4.5-1.82-6.343 1.209-2.219 1.433-3.73.663-4.5-.765-.766-2.28-.54-4.498.664A11.924 11.924 0 0 0 339 23c-2.327 0-4.501.668-6.343 1.82-2.219-1.209-3.731-1.433-4.5-.663-.767.766-.54 2.28.664 4.499A11.925 11.925 0 0 0 327 35c0 2.329.669 4.502 1.821 6.345-1.205 2.218-1.43 3.732-.664 4.498.298.3.709.448 1.229.448.818 0 1.914-.376 3.268-1.113A11.922 11.922 0 0 0 339 47c2.329 0 4.503-.669 6.345-1.822 1.357.737 2.453 1.11 3.272 1.11.52 0 .93-.148 1.226-.445.77-.77.546-2.281-.663-4.5A11.926 11.926 0 0 0 351 35zm-2.28 5c-.93-1.69-2.21-3.577-3.72-5.5 1.51-1.923 2.79-3.81 3.72-5.5a12.297 12.297 0 0 1 1.28 5.5c0 1.996-.466 3.87-1.28 5.5zm.134-14.85c.23.23.29 1.07-.6 2.85A12.129 12.129 0 0 0 346 25.75c1.683-.84 2.586-.867 2.854-.6zM348 28.583c-.074.126-.149.254-.231.388-.946 1.542-2.249 3.266-3.79 5.03a60.402 60.402 0 0 0-1.964-2.06c-2.749-2.751-5.593-5.087-8.015-6.58a10.653 10.653 0 0 1 5.217-1.36c3.629 0 6.84 1.814 8.783 4.582zm-18.85-3.436c.23-.23 1.07-.29 2.85.6A12.12 12.12 0 0 0 329.75 28c-.84-1.683-.867-2.586-.6-2.854zm3.479.854c.127.076.256.153.391.237 2.392 1.487 5.217 3.835 7.956 6.61A60.77 60.77 0 0 1 343 35a61.001 61.001 0 0 1-2.024 2.153c-2.739 2.775-5.564 5.123-7.956 6.61-.135.084-.264.161-.391.237A11.031 11.031 0 0 1 328 35c0-3.718 1.833-7.01 4.629-9zm-3.478 18.854c-.268-.268-.241-1.17.6-2.854A12.104 12.104 0 0 0 332 44.253c-1.78.892-2.62.83-2.85.601zM334 44.64c2.422-1.494 5.266-3.829 8.016-6.58a60.63 60.63 0 0 0 1.963-2.06c1.541 1.764 2.844 3.489 3.79 5.03.082.134.157.262.231.388-1.943 2.768-5.154 4.582-8.783 4.582-1.893 0-3.671-.495-5.217-1.36zm14.854.21c-.268.267-1.17.24-2.854-.6a12.127 12.127 0 0 0 2.253-2.25c.891 1.78.83 2.62.601 2.85z" opacity=".835" transform="rotate(16 137.097 121.423)"/>
            <g fill="#FF7E67" fill-rule="nonzero" opacity=".62">
                <path d="M58.681 181.883c.19.251.368.51.537.773.082.126.158.255.237.384.027.044.031.056.002.004l.066.115a12.023 12.023 0 0 1 .833 1.877l.084-.6a30.251 30.251 0 0 1-2.565 2.993c-.252.262-.51.516-.766.771-.123.12.084-.082-.039.037l-.073.072c-.063.06-.126.121-.19.179l-.46.435a45.833 45.833 0 0 1-1.767 1.557 52.264 52.264 0 0 1-5.941 4.312c-.325.2-.65.4-.98.59-.082.049-.164.095-.247.144l-.089.051c-.148.085.102-.058-.046.027-.165.092-.326.184-.49.273-1.306.716-2.652 1.367-4.047 1.892l.6.084a11.772 11.772 0 0 1-1.29-1.042l-.189-.18-.074-.075c-.016-.014-.167-.172-.077-.077a12.067 12.067 0 0 1-1.712-2.262l-.05-.092c-.051-.092-.102-.184-.15-.278a11.404 11.404 0 0 1-.812-1.98 7.299 7.299 0 0 1-.07-.234l-.024-.086c-.04-.145.03.126-.006-.022a11.828 11.828 0 0 1-.358-2.301c-.007-.146-.014-.293-.018-.439-.001-.073 0-.145-.002-.218 0-.152-.002.14-.001-.015a11.622 11.622 0 0 1 .062-1.046c.063-.621.177-1.238.338-1.843.007-.026.014-.058.024-.084-.058.155-.006.02.005-.015a13.12 13.12 0 0 1 .215-.667c.104-.288.217-.575.341-.854.125-.283.264-.56.41-.83.07-.13.14-.262.218-.385-.085.134-.004.006.012-.02l.059-.094a11.853 11.853 0 0 1 1.68-2.097c-.068.067.04-.04.044-.042a10.977 10.977 0 0 1 .951-.817c.259-.2.528-.39.801-.57.137-.086.273-.173.412-.254l.099-.058c.129-.076-.076.04.006-.002l.24-.133a11.951 11.951 0 0 1 2.182-.893l.215-.061c.142-.04-.091.024 0 0 .05-.014.1-.025.151-.04a11.774 11.774 0 0 1 2.763-.345h.109c-.154-.003-.046 0-.01.003l.242.006c.16.008.32.015.48.029.306.024.61.058.91.106.302.049.603.106.9.175.14.032.281.082.423.108-.171-.03.052.016.096.029a12.088 12.088 0 0 1 2.382 1.007l.194.109c.025.016.05.028.076.044a12.02 12.02 0 0 1 .869.589 11.31 11.31 0 0 1 1.224 1.05 3.505 3.505 0 0 1 .114.116c.074.077.145.154.219.23.253.291.494.58.718.88.19.251.59.326.841.119.25-.208.32-.573.118-.841a12.464 12.464 0 0 0-5.49-4.131 12.561 12.561 0 0 0-6.186-.691 12.463 12.463 0 0 0-5.896 2.522 12.456 12.456 0 0 0-3.845 5.091 12.568 12.568 0 0 0-.824 6.17 12.439 12.439 0 0 0 4.782 8.374c.109.085.22.164.332.243.116.083.23.157.371.183.151.027.293-.032.427-.083a28.892 28.892 0 0 0 2.858-1.28c2.241-1.139 4.38-2.492 6.406-3.977a49.512 49.512 0 0 0 5.89-5.049 34.248 34.248 0 0 0 2.21-2.443c.153-.19.304-.381.456-.575l.216-.285c.104-.143.192-.315.16-.498-.018-.109-.063-.215-.1-.32a11.717 11.717 0 0 0-.733-1.637 13.359 13.359 0 0 0-1.028-1.613c-.189-.251-.59-.323-.84-.118a.61.61 0 0 0-.125.84z"/>
                <path d="M60.353 185.036c.077.226.146.45.21.68.032.117-.01-.013-.006-.021-.004.008.017.072.022.084.013.057.03.114.042.173.026.116.053.229.076.344a11.545 11.545 0 0 1 .242 2.112c.003.11.009.22.003.328.009-.172 0 .021-.002.057a12.027 12.027 0 0 1-.271 2.273c-.024.106-.049.215-.076.32l-.042.17a.866.866 0 0 1-.024.084c-.037.14.028-.09.002-.009-.131.458-.288.905-.47 1.343-.183.435-.39.857-.624 1.264-.024.045-.052.09-.076.134-.076.132.046-.072-.035.056a12.039 12.039 0 0 1-.612.905 11.48 11.48 0 0 1-.937 1.101l-.127.13c-.028.027-.15.161-.053.054-.082.091-.178.172-.269.253a12.1 12.1 0 0 1-1.786 1.346c-.102.064-.206.134-.317.188.118-.06-.029.014-.065.036-.053.03-.108.058-.161.087a11.715 11.715 0 0 1-2.014.838c-.108.033-.212.064-.32.094l-.085.024c.135-.03.05-.014.022-.006-.065.015-.128.034-.194.049-.23.055-.46.102-.693.145-.46.08-.928.136-1.396.164-.232.013-.466.02-.7.02-.084 0 .116.001.031.001a.866.866 0 0 0-.088 0l-.175-.006c-.123-.006-.247-.01-.37-.02a12.027 12.027 0 0 1-2.066-.32l-.17-.042a3.357 3.357 0 0 1-.2-.058c-.065-.018-.126-.04-.19-.057a12.536 12.536 0 0 1-1.311-.5c-.214-.096-.426-.199-.632-.31a10.714 10.714 0 0 1-.31-.167l-.134-.077a.918.918 0 0 0-.076-.044c-.2-.125-.4-.253-.596-.39l-.145 1.025c2.71-1.016 5.253-2.476 7.648-4.084a49.8 49.8 0 0 0 7.569-6.213c1.062-1.069 2.071-2.196 2.969-3.406.187-.253.17-.649-.1-.844-.256-.185-.643-.17-.844.1a30.251 30.251 0 0 1-2.565 2.992c-.252.262-.51.517-.766.771-.123.12.084-.082-.039.037l-.073.072-.19.18-.46.434a45.833 45.833 0 0 1-1.767 1.558 52.264 52.264 0 0 1-5.941 4.312c-.325.2-.65.4-.98.59-.082.048-.165.094-.247.143l-.09.051c-.147.085.103-.058-.045.027-.165.092-.326.185-.49.274-1.307.716-2.652 1.366-4.047 1.89-.406.153-.514.77-.144 1.026a12.514 12.514 0 0 0 5.593 2.152c2.007.249 4.068.002 5.96-.714a12.538 12.538 0 0 0 5.067-3.592 12.497 12.497 0 0 0 2.65-5.408c.428-1.967.347-4.017-.184-5.955-.064-.236-.137-.47-.216-.703-.1-.298-.502-.458-.784-.328-.299.143-.423.465-.316.783z"/>
                <path d="M37.987 192.683a12.589 12.589 0 0 0 3.316 5.071c.405.378.837.727 1.29 1.042l.144-1.025a19.876 19.876 0 0 1-1.733.56l-.172.042a10.672 10.672 0 0 1-1.117.213c-.21.027-.423.05-.633.059-.098.004-.198.005-.295.007-.082 0 .126.006.045 0-.017-.002-.036-.002-.057-.002a3.063 3.063 0 0 1-.165-.008 3.526 3.526 0 0 1-.53-.068l-.112-.025c-.02-.006-.04-.012-.061-.015-.065-.012.087.028.078.023-.08-.03-.162-.05-.243-.082-.065-.028-.134-.055-.196-.088-.023-.013-.132-.076-.032-.014a1.786 1.786 0 0 1-.2-.15c-.024-.02-.05-.052-.078-.07-.008-.005.097.107.061.062-.012-.017-.029-.031-.044-.048a1.564 1.564 0 0 1-.12-.16c-.015-.023-.032-.059-.05-.08.085.088.06.115.037.063-.01-.019-.022-.039-.031-.058-.028-.062-.056-.123-.077-.187l-.03-.092c-.023-.067.032.14.021.07-.003-.022-.012-.047-.015-.07-.03-.152-.036-.301-.045-.454-.003-.064 0 .094 0 .082.004-.02 0-.042.004-.063.003-.042.003-.088.009-.13.006-.09.019-.178.031-.267.012-.084.03-.163.046-.242l.033-.144.014-.056c.022-.094.014-.019-.01.026.04-.085.057-.192.088-.281.036-.104.075-.208.113-.312.195-.502.442-.983.713-1.448.016-.03.035-.058.052-.09.056-.097-.024.04.015-.021s.074-.12.11-.182a22.464 22.464 0 0 1 .85-1.24c.187-.253.17-.65-.1-.845-.255-.184-.641-.172-.843.1-.693.939-1.342 1.935-1.799 3.01-.338.789-.599 1.676-.496 2.539a2.369 2.369 0 0 0 1.232 1.818c.725.402 1.63.432 2.436.366 1.283-.101 2.55-.49 3.75-.94.408-.15.51-.77.143-1.024a11.934 11.934 0 0 1-1.628-1.37l-.021-.022c.045.049-.016-.017-.021-.021l-.127-.136a11.86 11.86 0 0 1-1.531-2.06c-.012-.023-.027-.046-.039-.07.005.007.044.08.01.02l-.09-.16a11.868 11.868 0 0 1-.791-1.808c-.104-.297-.499-.459-.784-.329a.622.622 0 0 0-.325.784zM62.263 179.185c.02.027.04.057.06.087.015.023.076.126.018.024-.059-.1 0 .003.011.028.016.036.035.075.048.11.025.064.04.133.064.194-.003-.003-.036-.156-.02-.07a.208.208 0 0 0 .009.041c.01.04.015.084.021.127.01.068.018.136.02.206.003.04.004.082.004.122.002.094.004-.154-.002-.004a3.342 3.342 0 0 1-.06.516c-.016.089-.038.177-.06.265-.006.026-.043.163-.015.067a.456.456 0 0 0-.005.014c-.01.032-.017.062-.028.093a7.526 7.526 0 0 1-.22.603c-.184.443-.405.873-.648 1.287-.017.031-.036.059-.052.09-.057.098.023-.04-.016.022-.039.06-.074.12-.11.181-.082.131-.167.261-.251.389-.192.288-.393.572-.599.852l1.025.144a12.589 12.589 0 0 0-3.317-5.071 11.576 11.576 0 0 0-1.29-1.042l-.143 1.025a19.876 19.876 0 0 1 1.733-.559c.056-.013.116-.03.172-.042.129-.03.257-.061.385-.086a9.066 9.066 0 0 1 1.362-.184c.097-.004.197-.005.295-.007.067-.003-.067 0-.067 0 .02.006.054.001.075.001.055.002.112.004.166.008.177.01.356.032.53.069l.111.025a.263.263 0 0 1 .047.012c.094.022-.061-.017-.064-.018.075.029.153.049.228.078.078.029.152.063.225.101.017.008.034.02.05.028.066.03-.127-.084-.05-.031.031.02.062.039.092.061.066.049.125.1.188.154.067.058-.102-.117-.017-.014.038.035.066.07.095.104.192.248.587.325.84.118.25-.204.323-.573.119-.84-.479-.626-1.237-.926-2.003-1.012-.972-.11-1.964.048-2.903.285-.697.175-1.382.394-2.057.644-.409.152-.51.77-.144 1.025a11.934 11.934 0 0 1 1.628 1.371c.006.004.067.067.022.021-.045-.048.015.018.02.021l.127.136a11.86 11.86 0 0 1 1.531 2.06l.04.07c-.006-.007-.044-.08-.01-.02l.09.161a11.868 11.868 0 0 1 .791 1.808c.146.423.766.495 1.024.144.693-.939 1.342-1.935 1.799-3.01.338-.789.599-1.676.496-2.539a2.44 2.44 0 0 0-.454-1.166c-.186-.254-.591-.323-.841-.118-.25.21-.317.57-.115.84z"/>
            </g>
            <path fill="#3483B0" fill-rule="nonzero" d="M356.01 301.605a.21.21 0 0 1 .17-.145l2.17-.302.993-2.04a.205.205 0 0 1 .188-.118c.079.001.15.049.185.123l.945 2.063 2.164.356a.21.21 0 0 1 .166.15.224.224 0 0 1-.056.221l-1.585 1.577.344 2.259a.221.221 0 0 1-.085.211.202.202 0 0 1-.219.014l-1.926-1.088-1.95 1.04a.2.2 0 0 1-.218-.02.222.222 0 0 1-.08-.212l.395-2.25-1.55-1.616a.224.224 0 0 1-.05-.223zm5.953.676a4.948 4.948 0 0 0-.363-.192l.177.377.186-.185zm-1.07-.61l-.055-.01.07.064a.358.358 0 0 1-.016-.055zm-1.654-1.38c.035.009.069.025.1.05l.127.105a8.323 8.323 0 0 1-.192-.228l-.035.073zm-.242.497l-.183.375c.263.161.518.337.767.524a24.61 24.61 0 0 0-.584-.899zm-.843.835c.35.293.69.599 1.018.914a12.769 12.769 0 0 0-.223-.28c-.189-.228-.402-.424-.576-.665l-.219.03zm-.245.727a23.98 23.98 0 0 0-.284-.378.343.343 0 0 1-.075-.265l-.198.027c.184.207.37.412.557.616zm3.031 1.216a.278.278 0 0 1-.197-.077 13.03 13.03 0 0 0-.49-.437c.28.41.544.83.8 1.254l-.113-.74zm-1.117.499c.136.19.271.382.404.575.05.073.061.145.046.21l.63.355a21.868 21.868 0 0 0-1.08-1.14zm-.9.135c.053.115.096.232.12.35a.309.309 0 0 1 .007.07l.202-.108-.33-.312zm-.45.588c.013.035.028.07.043.106l.003.009.072-.038a9.193 9.193 0 0 0-.119-.077zm1.05-5.08l-.033.066c.015.014.03.03.043.048l.124.18-.134-.295zm2.323 2.112c.101.091.197.19.285.294l.213-.212-.498-.082zm-.458 1.032a35.483 35.483 0 0 0-.95-.878c.239.368.48.735.735 1.093l.215-.215zm-3.634 2.466h-.002a.433.433 0 0 1-.06-.02l-.01.058.072-.038zm-1.04-3.4l-.006-.01a.363.363 0 0 1-.04-.079l-.035.005.081.084z" opacity=".397"/>
            <path fill="#D4EBF9" fill-rule="nonzero" d="M84.017 299.094a.33.33 0 0 1 .266-.229l3.411-.474 1.56-3.204a.322.322 0 0 1 .294-.187.326.326 0 0 1 .29.194l1.487 3.241 3.4.56c.122.02.223.11.26.234a.351.351 0 0 1-.086.349l-2.493 2.478.542 3.55a.348.348 0 0 1-.134.331.317.317 0 0 1-.344.022l-3.026-1.71-3.065 1.635a.315.315 0 0 1-.343-.03.349.349 0 0 1-.126-.335l.621-3.535-2.435-2.54a.351.351 0 0 1-.079-.35zm9.353 1.062a7.776 7.776 0 0 0-.57-.302l.279.592.291-.29zm-1.671-.969l-.067-.01.087.079a.452.452 0 0 1-.02-.069zm-2.61-2.159c.056.015.11.04.157.078l.2.166a13.08 13.08 0 0 1-.301-.358l-.055.114zm-.38.782l-.287.59c.413.252.814.53 1.205.823-.298-.477-.6-.95-.918-1.413zm-1.324 1.312a31.7 31.7 0 0 1 1.6 1.436 20.066 20.066 0 0 0-.35-.438c-.297-.36-.633-.668-.907-1.046l-.343.048zM87 300.264c-.147-.199-.296-.397-.447-.593a.539.539 0 0 1-.117-.417l-.311.043c.29.324.58.647.875.967zm4.763 1.91a.437.437 0 0 1-.31-.12 20.475 20.475 0 0 0-.769-.686c.438.644.854 1.303 1.257 1.97l-.178-1.164zm-1.755.785c.213.3.425.601.634.904.08.115.096.228.072.329l.99.559a34.365 34.365 0 0 0-1.696-1.792zm-1.416.212c.085.18.152.364.191.55.008.037.01.074.01.11l.318-.17a59.606 59.606 0 0 1-.519-.49zm-.707.924c.022.056.045.111.069.166l.005.014.112-.06-.186-.12zm1.65-7.984l-.05.105a.482.482 0 0 1 .067.076c.066.093.13.187.195.281l-.211-.462zm3.652 3.32c.159.144.309.298.447.463l.335-.334-.782-.128zm-.72 1.623c-.49-.47-.988-.93-1.494-1.38a49.27 49.27 0 0 0 1.156 1.716l.339-.336zm-5.707 3.861h-.002a.528.528 0 0 1-.074-.025l-.013.073.09-.048zm-1.635-5.36c-.002-.005-.005-.008-.008-.012a.456.456 0 0 1-.047-.099l-.045.006.1.104z" opacity=".397"/>
            <path fill="#FFA190" fill-rule="nonzero" d="M325.006 381.489a.12.12 0 0 1 .097-.083l1.24-.173.567-1.165a.117.117 0 0 1 .108-.068c.045 0 .086.028.105.07l.54 1.18 1.237.202a.12.12 0 0 1 .095.086.128.128 0 0 1-.032.127l-.906.9.197 1.292a.126.126 0 0 1-.049.12.115.115 0 0 1-.125.008l-1.1-.622-1.115.595a.115.115 0 0 1-.125-.011.127.127 0 0 1-.046-.122l.227-1.285-.886-.924a.128.128 0 0 1-.029-.127zm3.401.386a2.827 2.827 0 0 0-.207-.11l.101.215.106-.105zm-.625-.337l-.054-.009.07.064a.356.356 0 0 1-.016-.055zm-.931-.8c.02.005.04.014.057.028l.072.06a4.757 4.757 0 0 1-.11-.13l-.02.041zm-.139.284l-.104.214c.15.092.296.193.438.3a14.064 14.064 0 0 0-.334-.514zm-.481.477c.2.167.394.342.582.522a7.3 7.3 0 0 0-.128-.16c-.108-.13-.23-.242-.33-.38l-.124.018zm-.14.415a13.707 13.707 0 0 0-.163-.216.196.196 0 0 1-.042-.151l-.113.016c.105.117.21.235.318.351zm1.732.695a.159.159 0 0 1-.113-.044 7.445 7.445 0 0 0-.28-.25c.16.235.311.474.458.717l-.065-.423zm-.638.285l.23.329a.146.146 0 0 1 .027.12l.36.203a12.497 12.497 0 0 0-.617-.652zm-.515.077c.03.066.055.133.07.2a.176.176 0 0 1 .003.04l.115-.062-.188-.178zm-.29.336l.037.095.003.008.06-.034a7.756 7.756 0 0 0-.1-.069zm.63-2.903l-.02.038a.178.178 0 0 1 .025.028l.075.102-.08-.168zm1.33 1.207c.058.053.113.109.163.169l.122-.122-.284-.047zm-.26.59c-.18-.17-.36-.338-.544-.502.137.21.275.42.42.625l.123-.123zm-2.084 1.427h-.002a.434.434 0 0 1-.06-.02l-.01.058.072-.038zm-.592-1.92l-.006-.01a.361.361 0 0 1-.04-.078l-.035.005.081.083zM20.006 347.489a.12.12 0 0 1 .097-.083l1.24-.173.567-1.165a.117.117 0 0 1 .108-.068c.045 0 .086.028.105.07l.54 1.18 1.237.202a.12.12 0 0 1 .095.086.128.128 0 0 1-.032.127l-.906.9.197 1.292a.126.126 0 0 1-.049.12.115.115 0 0 1-.125.008l-1.1-.622-1.115.595a.115.115 0 0 1-.125-.011.127.127 0 0 1-.046-.122l.227-1.285-.886-.924a.128.128 0 0 1-.029-.127zm3.401.386a2.827 2.827 0 0 0-.207-.11l.101.215.106-.105zm-.625-.337l-.054-.009.07.064a.356.356 0 0 1-.016-.055zm-.931-.8c.02.005.04.014.057.028l.072.06a4.757 4.757 0 0 1-.11-.13l-.02.041zm-.139.284l-.104.214c.15.092.296.193.438.3a14.062 14.062 0 0 0-.334-.514zm-.481.477c.2.167.394.342.582.522a7.3 7.3 0 0 0-.128-.16c-.108-.13-.23-.242-.33-.38l-.124.018zm-.14.415a13.706 13.706 0 0 0-.163-.216.196.196 0 0 1-.042-.151l-.113.016c.105.117.21.235.318.351zm1.732.695a.159.159 0 0 1-.113-.044 7.445 7.445 0 0 0-.28-.25c.16.235.311.474.458.717l-.065-.423zm-.638.285l.23.329a.146.146 0 0 1 .027.12l.36.203a12.497 12.497 0 0 0-.617-.652zm-.515.077c.03.066.055.133.07.2a.176.176 0 0 1 .003.04l.115-.062a21.66 21.66 0 0 1-.188-.178zm-.29.336l.037.095.003.008.06-.034a7.753 7.753 0 0 0-.1-.069zm.63-2.903l-.02.038a.178.178 0 0 1 .025.028l.075.102-.08-.168zm1.33 1.207c.058.053.113.109.163.169l.122-.122-.284-.047zm-.26.59c-.18-.17-.36-.338-.544-.502.137.21.275.42.42.625l.123-.123zm-2.084 1.427h-.002a.434.434 0 0 1-.06-.02l-.01.058.072-.038zm-.592-1.92l-.006-.01a.361.361 0 0 1-.04-.078l-.035.005.081.083z" opacity=".397"/>
            <path fill="#FFF" fill-rule="nonzero" d="M76.006 357.489a.12.12 0 0 1 .097-.083l1.24-.173.567-1.165a.117.117 0 0 1 .108-.068c.045 0 .086.028.105.07l.54 1.18 1.237.202a.12.12 0 0 1 .095.086.128.128 0 0 1-.032.127l-.906.9.197 1.292a.126.126 0 0 1-.049.12.115.115 0 0 1-.125.008l-1.1-.622-1.115.595a.115.115 0 0 1-.125-.011.127.127 0 0 1-.046-.122l.227-1.285-.886-.924a.128.128 0 0 1-.029-.127zm3.401.386a2.827 2.827 0 0 0-.207-.11l.101.215.106-.105zm-.625-.337l-.054-.009.07.064a.356.356 0 0 1-.016-.055zm-.931-.8c.02.005.04.014.057.028l.072.06a4.757 4.757 0 0 1-.11-.13l-.02.041zm-.139.284l-.104.214c.15.092.296.193.438.3a14.062 14.062 0 0 0-.334-.514zm-.481.477c.2.167.394.342.582.522a7.3 7.3 0 0 0-.128-.16c-.108-.13-.23-.242-.33-.38l-.124.018zm-.14.415a13.706 13.706 0 0 0-.163-.216.196.196 0 0 1-.042-.151l-.113.016c.105.117.21.235.318.351zm1.732.695a.159.159 0 0 1-.113-.044 7.445 7.445 0 0 0-.28-.25c.16.235.311.474.458.717l-.065-.423zm-.638.285l.23.329a.146.146 0 0 1 .027.12l.36.203a12.497 12.497 0 0 0-.617-.652zm-.515.077c.03.066.055.133.07.2a.176.176 0 0 1 .003.04l.115-.062-.188-.178zm-.29.336l.037.095.003.008.06-.034a7.753 7.753 0 0 0-.1-.069zm.63-2.903l-.02.038a.178.178 0 0 1 .025.028l.075.102-.08-.168zm1.33 1.207c.058.053.113.109.163.169l.122-.122-.284-.047zm-.26.59c-.18-.17-.36-.338-.544-.502.137.21.275.42.42.625l.123-.123zm-2.084 1.427h-.002a.434.434 0 0 1-.06-.02l-.01.058.072-.038zm-.592-1.92l-.006-.01a.361.361 0 0 1-.04-.078l-.035.005.081.083z" opacity=".397"/>
            <path fill="#FFA190" fill-rule="nonzero" d="M95.006 281.489a.12.12 0 0 1 .097-.083l1.24-.173.567-1.165a.117.117 0 0 1 .108-.068c.045 0 .086.028.105.07l.54 1.18 1.237.202a.12.12 0 0 1 .095.086.128.128 0 0 1-.032.127l-.906.9.197 1.292a.126.126 0 0 1-.049.12.115.115 0 0 1-.125.008l-1.1-.622-1.115.595a.115.115 0 0 1-.125-.011.127.127 0 0 1-.046-.122l.227-1.285-.886-.924a.128.128 0 0 1-.029-.127zm3.401.386a2.827 2.827 0 0 0-.207-.11l.101.215.106-.105zm-.625-.337l-.054-.009.07.064a.356.356 0 0 1-.016-.055zm-.931-.8c.02.005.04.014.057.028l.072.06a4.757 4.757 0 0 1-.11-.13l-.02.041zm-.139.284l-.104.214c.15.092.296.193.438.3a14.062 14.062 0 0 0-.334-.514zm-.481.477c.2.167.394.342.582.522a7.3 7.3 0 0 0-.128-.16c-.108-.13-.23-.242-.33-.38l-.124.018zm-.14.415a13.706 13.706 0 0 0-.163-.216.196.196 0 0 1-.042-.151l-.113.016c.105.117.21.235.318.351zm1.732.695a.159.159 0 0 1-.113-.044 7.445 7.445 0 0 0-.28-.25c.16.235.311.474.458.717l-.065-.423zm-.638.285l.23.329a.146.146 0 0 1 .027.12l.36.203a12.497 12.497 0 0 0-.617-.652zm-.515.077c.03.066.055.133.07.2a.176.176 0 0 1 .003.04l.115-.062-.188-.178zm-.29.336l.037.095.003.008.06-.034a7.753 7.753 0 0 0-.1-.069zm.63-2.903l-.02.038a.178.178 0 0 1 .025.028l.075.102-.08-.168zm1.33 1.207c.058.053.113.109.163.169l.122-.122-.284-.047zm-.26.59c-.18-.17-.36-.338-.544-.502.137.21.275.42.42.625l.123-.123zm-2.084 1.427h-.002a.434.434 0 0 1-.06-.02l-.01.058.072-.038zm-.592-1.92l-.006-.01a.361.361 0 0 1-.04-.078l-.035.005.081.083z" opacity=".835"/>
            <path fill="#FD0" d="M138.02 89.465a.364.364 0 0 1-.464-.168c-.028-.055-.062-.108-.09-.163-.008-.015-.011-.032-.019-.048-.062-.117-.133-.227-.198-.342-.08-.142-.158-.284-.243-.422-.082-.134-.17-.261-.256-.391-.099-.15-.196-.299-.3-.443-.073-.1-.149-.195-.223-.293a15.164 15.164 0 0 0-.39-.498c-.048-.057-.097-.11-.145-.167-.17-.198-.34-.392-.516-.578l-.023-.024c-2.608-2.745-5.986-4.309-8.033-4.309h-.003c-.033 0-.065 0-.096.002h-.013-.003a2.673 2.673 0 0 0-.34.032c-.021.003-.041.009-.063.013-.094.018-.183.039-.265.066l-.018.006a1.74 1.74 0 0 0-.512.262 8.68 8.68 0 0 1 4.727-8.252c.231-.119.5-.157.754-.108.309.059.634.133.966.215.258.064.521.134.79.212.135.038.272.08.409.122a30.66 30.66 0 0 1 1.82.617 39.615 39.615 0 0 1 1.32.52c.149.062.298.128.447.191.235.102.47.205.707.312a42.265 42.265 0 0 1 1.59.756 43.848 43.848 0 0 1 2.974 1.637c.227.137.399.36.484.628a8.717 8.717 0 0 1-4.775 10.615m-1.265.3a.38.38 0 0 1-.26.212 8.72 8.72 0 0 1-1.995.231 8.66 8.66 0 0 1-8.489-6.765.81.81 0 0 1 .089-.614.81.81 0 0 1 .347-.294l.052-.02a1.227 1.227 0 0 1 .254-.073 1.806 1.806 0 0 1 .358-.03c1.029 0 2.73.555 4.492 1.646.128.08.257.158.385.245h.003c1.54 1.036 3.065 2.466 4.193 4.206.04.061.083.12.121.183.087.138.165.283.246.425.07.125.142.248.209.376a.354.354 0 0 1-.005.271M134.5 72.792c3.122 0 6.022 1.688 7.59 4.378l-.015-.008a43.756 43.756 0 0 0-1.122-.627l-.186-.1a45.36 45.36 0 0 0-1.077-.558l-.263-.13a44.546 44.546 0 0 0-1.06-.506c-.063-.03-.126-.057-.19-.085-.339-.154-.676-.302-1.013-.445-.058-.024-.115-.05-.173-.073-1.642-.688-3.237-1.231-4.646-1.575a8.703 8.703 0 0 1 2.155-.271m9.05 5.816a1.923 1.923 0 0 0-.8-1.043.754.754 0 0 0 .007-.76A9.524 9.524 0 0 0 134.5 72c-.815 0-1.625.104-2.408.31a.764.764 0 0 0-.556.573c-.033-.007-.067-.015-.1-.02a1.968 1.968 0 0 0-1.263.18 9.467 9.467 0 0 0-5.155 9.04.765.765 0 0 0 .296.557c-.12.3-.15.643-.075.979A9.447 9.447 0 0 0 134.5 91c.732 0 1.464-.085 2.176-.252a1.16 1.16 0 0 0 .745-.566c.144.062.296.105.455.105.156 0 .314-.032.465-.098a9.508 9.508 0 0 0 5.209-11.58" opacity=".835"/>
        </g>
    </g>
</svg>
