<svg xmlns="http://www.w3.org/2000/svg" width="375" height="150" viewBox="0 0 375 150">
    <defs>
        <linearGradient id="a" x1=".108%" x2="102%" y1="42.017%" y2="58.16%">
            <stop offset="0%" stop-color="#231553"/>
            <stop offset="100%" stop-color="#64578F"/>
        </linearGradient>
        <linearGradient id="b" x1="50%" x2="50%" y1="0%" y2="100%">
            <stop offset="0%" stop-color="#B2DCF4"/>
            <stop offset="100%" stop-color="#619EC1"/>
        </linearGradient>
    </defs>
    <g fill="none" fill-rule="evenodd">
        <path fill="url(#a)" d="M0 0h375v150H0z"/>
        <path fill="#3483B0" fill-rule="nonzero" d="M45.972 105.327a.532.532 0 0 0-.436-.353l-5.581-.734-2.551-4.952A.53.53 0 0 0 36.92 99a.535.535 0 0 0-.475.3l-2.433 5.01-5.562.863a.532.532 0 0 0-.427.363c-.06.192-.005.4.142.539l4.078 3.83-.886 5.485a.523.523 0 0 0 .218.513.539.539 0 0 0 .563.034l4.953-2.643 5.014 2.527a.54.54 0 0 0 .563-.047.524.524 0 0 0 .206-.518l-1.017-5.463 3.985-3.924a.521.521 0 0 0 .129-.542zm-15.305 1.641c.302-.168.615-.321.933-.466l-.456.914-.477-.448zm2.735-1.497l.11-.017-.143.123a.67.67 0 0 0 .033-.106zm4.27-3.337a.696.696 0 0 0-.256.121l-.328.256c.168-.18.331-.366.493-.553l.09.176zm.622 1.208l.47.911c-.675.392-1.331.82-1.971 1.273.486-.737.982-1.468 1.501-2.184zm2.167 2.028a51 51 0 0 0-2.617 2.22c.188-.229.378-.455.573-.678.485-.555 1.034-1.032 1.482-1.616l.562.074zm.63 1.766c.24-.308.484-.614.73-.917a.8.8 0 0 0 .193-.645l.509.067c-.474.5-.95 1-1.433 1.495zm-7.795 2.952a.74.74 0 0 0 .509-.186c.412-.367.832-.718 1.257-1.06a65.453 65.453 0 0 0-2.057 3.045l.291-1.8zm2.873 1.213c-.35.463-.696.928-1.038 1.396-.13.178-.157.353-.118.508l-1.62.864a54.528 54.528 0 0 1 2.776-2.768zm2.316.326c-.138.28-.248.564-.312.852a.709.709 0 0 0-.015.169l-.52-.263c.283-.251.566-.503.847-.758zm1.157 1.429a7.09 7.09 0 0 1-.112.257c-.003.007-.005.015-.009.022l-.182-.093c.1-.063.202-.125.303-.186zm-2.7-12.338l.083.161a.76.76 0 0 0-.11.118c-.108.144-.213.29-.32.434l.347-.713zm-5.975 5.13c-.26.222-.505.461-.732.715l-.549-.515 1.281-.2zm1.177 2.508a89.487 89.487 0 0 1 2.445-2.133 76.03 76.03 0 0 1-1.891 2.653l-.554-.52zm9.339 5.967h.004a.9.9 0 0 0 .12-.038l.022.112-.146-.074zm2.676-8.284l.012-.019a.69.69 0 0 0 .079-.152l.073.01-.164.16zM346.962 129.56a.712.712 0 0 0-.58-.478l-7.442-.993-3.402-6.699a.712.712 0 0 0-1.277.015l-3.243 6.778-7.416 1.168a.713.713 0 0 0-.38 1.22l5.437 5.183-1.182 7.421a.713.713 0 0 0 1.042.74l6.604-3.576 6.686 3.418a.712.712 0 0 0 1.024-.763l-1.356-7.392 5.314-5.309a.713.713 0 0 0 .171-.732zm-20.406 2.22c.403-.226.82-.435 1.244-.63l-.609 1.237-.635-.606zm3.647-2.025l.146-.023-.19.166a.916.916 0 0 0 .044-.143zm5.692-4.515a.922.922 0 0 0-.34.164c-.147.114-.292.23-.438.346.224-.244.442-.495.658-.747l.12.237zm.83 1.635l.626 1.232c-.9.53-1.774 1.109-2.627 1.722a80.573 80.573 0 0 1 2.001-2.954zm2.89 2.743a68.264 68.264 0 0 0-3.49 3.003c.251-.31.505-.615.764-.917.647-.75 1.378-1.396 1.976-2.186l.75.1zm.839 2.39c.32-.418.646-.832.975-1.242.235-.292.3-.6.256-.872l.679.09c-.631.678-1.267 1.353-1.91 2.023zM330.062 136a.978.978 0 0 0 .677-.251c.55-.497 1.11-.972 1.677-1.435a88.644 88.644 0 0 0-2.742 4.12l.388-2.434zm3.83 1.641c-.465.627-.929 1.256-1.384 1.89-.173.24-.21.477-.157.687l-2.16 1.169a73.245 73.245 0 0 1 3.7-3.746zm3.089.442a5.239 5.239 0 0 0-.417 1.152.973.973 0 0 0-.02.228l-.695-.355c.38-.34.757-.68 1.132-1.025zm1.542 1.933a9.665 9.665 0 0 1-.15.347l-.011.03-.244-.125c.134-.085.27-.169.405-.252zm-3.6-16.693l.11.219c-.05.045-.1.096-.146.158-.144.195-.285.392-.427.588l.462-.965zm-7.966 6.942c-.348.3-.675.623-.977.966l-.732-.697 1.709-.269zm1.568 3.392c1.07-.982 2.157-1.944 3.261-2.886-.821 1.21-1.65 2.415-2.523 3.59l-.738-.704zm12.452 8.073h.006c.057-.014.11-.032.16-.052l.029.152-.195-.1zm3.568-11.208l.017-.025a.938.938 0 0 0 .104-.206l.097.013-.218.218z" opacity=".835"/>
        <path fill="#D4EBF9" fill-rule="nonzero" d="M60.986 131.35a.27.27 0 0 0-.218-.187l-2.79-.389-1.276-2.621a.263.263 0 0 0-.241-.153.267.267 0 0 0-.238.159l-1.216 2.652-2.781.457a.271.271 0 0 0-.214.192.287.287 0 0 0 .071.286l2.039 2.027-.443 2.904a.284.284 0 0 0 .11.272.26.26 0 0 0 .28.017l2.477-1.399 2.507 1.338c.09.048.2.039.281-.025a.285.285 0 0 0 .103-.274l-.508-2.892 1.993-2.078a.288.288 0 0 0 .064-.286zm-7.653.869c.152-.09.308-.17.467-.247l-.228.484-.239-.237zm1.368-.793l.055-.01-.071.066a.37.37 0 0 0 .016-.056zm2.135-1.767a.34.34 0 0 0-.128.064l-.164.136c.084-.096.166-.194.247-.293l.045.093zm.311.64l.235.482c-.338.207-.666.434-.986.674.244-.39.491-.777.751-1.156zm1.083 1.073c-.45.377-.885.77-1.308 1.175.094-.12.19-.24.286-.358.243-.294.517-.547.741-.856l.281.04zm.315.935c.12-.163.242-.325.366-.485a.44.44 0 0 0 .096-.342l.254.036c-.236.265-.475.529-.716.791zm-3.897 1.563c.09 0 .18-.028.254-.098.207-.195.417-.38.63-.562a34.842 34.842 0 0 0-1.03 1.612l.146-.952zm1.436.642a64.52 64.52 0 0 0-.519.74.328.328 0 0 0-.058.268l-.81.458c.444-.508.91-.993 1.387-1.466zm1.159.173a2.108 2.108 0 0 0-.157.45.397.397 0 0 0-.007.09l-.26-.139.424-.4zm.578.756a3.871 3.871 0 0 1-.056.136l-.004.012-.092-.049.152-.099zm-1.35-6.532l.042.086a.394.394 0 0 0-.055.062l-.16.23.173-.378zm-2.987 2.717a3.85 3.85 0 0 0-.367.378l-.274-.273.64-.105zm.588 1.327c.401-.384.809-.76 1.223-1.13-.308.474-.619.946-.946 1.405l-.277-.275zm4.67 3.16l.002-.001a.432.432 0 0 0 .06-.02l.01.06-.073-.04zm1.337-4.387l.007-.01a.373.373 0 0 0 .039-.08l.036.005-.082.085z" opacity=".835"/>
        <path fill="#FFA190" fill-rule="nonzero" d="M322.958 68.677a.802.802 0 0 0-.653-.54l-8.373-1.123-3.827-7.573a.8.8 0 0 0-1.437.017l-3.648 7.662-8.343 1.32a.809.809 0 0 0-.428 1.38l6.117 5.858-1.33 8.39a.807.807 0 0 0 .792.932.8.8 0 0 0 .381-.097l7.43-4.042 7.52 3.865c.272.139.599.111.844-.072a.809.809 0 0 0 .31-.792l-1.527-8.355 5.979-6.002a.809.809 0 0 0 .193-.828zM300 71.187c.454-.257.923-.492 1.4-.713l-.685 1.398-.715-.685zm4.104-2.29l.163-.026-.213.188c.021-.055.038-.109.05-.162zm6.403-5.104a1.035 1.035 0 0 0-.383.186c-.165.129-.328.26-.492.39.251-.276.497-.559.74-.844l.135.268zm.934 1.848l.704 1.393a38.544 38.544 0 0 0-2.956 1.947 91.109 91.109 0 0 1 2.252-3.34zm3.25 3.1a76.9 76.9 0 0 0-3.926 3.395c.283-.349.569-.695.86-1.035.728-.85 1.55-1.579 2.223-2.472l.843.113zm.944 2.702c.362-.471.727-.94 1.098-1.403.264-.33.338-.677.288-.986l.763.102c-.71.766-1.425 1.53-2.149 2.287zm-11.69 4.515c.268.002.538-.082.762-.285a49.687 49.687 0 0 1 1.887-1.621 100.245 100.245 0 0 0-3.086 4.657l.436-2.751zm4.308 1.855c-.523.709-1.044 1.42-1.557 2.136-.194.271-.236.54-.176.776l-2.43 1.322a82.607 82.607 0 0 1 4.163-4.234zm3.475.5a5.94 5.94 0 0 0-.469 1.301 1.105 1.105 0 0 0-.022.259l-.781-.401c.426-.385.85-.77 1.272-1.16zm1.735 2.184c-.054.132-.109.263-.168.393l-.013.034-.274-.141c.15-.097.303-.192.455-.286zm-4.05-18.87l.125.247c-.057.051-.113.11-.165.18-.162.22-.32.442-.48.664l.52-1.091zm-8.962 7.848c-.39.339-.758.704-1.099 1.092l-.823-.788 1.922-.304zm1.765 3.834a135.043 135.043 0 0 1 3.668-3.263 116.284 116.284 0 0 1-2.838 4.058l-.83-.795zm14.008 9.126h.007c.064-.016.124-.036.18-.058l.032.17-.219-.112zm4.014-12.67l.02-.028c.051-.077.088-.155.117-.233l.109.015-.246.246zM107.978 69.839a.413.413 0 0 0-.339-.27l-4.34-.562-1.985-3.786a.413.413 0 0 0-.375-.22.417.417 0 0 0-.37.228l-1.892 3.83-4.326.661a.412.412 0 0 0-.332.278.395.395 0 0 0 .11.412l3.172 2.929-.69 4.195a.397.397 0 0 0 .17.392.424.424 0 0 0 .438.026l3.853-2.021 3.9 1.932c.14.07.31.056.437-.036a.397.397 0 0 0 .16-.396l-.79-4.178 3.099-3a.394.394 0 0 0 .1-.414zm-11.904 1.255c.235-.129.479-.247.726-.357l-.355.699-.37-.342zm2.128-1.146l.085-.013-.111.094a.506.506 0 0 0 .026-.08zm3.32-2.551a.545.545 0 0 0-.199.092l-.255.196c.13-.138.258-.28.384-.423l.07.135zm.485.923l.365.697c-.525.3-1.035.627-1.533.973a45.49 45.49 0 0 1 1.168-1.67zm1.685 1.55a39.503 39.503 0 0 0-2.036 1.698c.147-.174.295-.347.446-.518.377-.424.804-.789 1.153-1.235l.437.056zm.49 1.351c.187-.235.376-.47.568-.7a.604.604 0 0 0 .15-.494l.395.051c-.368.383-.738.765-1.114 1.143zm-6.063 2.258c.14.001.28-.04.396-.142.32-.281.647-.55.978-.811a50.01 50.01 0 0 0-1.6 2.328l.226-1.375zm2.235.927c-.272.355-.542.71-.808 1.068a.448.448 0 0 0-.091.389l-1.26.66a42.064 42.064 0 0 1 2.159-2.117zm1.801.25a2.902 2.902 0 0 0-.243.651.533.533 0 0 0-.012.13l-.405-.201c.222-.192.442-.385.66-.58zm.9 1.093a5.374 5.374 0 0 1-.087.196l-.007.017-.142-.07c.078-.049.157-.096.236-.143zm-2.1-9.436l.065.124a.586.586 0 0 0-.086.09c-.084.11-.166.221-.249.332l.27-.546zm-4.647 3.924c-.203.17-.393.352-.57.546l-.426-.393.996-.153zm.915 1.918a69.267 69.267 0 0 1 1.902-1.632c-.479.684-.962 1.365-1.471 2.03l-.43-.398zm7.264 4.563h.003a.709.709 0 0 0 .094-.03l.016.086-.113-.056zm2.08-6.335l.01-.014a.524.524 0 0 0 .062-.117l.056.007-.127.124z" opacity=".835"/>
        <path fill="#FFF" fill-rule="nonzero" d="M219.994 120.489a.12.12 0 0 0-.097-.083l-1.24-.173-.567-1.165a.117.117 0 0 0-.108-.068.118.118 0 0 0-.105.07l-.54 1.18-1.237.202a.12.12 0 0 0-.095.086.128.128 0 0 0 .032.127l.906.9-.197 1.292a.126.126 0 0 0 .049.12.115.115 0 0 0 .125.008l1.1-.622 1.115.595c.04.021.088.017.125-.011a.127.127 0 0 0 .046-.122l-.227-1.285.886-.924a.128.128 0 0 0 .029-.127zm-3.401.386c.067-.04.136-.076.207-.11l-.101.215-.106-.105zm.625-.337l.054-.009-.07.064a.356.356 0 0 0 .016-.055zm.931-.8a.151.151 0 0 0-.057.028l-.072.06c.037-.042.073-.086.11-.13l.02.041zm.139.284l.104.214c-.15.092-.296.193-.438.3.108-.174.218-.346.334-.514zm.481.477c-.2.167-.394.342-.582.522a7.3 7.3 0 0 1 .128-.16c.108-.13.23-.242.33-.38l.124.018zm.14.415c.053-.072.108-.144.163-.216.039-.05.05-.104.042-.151l.113.016c-.105.117-.21.235-.318.351zm-1.732.695c.04 0 .08-.013.113-.044.092-.086.185-.169.28-.25-.16.235-.311.474-.458.717l.065-.423zm.638.285l-.23.329a.146.146 0 0 0-.027.12l-.36.203c.198-.226.405-.442.617-.652zm.515.077a.937.937 0 0 0-.07.2.176.176 0 0 0-.003.04l-.115-.062.188-.178zm.29.336a2.775 2.775 0 0 1-.037.095l-.003.008-.06-.034.1-.069zm-.63-2.903l.02.038a.178.178 0 0 0-.025.028l-.075.102.08-.168zm-1.33 1.207a1.711 1.711 0 0 0-.163.169l-.122-.122.284-.047zm.26.59c.18-.17.36-.338.544-.502-.137.21-.275.42-.42.625l-.123-.123zm2.084 1.427h.002a.434.434 0 0 0 .06-.02l.01.058-.072-.038zm.592-1.92l.006-.01a.361.361 0 0 0 .04-.078l.035.005-.081.083zM207.994 126.489a.12.12 0 0 0-.097-.083l-1.24-.173-.567-1.165a.117.117 0 0 0-.108-.068.118.118 0 0 0-.105.07l-.54 1.18-1.237.202a.12.12 0 0 0-.095.086.128.128 0 0 0 .032.127l.906.9-.197 1.292a.126.126 0 0 0 .049.12.115.115 0 0 0 .125.008l1.1-.622 1.115.595c.04.021.088.017.125-.011a.127.127 0 0 0 .046-.122l-.227-1.285.886-.924a.128.128 0 0 0 .029-.127zm-3.401.386c.067-.04.136-.076.207-.11l-.101.215-.106-.105zm.625-.337l.054-.009-.07.064a.356.356 0 0 0 .016-.055zm.931-.8a.151.151 0 0 0-.057.028l-.072.06c.037-.042.073-.086.11-.13l.02.041zm.139.284l.104.214c-.15.092-.296.193-.438.3.108-.174.218-.346.334-.514zm.481.477c-.2.167-.394.342-.582.522a7.3 7.3 0 0 1 .128-.16c.108-.13.23-.242.33-.38l.124.018zm.14.415c.053-.072.108-.144.163-.216.039-.05.05-.104.042-.151l.113.016c-.105.117-.21.235-.318.351zm-1.732.695c.04 0 .08-.013.113-.044.092-.086.185-.169.28-.25-.16.235-.311.474-.458.717l.065-.423zm.638.285l-.23.329a.146.146 0 0 0-.027.12l-.36.203c.198-.226.405-.442.617-.652zm.515.077a.937.937 0 0 0-.07.2.176.176 0 0 0-.003.04l-.115-.062.188-.178zm.29.336a2.775 2.775 0 0 1-.037.095l-.003.008-.06-.034.1-.069zm-.63-2.903l.02.038a.178.178 0 0 0-.025.028l-.075.102.08-.168zm-1.33 1.207a1.711 1.711 0 0 0-.163.169l-.122-.122.284-.047zm.26.59c.18-.17.36-.338.544-.502-.137.21-.275.42-.42.625l-.123-.123zm2.084 1.427h.002a.434.434 0 0 0 .06-.02l.01.058-.072-.038zm.592-1.92l.006-.01a.361.361 0 0 0 .04-.078l.035.005-.081.083zM95.994 95.489a.12.12 0 0 0-.097-.083l-1.24-.173-.567-1.165a.117.117 0 0 0-.108-.068.118.118 0 0 0-.105.07l-.54 1.18-1.237.202a.12.12 0 0 0-.095.086.128.128 0 0 0 .032.127l.906.9-.197 1.292a.126.126 0 0 0 .049.12.115.115 0 0 0 .125.008l1.1-.622 1.115.595c.04.021.088.017.125-.011a.127.127 0 0 0 .046-.122l-.227-1.285.886-.924a.128.128 0 0 0 .029-.127zm-3.401.386c.067-.04.136-.076.207-.11l-.101.215-.106-.105zm.625-.337l.054-.009-.07.064a.356.356 0 0 0 .016-.055zm.931-.8a.151.151 0 0 0-.057.028l-.072.06c.037-.042.073-.086.11-.13l.02.041zm.139.284l.104.214c-.15.092-.296.193-.438.3.108-.174.218-.346.334-.514zm.481.477c-.2.167-.394.342-.582.522l.128-.16c.108-.13.23-.242.33-.38l.124.018zm.14.415a13.7 13.7 0 0 1 .163-.216c.039-.05.05-.104.042-.151l.113.016a31.6 31.6 0 0 1-.318.351zm-1.732.695c.04 0 .08-.013.113-.044.092-.086.185-.169.28-.25-.16.235-.311.474-.458.717l.065-.423zm.638.285l-.23.329a.146.146 0 0 0-.027.12l-.36.203c.198-.226.405-.442.617-.652zm.515.077a.937.937 0 0 0-.07.2.176.176 0 0 0-.003.04l-.115-.062.188-.178zm.29.336a2.775 2.775 0 0 1-.037.095l-.003.008-.06-.034.1-.069zm-.63-2.903l.02.038a.178.178 0 0 0-.025.028l-.075.102.08-.168zm-1.33 1.207a1.711 1.711 0 0 0-.163.169l-.122-.122.284-.047zm.26.59c.18-.17.36-.338.544-.502-.137.21-.275.42-.42.625l-.123-.123zm2.084 1.427h.002a.434.434 0 0 0 .06-.02l.01.058-.072-.038zm.592-1.92l.006-.01a.361.361 0 0 0 .04-.078l.035.005-.081.083zM350.994 62.489a.12.12 0 0 0-.097-.083l-1.24-.173-.567-1.165a.117.117 0 0 0-.108-.068.118.118 0 0 0-.105.07l-.54 1.18-1.237.202a.12.12 0 0 0-.095.086.128.128 0 0 0 .032.127l.906.9-.197 1.292a.126.126 0 0 0 .049.12.115.115 0 0 0 .125.008l1.1-.622 1.115.595c.04.021.088.017.125-.011a.127.127 0 0 0 .046-.122l-.227-1.285.886-.924a.128.128 0 0 0 .029-.127zm-3.401.386c.067-.04.136-.076.207-.11l-.101.215-.106-.105zm.625-.337l.054-.009-.07.064a.356.356 0 0 0 .016-.055zm.931-.8a.151.151 0 0 0-.057.028l-.072.06c.037-.042.073-.086.11-.13l.02.041zm.139.284l.104.214c-.15.092-.296.193-.438.3.108-.174.218-.346.334-.514zm.481.477c-.2.167-.394.342-.582.522l.128-.16c.108-.13.23-.242.33-.38l.124.018zm.14.415c.053-.072.108-.144.163-.216.039-.05.05-.104.042-.151l.113.016c-.105.117-.21.235-.318.351zm-1.732.695c.04 0 .08-.013.113-.044.092-.086.185-.169.28-.25-.16.235-.311.474-.458.717l.065-.423zm.638.285l-.23.329a.146.146 0 0 0-.027.12l-.36.203c.198-.226.405-.442.617-.652zm.515.077a.937.937 0 0 0-.07.2.176.176 0 0 0-.003.04l-.115-.062.188-.178zm.29.336a2.775 2.775 0 0 1-.037.095l-.003.008-.06-.034.1-.069zm-.63-2.903l.02.038a.178.178 0 0 0-.025.028l-.075.102.08-.168zm-1.33 1.207a1.711 1.711 0 0 0-.163.169l-.122-.122.284-.047zm.26.59c.18-.17.36-.338.544-.502-.137.21-.275.42-.42.625l-.123-.123zm2.084 1.427h.002a.434.434 0 0 0 .06-.02l.01.058-.072-.038zm.592-1.92l.006-.01a.361.361 0 0 0 .04-.078l.035.005-.081.083z" opacity=".835"/>
        <path fill="url(#b)" fill-rule="nonzero" d="M367 94c0-2.327-.668-4.5-1.82-6.343 1.209-2.219 1.433-3.73.663-4.5-.765-.766-2.28-.54-4.498.664A11.924 11.924 0 0 0 355 82c-2.327 0-4.501.668-6.343 1.82-2.219-1.209-3.731-1.433-4.5-.663-.767.766-.54 2.28.664 4.499A11.925 11.925 0 0 0 343 94c0 2.329.669 4.502 1.821 6.345-1.205 2.218-1.43 3.732-.664 4.498.298.3.709.448 1.229.448.818 0 1.914-.376 3.268-1.113A11.922 11.922 0 0 0 355 106c2.329 0 4.503-.669 6.345-1.822 1.357.737 2.453 1.11 3.272 1.11.52 0 .93-.148 1.226-.445.77-.77.546-2.281-.663-4.5A11.926 11.926 0 0 0 367 94zm-2.28 5c-.93-1.69-2.21-3.577-3.72-5.5 1.51-1.923 2.79-3.81 3.72-5.5a12.297 12.297 0 0 1 1.28 5.5c0 1.996-.466 3.87-1.28 5.5zm.134-14.85c.23.23.29 1.07-.6 2.85A12.129 12.129 0 0 0 362 84.75c1.683-.84 2.586-.867 2.854-.6zM364 87.583c-.074.126-.149.254-.231.388-.946 1.542-2.249 3.266-3.79 5.03a60.402 60.402 0 0 0-1.964-2.06c-2.749-2.751-5.593-5.087-8.015-6.58a10.653 10.653 0 0 1 5.217-1.36c3.629 0 6.84 1.814 8.783 4.582zm-18.85-3.436c.23-.23 1.07-.29 2.85.6A12.12 12.12 0 0 0 345.75 87c-.84-1.683-.867-2.586-.6-2.854zm3.479.854c.127.076.256.153.391.237 2.392 1.487 5.217 3.835 7.956 6.61A60.77 60.77 0 0 1 359 94a61.001 61.001 0 0 1-2.024 2.153c-2.739 2.775-5.564 5.123-7.956 6.61a21.38 21.38 0 0 1-.391.237A11.031 11.031 0 0 1 344 94c0-3.718 1.833-7.01 4.629-9zm-3.478 18.854c-.268-.268-.241-1.17.6-2.854a12.104 12.104 0 0 0 2.249 2.253c-1.78.892-2.62.83-2.85.601zm4.849-.214c2.422-1.494 5.266-3.829 8.016-6.58a60.63 60.63 0 0 0 1.963-2.06c1.541 1.764 2.844 3.489 3.79 5.03.082.134.157.262.231.388-1.943 2.768-5.154 4.582-8.783 4.582-1.893 0-3.671-.495-5.217-1.36zm14.854.21c-.268.267-1.17.24-2.854-.6a12.127 12.127 0 0 0 2.253-2.25c.891 1.78.83 2.62.601 2.85z" opacity=".835" transform="rotate(16 355 94)"/>
        <path fill="#FD0" d="M138.02 89.465a.364.364 0 0 1-.464-.168c-.028-.055-.062-.108-.09-.163-.008-.015-.011-.032-.019-.048-.062-.117-.133-.227-.198-.342-.08-.142-.158-.284-.243-.422-.082-.134-.17-.261-.256-.391-.099-.15-.196-.299-.3-.443-.073-.1-.149-.195-.223-.293a15.164 15.164 0 0 0-.39-.498c-.048-.058-.097-.11-.145-.167-.17-.198-.34-.392-.516-.578l-.023-.024c-2.608-2.745-5.986-4.309-8.033-4.309h-.003c-.033 0-.065 0-.096.002h-.013-.003a2.673 2.673 0 0 0-.34.032c-.021.003-.041.009-.063.013-.094.018-.183.039-.265.066l-.018.006a1.74 1.74 0 0 0-.511.262 8.68 8.68 0 0 1 4.727-8.252c.23-.119.499-.157.753-.108.309.059.634.133.966.215.258.064.521.134.79.212.135.038.272.08.409.122a30.66 30.66 0 0 1 1.82.617 39.615 39.615 0 0 1 1.32.52c.149.062.298.128.447.191.235.102.47.205.707.312a42.265 42.265 0 0 1 1.59.756c.358.179.713.363 1.066.552l.166.09a42.338 42.338 0 0 1 1.742.995c.227.137.399.36.484.628a8.717 8.717 0 0 1-4.775 10.615m-1.265.3a.38.38 0 0 1-.26.212 8.72 8.72 0 0 1-1.995.231 8.66 8.66 0 0 1-8.489-6.765.81.81 0 0 1 .089-.614.81.81 0 0 1 .347-.294l.052-.02a1.227 1.227 0 0 1 .254-.073 1.806 1.806 0 0 1 .358-.03c1.029 0 2.73.555 4.491 1.646.13.08.258.158.386.244l.003.002c1.54 1.035 3.065 2.465 4.193 4.205.04.061.083.12.121.183.087.138.165.283.246.425.07.125.142.248.209.376a.354.354 0 0 1-.005.271M134.5 72.792c3.122 0 6.022 1.688 7.59 4.378l-.015-.008a43.756 43.756 0 0 0-1.122-.627l-.186-.1a45.36 45.36 0 0 0-1.077-.558l-.263-.13a44.546 44.546 0 0 0-1.06-.506c-.063-.03-.126-.057-.19-.085-.339-.154-.676-.302-1.013-.445-.058-.024-.115-.05-.173-.073-1.642-.688-3.237-1.231-4.646-1.575a8.703 8.703 0 0 1 2.155-.271m9.05 5.816a1.923 1.923 0 0 0-.8-1.043.754.754 0 0 0 .007-.76A9.524 9.524 0 0 0 134.5 72c-.815 0-1.625.104-2.408.31a.764.764 0 0 0-.556.573c-.033-.007-.067-.015-.1-.02a1.968 1.968 0 0 0-1.263.18 9.467 9.467 0 0 0-5.155 9.04.765.765 0 0 0 .296.557c-.12.3-.15.643-.075.979A9.447 9.447 0 0 0 134.5 91c.732 0 1.464-.085 2.176-.252a1.16 1.16 0 0 0 .745-.566c.144.062.296.105.455.105.156 0 .314-.032.465-.098a9.508 9.508 0 0 0 5.209-11.58" opacity=".835"/>
    </g>
</svg>
