<svg xmlns="http://www.w3.org/2000/svg" width="85" height="85" viewBox="0 0 85 85">
    <g fill="none" fill-rule="evenodd">
        <circle cx="42.5" cy="42.5" r="42.5" fill="#FF9582"/>
        <g fill-rule="nonzero">
            <g fill="#A06446">
                <path d="M22.024 31.133L18 27.92s3.22-14.495 17.707-6.447l-13.683 9.659zM63.878 31.133l4.025-3.212s-3.22-14.495-17.708-6.447l13.683 9.659z"/>
            </g>
            <path fill="#BE7D55" d="M57.44 60.914H28.462c-5.334 0-9.658-4.325-9.658-9.659V38.377c0-9.78 7.928-17.708 17.707-17.708H49.39c9.78 0 17.708 7.928 17.708 17.708v12.878a9.659 9.659 0 0 1-9.659 9.659z"/>
            <g fill="#FFDEB7">
                <path d="M50.664 20.72c-.421-.03-.845-.05-1.274-.05H36.512c-.428 0-.852.02-1.273.05 7.236 1.553-.336 12.847-.336 19.267H51c0-6.42-7.572-17.714-.336-19.267zM42.951 48.84H31.683v14.488s5.634 2.415 7.244 2.415c1.61 0 2.415-.805 4.024-.805 1.61 0 2.415.805 4.025.805 1.61 0 7.244-2.415 7.244-2.415V48.84H42.95z"/>
            </g>
            <path fill="#FFEBD2" d="M56.634 64.938a3.22 3.22 0 0 0 3.22-3.22V53.67c0-9.335-7.568-16.903-16.903-16.903-9.335 0-16.902 7.568-16.902 16.903v8.048a3.22 3.22 0 0 0 6.439 0v-3.22a8.049 8.049 0 0 1 8.049-8.048h4.829a8.049 8.049 0 0 1 8.049 8.049v3.22a3.22 3.22 0 0 0 3.22 3.219z"/>
            <g fill="#464655" transform="translate(28.429 33.522)">
                <circle cx="2.047" cy="2.037" r="2.012"/>
                <circle cx="26.998" cy="2.037" r="2.012"/>
                <path d="M24.986 28.196v-4.024a8.049 8.049 0 0 0-8.049-8.05c-.889 0-1.61-.72-1.61-1.609v-3.22h.403a2.817 2.817 0 1 0 0-5.634h-2.415a2.817 2.817 0 1 0 0 5.634h.403v3.22c0 .889-.721 1.61-1.61 1.61a8.049 8.049 0 0 0-8.049 8.049v4.024c0 .64-.192 1.232-.513 1.733.312.13.853.355 1.51.615a4.796 4.796 0 0 0 .613-2.348v-3.22a6.44 6.44 0 0 1 6.439-6.439h4.829a6.439 6.439 0 0 1 6.44 6.44v3.219c0 .852.223 1.652.612 2.348.657-.26 1.198-.484 1.51-.615a3.198 3.198 0 0 1-.513-1.733z"/>
            </g>
            <path fill="#FFB2C1" d="M29.221 38.291h-1.664a.754.754 0 1 0 0 1.508h1.664a.754.754 0 1 0 0-1.508zM57.424 38.291h-1.665a.754.754 0 1 0 0 1.508h1.665a.754.754 0 1 0 0-1.508z"/>
        </g>
    </g>
</svg>
