<svg xmlns="http://www.w3.org/2000/svg" width="85" height="85" viewBox="0 0 85 85">
    <g fill="none" fill-rule="evenodd">
        <circle cx="42.5" cy="42.5" r="42.5" fill="#486EC7"/>
        <g fill-rule="nonzero">
            <path fill="#FFA83F" d="M62.727 15.093a1.77 1.77 0 0 1 1.601.755c1.924 2.78 7.352 12.633-.326 26.721L48.299 25.838s5.134-9.996 14.428-10.745z"/>
            <path fill="#FFB2C1" d="M52.01 29.19l7.607 12.447c4.897-8.985 3.545-15.726 1.993-19.352a1.292 1.292 0 0 0-1.673-.69c-4.801 1.945-7.74 7.25-7.926 7.596zm-.004.026l.012-.02h-.001l-.01.02z"/>
            <path fill="#FFA83F" d="M23.27 15.093a1.77 1.77 0 0 0-1.6.755c-1.924 2.78-7.353 12.633.326 26.721l15.703-16.731s-5.134-9.996-14.428-10.745z"/>
            <path fill="#F39C18" d="M66.053 38.155c-1.304-3.313-3.172-6.614-5.849-9.376a21.805 21.805 0 0 0-9.961-5.92c-1.281 1.688-1.944 2.979-1.944 2.979l15.703 16.731a36.687 36.687 0 0 0 2.05-4.414zM21.996 42.57l15.703-16.732s-.663-1.29-1.944-2.98c-3.841 1.07-7.176 3.048-9.962 5.921-2.676 2.761-4.544 6.063-5.847 9.376a36.678 36.678 0 0 0 2.05 4.414z"/>
            <path fill="#FFB2C1" d="M26.061 21.595a1.293 1.293 0 0 0-1.673.69c-1.553 3.626-2.904 10.367 1.993 19.352l7.607-12.446c-.187-.346-3.126-5.65-7.927-7.596zm7.933 7.6l.01.021-.01-.02z"/>
            <g fill="#FF889E">
                <path d="M52.006 29.216l.012-.02h-.001l-.01.02z"/>
                <path d="M62.872 32.062a24.737 24.737 0 0 0-2.668-3.283 22.033 22.033 0 0 0-4.983-3.868c-1.959 2.014-3.097 4.069-3.21 4.28l7.607 12.446c1.94-3.563 2.9-6.772 3.254-9.575zM33.994 29.195l.01.021-.01-.02zM25.793 28.78a24.697 24.697 0 0 0-2.666 3.282c.353 2.803 1.312 6.012 3.254 9.575l7.607-12.446c-.114-.211-1.252-2.266-3.212-4.28a22.033 22.033 0 0 0-4.983 3.868z"/>
            </g>
            <path fill="#F8B459" d="M31.167 69.437c-6.37-1.81-10.841-5.905-10.841-14.615 0 0-.916-29.544 22.673-29.544s22.673 29.544 22.673 29.544c0 8.71-4.472 12.805-10.841 14.615H31.167z"/>
            <path fill="#FFA83F" d="M31.167 69.437h3.36c-6.37-1.81-10.842-5.905-10.842-14.615 0 0-.871-28.122 20.993-29.491a26.62 26.62 0 0 0-1.679-.053c-23.59 0-22.673 29.544-22.673 29.544 0 .136 0 .27.003.405.137 8.432 4.568 12.428 10.838 14.21z"/>
            <path fill="#F9E09D" d="M60.52 55.586c0 4.6-1.32 9.956-5.688 13.851-3.512.998-7.6 1.302-11.833 1.302-4.232 0-8.322-.304-11.832-1.302-4.369-3.895-5.688-9.25-5.688-13.851 0-5.437 6.834-6.984 10.148-7.416a2.289 2.289 0 0 0 1.948-1.848c.392-2.05 1.617-5.241 5.424-5.241 3.808 0 5.032 3.19 5.425 5.241.186.972.965 1.72 1.947 1.848 3.314.432 10.148 1.979 10.148 7.416z"/>
            <path fill="#F8B459" d="M34.526 69.437c-2.224-.632-4.216-1.543-5.867-2.831a16.005 16.005 0 0 0 2.508 2.831c.658.187 1.336.35 2.033.491 3.016.61 6.36.811 9.799.811.563 0 1.123-.006 1.68-.018-3.63-.075-7.109-.418-10.153-1.284z"/>
            <path fill="#423E4F" d="M46.019 49.521a.542.542 0 0 0-.547-.531h-4.946a.542.542 0 0 0-.546.531v.005c0 1.322 1.352 2.394 3.019 2.394 1.668 0 3.02-1.072 3.02-2.394v-.005zM33.4 42.457a.84.84 0 0 0-.839.84v1.794a.84.84 0 1 0 1.68 0v-1.794a.84.84 0 0 0-.84-.84z"/>
            <path fill="#FF889E" d="M28.446 46.443h-1.808a.84.84 0 0 0 0 1.68h1.808a.84.84 0 0 0 0-1.68z"/>
            <path fill="#423E4F" d="M52.597 42.457a.84.84 0 0 0-.84.84v1.794a.84.84 0 0 0 1.68 0v-1.794a.84.84 0 0 0-.84-.84z"/>
            <path fill="#FF889E" d="M59.36 46.443h-1.807a.84.84 0 0 0 0 1.68h1.807a.84.84 0 0 0 0-1.68z"/>
            <path fill="#423E4F" d="M47.789 53.93a.84.84 0 0 0-1.185.08c-.362.413-.903.65-1.486.65a1.962 1.962 0 0 1-1.487-.65.85.85 0 0 0-.632-.286.849.849 0 0 0-.632.286c-.361.413-.903.65-1.487.65a1.963 1.963 0 0 1-1.486-.65.84.84 0 1 0-1.264 1.105 3.642 3.642 0 0 0 2.75 1.224c.774 0 1.512-.234 2.12-.659.606.425 1.344.66 2.118.66 1.067 0 2.07-.447 2.75-1.225a.84.84 0 0 0-.08-1.185z"/>
        </g>
    </g>
</svg>
