<svg xmlns="http://www.w3.org/2000/svg" width="30" height="32" viewBox="0 0 30 32">
    <path fill="#E8735E" fill-rule="evenodd" d="M15.929 27.646a4.289 4.289 0 0 1-.647-1.592 4.677 4.677 0 0 1 .014-1.542c.12-.559.31-1.04.578-1.457.167-.26.543-.713.713-.859l.153-.13-4.595-4.55-4.595-4.55-.15.168c-.314.354-.993.816-1.488 1.013-.627.249-.934.306-1.654.304-.52 0-.618-.01-.924-.08-1.48-.346-2.644-1.39-3.119-2.795-.155-.46-.21-.81-.21-1.339 0-.529.055-.879.21-1.34.21-.62.564-1.188 1.028-1.648.273-.27.351-.333.75-.597.344-.229.93-.463 1.423-.57.312-.067 1.089-.094 1.413-.047.755.107 1.43.382 2.026.825.131.098.246.177.256.177.01 0-.023-.045-.073-.101a5.471 5.471 0 0 1-.541-.834 4.768 4.768 0 0 1-.375-1.127 5.152 5.152 0 0 1 0-1.486 4.294 4.294 0 0 1 1.185-2.245c.273-.27.352-.334.75-.597.344-.229.93-.463 1.423-.57.312-.068 1.089-.094 1.414-.048 1.477.21 2.708 1.105 3.318 2.411.28.602.395 1.128.394 1.807-.003 1.033-.319 1.885-1.012 2.73-.21.255-.753.72-1.003.858a.403.403 0 0 0-.13.097c-.005.017 2.097 2.117 4.673 4.668l4.683 4.637.137-.21a4.162 4.162 0 0 1 1.66-1.48c.74-.366 1.135-.457 1.96-.456.52.001.62.01.925.081 1.48.346 2.644 1.39 3.119 2.794.156.46.21.81.21 1.34 0 .528-.054.878-.21 1.339a4.242 4.242 0 0 1-1.028 1.648c-.273.271-.351.334-.749.597-.345.23-.93.464-1.424.57-.312.068-1.089.094-1.413.048a4.39 4.39 0 0 1-2.005-.809 2.343 2.343 0 0 0-.24-.164c-.01 0 .043.079.116.175.434.57.713 1.19.836 1.858a5.152 5.152 0 0 1 0 1.486 4.294 4.294 0 0 1-1.185 2.244c-.273.271-.351.334-.749.598-.344.228-.927.461-1.424.57-.313.068-1.22.087-1.532.032-1.231-.218-2.23-.858-2.892-1.852z"/>
</svg>
