<svg xmlns="http://www.w3.org/2000/svg" width="23" height="24" viewBox="0 0 23 24">
    <path fill="#A2D5F2" fill-rule="evenodd" d="M12.212 21.403a3.339 3.339 0 0 1-.496-1.232 3.656 3.656 0 0 1 .01-1.194c.092-.432.239-.806.444-1.128.128-.202.416-.552.547-.665l.117-.101-3.523-3.522-3.523-3.522-.114.13c-.241.273-.762.63-1.141.783-.48.193-.717.237-1.268.236-.399 0-.474-.007-.71-.063a3.292 3.292 0 0 1-2.39-2.163 2.935 2.935 0 0 1-.161-1.037c0-.409.042-.68.161-1.036.16-.48.432-.92.788-1.277.209-.21.27-.258.574-.462.265-.177.714-.359 1.092-.441.24-.053.835-.073 1.084-.037a3.33 3.33 0 0 1 1.552.639c.1.076.19.137.197.137.007 0-.018-.035-.056-.078a4.24 4.24 0 0 1-.415-.646 3.716 3.716 0 0 1-.287-.872c-.056-.301-.056-.85 0-1.151.12-.653.442-1.272.908-1.738.21-.21.27-.258.574-.462C6.441.324 6.89.142 7.268.06c.24-.053.835-.073 1.084-.037 1.132.162 2.076.855 2.544 1.866.215.466.303.874.302 1.399-.002.8-.244 1.46-.776 2.113-.16.198-.577.558-.769.665a.309.309 0 0 0-.1.075c-.004.013 1.608 1.64 3.583 3.614l3.59 3.59.106-.162a3.201 3.201 0 0 1 1.273-1.147c.567-.283.87-.354 1.502-.353.399.001.475.008.71.063a3.292 3.292 0 0 1 2.39 2.163c.12.357.162.628.162 1.037 0 .41-.043.68-.162 1.037-.16.48-.432.92-.788 1.276-.209.21-.27.259-.574.463-.265.177-.714.358-1.092.44-.24.053-.835.073-1.083.038a3.347 3.347 0 0 1-1.538-.627 1.795 1.795 0 0 0-.183-.126c-.008 0 .033.06.088.135.333.44.547.92.642 1.438.055.3.055.85 0 1.15a3.335 3.335 0 0 1-.909 1.738c-.21.21-.27.259-.574.463-.264.177-.711.357-1.092.441-.24.053-.936.068-1.174.025-.944-.169-1.71-.664-2.218-1.434z"/>
</svg>
