<svg xmlns="http://www.w3.org/2000/svg" xmlns:xlink="http://www.w3.org/1999/xlink" width="44" height="44" viewBox="0 0 44 44">
    <defs>
        <rect id="a" width="44" height="44" rx="22"/>
        <filter id="b" width="115.9%" height="115.9%" x="-5.7%" y="-5.7%" filterUnits="objectBoundingBox">
            <feOffset dx="1" dy="1" in="SourceAlpha" result="shadowOffsetOuter1"/>
            <feGaussianBlur in="shadowOffsetOuter1" result="shadowBlurOuter1" stdDeviation="1"/>
            <feColorMatrix in="shadowBlurOuter1" values="0 0 0 0 0 0 0 0 0 0 0 0 0 0 0 0 0 0 0.25 0"/>
        </filter>
    </defs>
    <g fill="none" fill-rule="evenodd">
        <mask id="c" fill="#fff">
            <use xlink:href="#a"/>
        </mask>
        <use fill="#000" filter="url(#b)" xlink:href="#a"/>
        <use fill="#B2DCF4" xlink:href="#a"/>
        <g fill="#FF9582" mask="url(#c)">
            <g transform="translate(8 11)">
                <path d="M14.5 19.105c-6.735 0-12.318 5.316-12.767 12.158h25.534c-.45-6.842-6.032-12.158-12.767-12.158zm0-1.737c8.008 0 14.5 6.61 14.5 14.764a.86.86 0 0 1-.853.868H.853A.86.86 0 0 1 0 32.132c0-8.154 6.492-14.764 14.5-14.764zm-6.649-5.644a7.939 7.939 0 0 1 0-7.816C9.223 1.489 11.757 0 14.5 0c4.24 0 7.676 3.5 7.676 7.816s-3.437 7.815-7.676 7.816c-2.743 0-5.277-1.49-6.649-3.908zm6.649 2.17c3.297 0 5.97-2.72 5.97-6.078s-2.673-6.08-5.97-6.08c-3.297 0-5.97 2.722-5.97 6.08 0 3.357 2.673 6.079 5.97 6.079z"/>
                <ellipse cx="14.5" cy="7.7" rx="6.321" ry="6.233"/>
                <path d="M29 32.267c0-7.696-6.492-13.934-14.5-13.934S0 24.571 0 32.267"/>
            </g>
        </g>
    </g>
</svg>
