<svg xmlns="http://www.w3.org/2000/svg" xmlns:xlink="http://www.w3.org/1999/xlink" width="60" height="60" viewBox="0 0 60 60">
    <defs>
        <rect id="a" width="60" height="60" rx="30"/>
    </defs>
    <g fill="none" fill-rule="evenodd">
        <mask id="b" fill="#fff">
            <use xlink:href="#a"/>
        </mask>
        <use fill="#D4EBF9" opacity=".8" xlink:href="#a"/>
        <g fill="#191919" mask="url(#b)">
            <g transform="translate(11 15)">
                <path fill-rule="nonzero" d="M19.5 26.053C10.442 26.052 2.935 33.3 2.33 42.632h34.34c-.605-9.33-8.112-16.58-17.17-16.58zm0-2.369c10.77 0 19.5 9.013 19.5 20.132C39 44.47 38.486 45 37.853 45H1.147C.514 45 0 44.47 0 43.816c0-11.119 8.73-20.132 19.5-20.132zm-8.941-7.697a10.958 10.958 0 0 1 0-10.658C12.403 2.03 15.812-.001 19.5 0c5.701 0 10.323 4.772 10.323 10.658 0 5.886-4.622 10.657-10.323 10.658-3.688 0-7.097-2.031-8.941-5.329zm8.941 2.96c4.435 0 8.03-3.711 8.03-8.29 0-4.577-3.595-8.289-8.03-8.289-4.435 0-8.03 3.712-8.03 8.29 0 4.578 3.595 8.29 8.03 8.29z"/>
                <circle cx="19.5" cy="10.5" r="8.5"/>
                <path d="M39 44c0-10.493-8.73-19-19.5-19S0 33.507 0 44"/>
            </g>
        </g>
    </g>
</svg>
