<svg xmlns="http://www.w3.org/2000/svg" width="23" height="24" viewBox="0 0 23 24">
    <g fill="#A2D5F2" fill-rule="evenodd">
        <path d="M4.459 19.23s-1.913-6.56 6.375-8.022c0 0 7.093-.94 7.042 8.022 0 0-.513 2.925-3.357 1.362 0 0-1.642-2.233-3.942-1.589 0 0-1.73.585-2.869 2.471 0 0-2.237 2.23-3.25-2.244zM10.532 4.858c-.304 2.096-.815 3.969-2.414 4.17C6.52 9.232 5.01 7.692 4.743 5.59c-.266-2.102.815-3.969 2.413-4.171 1.599-.202 3.752.836 3.376 3.44zM17.619 5.215c0 2.302-1.356 4.167-3.028 4.167s-2.929-2.117-3.028-4.167c-.111-2.299 1.356-4.167 3.028-4.167s3.028 1.865 3.028 4.167zM22.26 10.511c0 1.796-1.225 2.723-2.618 3.253-1.352.514-2.618-1.457-2.618-3.253s1.197-2.99 2.618-3.253c1.558-.289 2.618 1.457 2.618 3.253zM.073 10.511c0 1.796 1.225 2.723 2.619 3.253 1.351.514 2.618-1.457 2.618-3.253s-1.197-2.99-2.618-3.253C1.134 6.969.073 8.715.073 10.511z"/>
    </g>
</svg>
