<svg xmlns="http://www.w3.org/2000/svg" xmlns:xlink="http://www.w3.org/1999/xlink" width="44" height="44" viewBox="0 0 44 44">
    <defs>
        <rect id="a" width="44" height="44" rx="22"/>
        <filter id="b" width="115.9%" height="115.9%" x="-5.7%" y="-5.7%" filterUnits="objectBoundingBox">
            <feOffset dx="1" dy="1" in="SourceAlpha" result="shadowOffsetOuter1"/>
            <feGaussianBlur in="shadowOffsetOuter1" result="shadowBlurOuter1" stdDeviation="1"/>
            <feColorMatrix in="shadowBlurOuter1" values="0 0 0 0 0 0 0 0 0 0 0 0 0 0 0 0 0 0 0.25 0"/>
        </filter>
    </defs>
    <g fill="none" fill-rule="evenodd">
        <mask id="c" fill="#fff">
            <use xlink:href="#a"/>
        </mask>
        <use fill="#000" filter="url(#b)" xlink:href="#a"/>
        <use fill="#B2DCF4" xlink:href="#a"/>
        <g mask="url(#c)">
            <path fill="#504281" d="M37.71 23.585c-1.085-1.819-2.611-3.55-3.641-4.457-2.266-1.997-4.161-1.945-5.09-1.736-.372.084-.716.22-1.022.4-1.6-1.169-3.544-1.742-5.89-1.742-2.347 0-4.29.573-5.891 1.742a3.546 3.546 0 0 0-1.023-.4c-.927-.209-2.822-.261-5.088 1.736-1.03.908-2.557 2.638-3.643 4.457-1.48 2.48-1.807 4.491-.97 5.98.986 1.753 2.507 2.243 3.72 2.376-.29 1.147-.468 2.377-.468 3.902 0 2.076.476 3.863 1.414 5.312.825 1.273 2.012 2.292 3.527 3.03 2.364 1.149 5.132 1.437 7.309 1.498v-6.94c-1.348-.636-2.66-2.227-2.66-3.495 0-2.136 2.361-2.136 3.773-2.136 1.411 0 3.773 0 3.773 2.136 0 1.268-1.313 2.86-2.66 3.495v6.94c2.176-.061 4.944-.35 7.308-1.499 1.516-.737 2.702-1.756 3.527-3.03.938-1.448 1.414-3.235 1.414-5.311 0-1.525-.178-2.755-.468-3.902 1.214-.133 2.734-.623 3.72-2.377.837-1.488.51-3.5-.97-5.98zm-19.105 6.293a1.371 1.371 0 0 1-1.365-1.376c0-.76.612-1.375 1.365-1.375s1.366.615 1.366 1.375-.613 1.376-1.366 1.376zm6.913.01c-.76 0-1.376-.62-1.376-1.386 0-.765.616-1.386 1.376-1.386.76 0 1.376.62 1.376 1.386 0 .766-.617 1.387-1.376 1.387z"/>
        </g>
    </g>
</svg>
