<svg xmlns="http://www.w3.org/2000/svg" width="12" height="36" viewBox="0 0 12 36">
    <g fill="none" fill-rule="nonzero" transform="rotate(17 4.654 7.463)">
        <circle cx="13.081" cy="28.743" r="4.938" fill="#A2D5F2"/>
        <path fill="#A2D5F2" d="M10.57 21.41A3.872 3.872 0 0 1 5.8 19.314L.448 7.292A5.184 5.184 0 0 1 3.535.27a5.184 5.184 0 0 1 6.707 3.783l2.874 12.842a3.872 3.872 0 0 1-2.547 4.516z"/>
        <circle cx="13.081" cy="28.743" r="4.938" fill="#E8735E" opacity=".59"/>
        <path fill="#D16855" d="M10.57 21.41A3.872 3.872 0 0 1 5.8 19.314L.448 7.292A5.184 5.184 0 0 1 3.535.27a5.184 5.184 0 0 1 6.707 3.783l2.874 12.842a3.872 3.872 0 0 1-2.547 4.516z" opacity=".588"/>
        <circle cx="12.898" cy="28.199" r="3.962" fill="#FF9582"/>
        <path fill="#FF9582" d="M10.099 19.993a3.552 3.552 0 0 1-4.375-1.923L.812 7.04A4.756 4.756 0 0 1 3.645.596a4.756 4.756 0 0 1 6.154 3.47l2.636 11.783a3.552 3.552 0 0 1-2.336 4.144z"/>
    </g>
</svg>
