<svg xmlns="http://www.w3.org/2000/svg" width="85" height="85" viewBox="0 0 85 85">
    <g fill="none" fill-rule="evenodd">
        <circle cx="42.5" cy="42.5" r="42.5" fill="#FF7021"/>
        <g fill-rule="nonzero">
            <path fill="#5C586F" d="M23.8 15.192a1.535 1.535 0 0 0-.895.453c-1.766 1.813-8.691 10.128-2.082 23.39l17.704-14.77c-2.501-7.318-9.632-9.74-14.726-9.073z"/>
            <path fill="#4F4C5F" d="M23 29.302a27.12 27.12 0 0 0-3.903 5.5c.426 1.349.992 2.76 1.726 4.232l17.704-14.768a13.86 13.86 0 0 0-1.5-3.1A27.033 27.033 0 0 0 23 29.302z"/>
            <path fill="#FFB2C1" d="M26.853 21.36a1.313 1.313 0 0 0-1.249.587c-.49.747-1.017 1.72-1.426 2.896-1.356 3.901-.84 8.293 1.532 13.054l8.348-10.859c-1.303-3.81-4.516-5.363-7.205-5.678z"/>
            <path fill="#5C586F" d="M62.16 15.192c.34.045.655.207.895.453 1.767 1.813 8.691 10.128 2.082 23.39l-17.704-14.77c2.501-7.318 9.632-9.74 14.726-9.073z"/>
            <path fill="#4F4C5F" d="M66.863 34.803a27.12 27.12 0 0 0-3.903-5.501 27.03 27.03 0 0 0-14.027-8.136 13.875 13.875 0 0 0-1.5 3.1l17.704 14.769a29.246 29.246 0 0 0 1.726-4.232z"/>
            <path fill="#FFB2C1" d="M59.107 21.36c.494-.058.976.171 1.249.587a13.19 13.19 0 0 1 1.426 2.896c1.356 3.901.841 8.293-1.531 13.054L51.9 27.038c1.304-3.81 4.517-5.363 7.206-5.678z"/>
            <path fill="#FF889E" d="M62.512 28.825a27.092 27.092 0 0 0-7.869-5.684c-1.156.895-2.147 2.16-2.741 3.897l8.349 10.86c1.596-3.204 2.35-6.24 2.26-9.073zM34.058 27.038c-.594-1.736-1.585-3.003-2.74-3.897a27.092 27.092 0 0 0-7.87 5.684c-.09 2.833.665 5.869 2.262 9.072l8.348-10.859z"/>
            <path fill="#5C586F" d="M40.753 23.952C28.681 25.074 19.23 35.233 19.23 47.599c0 6.98 3.01 13.257 7.805 17.602h31.89C63.72 60.856 66.73 54.58 66.73 47.6c0-12.366-9.45-22.525-21.523-23.647l-2.227 1.462-2.227-1.462z"/>
            <path fill="#4F4C5F" d="M22.572 47.6c0-11.423 8.065-20.962 18.81-23.236l-.628-.412C28.68 25.074 19.23 35.233 19.23 47.599c0 6.98 3.01 13.257 7.805 17.602h3.342c-4.795-4.345-7.805-10.622-7.805-17.602z"/>
            <path fill="#E7E7E7" d="M52.222 34.96c-.207 2.331-1.707 4.198-3.11 5.959-1.497 1.878-2.97 4.032-2.306 6.552l1.92 6.04-5.746 1.808-6.36-1.43 2.534-6.418c.664-2.52-.81-4.674-2.305-6.552-1.404-1.761-2.904-3.628-3.111-5.959-.218-2.443.997-4.816 2.521-6.642 1.34-1.604 2.919-3 4.494-4.366h.001a24.23 24.23 0 0 1 4.452 0c1.576 1.365 3.156 2.762 4.495 4.366 1.524 1.826 2.74 4.199 2.521 6.642zM54.084 65.2c0-2.898-4.972-5.248-11.104-5.248-6.132 0-11.103 2.35-11.103 5.249 0 2.899 4.97 5.249 11.103 5.249 6.132 0 11.104-2.35 11.104-5.25z"/>
            <path fill="#FFB2C1" d="M46.806 47.47c2.03.345 3.992.964 5.804 1.835 3.062 1.476 5.639 3.644 7.453 6.27A8.47 8.47 0 0 1 47.72 66.937a7.723 7.723 0 0 0-2.222-1.28 7.241 7.241 0 0 0-2.518-.455c-1.735 0-3.399.633-4.74 1.735a8.49 8.49 0 0 1-5.382 1.922 8.469 8.469 0 0 1-6.961-13.281c1.815-2.628 4.391-4.796 7.453-6.272a21.818 21.818 0 0 1 5.804-1.834h7.652z"/>
            <path fill="#FF889E" d="M34.974 67.41a8.469 8.469 0 0 1-6.961-13.282 18.293 18.293 0 0 1 3.765-3.977c-2.375 1.41-4.387 3.262-5.881 5.426a8.469 8.469 0 0 0 6.961 13.281 8.49 8.49 0 0 0 5.383-1.921c.218-.18.445-.344.678-.498a8.51 8.51 0 0 1-3.945.971z"/>
            <path fill="#423E4F" d="M46.806 47.47a3.84 3.84 0 0 1-7.652 0 22.741 22.741 0 0 1 7.652 0zM29.902 46.408a.836.836 0 0 1-.835-.836V43.69a.835.835 0 0 1 1.67 0v1.882a.836.836 0 0 1-.835.836z"/>
            <path fill="#FFB2C1" d="M29.194 48.57H27.41a.835.835 0 0 1 0-1.672h1.783a.836.836 0 0 1 0 1.671z"/>
            <path fill="#423E4F" d="M56.058 46.408a.835.835 0 0 1-.835-.836V43.69a.835.835 0 1 1 1.67 0v1.882a.836.836 0 0 1-.835.836z"/>
            <path fill="#FFB2C1" d="M58.549 48.57h-1.782a.836.836 0 0 1 0-1.672h1.782a.836.836 0 1 1 0 1.671z"/>
        </g>
    </g>
</svg>
