<svg xmlns="http://www.w3.org/2000/svg" width="35" height="22" viewBox="0 0 35 22">
    <g fill="none" fill-rule="nonzero">
        <path fill="#000" d="M19.994 5.349a5.09 5.09 0 0 1-4.438-1.107l.638 16.486s1.502 1.626 3.8 1.255V5.349z" opacity=".1"/>
        <path fill="#D5D6DB" d="M1.384 3.458L4.513.63S16.644-.165 17.146 3.96c0 0 4.301-4.89 13.346-3.8l3.827 3.047-10.577 4.642-10.28 3.565-7.57-3.389-4.508-4.566z"/>
        <path fill="#FF8F7C" d="M0 3.458l1.384 16.558 14.672.737-.637-16.487-.012-.277zM34.991 3.105l-15.135 2.27v16.632l14.79-2.137z"/>
        <path fill="#FFF" d="M31.422 7.163l-8.175.91.178 2.785 7.992-.873z" opacity=".3"/>
        <path fill="#E8735E" d="M19.856 5.373a5.09 5.09 0 0 1-4.438-1.107l.638 16.486s1.502 1.626 3.8 1.255V5.373z" opacity=".861"/>
        <path fill="#000" d="M20.21 3.515s6.157-1.883 7.762-1.617M13.323 2.693S7.355 1.279 6.358 1.68M24.092 3.75s4.117-1.51 5.605-.792" opacity=".1"/>
    </g>
</svg>
