<svg xmlns="http://www.w3.org/2000/svg" width="85" height="85" viewBox="0 0 85 85">
    <g fill="none" fill-rule="evenodd">
        <circle cx="42.5" cy="42.5" r="42.5" fill="#FF6F91"/>
        <g fill-rule="nonzero">
            <path fill="#938EA3" d="M30.12 14.14a.944.944 0 0 0-1.088.088c-2.08 1.755-9.62 9.226-6.093 22.822l12.92-14.292s-.839-5.727-5.738-8.618zM55.912 14.14a.944.944 0 0 1 1.089.088c2.079 1.755 9.619 9.226 6.092 22.822l-12.92-14.292s.839-5.727 5.739-8.618z"/>
            <path fill="#77718C" d="M63.953 31.918a28.875 28.875 0 0 0-3.586-5.225c-2.077-2.395-5.156-5.085-9.366-6.692-.653 1.567-.827 2.757-.827 2.757l12.92 14.292c.471-1.82.743-3.53.859-5.132zM25.665 26.693a28.863 28.863 0 0 0-3.585 5.225 28.59 28.59 0 0 0 .86 5.132l12.918-14.292s-.174-1.19-.827-2.757c-4.21 1.607-7.289 4.297-9.366 6.692z"/>
            <path fill="#FFB2C1" d="M29.464 20.189c-1.973 2.422-4.53 7.259-3.89 14.078l6.867-8.936c-.047-.295-.52-3.13-2.217-5.148a.494.494 0 0 0-.76.006zm2.982 5.147l.002.014-.002-.014zM55.808 20.184c-1.697 2.016-2.17 4.852-2.216 5.147l6.866 8.936c.641-6.82-1.917-11.656-3.89-14.078a.494.494 0 0 0-.76-.005zm-2.21 5.152l-.003.014a.075.075 0 0 0 .002-.014z"/>
            <path fill="#E7E7E7" d="M20.263 54.845c2.976 7.03 9.404 16.092 22.753 16.092 13.35 0 19.777-9.063 22.754-16.093v-6.13L55.95 35.047h-26.56l-9.128 13.128v6.669z"/>
            <path fill="#C7C5CB" d="M20.263 54.845c.325.769.692 1.562 1.104 2.365.414.803.872 1.616 1.38 2.424 3.635 5.772 9.84 11.303 20.269 11.303.18 0 .358-.003.535-.005a58.428 58.428 0 0 0 1.183-.047c-12.188-.74-18.19-9.319-21.035-16.041a37.755 37.755 0 0 1-2.172-6.901l-1.264 6.902z"/>
            <g fill="#FF889E">
                <path d="M53.595 25.35a.075.075 0 0 0 .002-.014l-.002.014z"/>
                <path d="M54.728 21.847a12.732 12.732 0 0 0-1.136 3.484l6.866 8.936c.31-3.297-.129-6.13-.887-8.45a24.42 24.42 0 0 0-4.843-3.97zM32.446 25.336l.002.014-.002-.014zM26.461 25.816c-.758 2.321-1.197 5.154-.887 8.45l6.867-8.935a12.725 12.725 0 0 0-1.137-3.484 24.418 24.418 0 0 0-4.843 3.969z"/>
            </g>
            <path fill="#938EA3" d="M67.942 47.943a37.755 37.755 0 0 1-2.172 6.9c-.868-4.324-3.717-6.627-5.731-7.747a5.756 5.756 0 0 1-2.675-3.295c-.81-2.547-2.348-4.76-5.25-4.76-6.833 0-6.108 12.26-6.108 12.26l-2.99 1.772-2.99-1.771s.725-12.261-6.106-12.261c-2.904 0-4.442 2.213-5.252 4.76a5.759 5.759 0 0 1-2.674 3.295c-2.015 1.12-4.863 3.423-5.731 7.748a37.755 37.755 0 0 1-2.172-6.901c-.149-.716.07-1.463.573-1.942l2.005-1.913c.644-.614 1.057-1.468 1.167-2.4.93-7.965 7.99-20.265 21.18-20.265s20.25 12.3 21.181 20.266c.11.93.523 1.785 1.166 2.399L67.368 46c.502.48.722 1.226.574 1.942z"/>
            <path fill="#77718C" d="M22.153 50.463a35.663 35.663 0 0 1-.626-2.52c-.148-.716.071-1.463.574-1.942l2.005-1.914c.643-.614 1.056-1.468 1.166-2.398.889-7.613 7.377-19.183 19.462-20.194a20.497 20.497 0 0 0-1.718-.072c-5.358 0-9.705 2.03-13.04 4.974-2.124 1.876-3.883 4.157-5.245 6.638-1.16 2.114-1.985 4.29-2.472 6.313a19.92 19.92 0 0 0-.423 2.34c-.106.901-.508 1.771-1.167 2.4L18.664 46c-.508.485-.717 1.25-.573 1.942a37.195 37.195 0 0 0 2.172 6.9c.358-1.785 1.054-3.225 1.89-4.38z"/>
            <path fill="#423E4F" d="M46.8 57.01a.86.86 0 0 0-1.212.081 1.269 1.269 0 0 1-.962.419c-.38 0-.73-.153-.963-.419a.868.868 0 0 0-.647-.293.872.872 0 0 0-.647.293 1.27 1.27 0 0 1-.962.419c-.38 0-.73-.153-.962-.419a.859.859 0 1 0-1.294 1.131 2.987 2.987 0 0 0 2.256 1.006 3.03 3.03 0 0 0 1.609-.458c.473.296 1.03.458 1.61.458.875 0 1.697-.367 2.256-1.006a.859.859 0 0 0-.082-1.212zM33.268 44.054a.859.859 0 0 0-.859.86v2.052a.859.859 0 1 0 1.718 0v-2.053a.859.859 0 0 0-.859-.859z"/>
            <path fill="#FFB2C1" d="M32.789 48.91h-2.31a.859.859 0 1 0 0 1.718h2.31a.859.859 0 1 0 0-1.719z"/>
            <path fill="#423E4F" d="M53.623 46.966v-2.053a.859.859 0 1 0-1.718 0v2.053a.859.859 0 1 0 1.718 0z"/>
            <path fill="#FFB2C1" d="M55.553 48.91h-2.31a.859.859 0 1 0 0 1.718h2.31a.859.859 0 1 0 0-1.719z"/>
            <path fill="#423E4F" d="M46.667 51.944a.655.655 0 0 0-.661-.642h-5.98a.655.655 0 0 0-.66.642v.007c0 1.597 1.634 2.893 3.65 2.893 2.017 0 3.65-1.296 3.65-2.893v-.007z"/>
        </g>
    </g>
</svg>
