<svg xmlns="http://www.w3.org/2000/svg" width="210" height="43" viewBox="0 0 210 43">
    <defs>
        <linearGradient id="a" x1="80.603%" x2="2.846%" y1="45.953%" y2="56.235%">
            <stop offset="0%" stop-color="#619EC1"/>
            <stop offset="51.258%" stop-color="#B620E0"/>
            <stop offset="100%" stop-color="#FF7E67"/>
        </linearGradient>
    </defs>
    <g fill="none" fill-rule="evenodd" transform="translate(5)">
        <path fill="#FFF" fill-rule="nonzero" d="M25.303 29.44l-.103-.304a14.446 14.446 0 0 1-.576-2.16 55.12 55.12 0 0 1-.336-2.064 42.684 42.684 0 0 1-.192-8.064c.096-1.344.256-2.672.48-3.984.224-1.312.512-2.624.864-3.936.192-.704.424-1.4.696-2.088.272-.688.632-1.4 1.08-2.136.224-.352.472-.704.744-1.056.272-.352.584-.704.936-1.056A8.307 8.307 0 0 1 31.536.96c1.088-.352 2.16-.464 3.216-.336a7.215 7.215 0 0 1 1.512.336c.464.16.904.352 1.32.576.832.448 1.552.96 2.16 1.536.486.46.932.942 1.336 1.444l.296.38c.256.32.48.64.672.96l.288.48c.096.16.176.32.24.48.192.352.36.688.504 1.008l.456 1.008c.256.672.488 1.344.696 2.016.208.672.392 1.36.552 2.064a27.05 27.05 0 0 1 .528 4.152c.064 1.36.064 2.712 0 4.056-.032.352-.056.688-.072 1.008a7.83 7.83 0 0 1-.12 1.008c-.064.704-.16 1.408-.288 2.112-.16.704-.328 1.4-.504 2.088-.176.688-.44 1.4-.792 2.136-.032.032-.048.064-.048.096 0 .021-.004.04-.01.053l-.014.019c-.016.016-.024.056-.024.12a2.817 2.817 0 0 0-.128.213l-.064.123a6.522 6.522 0 0 1-.24.432c-.064.16-.152.328-.264.504l-.36.552c-.288.384-.624.768-1.008 1.152-.16.192-.344.368-.552.528-.208.16-.408.32-.6.48-.224.16-.44.304-.648.432a2.911 2.911 0 0 1-.6.288c-.352.16-.688.272-1.008.336-.288.064-.448.048-.48-.048-.114-.142-.05-.31.19-.503l.098-.073c.32-.224.624-.496.912-.816.384-.32.592-.592.624-.816.096-.192-.016-.272-.336-.24-.16.032-.312.048-.456.048h-.36c-.213-.053-.349-.107-.407-.16l-.025-.032c-.128-.128 0-.432.384-.912.16-.256.24-.448.24-.576 0-.128-.032-.224-.096-.288a.742.742 0 0 0-.256-.032l-.104.008a4.133 4.133 0 0 1-.456.024c-.416-.064-.624-.304-.624-.72a1.052 1.052 0 0 1 .048-.696c.096-.24.272-.584.528-1.032.256-.352.464-.736.624-1.152.12-.312.231-.642.333-.99l.099-.354c.247-.823.423-1.693.529-2.61l.047-.462c.256-2.24.256-4.416 0-6.528a26.777 26.777 0 0 0-.648-3.072 14.165 14.165 0 0 0-1.08-2.784l-.186-.336-.174-.336a3.24 3.24 0 0 0-.36-.576c-.256-.32-.528-.64-.816-.96-.608-.608-1.136-.944-1.584-1.008a1.212 1.212 0 0 0-.48 0 .57.57 0 0 0-.353.123l-.079.069c-.16.128-.352.336-.576.624-.18.23-.348.502-.507.814l-.117.242a6.795 6.795 0 0 0-.264.6l-.264.696c-.064.32-.128.56-.192.72l-.192.816a31.112 31.112 0 0 0-.624 3.264 39.917 39.917 0 0 0-.336 3.336 29.005 29.005 0 0 0 0 3.336 47.42 47.42 0 0 0 .288 3.312c.128 1.024.352 1.968.672 2.832l.288.576c.064.128.136.256.216.384l.126.192.138.192c.064.096.16.208.288.336.064.085.135.164.213.235l.123.101c.256.224.512.384.768.48l.495.189.129.051c.192.072.375.162.549.27l.171.114c.16.096.296.224.408.384.112.16.088.368-.072.624a.376.376 0 0 0-.072.096c-.016.032-.056.064-.12.096a.712.712 0 0 1-.336.192l-.312.126a4.86 4.86 0 0 1-.138.05l-.126.04c-.16.048-.288.104-.384.168-.16.096-.272.192-.336.288 0 .064.064.16.192.288.096.096.192.144.288.144.32.16.656.256 1.008.288h.96c.256-.032.44-.024.552.024.112.048.04.168-.216.36-.32.288-.632.488-.936.6l-.744.264c-.384.096-.512.256-.384.48.086.23-.035.396-.363.497l-.117.031a2.306 2.306 0 0 1-.72.096c-.288 0-.608-.032-.96-.096a6.479 6.479 0 0 1-1.056-.288 5.423 5.423 0 0 1-1.056-.528 7.695 7.695 0 0 1-1.872-1.392 5.51 5.51 0 0 1-.432-.528 1.744 1.744 0 0 0-.139-.181l-.077-.083a1.727 1.727 0 0 1-.216-.264.838.838 0 0 1-.117-.15l-.051-.09a2.683 2.683 0 0 0-.168-.288 2.04 2.04 0 0 1-.336-.528 12.889 12.889 0 0 1-.905-1.951z"/>
        <ellipse cx="34.5" cy="20" stroke="url(#a)" stroke-width="3" rx="15" ry="4.5" transform="rotate(-23 34.5 20)"/>
        <path fill="#FFF" d="M34.764 1.051a7.215 7.215 0 0 1 1.512.336c.464.16.904.352 1.32.576.832.448 1.552.96 2.16 1.536a14.487 14.487 0 0 1 1.632 1.824c.256.32.48.64.672.96l.288.48c.096.16.176.32.24.48.192.352.36.688.504 1.008l.456 1.008c.256.672.488 1.344.696 2.016.208.672.392 1.36.552 2.064.13.638.238 1.271.323 1.9l-5.945 2.523c-.032-.502-.078-1-.138-1.495a26.777 26.777 0 0 0-.648-3.072 14.165 14.165 0 0 0-1.08-2.784 13.738 13.738 0 0 1-.36-.672 3.24 3.24 0 0 0-.36-.576c-.256-.32-.528-.64-.816-.96-.608-.608-1.136-.944-1.584-1.008a1.212 1.212 0 0 0-.48 0 .597.597 0 0 0-.432.192c-.16.128-.352.336-.576.624-.224.288-.432.64-.624 1.056a6.795 6.795 0 0 0-.264.6c-.08.208-.168.44-.264.696-.064.32-.128.56-.192.72l-.192.816a31.112 31.112 0 0 0-.624 3.264 39.917 39.917 0 0 0-.336 3.336 28.954 28.954 0 0 0-.014 3.075l-6.017 2.555a42.555 42.555 0 0 1-.065-6.854c.096-1.344.256-2.672.48-3.984.224-1.312.512-2.624.864-3.936.192-.704.424-1.4.696-2.088.272-.688.632-1.4 1.08-2.136.224-.352.472-.704.744-1.056.272-.352.584-.704.936-1.056a8.307 8.307 0 0 1 2.64-1.632c1.088-.352 2.16-.464 3.216-.336z"/>
        <path fill="#FFF" fill-rule="nonzero" d="M19.344 11.184c.16.544.264 1.08.312 1.608.048.528.072 1.064.072 1.608a15.76 15.76 0 0 1-.288 3.048 39.161 39.161 0 0 1-.672 2.856 23.401 23.401 0 0 1-1.991 4.74l-.313.54a27.44 27.44 0 0 1-7.44 8.592l-.192.096a2.86 2.86 0 0 1-.384.288l-.416.267-.232.141c-.24.144-.488.28-.744.408a8.594 8.594 0 0 1-1.488.672c-.48.16-.768.16-.864 0-.096-.128-.096-.264 0-.408.096-.144.224-.296.384-.456-.17-.228-.354-.29-.55-.19l-.074.046c-.352.224-.624.352-.816.384-.192.032-.384-.096-.576-.384-.16-.256-.328-.36-.504-.312-.176.048-.36.152-.552.312a1.13 1.13 0 0 1-.432.144.934.934 0 0 1-.552-.072 1.154 1.154 0 0 1-.456-.384c-.128-.176-.192-.424-.192-.744A677.177 677.177 0 0 1 .288 8.592v-.144a.449.449 0 0 1-.107-.01l-.037-.014A.334.334 0 0 0 0 8.4c-.512-.064-.704-.352-.576-.864.032-.064.064-.144.096-.24s.08-.192.144-.288a3.97 3.97 0 0 0 .234-.32l.054-.088c.064-.112.128-.216.192-.312.064-.192.064-.32 0-.384a.356.356 0 0 0-.24-.168.388.388 0 0 0-.24.024c-.256.032-.504.08-.744.144-.24.064-.44.112-.6.144-.16.032-.28.024-.36-.024-.08-.048-.088-.168-.024-.36.077-.205.159-.374.246-.507l.066-.093c.112-.144.2-.28.264-.408.16-.192.144-.368-.048-.528-.16-.16-.184-.352-.072-.576.112-.224.328-.464.648-.72A5.34 5.34 0 0 1 .144 2.16a11.71 11.71 0 0 1 1.2-.48 16.145 16.145 0 0 1 3.12-.648 13.985 13.985 0 0 1 3.168.024c.544.064 1.08.16 1.608.288.528.128 1.064.272 1.608.432 1.056.416 2.016.912 2.88 1.488 1.856 1.216 3.344 2.816 4.464 4.8.256.48.48.984.672 1.512.192.528.352 1.064.48 1.608zm-5.856 4.512c.192-1.344.112-2.56-.24-3.648-.352-1.056-.96-2-1.824-2.832A7.872 7.872 0 0 0 8.4 7.44a6.9 6.9 0 0 0-.96-.216c-.32-.048-.656-.088-1.008-.12v.192a786.455 786.455 0 0 0-.12 10.56c-.016 3.488.008 6.992.072 10.512a17.513 17.513 0 0 0 2.28-2.208c.688-.8 1.32-1.648 1.896-2.544a23.14 23.14 0 0 0 1.92-3.888 4.52 4.52 0 0 0 .117-.33l.051-.174c.032-.117.068-.231.107-.341l.061-.163c.128-.32.224-.656.288-1.008.224-.736.352-1.408.384-2.016zm45.103 19.728a10.745 10.745 0 0 1-3.264-1.776 2.29 2.29 0 0 1-.245-.213l-.115-.123a7.912 7.912 0 0 0-.36-.384l-.36-.36a2.105 2.105 0 0 1-.312-.408 7.041 7.041 0 0 1-.84-1.393l-.12-.287a9.753 9.753 0 0 1-.576-1.656 38.377 38.377 0 0 1-.336-1.512 31.905 31.905 0 0 1-.48-5.616c-.032-1.92.104-3.8.408-5.64a38.05 38.05 0 0 1 1.32-5.448l.24-.666.24-.654c.16-.432.32-.872.48-1.32.16-.448.36-.912.6-1.392.24-.48.52-.96.84-1.44.352-.48.752-.96 1.2-1.44.448-.48.96-.896 1.536-1.248l.456-.264c.144-.08.296-.152.456-.216l.246-.096.258-.096c.176-.064.344-.128.504-.192.352-.128.672-.208.96-.24a4.966 4.966 0 0 1 .96-.096c.192 0 .376-.008.552-.024a1.75 1.75 0 0 1 .504.024c.416 0 .912.064 1.488.192s1.152.32 1.728.576a8.36 8.36 0 0 1 1.632.912c.256.192.48.392.672.6.192.208.368.392.528.552.23.307.41.604.537.89l.087.214a.73.73 0 0 1 .053.15l.019.09c.016.096.04.176.072.24.032.096.048.24.048.432 0 .384-.088.616-.264.696-.176.08-.408-.008-.696-.264a1.758 1.758 0 0 1-.192-.15l-.096-.09A3.133 3.133 0 0 0 68.623 6a1.281 1.281 0 0 0-.336-.24 1.03 1.03 0 0 0-.24-.192l-.432-.144c-.192-.064-.32-.032-.384.096-.064.064-.08.152-.048.264.032.112.064.2.096.264l.128.49.064.23c.064.224.096.416.096.576-.032.288-.176.384-.432.288l-.288-.144a.168.168 0 0 0-.064-.043l-.032-.005c-.032 0-.064-.016-.096-.048l-.144-.072a.334.334 0 0 0-.144-.024c-.16-.032-.32.032-.48.192-.096.128-.256.224-.48.288l-.048.006-.048.018a.334.334 0 0 1-.144.024.534.534 0 0 1-.24-.048c-.16-.032-.336-.072-.528-.12a4.101 4.101 0 0 1-.528-.168c-.512-.16-.96-.192-1.344-.096h-.144l-.144.048h-.144c-.032.032-.064.048-.096.048l-.13.061a.356.356 0 0 1-.11.035l-.096.096a.115.115 0 0 0-.064.021l-.032.027a4.2 4.2 0 0 0-.96 1.104c-.256.48-.544 1.136-.864 1.968a28.88 28.88 0 0 0-2.016 9.312 30.012 30.012 0 0 0 .192 4.8l.144 1.152c.043.128.075.252.096.373l.024.179c.016.176.056.344.12.504.14.56.304.985.493 1.276l.083.116c.128.192.24.32.336.384.16.16.352.288.576.384.48.288.976.448 1.488.48a5.22 5.22 0 0 0 1.728 0l.864-.192c.288-.064.576-.176.864-.336.064-.032.144-.064.24-.096.128-.032.32-.128.576-.288v-1.44c-.021-.555-.04-1.102-.053-1.643l-.02-.805c-.015-.8-.055-1.568-.12-2.304a31.18 31.18 0 0 0-1.14-.043l-.563-.005c-.56 0-1.128-.016-1.704-.048h-.144a3.038 3.038 0 0 0-.456-.072.88.88 0 0 1-.408-.12c-.128-.032-.208-.144-.24-.336-.128-.224-.112-.464.048-.72 0-.064.032-.128.096-.192.192-.192.28-.36.264-.504-.016-.144-.04-.232-.072-.264-.064-.16-.136-.272-.216-.336-.08-.064-.088-.176-.024-.336.096-.224.168-.352.216-.384.038-.026.061-.102.069-.23l.003-.106c0-.288.072-.48.216-.576a.744.744 0 0 1 .408-.144c1.344.064 2.656.104 3.936.12 1.28.016 2.592-.008 3.936-.072.064 0 .16.016.288.048.064.032.144.064.24.096s.176.08.24.144a.82.82 0 0 1 .504.384c.112.192.184.368.216.528.256 1.312.416 2.584.48 3.816.064 1.232.096 2.408.096 3.528l.096 6.768c0 .256-.032.48-.096.672-.064.16-.136.32-.216.48-.08.16-.2.24-.36.24-.192 0-.336-.032-.432-.096L70.5 34.8l-.126-.096a1.482 1.482 0 0 0-.264-.168c-.096-.048-.24-.04-.432.024-.352.128-.624.2-.816.216-.192.016-.384-.056-.576-.216 0-.032-.08-.08-.24-.144-.896.48-1.848.864-2.856 1.152a10.276 10.276 0 0 1-3.144.384c-1.088 0-2.24-.176-3.456-.528zM77.528 28.608c-.288-.8-.464-1.552-.528-2.256-.064-.672 0-1.072.192-1.2.16-.064.32.048.48.336l.48.864c.16.32.32.552.48.696.16.144.288.072.384-.216.192-.576.384-.912.576-1.008.16-.064.4.128.72.576.352.448.584.584.696.408.112-.176.232-.408.36-.696.192-.352.496-.464.912-.336.378.087.756.439 1.135 1.055l.113.193c.352.64.8 1.192 1.344 1.656.544.464 1.088.776 1.632.936.544.16 1.128.2 1.752.12a3.823 3.823 0 0 0 1.704-.648c.448-.32.864-.752 1.248-1.296.32-.576.528-1.2.624-1.872a6.318 6.318 0 0 0-.048-2.064c-.16-.704-.4-1.264-.72-1.68a7.087 7.087 0 0 0-.288-.36 2.097 2.097 0 0 0-.336-.312 3.834 3.834 0 0 0-.68-.513l-.184-.111a10.818 10.818 0 0 0-1.128-.624 32.81 32.81 0 0 0-1.272-.576l-1.488-.624c-.48-.16-1.024-.4-1.632-.72l-.587-.33-.301-.174a7.718 7.718 0 0 1-.597-.384l-.291-.216a8.052 8.052 0 0 1-.912-.744 8.66 8.66 0 0 1-.816-.888 7.575 7.575 0 0 1-1.117-1.87l-.131-.338a8.652 8.652 0 0 1-.576-2.256c-.192-1.504-.016-3.024.528-4.56a8.16 8.16 0 0 1 1.056-2.112 9.613 9.613 0 0 1 1.632-1.776 8.965 8.965 0 0 1 1.992-1.272 8.563 8.563 0 0 1 2.28-.696 5.746 5.746 0 0 1 1.296-.144l.42.006c.152.004.316.01.492.018.352.016.704.072 1.056.168.352.064.704.16 1.056.288.352.128.704.272 1.056.432.704.32 1.32.704 1.848 1.152.528.448.936.848 1.224 1.2.288.352.512.688.672 1.008.128.256.215.492.261.707l.027.157c.064.352.024.592-.12.72s-.392.08-.744-.144l-.312-.216a6.193 6.193 0 0 0-.408-.264c-.512-.352-.88-.544-1.104-.576-.224-.032-.368-.016-.432.048s-.072.16-.024.288l.066.168.054.12c.128.288.248.568.36.84.112.272.192.504.24.696.048.192.048.328 0 .408-.048.08-.168.072-.36-.024a11.205 11.205 0 0 1-.495-.261l-.129-.075a9.937 9.937 0 0 1-.384-.24c-.256-.064-.432 0-.528.192-.128.192-.296.272-.504.24a3.545 3.545 0 0 1-.696-.192l-.259-.099-.533-.213c-.272-.112-.504-.2-.696-.264a2.789 2.789 0 0 0-1.536-.048 3.164 3.164 0 0 0-1.392.768 2.473 2.473 0 0 0-.48.672.997.997 0 0 0-.107.213l-.037.123c-.032.128-.08.272-.144.432a3.17 3.17 0 0 0 0 1.728c.032.256.112.496.24.72.064.064.096.112.096.144.021.021.036.04.043.053l.005.019c0 .016.016.04.048.072l.24.24c.448.384 1.088.768 1.92 1.152l3.024 1.296c.544.256 1.112.544 1.704.864.592.32 1.176.704 1.752 1.152A9.42 9.42 0 0 1 95.624 18c.256.32.496.648.72.984.168.252.318.508.45.77l.126.262c.352.704.608 1.416.768 2.136.16.72.272 1.448.336 2.184.096 1.44-.08 2.88-.528 4.32l-.064.165-.256.726a8.162 8.162 0 0 1-.064.165l-.24.528-.288.48c-.064.16-.152.328-.264.504a5.733 5.733 0 0 1-.36.504l-.36.456c-.112.144-.232.28-.36.408a9.798 9.798 0 0 1-3.792 2.64 10.593 10.593 0 0 1-4.56.72 9.91 9.91 0 0 1-2.352-.48 10.612 10.612 0 0 1-2.112-.96 10.364 10.364 0 0 1-1.776-1.344 17.15 17.15 0 0 1-1.488-1.584 2.348 2.348 0 0 0-.144-.24 3.631 3.631 0 0 1-.216-.24 1.427 1.427 0 0 1-.216-.384l-.528-.96a9.604 9.604 0 0 1-.528-1.152zm36.12-2.832a1.757 1.757 0 0 1-.816 0 4.821 4.821 0 0 1-.96-.096l-.48-.096a2.663 2.663 0 0 1-.32-.085l-.16-.059a1.881 1.881 0 0 1-.432-.192c.032 1.344.048 2.688.048 4.032v4.032c0 .544-.032 1.024-.096 1.44-.064.352-.144.68-.24.984-.096.304-.224.472-.384.504-.16.032-.288-.024-.384-.168l-.144-.222-.144-.234a1.994 1.994 0 0 0-.288-.384c-.096-.096-.224-.08-.384.048-.352.256-.632.4-.84.432-.208.032-.392-.112-.552-.432-.192-.288-.368-.4-.528-.336-.16.064-.352.176-.576.336-.096.064-.24.104-.432.12a.977.977 0 0 1-.528-.096c-.16-.08-.304-.224-.432-.432s-.192-.488-.192-.84c0-4.192-.032-8.36-.096-12.504l-.192-12.504h-.192a.69.69 0 0 1-.528-.12c-.16-.112-.256-.296-.288-.552 0-.224.032-.4.096-.528.16-.608.176-.976.048-1.104a.326.326 0 0 0-.24-.096.534.534 0 0 0-.24.048 2.71 2.71 0 0 0-.624.264c-.192.112-.36.2-.504.264-.144.064-.256.08-.336.048-.08-.032-.12-.144-.12-.336a3.83 3.83 0 0 1 .092-.507l.113-.37.035-.131c.064-.192-.016-.352-.24-.48-.192-.096-.272-.264-.24-.504.032-.24.144-.504.336-.792a5.11 5.11 0 0 1 .744-.864c.228-.216.46-.405.698-.567l.238-.153a16.541 16.541 0 0 1 1.824-1.056 13.618 13.618 0 0 1 2.786-1l.478-.104a12.085 12.085 0 0 1 5.26-.09l.404.09c1.856.384 3.6 1.168 5.232 2.352.384.32.752.648 1.104.984.264.252.519.526.765.823l.243.305c.32.384.6.784.84 1.2.24.416.456.848.648 1.296.224.448.408.88.552 1.296.144.416.28.848.408 1.296.096.448.184.896.264 1.344.08.448.136.896.168 1.344.064.928.056 1.864-.024 2.808-.08.944-.28 1.88-.6 2.808-.16.448-.352.896-.576 1.344-.168.336-.354.672-.558 1.008l-.21.336a7.004 7.004 0 0 1-.912 1.2l-.138.144-.126.144c-.08.096-.168.192-.264.288l-.576.528c-1.632 1.344-3.472 2.176-5.52 2.496-.032.032-.096.048-.192.048h-.576zm-1.584-5.568c.2-.313.474-.487.825-.521l.135-.007c.384 0 .784-.08 1.2-.24a3.13 3.13 0 0 0 1.2-.528 3.71 3.71 0 0 0 1.008-.864 13.8 13.8 0 0 0 .384-.504c.085-.117.164-.245.235-.384l.101-.216c.416-.832.64-1.792.672-2.88a8.865 8.865 0 0 0-.48-3.168c-.352-1.056-.832-1.92-1.44-2.592a5.74 5.74 0 0 0-2.095-1.47l-.305-.114c-1.024-.416-2.128-.576-3.312-.48.16 5.952.256 11.92.288 17.904a.426.426 0 0 0 .192-.048c.32 0 .528-.032.624-.096.128-.064.144-.208.048-.432-.256-.448-.368-.768-.336-.96.032-.192.24-.32.624-.384.384-.128.544-.272.48-.432l-.24-.624c-.096-.256-.032-.576.192-.96zm17.999 13.124l-.071-.212a7.595 7.595 0 0 1-.408-1.68 24.15 24.15 0 0 1-.168-1.728 20.181 20.181 0 0 1 0-1.968c.032-.64.08-1.28.144-1.92.096-1.248.24-2.496.432-3.744.096-.64.208-1.264.336-1.872.128-.608.256-1.232.384-1.872.288-1.184.624-2.4 1.008-3.648a56.46 56.46 0 0 1 1.272-3.6 37.345 37.345 0 0 1 1.56-3.456l.384-.864.48-.816.192-.432a.57.57 0 0 0 .107-.15l.037-.09a.602.602 0 0 1 .144-.24l.288-.48c.096-.16.208-.32.336-.48.096-.16.208-.32.336-.48.128-.16.272-.32.432-.48.096-.128.256-.304.48-.528.064-.032.104-.064.12-.096a.683.683 0 0 1 .12-.144c.064-.032.128-.072.192-.12s.128-.104.192-.168c.416-.32.928-.608 1.536-.864a5.527 5.527 0 0 1 1.68-.384c1.085-.088 2.13.133 3.135.664l.273.152c.128.064.248.136.36.216l.36.264.576.432c.107.107.21.217.31.33l.146.174c.144.176.296.344.456.504.16.16.296.336.408.528l.312.528c.224.352.416.688.576 1.008.16.352.312.696.456 1.032.096.224.181.452.256.683l.104.349c.416 1.312.72 2.624.912 3.936l.181 1.248.083.6c.08.592.152 1.192.216 1.8.256 2.432.448 4.848.576 7.248.128 2.4.208 4.816.24 7.248v.912c0 .256-.008.568-.024.936-.016.368-.04.728-.072 1.08-.064.736-.16 1.424-.288 2.064-.128.64-.288.976-.48 1.008-.16.064-.28-.056-.36-.36a15.734 15.734 0 0 1-.15-.619l-.066-.317a2.866 2.866 0 0 0-.264-.792c-.112-.208-.248-.184-.408.072l-.219.28c-.276.335-.491.522-.645.56-.176.044-.339-.201-.488-.735l-.04-.153c-.16-.608-.32-.848-.48-.72-.16.128-.352.336-.576.624a.65.65 0 0 1-.456.264c-.176.016-.344-.056-.504-.216-.16-.16-.304-.432-.432-.816-.128-.384-.192-.928-.192-1.632a68.646 68.646 0 0 0-.024-4.056c-.048-1.36-.104-2.712-.168-4.056-1.6.16-3.176.384-4.728.672a84.448 84.448 0 0 0-4.68 1.008l-.096 1.008c-.032.32-.064.656-.096 1.008v.432c0 .128-.016.272-.048.432l-.004.453c-.004.242-.01.507-.02.795-.016.48-.008.976.024 1.488l.064.928.032.44c.032.432.08.808.144 1.128.096.544.096 1.008 0 1.392-.064.256-.168.44-.312.552-.144.112-.36.072-.648-.12l-.24-.24a3.133 3.133 0 0 1-.288-.336l-.231-.35a5.585 5.585 0 0 0-.441-.586c-.137-.15-.25-.214-.34-.188l-.044.02c-.096.032-.16.112-.192.24a1.41 1.41 0 0 0-.048.336c-.032.32-.024.648.024.984.048.336.08.624.096.864s0 .4-.048.48c-.048.08-.168.024-.36-.168a7.413 7.413 0 0 1-.507-.553l-.37-.482-.131-.165c-.096-.128-.176-.208-.24-.24-.051-.026-.123-.01-.215.046l-.073.05c-.192.16-.4.112-.624-.144-.192-.22-.36-.533-.505-.94zm7.945-18.164c-.107.32-.21.647-.31.981l-.146.507a55.794 55.794 0 0 1-.456 1.536c1.28-.256 2.552-.488 3.816-.696a99.525 99.525 0 0 1 3.816-.552v-.288a61.576 61.576 0 0 0-.48-3.552 25.041 25.041 0 0 0-.24-1.728 10.775 10.775 0 0 0-.384-1.536 3.94 3.94 0 0 0-.24-.696 25.79 25.79 0 0 1-.288-.648 2.495 2.495 0 0 0-.264-.552 8.32 8.32 0 0 0-.213-.32l-.099-.136a2.327 2.327 0 0 0-.288-.336l-.1-.092c-.042-.035-.073-.052-.092-.052l-.384.384-.288.48-.213.341-.123.187-.144.288-.192.336a1.883 1.883 0 0 0-.117.203l-.158.344-.061.125c-.448.864-.864 1.76-1.248 2.688-.384.928-.752 1.856-1.104 2.784zm28.152 14.64h.096c0 .021.007.036.021.043l.027.005c.192.064.4.096.624.096.544.064 1.104-.016 1.68-.24l.192-.059a.623.623 0 0 0 .192-.085c.064 0 .128-.032.192-.096.032 0 .112-.032.24-.096.096-.064.256-.208.48-.432.352-.352.64-.752.864-1.2.288-.384.544-.64.768-.768a.724.724 0 0 1 .528-.168c.192.016.352.152.48.408.064.256.096.464.096.624 0 .8.096 1.216.288 1.248a.24.24 0 0 0 .288 0c.096-.064.176-.128.24-.192.192-.192.36-.4.504-.624l.204-.312c.064-.096.124-.184.18-.264.112-.16.208-.256.288-.288.069-.027.131.04.188.2l.028.088c.096.288.144.536.144.744v.552c0 .252.098.394.294.425l.09.007c.224 0 .352.152.384.456.032.304-.032.68-.192 1.128-.16.448-.408.928-.744 1.44-.269.41-.573.778-.914 1.106l-.358.328-.096.078a1.802 1.802 0 0 0-.192.168.838.838 0 0 1-.15.117l-.09.051a.997.997 0 0 0-.17.107l-.07.061a.838.838 0 0 1-.15.117l-.09.051a.914.914 0 0 0-.24.168.903.903 0 0 1-.181.096l-.083.024a.418.418 0 0 0-.216.12 11.93 11.93 0 0 1-1.968.72c-.64.16-1.272.264-1.896.312a9.932 9.932 0 0 1-2.04-.072c-.352-.064-.72-.136-1.104-.216a4.733 4.733 0 0 1-1.152-.408l-.284-.138a6.39 6.39 0 0 0-.34-.15l-.288-.192-.096-.096-.096-.048a1.764 1.764 0 0 1-.36-.24 7.087 7.087 0 0 0-.36-.288 7.67 7.67 0 0 1-1.44-1.44 11.07 11.07 0 0 1-1.152-1.632 16.786 16.786 0 0 1-1.344-3.168 17.065 17.065 0 0 1-.647-2.753l-.073-.559a22.76 22.76 0 0 1-.24-3.216c0-1.024.016-2.016.048-2.976l.144-2.88c.032-1.12.176-2.208.432-3.264.192-1.056.48-2.112.864-3.168a4.85 4.85 0 0 1 .264-.768c.112-.256.232-.512.36-.768l.384-.864c.064-.128.144-.256.24-.384s.176-.272.24-.432a12.442 12.442 0 0 1 2.64-2.832c.544-.416 1.12-.784 1.728-1.104a8.021 8.021 0 0 1 1.968-.72c.352-.064.72-.12 1.104-.168a5.139 5.139 0 0 1 1.104-.024c.384.032.76.072 1.128.12.276.036.547.094.814.175l.266.089a7.651 7.651 0 0 1 2.064.984c.64.432 1.2.936 1.68 1.512l.048.048a.752.752 0 0 1 .144.192c.128.128.288.336.48.624.064.16.144.312.24.456.096.144.176.312.24.504l.139.341.077.187c.08.192.152.384.216.576.128.384.216.76.264 1.128.048.368.072.696.072.984 0 .608-.08.944-.24 1.008-.14.056-.268-.01-.383-.2l-.049-.088a9.04 9.04 0 0 0-.277-.512l-.155-.256c-.16-.288-.304-.496-.432-.624s-.256-.064-.384.192c-.228.455-.417.72-.569.796l-.055.02c-.192.096-.416-.064-.672-.48-.096-.192-.224-.32-.384-.384a.444.444 0 0 0-.288 0 1.573 1.573 0 0 0-.192.24 3.138 3.138 0 0 0-.192.336c-.192.288-.512.384-.96.288a.326.326 0 0 1-.24-.096.703.703 0 0 1-.107-.064l-.037-.032a.558.558 0 0 0-.144-.096 2.563 2.563 0 0 1-.48-.672 3.014 3.014 0 0 0-.816-.864c-.256-.16-.608-.272-1.056-.336-.32 0-.736.112-1.248.336-.4.213-.767.482-1.1.807l-.196.201c-.096.096-.192.2-.288.312a7.087 7.087 0 0 0-.288.36c-.064.16-.144.288-.24.384a1.881 1.881 0 0 1-.192.432c-.32.704-.576 1.424-.768 2.16-.096.352-.184.728-.264 1.128-.08.4-.152.792-.216 1.176a4.734 4.734 0 0 0-.144 1.152c-.032.128-.048.32-.048.576l-.048.72-.096 2.688c-.024.648-.03 1.287-.018 1.917l.018.627c.032 1.568.304 3.056.816 4.464.288.704.592 1.328.912 1.872.16.224.328.424.504.6s.392.36.648.552l.144.096h.048v.048zm16.008-25.392a1.413 1.413 0 0 1-.36-.288c-.08-.096-.088-.24-.024-.432.096-.32.176-.512.24-.576.064-.064.064-.224 0-.48-.096-.416-.008-.712.264-.888.272-.176.536-.296.792-.36a7.965 7.965 0 0 1 1.08-.12c.368-.016.744-.04 1.128-.072h.6c.208 0 .408.016.6.048.192 0 .376.008.552.024.176.016.36.04.552.072l.936.084c.288.024.552.044.792.06.288.032.568.048.84.048h2.856a21.701 21.701 0 0 1 2.064.096 66.893 66.893 0 0 1 3.984.48.79.79 0 0 1 .24.048.73.73 0 0 0 .15.053l.09.019a.74.74 0 0 1 .288.12c.192.064.36.152.504.264a.547.547 0 0 1 .216.456c0 .16-.048.28-.144.36l-.288.24c-.096.08-.176.16-.24.24-.064.08-.08.216-.048.408.064.384.088.672.072.864-.016.192-.12.368-.312.528-.192.16-.288.312-.288.456 0 .115.02.266.061.453l.035.147c.032.096.04.232.024.408a1.628 1.628 0 0 1-.144.528c-.08.176-.176.32-.288.432-.112.112-.264.152-.456.12a99.394 99.394 0 0 0-1.195-.181l-.581-.083a81.108 81.108 0 0 0-1.68-.216 20.69 20.69 0 0 0-1.656-.12l-.66-.015a65.285 65.285 0 0 0-1.092-.009c-.32 0-.64.008-.96.024a7.18 7.18 0 0 1-1.008-.024 15.717 15.717 0 0 1-1.68-.096c.128 1.44.232 2.848.312 4.224l.114 2.088c.036.704.07 1.416.102 2.136.16-.064.304-.104.432-.12s.272-.04.432-.072a19.528 19.528 0 0 1 1.632-.312c.544-.08 1.088-.152 1.632-.216a32.72 32.72 0 0 1 5.888-.066l.736.066c.024 0 .066.009.126.027l.33.105c.08.024.152.044.216.06.16.064.304.152.432.264.128.112.176.264.144.456a.58.58 0 0 1-.12.384c-.053.064-.107.12-.16.17l-.08.07c-.08.064-.152.144-.216.24s-.08.24-.048.432c.064.352.088.624.072.816a.791.791 0 0 1-.177.43l-.087.098c-.16.16-.24.32-.24.48 0 .16.016.352.048.576l-.006.18c-.004.072-.01.156-.018.252a2.584 2.584 0 0 1-.096.528c-.048.16-.12.296-.216.408a.432.432 0 0 1-.336.168 16.707 16.707 0 0 0-2.544-.192c-.864 0-1.728.032-2.592.096-.448.032-.872.08-1.272.144-.4.064-.824.128-1.272.192-.15.043-.292.078-.427.107l-.197.037c-.192.032-.4.08-.624.144l-.662.19c-.167.046-.346.095-.538.146.032 1.216.048 2.424.048 3.624v3.624a44.225 44.225 0 0 1 3.6-.432c2.4-.128 4.832.048 7.296.528.032 0 .096.016.192.048l.102.048.114.048c.08.032.168.064.264.096.16.096.312.208.456.336.144.128.184.272.12.432-.032.192-.088.328-.168.408a1.71 1.71 0 0 1-.17.15l-.094.066a1.049 1.049 0 0 0-.24.216c-.064.08-.096.216-.096.408.032.352.032.624 0 .816-.032.192-.144.368-.336.528-.16.128-.248.272-.264.432-.016.16-.008.352.024.576 0 .128-.024.28-.072.456a4.651 4.651 0 0 1-.168.504c-.064.16-.152.296-.264.408-.112.112-.232.152-.36.12a18.728 18.728 0 0 0-2.76-.456 22.631 22.631 0 0 0-2.76-.072c-.928.032-1.856.128-2.784.288-.336.048-.685.11-1.048.184l-.368.08a25.91 25.91 0 0 1-1.656.312l-.24.048c-.192.064-.464.104-.816.12a3.195 3.195 0 0 1-.912-.072.874.874 0 0 1-.528-.432 1.822 1.822 0 0 1-.12-.528.868.868 0 0 1 .07-.43l.05-.098c.064-.128.128-.224.192-.288a.38.38 0 0 0-.408-.048 3.894 3.894 0 0 0-.299.15l-.157.09c-.096.064-.24.104-.432.12a.977.977 0 0 1-.528-.096 1.212 1.212 0 0 1-.432-.384c-.128-.176-.192-.424-.192-.744.064-4.224.048-8.424-.048-12.6a275.48 275.48 0 0 0-.576-12.552l-.048-.432-.032-.39a52.766 52.766 0 0 1-.064-1.002c-.032-.576-.016-1.04.048-1.392.064-.32.16-.544.288-.672z"/>
    </g>
</svg>
