<svg xmlns="http://www.w3.org/2000/svg" width="30" height="30" viewBox="0 0 30 30">
    <path fill="#E8735E" fill-rule="evenodd" d="M26.367 20.126a4.53 4.53 0 0 0 1.086-2.977c0-2.487-2.022-4.522-4.494-4.522h-.113c.974-1.62 1.686-3.656 1.386-5.955-.15-1.545-.749-3.165-1.423-4.447-.674-1.28-1.423-2.26-1.348-2.223-.075-.038-.15.49-.75 1.168-.561.679-1.647 1.432-3.183 2.148-2.921 1.508-7.753 2.6-9.288 4.146-1.573 1.394-1.723 3.24-.9 5.2h-.374a4.498 4.498 0 0 0-4.494 4.523c0 1.13.412 2.148 1.124 2.977A4.97 4.97 0 0 0 0 24.95C0 27.74 2.247 30 5.019 30H24.98C27.753 30 30 27.739 30 24.95c-.037-2.261-1.573-4.183-3.633-4.824z"/>
</svg>
