<svg xmlns="http://www.w3.org/2000/svg" width="25" height="25" viewBox="0 0 25 25">
    <path fill="#D4EBF9" fill-rule="nonzero" d="M23.757 2.368l-1.131-1.131A4.204 4.204 0 0 0 19.654 0a4.204 4.204 0 0 0-2.973 1.237L1.267 16.657c-.29.29-.473.659-.526 1.054L.004 24A.9.9 0 0 0 .9 25h.105l6.287-.737c.394-.052.789-.237 1.052-.526L23.757 8.316c1.657-1.632 1.657-4.29 0-5.948zM3.503 17.078L16.182 4.396l4.419 4.42L7.922 21.5l-4.42-4.421zm-.973 1.738l3.656 3.658-4.156.473.5-4.131zM22.416 7l-.474.474-4.419-4.421.474-.474a2.29 2.29 0 0 1 1.63-.684c.605 0 1.21.237 1.631.684L22.39 3.71c.447.447.684 1.026.684 1.631.027.632-.21 1.21-.657 1.658z"/>
</svg>
