<svg xmlns="http://www.w3.org/2000/svg" width="20" height="20" viewBox="0 0 20 20">
    <path fill="#D16855" fill-rule="evenodd" d="M17.578 13.418a3.02 3.02 0 0 0 .724-1.985c0-1.658-1.348-3.015-2.996-3.015h-.075c.65-1.08 1.124-2.437.924-3.97-.1-1.03-.5-2.11-.949-2.964-.45-.855-.949-1.508-.899-1.483-.05-.025-.1.327-.5.78-.374.451-1.098.954-2.122 1.431-1.947 1.005-5.168 1.734-6.192 2.764-1.049.93-1.148 2.16-.6 3.467h-.249a2.998 2.998 0 0 0-2.996 3.015c0 .754.275 1.432.749 1.985A3.313 3.313 0 0 0 0 16.633C0 18.493 1.498 20 3.346 20h13.308C18.502 20 20 18.493 20 16.633c-.025-1.507-1.049-2.788-2.422-3.215z"/>
</svg>
