<?xml version="1.0" encoding="UTF-8"?>
<svg width="47px" height="46px" viewBox="0 0 47 46" version="1.1" xmlns="http://www.w3.org/2000/svg" xmlns:xlink="http://www.w3.org/1999/xlink">
    <!-- Generator: Sketch 59.1 (86144) - https://sketch.com -->
    <title>icon/profile</title>
    <desc>Created with Sketch.</desc>
    <g id="Symbols" stroke="none" stroke-width="1" fill="none" fill-rule="evenodd">
        <g id="app/dashboard" transform="translate(-7.000000, -14.000000)" fill="#3483B0">
            <g id="icon/doghome" transform="translate(7.000000, 11.000000)">
                <path d="M4.93117587,23.4715087 L4.93117587,23.4715087 L23.5005361,7.3160348 L42.0698963,23.4715087 L42.0698963,48.0464052 C42.0698963,48.8307936 41.430374,49.4666667 40.641484,49.4666667 L34.2136285,49.4666667 L34.2136285,41.6552288 C34.2136285,35.7715529 29.4175763,31.003268 23.5005361,31.003268 C17.5830938,31.003268 12.7874437,35.7719527 12.7874437,41.6552288 L12.7874437,49.4666667 L6.3595882,49.4666667 C5.57069821,49.4666667 4.93117587,48.8307936 4.93117587,48.0464052 L4.93117587,23.4715087 Z M27.0715669,25.3222222 C27.0715669,26.8909997 28.3506109,28.1627451 29.9283915,28.1627451 C31.5061722,28.1627451 32.7852162,26.8909997 32.7852162,25.3222222 C32.7852162,24.473834 32.4111471,23.7123161 31.8180554,23.1918301 C32.4111471,22.671344 32.7852162,21.9098261 32.7852162,21.0614379 C32.7852162,19.4926604 31.5061722,18.220915 29.9283915,18.220915 C28.3506109,18.220915 27.0715669,19.4926604 27.0715669,21.0614379 L19.9295053,21.0614379 C19.9295053,19.4926604 18.6504613,18.220915 17.0726806,18.220915 C15.4948999,18.220915 14.215856,19.4926604 14.215856,21.0614379 C14.215856,21.9098261 14.589925,22.671344 15.1830168,23.1918301 C14.589925,23.7123161 14.215856,24.473834 14.215856,25.3222222 C14.215856,26.8909997 15.4948999,28.1627451 17.0726806,28.1627451 C18.6504613,28.1627451 19.9295053,26.8909997 19.9295053,25.3222222 L27.0715669,25.3222222 Z M31.3568039,41.6552288 L31.3568039,49.4666667 L15.6442683,49.4666667 L15.6442683,41.6552288 C15.6442683,37.3406769 19.160928,33.8437908 23.5005361,33.8437908 C27.8398492,33.8437908 31.3568039,37.3403836 31.3568039,41.6552288 Z M44.8728205,25.4348306 L23.5005361,6.84079272 L2.12825165,25.4348306 C1.82519041,25.6984958 1.3740178,25.6645977 1.11184058,25.3666758 L0.180037224,24.307834 C-0.0861645537,24.0053396 -0.0518333777,23.5571236 0.24772897,23.296502 L22.5599201,3.88473939 C23.0984687,3.41619798 23.9026034,3.41619798 24.441152,3.88473939 L46.7533432,23.296502 C47.0545454,23.5585502 47.0832122,24.0099121 46.821035,24.307834 L45.8892316,25.3666758 C45.6230298,25.6691702 45.1719915,25.6951113 44.8728205,25.4348306 Z" id="Shape"></path>
            </g>
        </g>
    </g>
</svg>