<svg xmlns="http://www.w3.org/2000/svg" width="85" height="85" viewBox="0 0 85 85">
    <g fill="none" fill-rule="evenodd">
        <circle cx="42.5" cy="42.5" r="42.5" fill="#E64949"/>
        <g fill-rule="nonzero">
            <path fill="#F8B459" d="M24.72 22.252c-2.795 2.037-3.6 5.205-4.061 8.441-.423 2.96-3.992 6.238-2.12 9.187 1.212 1.91 4.666 1.669 6.533 1.001l8.337-18.293c-2.647-1.864-5.975-2.312-8.69-.336zM61.261 22.252c2.795 2.037 3.6 5.205 4.06 8.441.423 2.96 3.992 6.238 2.12 9.187-1.212 1.91-4.666 1.669-6.532 1.001l-8.337-18.293c2.646-1.864 5.975-2.312 8.689-.336z"/>
            <path fill="#F39C18" d="M64.027 41.365c-.575-4.253-1.701-9.088-3.852-13.475-1.308-2.668-2.87-4.903-4.658-6.688a9.065 9.065 0 0 0-2.945 1.386l8.337 18.293c.835.3 1.99.511 3.118.484zM25.806 27.89c-2.15 4.387-3.277 9.222-3.852 13.476 1.128.027 2.282-.186 3.118-.485l8.337-18.293a9.064 9.064 0 0 0-2.946-1.386c-1.788 1.785-3.35 4.02-4.657 6.688z"/>
            <path fill="#F9E09D" d="M42.99 19.053c-13.823 0-18.584 16.85-18.584 30.774-.068 9.251 12.658 14.165 17.087 15.595.974.315 2.02.315 2.995 0 4.429-1.43 17.154-6.344 17.087-15.595 0-13.924-4.762-30.774-18.585-30.774z"/>
            <path fill="#F8B459" d="M44.47 19.12a16.36 16.36 0 0 0-1.48-.067c-13.823 0-18.584 16.85-18.584 30.774-.021 2.887 1.204 5.353 3.035 7.421.309-23.305 4.842-37.08 17.03-38.128z"/>
            <g fill="#423E4F">
                <path d="M45.65 45.357c0-.26-.22-.468-.48-.468h-4.358a.477.477 0 0 0-.482.468v.005c0 1.165 1.19 2.109 2.66 2.109 1.47 0 2.661-.944 2.661-2.109v-.005zM35.317 41.588a.754.754 0 0 0-.754.754v1.389a.754.754 0 1 0 1.508 0v-1.389a.754.754 0 0 0-.754-.754zM51.417 43.731v-1.389a.754.754 0 1 0-1.508 0v1.389a.754.754 0 1 0 1.508 0z"/>
            </g>
            <path fill="#FF889E" d="M34.928 45.256h-1.879a.754.754 0 0 0 0 1.508h1.879a.754.754 0 1 0 0-1.508zM52.931 45.256h-1.879a.754.754 0 0 0 0 1.508h1.88a.754.754 0 1 0 0-1.508z"/>
            <path fill="#423E4F" d="M46.749 49.2a.754.754 0 0 0-1.064.072 1.404 1.404 0 0 1-1.064.464c-.418 0-.805-.17-1.063-.464a.767.767 0 0 0-.604-.257.763.763 0 0 0-.531.257 1.405 1.405 0 0 1-1.064.464c-.418 0-.805-.17-1.063-.464a.754.754 0 1 0-1.136.993c.544.622 1.346.98 2.2.98.59 0 1.157-.172 1.63-.485.473.313 1.04.484 1.631.484.854 0 1.655-.357 2.2-.979a.755.755 0 0 0-.072-1.065z"/>
        </g>
    </g>
</svg>
