<svg xmlns="http://www.w3.org/2000/svg" width="85" height="85" viewBox="0 0 85 85">
    <g fill="none" fill-rule="evenodd">
        <circle cx="42.5" cy="42.5" r="42.5" fill="#FD0"/>
        <g fill-rule="nonzero">
            <path fill="#4F4C5F" d="M23.14 20.788c-2.554 1.4-2.355 4.753-4.161 6.77-1.238 1.383-1.389 4.513.052 5.845.863.797 2.117.596 3.157.344 1.476-.358 2.91-.988 4.241-1.713l2.738-9.413c-1.502-1.65-3.832-3.035-6.026-1.833zM62.84 20.788c2.554 1.4 2.355 4.753 4.161 6.77 1.239 1.383 1.389 4.513-.052 5.845-.862.797-2.117.596-3.158.344-1.474-.358-2.91-.988-4.24-1.713l-2.738-9.413c1.502-1.65 3.831-3.035 6.026-1.833z"/>
            <path fill="#423E4F" d="M60.444 22.44c-.507-.516-1.05-1-1.624-1.45-.753.422-1.44 1.007-2.007 1.631l2.738 9.413c1.33.725 2.766 1.355 4.24 1.713.655.158 1.394.297 2.067.179-.773-4.333-2.335-8.345-5.414-11.485zM29.167 22.621c-.568-.624-1.254-1.21-2.007-1.632-.575.451-1.117.935-1.624 1.452-3.079 3.14-4.64 7.152-5.414 11.485.673.118 1.412-.02 2.066-.18 1.476-.357 2.91-.987 4.241-1.712l2.738-9.413z"/>
            <path fill="#5C586F" d="M25.406 61.4c-2.074-2.023-3.361-4.789-3.361-8.527 0-14.165-2.996-33.866 20.945-33.866s20.946 19.701 20.946 33.866c0 3.738-1.287 6.504-3.362 8.528H25.406z"/>
            <path fill="#4F4C5F" d="M25.406 61.4h3.017c-2.074-2.023-3.361-4.789-3.361-8.527 0-13.86-2.868-33.02 19.434-33.838a40.09 40.09 0 0 0-1.506-.028c-6.36 0-10.818 1.39-13.937 3.697-4.203 3.108-6.023 8.184-6.694 13.229-.595 4.481-.441 9.024-.355 13.53.048 2.51-.138 5.074.644 7.5a10.892 10.892 0 0 0 2.758 4.438z"/>
            <path fill="#DE8957" d="M46.297 43.651a8.356 8.356 0 0 1 4.11 3.863h.003c3.357 6.811 12.884-1.463 10.164 13.887-4.074 3.974-11.19 5.09-17.584 5.09s-13.51-1.116-17.584-5.09c-2.72-15.35 6.807-7.076 10.165-13.887h.002a8.36 8.36 0 0 1 4.11-3.863h6.614z"/>
            <path fill="#C76D33" d="M43.719 66.486c.256-.004.512-.01.768-.017h.012c-5.979-.17-12.32-1.404-16.076-5.068-1.765-1.723-2.96-3.983-3.277-6.921-.342 1.498-.313 3.684.26 6.92 1.146 1.119 2.533 2.01 4.076 2.714.875.4 1.782.73 2.703 1.008 3.383 1.016 7.209 1.37 10.805 1.37.004 0 .489-.003.729-.006z"/>
            <path fill="#423E4F" d="M46.297 43.651a3.377 3.377 0 0 1-6.614 0 8.282 8.282 0 0 1 3.307-.683c1.175 0 2.294.243 3.307.683z"/>
            <path fill="#DE8957" d="M34.227 37.119l-1.525-.42a1.6 1.6 0 0 0-.85 3.084l1.525.42a1.6 1.6 0 0 0 .85-3.084zM51.753 37.119l1.525-.42a1.6 1.6 0 1 1 .85 3.084l-1.525.42a1.6 1.6 0 1 1-.85-3.084z"/>
            <path fill="#423E4F" d="M46.624 48.489a.755.755 0 0 0-1.064.071 1.322 1.322 0 0 1-1 .437c-.395 0-.76-.16-1.002-.437a.758.758 0 0 0-1.136 0 1.321 1.321 0 0 1-1.001.437c-.394 0-.759-.16-1.001-.437a.755.755 0 0 0-1.136.993 2.83 2.83 0 0 0 2.137.952c.568 0 1.112-.163 1.57-.46.456.297 1 .46 1.568.46.83 0 1.608-.347 2.137-.952a.754.754 0 0 0-.072-1.064zM32.988 41.724a.754.754 0 0 0-.754.754v1.442a.754.754 0 1 0 1.509 0v-1.442a.754.754 0 0 0-.755-.754z"/>
            <path fill="#FFB2C1" d="M32.221 45.291h-1.664a.754.754 0 1 0 0 1.508h1.664a.754.754 0 1 0 0-1.508z"/>
            <path fill="#423E4F" d="M53.746 43.92v-1.442a.755.755 0 0 0-1.509 0v1.442a.754.754 0 0 0 1.51 0z"/>
            <path fill="#FFB2C1" d="M55.424 45.291h-1.665a.754.754 0 1 0 0 1.508h1.665a.754.754 0 1 0 0-1.508z"/>
        </g>
    </g>
</svg>
