<svg xmlns="http://www.w3.org/2000/svg" width="85" height="85" viewBox="0 0 85 85">
    <g fill="none" fill-rule="evenodd">
        <circle cx="42.5" cy="42.5" r="42.5" fill="#0C6292"/>
        <g fill-rule="nonzero">
            <path fill="#E7E7E7" d="M66.378 59.994l1.292.646a.228.228 0 0 0 .33-.205c-.021-3.7-1.866-7.293-2.675-8.692a.227.227 0 0 1 .29-.321l1.296.572a.228.228 0 0 0 .32-.225c-.275-3.754-2.39-7.092-3.416-8.509-.137-.19.067-.437.28-.34l1.26.578a.228.228 0 0 0 .322-.222c-.275-3.938-3.09-8.585-4.13-10.18a.228.228 0 0 1 .267-.337l1.813.647a.229.229 0 0 0 .3-.262C61.872 23.227 51.705 17 44.193 19.64a3.594 3.594 0 0 1-2.386 0c-7.512-2.64-17.68 3.587-19.734 13.504a.229.229 0 0 0 .3.262l1.813-.647a.228.228 0 0 1 .268.338c-1.04 1.595-3.856 6.241-4.131 10.18a.228.228 0 0 0 .322.221l1.26-.577c.213-.098.417.15.28.34-1.026 1.416-3.141 4.754-3.416 8.508a.228.228 0 0 0 .32.225l1.297-.572c.201-.09.399.13.289.321-.81 1.4-2.654 4.992-2.675 8.692a.228.228 0 0 0 .33.205l1.292-.646c.2-.1.409.117.302.312-.635 1.16-1.85 3.7-1.92 6.281a.229.229 0 0 0 .226.237h49.54c.128 0 .23-.107.227-.237-.071-2.58-1.286-5.121-1.921-6.281-.107-.195.102-.412.302-.312z"/>
            <path fill="#C7C5CB" d="M46.224 36.05c3.319 1.313 5.655 4.595 5.655 8.375v4.544a1.816 1.816 0 0 1-2.474 1.692C46.778 49.645 43 47.48 43 43.426c0 4.054-3.778 6.22-6.405 7.235a1.816 1.816 0 0 1-2.474-1.692v-4.655a8.881 8.881 0 0 1 5.653-8.275l6.45.01z"/>
            <path fill="#423E4F" d="M46.224 36.05a3.282 3.282 0 0 1-6.45-.011 8.87 8.87 0 0 1 3.293-.604 8.703 8.703 0 0 1 3.157.614z"/>
            <path fill="#423E4F" d="M54.517 32.093H31.483a.755.755 0 0 0 0 1.51h2.765v1.139a.755.755 0 1 0 1.509 0v-1.14h14.486v1.14a.755.755 0 0 0 1.51 0v-1.14h2.764a.754.754 0 1 0 0-1.509z"/>
            <path fill="#FFB2C1" d="M34.67 35.93h-1.602a.754.754 0 0 0 0 1.51h1.602a.755.755 0 0 0 0-1.51zM52.932 35.93H51.33a.754.754 0 0 0 0 1.51h1.602a.755.755 0 0 0 0-1.51z"/>
            <path fill="#C7C5CB" d="M31.815 20.585c-4.583 2.246-8.543 6.774-9.742 12.56a.229.229 0 0 0 .3.261l1.813-.647a.228.228 0 0 1 .268.338c-1.04 1.595-3.856 6.241-4.131 10.18a.228.228 0 0 0 .322.221l1.26-.577c.213-.098.417.15.28.34-1.026 1.416-3.141 4.754-3.416 8.508a.228.228 0 0 0 .32.225l1.297-.572c.202-.09.399.13.289.321-.81 1.4-2.654 4.992-2.675 8.692a.228.228 0 0 0 .33.205l1.292-.646c.2-.1.409.117.302.312-.635 1.16-1.85 3.7-1.92 6.281a.229.229 0 0 0 .226.237h4.127c1.483-24.126 5.854-38.35 9.458-46.24z"/>
        </g>
    </g>
</svg>
