<svg xmlns="http://www.w3.org/2000/svg" width="39" height="45" viewBox="0 0 39 45">
    <path fill="#000" fill-rule="nonzero" d="M19.5 26.053C10.442 26.052 2.935 33.3 2.33 42.632h34.34c-.605-9.33-8.112-16.58-17.17-16.58zm0-2.369c10.77 0 19.5 9.013 19.5 20.132C39 44.47 38.486 45 37.853 45H1.147C.514 45 0 44.47 0 43.816c0-11.119 8.73-20.132 19.5-20.132zm0-2.368c-3.688 0-7.097-2.031-8.941-5.329a10.958 10.958 0 0 1 0-10.658C12.403 2.03 15.812-.001 19.5 0c5.701 0 10.323 4.772 10.323 10.658 0 5.886-4.622 10.657-10.323 10.658zm0-2.369c4.435 0 8.03-3.711 8.03-8.29 0-4.577-3.595-8.289-8.03-8.289-4.435 0-8.03 3.712-8.03 8.29 0 4.578 3.595 8.29 8.03 8.29z"/>
</svg>
