<svg xmlns="http://www.w3.org/2000/svg" width="100" height="139" viewBox="0 0 100 139">
    <g fill="none" fill-rule="nonzero" transform="rotate(23 80.49 65.042)">
        <path fill="#5C586F" d="M26.986 43.477a1.5 1.5 0 0 0-.731.654c-1.21 2.158-5.643 11.76 3.951 22.608l12.978-18.421c-4.213-6.277-11.557-6.76-16.198-4.841z"/>
        <path fill="#4F4C5F" d="M29.8 57a26.506 26.506 0 0 0-2.294 6.18 28.495 28.495 0 0 0 2.7 3.559l12.978-18.421a13.547 13.547 0 0 0-2.2-2.547A26.421 26.421 0 0 0 29.8 57z"/>
        <path fill="#FFB2C1" d="M31.428 48.527c-.481.07-.878.41-1.03.871-.274.829-.526 1.88-.615 3.094-.293 4.027 1.305 8.043 4.749 11.937l5.135-12.363c-2.195-3.268-5.62-3.921-8.239-3.539z"/>
        <path fill="#5C586F" d="M63.2 33.774c.333-.044.67.03.96.2 2.126 1.265 10.767 7.364 7.882 21.555l-20.45-9.464c.51-7.542 6.629-11.633 11.607-12.291z"/>
        <path fill="#4F4C5F" d="M72.6 51.097a26.506 26.506 0 0 0-5.076-4.205 26.419 26.419 0 0 0-15.3-4.133 13.561 13.561 0 0 0-.632 3.306l20.45 9.464c.32-1.575.498-3.05.559-4.432z"/>
        <path fill="#FFB2C1" d="M61.878 40.368c.452-.18.965-.085 1.328.239a12.892 12.892 0 0 1 2.079 2.373c2.267 3.34 2.892 7.617 1.856 12.712l-10.629-8.14c.266-3.927 2.907-6.206 5.366-7.184z"/>
        <path fill="#FF889E" d="M66.98 46.555a26.48 26.48 0 0 0-8.865-3.376c-.866 1.138-1.481 2.583-1.603 4.373l10.63 8.14c.696-3.428.64-6.486-.161-9.137zM39.666 52.066c-1-1.49-2.255-2.434-3.573-2.986a26.48 26.48 0 0 0-5.99 7.356c.63 2.698 2.111 5.373 4.429 7.993l5.134-12.363z"/>
        <path fill="#5C586F" d="M45.206 47.458c-11.113 4.114-17.465 16.096-14.337 27.77 1.765 6.59 6.196 11.754 11.82 14.643l30.108-8.067c3.427-5.315 4.681-12.003 2.916-18.592-3.129-11.674-14.621-18.875-26.302-16.88l-1.732 1.943-2.473-.817z"/>
        <path fill="#4F4C5F" d="M34.024 74.383c-2.89-10.784 2.31-21.83 11.88-26.694l-.697-.23c-11.114 4.113-17.466 16.095-14.338 27.77 1.765 6.588 6.195 11.752 11.82 14.642l3.156-.845c-5.626-2.89-10.056-8.054-11.821-14.643z"/>
        <path fill="#E7E7E7" d="M58.819 54.95c.394 2.253-.55 4.394-1.43 6.412-.937 2.152-1.783 4.559-.519 6.769l3.341 5.217-4.968 3.16-6.366.259.77-6.7c-.011-2.547-1.947-4.208-3.835-5.603-1.77-1.307-3.658-2.69-4.444-4.838-.824-2.252-.277-4.799.7-6.908.858-1.854 1.996-3.572 3.138-5.26h.001a23.682 23.682 0 0 1 4.203-1.126h.001c1.833.89 3.677 1.81 5.347 2.985 1.901 1.339 3.649 3.27 4.06 5.633zM68.226 83.028c-.733-2.736-6.021-3.698-11.81-2.146-5.79 1.551-9.889 5.027-9.155 7.764.733 2.737 6.02 3.698 11.81 2.147 5.79-1.551 9.888-5.028 9.155-7.765z"/>
        <path fill="#FFB2C1" d="M56.87 68.13c2.004-.188 4.013-.1 5.943.265 3.265.618 6.246 2.014 8.624 4.034a8.278 8.278 0 0 1-8.78 13.848 7.549 7.549 0 0 0-2.421-.647 7.078 7.078 0 0 0-2.493.208c-1.638.439-3.048 1.457-4.035 2.837a8.297 8.297 0 0 1-4.595 3.176 8.277 8.277 0 0 1-9.932-10.778c1.048-2.94 2.932-5.638 5.45-7.806a21.325 21.325 0 0 1 5.015-3.2l7.224-1.936z"/>
        <path fill="#FF889E" d="M50.744 89.948a8.277 8.277 0 0 1-9.932-10.778 17.88 17.88 0 0 1 2.548-4.707c-1.884 1.932-3.316 4.189-4.179 6.61a8.277 8.277 0 0 0 9.932 10.778 8.299 8.299 0 0 0 4.595-3.176c.16-.224.333-.437.514-.642a8.318 8.318 0 0 1-3.478 1.915z"/>
        <path fill="#423E4F" d="M56.87 68.13a3.752 3.752 0 0 1-7.224 1.936 22.227 22.227 0 0 1 7.224-1.935zM40.642 71.404a.817.817 0 0 1-1-.578l-.476-1.777a.817.817 0 0 1 1.578-.423l.476 1.777a.817.817 0 0 1-.578 1z"/>
        <path fill="#FFB2C1" d="M40.52 73.623l-1.682.451a.816.816 0 0 1-.423-1.577l1.683-.451a.817.817 0 0 1 .423 1.577z"/>
        <path fill="#423E4F" d="M65.336 64.787a.817.817 0 0 1-1-.578l-.476-1.777a.816.816 0 1 1 1.577-.422l.477 1.777a.817.817 0 0 1-.578 1z"/>
        <path fill="#FFB2C1" d="M68.234 66.198l-1.682.45a.817.817 0 0 1-.423-1.577l1.682-.45a.817.817 0 1 1 .423 1.577z"/>
        <path fill="#E6E6E6" d="M68.718 5.273h1.883v38.043h-1.883z"/>
        <path fill="#94C2DC" d="M79.83 59.325A28.627 28.627 0 1 1 28.227 42.25l.008-.007A28.624 28.624 0 0 1 79.83 59.325z" opacity=".514"/>
        <g fill="#000" opacity=".1">
            <path d="M75.762 47.456l-2.335 13.375C55.877 15.278 27.963 43.26 27.48 43.75a28.626 28.626 0 0 1 48.281 3.706z"/>
        </g>
        <path fill="#FFF" d="M76.515 45.95L74.18 59.324C56.631 13.77 28.717 41.753 28.235 42.243a28.626 28.626 0 0 1 48.28 3.706z"/>
        <path fill="#FFF" d="M72.591 40.303l3.924 13.621S68.37 78.34 30.595 79.19l-1.238 3.488-4.143 1.13-1.884 7.91 5.274 50.096s-2.26 4.897 1.506 4.52c0 0 24.86-8.286 46.33-.753 0 0 4.52 1.883 3.39-2.26 0 0 15.067-9.417 13.937-19.21-1.13-9.793 1.13-55.37 1.13-55.37s2.26-13.183-4.52-16.196c0 0-9.958-13.938-17.786-12.242z"/>
        <circle cx="74.557" cy="56.688" r="6.968" fill="#E6E6E6"/>
        <circle cx="69.66" cy="5.085" r="5.085" fill="#E6E6E6"/>
        <path fill="#F2F2F2" d="M47.754 48.276H46.56v-1.194h-.233v1.194h-1.194v.233h1.194v1.194h.233v-1.194h1.194zM35.96 59.414h-1.193v-1.193h-.234v1.193H33.34v.234h1.193v1.193h.234v-1.193h1.193z"/>
    </g>
</svg>
