<svg xmlns="http://www.w3.org/2000/svg" width="123" height="132" viewBox="0 0 123 132">
    <g fill="none" fill-rule="nonzero" transform="scale(-1 1) rotate(34 31.98 -121.439)">
        <path fill="#F8B459" d="M30.186 51.8c-2.188 2.71-2.145 6.002-1.75 9.27.36 2.99-2.257 7.11.333 9.49 1.676 1.542 4.974.408 6.616-.728l3.342-19.971c-3.06-1.123-6.416-.692-8.54 1.938zM65.737 42.274c3.25 1.252 4.859 4.125 6.151 7.153 1.182 2.77 5.51 5.028 4.457 8.385-.682 2.174-4.105 2.84-6.095 2.678L57.371 44.865c2.089-2.503 5.21-3.807 8.366-2.591z"/>
        <path fill="#F39C18" d="M73.41 60.147c-1.668-3.988-4.024-8.398-7.26-12.106-1.968-2.254-4.07-4.022-6.275-5.292a9.13 9.13 0 0 0-2.504 2.116l12.88 15.625c.89.072 2.069-.022 3.16-.343zM32.713 57.001c-.949 4.829-.785 9.826-.235 14.115 1.104-.268 2.172-.776 2.907-1.284l3.342-19.971a9.129 9.129 0 0 0-3.227-.58c-1.274 2.202-2.21 4.784-2.787 7.72z"/>
        <path fill="#F9E09D" d="M47.127 43.924C33.68 47.527 33.44 65.16 37.07 78.708c2.346 9.018 16.008 10.482 20.69 10.718a4.901 4.901 0 0 0 2.913-.78C64.608 86.1 75.708 78.001 73.23 69.018 69.6 55.472 60.576 40.32 47.127 43.924z"/>
        <path fill="#F8B459" d="M48.585 43.603c-.48.083-.966.189-1.458.32C33.68 47.528 33.44 65.162 37.07 78.709c.732 2.815 2.568 4.894 4.887 6.43-5.774-22.755-4.954-37.337 6.629-41.535z"/>
        <g fill="#423E4F">
            <path d="M56.573 68.822a.48.48 0 0 0-.59-.33l-4.24 1.136a.48.48 0 0 0-.347.58l.002.005c.303 1.133 1.708 1.741 3.138 1.358s2.342-1.612 2.039-2.745a.013.013 0 0 1-.002-.004zM45.537 67.848a.76.76 0 0 0-.537.93l.362 1.352a.76.76 0 1 0 1.467-.393l-.362-1.351a.76.76 0 0 0-.93-.538zM61.759 65.736l-.362-1.35a.76.76 0 1 0-1.467.392l.362 1.351a.76.76 0 1 0 1.467-.393z"/>
        </g>
        <path fill="#FF889E" d="M46.114 71.518l-1.827.49a.76.76 0 0 0 .393 1.467l1.827-.49a.76.76 0 1 0-.393-1.467zM63.63 66.825l-1.828.49a.76.76 0 0 0 .393 1.467l1.828-.49a.76.76 0 1 0-.393-1.467z"/>
        <path fill="#423E4F" d="M58.643 72.274a.76.76 0 0 0-1.017.347c-.173.354-.506.62-.913.729a1.414 1.414 0 0 1-1.155-.174.772.772 0 0 0-.656-.092.769.769 0 0 0-.45.388c-.173.354-.506.62-.913.728a1.414 1.414 0 0 1-1.155-.174.76.76 0 1 0-.846 1.262 2.933 2.933 0 0 0 2.394.38 2.977 2.977 0 0 0 1.461-.897c.542.181 1.138.2 1.713.046a2.934 2.934 0 0 0 1.884-1.526.76.76 0 0 0-.347-1.017z"/>
        <path fill="#E6E6E6" d="M70.9 5.441h1.943v39.251H70.9z"/>
        <path fill="#FF7E67" d="M82.364 61.208a29.536 29.536 0 1 1-53.24-17.616l.007-.008a29.532 29.532 0 0 1 53.233 17.624z" opacity=".707"/>
        <g fill="#000" opacity=".1">
            <path d="M78.167 48.963l-2.41 13.8c-18.105-47-46.906-18.13-47.403-17.625a29.535 29.535 0 0 1 49.813 3.825z"/>
        </g>
        <path fill="#FFF" d="M78.944 47.408l-2.409 13.8c-18.106-47-46.907-18.13-47.404-17.624a29.535 29.535 0 0 1 49.813 3.824z"/>
        <path fill="#FFF" d="M74.896 41.582l4.048 14.054s-8.404 25.19-47.378 26.068l-1.277 3.599-4.275 1.166-1.943 8.16 5.44 51.687s-2.331 5.052 1.555 4.664c0 0 25.65-8.55 47.8-.777 0 0 4.664 1.943 3.498-2.332 0 0 15.545-9.716 14.38-19.82-1.166-10.104 1.165-57.127 1.165-57.127s2.332-13.602-4.663-16.711c0 0-10.274-14.38-18.35-12.631z"/>
        <circle cx="76.924" cy="58.488" r="7.19" fill="#E6E6E6"/>
        <circle cx="71.872" cy="5.246" r="5.246" fill="#E6E6E6"/>
        <path fill="#F2F2F2" d="M49.27 49.809h-1.232v-1.232h-.24v1.232h-1.232v.24h1.232v1.232h.24v-1.232h1.232zM37.102 61.3H35.87V60.07h-.24V61.3h-1.232v.24h1.232v1.232h.24V61.54h1.232z"/>
    </g>
</svg>
