<?xml version="1.0" encoding="utf-8"?>
<svg version="1.1" xmlns="http://www.w3.org/2000/svg" xmlns:xlink="http://www.w3.org/1999/xlink" height="430" width="315">
  <defs>
    <rect id="rect-1" opacity="1" x="0" y="0" width="94.67866079424675" height="98.86427023313615"/>
    <path id="path-2" opacity="1" fill-rule="evenodd" d="M50.27050175845515,88.16750419564683 C49.260113246091755,86.63573684503524 48.5885184787496,84.96429162598949 48.23011499854386,83.08946967346326 C47.97268309642931,81.74284842877519 47.9920531227058,79.49762593299884 48.27252801017122,78.17373106909803 C48.650146865745064,76.39125854256565 49.25347098957618,74.8543787235216 50.0963184403297,73.5278916439028 C50.62585085228991,72.69451363546216 51.81054640350548,71.2530637232398 52.34897903710417,70.78702976488925 L52.83055423330122,70.370205346415 L38.328238061799254,55.861535283033426 L23.825918719953656,41.35286521965184 L23.355557261124343,41.88750932458959 C22.36381578204069,43.01478965595308 20.22093799886322,44.48778025619962 18.65890969625436,45.11593138555331 C16.680754461881268,45.91142358092871 15.70972537895898,46.09224416868397 13.439441537918343,46.087875317954484 C11.7993562823152,46.084718231348695 11.487245231773914,46.05702098674875 10.52089743184875,45.828860349617095 C5.854111410880783,44.727006946162014 2.176781128570395,41.397839001665375 0.6792832372530277,36.91902802901421 C0.18811117893552104,35.45000235812259 0.014449034371356806,34.33427247572102 0.014449034371356806,32.64766318162288 C0.014449034371356806,30.961053113729 0.18811117893551224,29.845324005123175 0.6792832372530277,28.376298334231553 C1.3407491433498469,26.397943285928783 2.4584166711033264,24.58574926514922 3.921845740555783,23.118782664712995 C4.783288416534736,22.25525757436999 5.032078425888168,22.05491876295187 6.286837024643056,21.214369215623368 C7.376518924013347,20.484402043232887 9.223295118686604,19.73761874189214 10.781379049876849,19.396906419672526 C11.766277999518556,19.181535078477268 14.216685300076094,19.098191087267313 15.241454800411153,19.245210729651436 C17.621812972011117,19.586710002135288 19.7542092898721,20.464945723228958 21.633951645433402,21.877986498773602 C22.047516011645524,22.188871316730115 22.410860588374486,22.443231903711162 22.441384038164436,22.443231903711162 C22.471905941445304,22.443231903711162 22.368887558581505,22.29735361003869 22.212451978703484,22.119060239159545 C21.788925000972554,21.63635175647855 20.90817183931684,20.266626518683662 20.502805517758745,19.460261719411697 C20.02677455662766,18.5133263235641 19.526972977621703,16.99373387507398 19.320626136822774,15.865968373783568 C19.093974405006104,14.627225861729414 19.093974405006104,12.3652119984664 19.320626136822774,11.126469478674288 C19.81284827480829,8.436289680561977 21.14380878891126,5.8880573634212485 23.059895654454508,3.9673385679471673 C23.921339103688,3.103813090706295 24.170128339786885,2.903475053083913 25.424886938541782,2.0629247319596744 C26.51456883791208,1.33295755956919 28.361345032585326,0.5861750320241803 29.919428963775573,0.2454627098045673 C30.904327913417283,0.03009059481357374 33.354735213974834,-0.05325262260064649 34.37950548756443,0.09376701978348013 C39.041276179573146,0.7625695081654309 42.928086530086546,3.6160237739226777 44.852446368648934,7.782346082193844 C45.73815531866417,9.699948415338312 46.100355478671005,11.379854309231343 46.09484217378672,13.544581163642514 C46.08643689691545,16.8400255423417 45.0903922563057,19.556362507137116 42.90275471129142,22.249782969532745 C42.24155248499342,23.063850905363694 40.524687692899334,24.549071347228992 39.73719753480586,24.988229832052003 C39.528456697944975,25.104636567500265 39.343587002049425,25.243444689526388 39.32637512919958,25.2966926693526 C39.30916325634975,25.349939101587346 45.945859221184264,32.048835815507694 54.074597070613414,40.18312981139782 L68.8541127779919,54.97275272604835 L69.28683375222693,54.304813019912835 C70.63243584108221,52.22777193232829 72.38580598010297,50.646408143972046 74.52655344701729,49.579125612646116 C76.86076920033393,48.41538479996442 78.10701581309077,48.123052508591364 80.71258978282295,48.12806670496526 C82.35267039889882,48.131216053613684 82.66478686222192,48.15892103617099 83.63113079587436,48.387081673302646 C88.29791527033326,49.48893507675773 91.97525096542543,52.81810302125437 93.47274344396101,57.29691399390552 C93.96391472902397,58.765939664797145 94.13757996660631,59.88166954719871 94.13757996660631,61.56827884129685 C94.13757996660631,63.25488890919072 93.96391472902397,64.37061801779656 93.47274344396101,65.83964368868817 C92.81127831111874,67.81799873699094 91.69361619614703,69.63019275777052 90.23018558018549,71.09715935820672 C89.36874135769746,71.96068444854973 89.11994670881677,72.16102325996785 87.86519429609824,73.00157280729634 C86.77550853045521,73.73153997968683 84.92873697530922,74.47832405482332 83.37065227086444,74.81903560324719 C82.38575022820456,75.03440694444245 79.93534524741065,75.11775093565241 78.9105742005665,74.97073129326827 C76.56543236057175,74.63428413314942 74.44842380809607,73.77110802468368 72.58348850375906,72.39095898451953 C72.19590239713916,72.10412064287713 71.85508272521794,71.86943458629777 71.82612434262096,71.86943458629777 C71.79716596002397,71.86943458629777 71.96202382837318,72.11970875799322 72.19246914697278,72.42560027206072 C73.56088997736178,74.24202850311158 74.44149544739997,76.21897988594796 74.8314013176458,78.34997078609193 C75.05805768898972,79.58871716712477 75.05805768898972,81.85073103038779 74.8314013176458,83.08946967346324 C74.33917840640575,85.7796556696794 73.00822175857549,88.32788110003808 71.0921356662868,90.24860152048322 C70.23069144379873,91.11212661082622 69.98189679491806,91.3124623270614 68.7271443821995,92.15301342198137 C67.64010314709004,92.88120937593051 65.8014430320894,93.62541516367227 64.2326023569657,93.9721917230805 C63.2469038621276,94.19006938866697 60.38226642319731,94.25070402259588 59.39976146961755,94.07447978151667 C55.513051564869144,93.37735946435396 52.36226355013532,91.33867852662125 50.27050175845515,88.16750419564683Z"/>
    <ellipse id="ellipse-3" opacity="1" rx="45.5" ry="5.5" cx="144.5" cy="403.5"/>
  </defs>
  <g>
    <g transform="translate(145.8918658000354, 349.80719451039437) rotate(346.0001237172018) translate(-145.8918658000354, -349.80719451039437) translate(98.55253540291201, 300.3750593938263)" opacity="1">
      <g opacity="1">
        <g opacity="1">
          <use xlink:href="#path-2" fill="rgb(162,213,242)" fill-opacity="1"/>
        </g>
      </g>
    </g>
    <g opacity="1">
      <use xlink:href="#ellipse-3" fill="rgb(200,200,200)" fill-opacity="1"/>
    </g>
  </g>
</svg>