<svg xmlns="http://www.w3.org/2000/svg" width="274" height="189" viewBox="0 0 274 189">
    <g fill="none" fill-rule="evenodd">
        <path fill="#FF8974" fill-rule="nonzero" d="M2.342 99.47c4.839-7.903 15.78-6.525 23.54-2.4 7.759 4.126 15.501 10.284 24.04 9.101 7.2-.998 13.104-7.277 16.294-14.52 3.19-7.243 4.126-15.41 5.023-23.41a101854.1 101854.1 0 0 0 3.382-30.167c.413-3.68.9-7.563 2.969-10.474 2.733-3.84 7.744-5.02 12.03-3.866 4.287 1.154 7.942 4.25 11.07 7.704 10.017 11.059 15.693 26.008 24.45 38.316 1.784 2.505 3.798 4.982 6.462 6.192 3.84 1.74 8.248.508 12-1.428 12.24-6.31 20.462-19.186 28.543-31.2 3.931-5.84 8.724-12.084 15.264-12.72 6.88-.684 12.854 5.179 16.898 11.388 12.98 19.977 15.761 47.25 31.44 64.675 1.947 2.16 4.095 4.157 6.569 5.498.816.441 1.667.814 2.544 1.116 13.68 4.735 18.24 23.743 8.122 35.014-.219.24-.442.48-.668.72-1.502 1.586-3.204 3.086-5.234 3.559-1.889.437-3.84-.067-5.712-.612-11.966-3.492-23.789-8.83-36.16-8.57-12.04.24-23.458 5.8-35.362 7.802-8.004 1.346-16.148 1.078-24.24.787a6884.796 6884.796 0 0 1-80.844-3.384c-13.373-.614-26.75-1.2-40.121-1.884-10.301-.535-16.863-1.713-18.058-13.668-1.046-10.469-10.445-23.431-4.24-33.569z" opacity=".1"/>
        <ellipse cx="189.816" cy="179.89" fill="#FFA190" fill-rule="nonzero" opacity=".747" rx="64.798" ry="9.055"/>
        <path fill="#A2D5F2" fill-rule="nonzero" d="M35.938 140.825s3.168-.72 5.244 1.409c0 0-1.335 1.2-4.474-.13l-.77-1.28zM35.587 140.794s-1.877 2.659-.686 5.388c0 0 1.622-.78 1.577-4.188l-.89-1.2zM33.475 136.786s1.126-2.436 6.48.508c0 0-.576 1.628-2.851 1.652-2.275.024-2.957-.963-3.629-2.16zM33.134 136.637s-2.68-.125-2.53 5.98c0 0 1.712.24 2.78-1.77 1.068-2.012.502-3.051-.25-4.21zM31.267 131.885s1.2-4.243 6.833-1.651c0 0-.984 3.885-6.192 3.033l-.64-1.382zM29.177 125.803s2.539-4.377 7.797-.825c0 0-1.485 4.048-7.27 2.292l-.527-1.467zM28.183 119.947s3.031-4.068 8.247-.554c0 0-2.895 3.585-8.182 1.536l-.065-.982zM27.286 114.254s3.062-4.238 8.061-.756c0 0-3.523 3.8-7.999 1.697l-.062-.94zM27.242 109.152s3.156-5.407 7.836-2.2c0 0-3.46 4.696-7.768 3.182l-.068-.982zM27.667 103.157s3.36-5.376 7.942-1.723c0 0-4.104 4.74-7.889 2.676l-.053-.953zM28.538 97.766s4.08-5.114 8.052-3.448c0 0-4.243 5.424-8.16 4.742l.108-1.294zM29.738 92.63s4.69-6.24 7.77-4.468c0 0-3.435 4.821-8.06 5.604l.29-1.136zM31.567 86.645s4.121-5.117 7.44-4.138c0 0-3.468 5.254-7.944 5.683l.504-1.545zM33.211 81.05s4.603-4.944 6.795-4.276c0 0-3.204 5.366-6.941 5.316l.146-1.04zM34.836 75.876s3.862-5.796 6.197-5.52c0 0-2.235 5.086-6.159 6.08l-.038-.56zM36.514 68.938s3.453-4.479 5.474-4.604c0 0-2.57 5.842-5.537 6l.063-1.396zM37.474 64.327l3.019-9.045s.72 7.944-3.36 10.708l.34-1.663zM38.287 54.52s.106-7.389-.319-7.96c0 0 2.993 5.938.514 11.21l-.195-3.25zM31.114 131.796s-3.903-2.069-5.945 3.775c0 0 3.48 1.987 6.48-2.354l-.535-1.421zM29.04 125.575s-4.733-1.788-6.564 4.291c0 0 3.713 2.196 7.082-2.822l-.518-1.469zM27.994 120.314s-3.55-3.626-8.247.56c0 0 3.346 3.165 8.311.43l-.064-.99zM27.173 114.264s-3.6-3.794-8.09.326c0 0 3.998 3.296 8.16.612l-.07-.938z"/>
        <path fill="#A2D5F2" fill-rule="nonzero" d="M27.252 109.296s-2.726-5.633-7.64-2.8c0 0 3.087 4.95 7.498 3.777l.142-.977zM27.948 103.114s-2.72-5.736-7.694-2.657c0 0 3.518 5.186 7.521 3.583l.173-.926zM29.035 97.762s-1.353-6.396-5.652-6.69c0 0 1.363 6.752 5.163 7.892l.49-1.202zM29.849 92.635s-.881-7.754-4.43-7.79c0 0 .515 5.897 4.106 8.916l.324-1.126zM31.92 86.398s-1.49-6.399-4.913-6.96c0 0 .84 6.24 4.687 8.572l.226-1.612zM33.614 81.07s-.48-6.737-2.616-7.59c0 0-.866 6.188 2.076 8.492l.54-.902zM34.99 75.792s-.756-6.924-2.955-7.757c0 0-.36 5.542 2.664 8.232l.29-.475zM36.85 69.47s-.394-5.642-2.004-6.866c0 0-1.1 6.286 1.284 8.054l.72-1.188z"/>
        <path fill="#A2D5F2" fill-rule="nonzero" d="M37.267 64.06l-2.112-9.297s-1.495 7.834 2.297 10.987l-.185-1.69zM36.938 54.7s-4.23-6.066-4.197-6.772c0 0 .85 6.595 5.858 9.574L36.94 54.7zM37.267 52.807s-4.19-8.733-5.863-9.36c0 0 5.302 2.263 6.146 9.072l-.283.288z"/>
        <path fill="#444053" fill-rule="nonzero" d="M36.437 70.38l-.24-.06c2.364-10.08 2.697-16.435.936-17.894l.163-.197c1.858 1.545 1.565 7.824-.86 18.151z"/>
        <path fill="#444053" fill-rule="nonzero" d="M29.65 94.058l-.372-.103c.261-.926.544-1.87.847-2.798 2.64-8.093 4.833-15.6 6.18-21.346l.305-.18c-1.35 5.76-3.483 13.543-6.118 21.643-.3.927-.583 1.863-.842 2.784z"/>
        <path fill="#444053" fill-rule="nonzero" d="M40.942 147.914c-.053-.05-5.333-5.248-9.39-14.457a55.769 55.769 0 0 1-4.466-16.985c-.72-7.327.264-15.631 2.4-23.256l.308.317c-4.8 17.114-1.486 31.281 2.215 39.696 4.015 9.12 9.235 14.268 9.288 14.318l-.355.367z"/>
        <path fill="#A2D5F2" fill-rule="nonzero" d="M46.754 120.504s1.92-.44 3.173.852c0 0-.809.72-2.705-.08l-.468-.772zM46.546 120.487s-1.133 1.608-.413 3.257c0 0 .979-.48.96-2.532l-.547-.725zM45.269 118.06s.679-1.47 3.912.31c0 0-.348.982-1.723.996-1.376.015-1.779-.58-2.19-1.305zM45.062 117.972s-1.622-.074-1.53 3.614c0 0 1.034.144 1.68-1.07.645-1.214.304-1.843-.15-2.544zM43.927 115.1s.737-2.566 4.135-1.004c0 0-.592 2.35-3.741 1.834l-.394-.83zM42.67 111.422s1.533-2.64 4.713-.499c0 0-.9 2.448-4.394 1.385l-.32-.886zM42.067 107.882s1.834-2.46 4.985-.336c0 0-1.747 2.16-4.944.93l-.04-.594zM41.525 104.44s1.853-2.562 4.874-.455c0 0-2.129 2.297-4.836 1.025l-.038-.57zM41.5 101.354s1.92-3.266 4.736-1.33c0 0-2.093 2.84-4.697 1.92l-.038-.59zM41.75 97.733s2.038-3.252 4.8-1.051c0 0-2.481 2.865-4.77 1.617l-.03-.566zM42.283 94.474s2.465-3.092 4.867-2.084c0 0-2.565 3.279-4.927 2.866l.06-.782zM43.008 91.368s2.834-3.77 4.697-2.702c0 0-2.076 2.916-4.872 3.388l.175-.686zM44.114 87.754s2.492-3.094 4.503-2.501c0 0-2.095 3.175-4.8 3.434l.297-.933zM45.108 84.367s2.782-2.988 4.106-2.585c0 0-1.934 3.243-4.195 3.214l.089-.629zM46.09 81.24s2.335-3.504 3.746-3.34c0 0-1.349 3.074-3.722 3.676l-.024-.336zM47.107 77.045s2.088-2.707 3.31-2.784c0 0-1.555 3.533-3.348 3.621l.038-.837zM47.686 74.256l1.821-5.462s.432 4.8-2.037 6.48l.216-1.018zM48.178 68.328s.062-4.466-.195-4.812c0 0 1.81 3.588.31 6.778l-.115-1.966zM43.838 115.046s-2.356-1.252-3.6 2.28c0 0 2.105 1.2 3.92-1.42l-.32-.86zM42.588 111.274s-2.863-1.08-3.97 2.594c0 0 2.244 1.327 4.282-1.704l-.312-.89zM41.952 108.103s-2.143-2.191-4.985.336c0 0 2.023 1.92 5.026.26l-.041-.596zM41.458 104.446s-2.177-2.292-4.892.199c0 0 2.417 1.99 4.93.37l-.038-.57z"/>
        <path fill="#A2D5F2" fill-rule="nonzero" d="M41.506 101.434s-1.65-3.406-4.62-1.695c0 0 1.867 2.993 4.533 2.285l.087-.59zM41.926 97.702s-1.644-3.468-4.659-1.606c0 0 2.127 3.137 4.548 2.16l.11-.554zM42.583 94.474s-.818-3.87-3.417-4.044c0 0 .823 4.08 3.12 4.768l.297-.724zM43.075 91.37s-.528-4.687-2.688-4.71c0 0 .312 3.566 2.482 5.392l.206-.682zM44.326 87.6s-.9-3.869-2.97-4.21c0 0 .51 3.77 2.835 5.182l.135-.972zM45.35 84.38s-.295-4.08-1.579-4.59c0 0-.525 3.742 1.253 5.134l.326-.545zM46.183 81.187s-.456-4.185-1.785-4.69c0 0-.219 3.36 1.61 4.978l.175-.288zM47.306 77.366s-.24-3.41-1.2-4.152c0 0-.664 3.802.776 4.87l.424-.718z"/>
        <path fill="#A2D5F2" fill-rule="nonzero" d="M47.566 74.095l-1.277-5.62s-.905 4.737 1.387 6.643l-.11-1.023zM47.362 68.438s-2.556-3.664-2.537-4.094c0 0 .511 3.986 3.54 5.786l-1.003-1.692zM47.554 67.291s-2.535-5.28-3.545-5.652c0 0 3.206 1.368 3.715 5.487l-.17.165z"/>
        <path fill="#444053" fill-rule="nonzero" d="M47.057 77.914l-.151-.036c1.44-6.094 1.632-9.936.566-10.817l.098-.12c1.13.936.953 4.733-.513 10.973z"/>
        <path fill="#444053" fill-rule="nonzero" d="M42.955 92.232l-.225-.065c.158-.559.33-1.128.513-1.68 1.591-4.893 2.921-9.432 3.735-12.905l.184-.11c-.816 3.48-2.104 8.189-3.698 13.087a38.237 38.237 0 0 0-.509 1.673z"/>
        <path fill="#444053" fill-rule="nonzero" d="M49.78 124.79c-.03-.03-3.222-3.172-5.675-8.74a33.773 33.773 0 0 1-2.7-10.268c-.44-4.43.16-9.45 1.454-14.061l.185.192c-2.902 10.346-.898 18.912 1.34 24 2.428 5.52 5.582 8.623 5.615 8.654l-.218.223z"/>
        <path fill="#AFC0E0" fill-rule="nonzero" d="M57 136.79c-.616.11-1.22.282-1.8.514-12.946 5.17-12.73 39.01-12.73 39.01h-3.81s-1.2-14.523-6.43-35.242c-4.712-18.64 14.61-35.347 18.535-38.515.441-.353.686-.54.686-.54C70.913 109.169 57 136.79 57 136.79z"/>
        <path fill="#FFF" fill-rule="nonzero" d="M52.867 102.605a18.817 18.817 0 0 0-1.404-.583s-.24.187-.686.54c-3.924 3.168-23.247 19.874-18.535 38.515 5.23 20.719 6.417 35.237 6.417 35.237h2.143s-1.188-14.523-6.43-35.242c-4.691-18.554 14.444-35.198 18.495-38.467z" opacity=".2"/>
        <path fill="#AFC0E0" fill-rule="nonzero" d="M121.21 141.077c-5.242 20.719-6.423 35.237-6.423 35.237h-3.818s.24-35.367-13.615-39.315c-.3-.09-.606-.161-.915-.213 0 0-13.92-27.622 5.549-34.77 0 0 .197.147.552.433 3.607 2.887 23.434 19.771 18.67 38.628z"/>
        <path fill="#000" fill-rule="nonzero" d="M57 136.79c-.616.11-1.22.282-1.8.514a235.01 235.01 0 0 1-4.435-34.742c.441-.353.686-.54.686-.54C70.913 109.169 57 136.79 57 136.79zM102.547 102.454a216.24 216.24 0 0 1-5.186 34.56c-.3-.09-.606-.162-.915-.214 0 0-13.92-27.622 5.55-34.769-.008-.01.189.137.551.423z" opacity=".1"/>
        <g fill-rule="nonzero">
            <path fill="#FFB25A" d="M81.737 62.917a.399.399 0 0 0-.499-.078c-.638.377-2.206 1.479-2.872 3.528l5.513 7.3s1.573-6.732-2.142-10.75zM71.142 62.917a.399.399 0 0 1 .498-.078c.639.377 2.206 1.479 2.872 3.528l-5.513 7.3s-1.573-6.732 2.143-10.75z"/>
            <path fill="#FF9C20" d="M84.21 70.447c-.19-.422-.398-.835-.626-1.234-1.193-2.096-2.761-3.499-4.611-4.154a6.059 6.059 0 0 0-.607 1.308l5.513 7.3s.318-1.36.33-3.22zM69.294 69.213c-.227.399-.435.812-.625 1.234.013 1.86.33 3.22.33 3.22l5.513-7.3a6.053 6.053 0 0 0-.606-1.308c-1.85.655-3.418 2.058-4.612 4.154z"/>
            <path fill="#FFB2C1" d="M82.368 73.291c.013-.055 1.128-5.095-1.139-8.48-.504.447-1.42 2.118-1.726 3.059l2.865 5.421zM70.51 73.291c-.012-.055-1.127-5.095 1.14-8.48.504.447 1.42 2.118 1.725 3.059L70.51 73.29z"/>
            <path fill="#FF889E" d="M70.544 67.425c-.692 2.891-.044 5.824-.034 5.866l2.865-5.421c-.184-.566-.588-1.395-.991-2.064a8.53 8.53 0 0 0-1.84 1.619zM80.494 65.806c-.403.669-.807 1.498-.99 2.064l2.864 5.421c.01-.042.658-2.975-.034-5.866a8.526 8.526 0 0 0-1.84-1.619z"/>
            <path fill="#5C586F" d="M84.615 77.309c-.627-4.657-2.595-11.233-8.176-11.233-5.581 0-7.548 6.576-8.176 11.233-.154 1.142-.339 2.335-.029 3.467.317 1.159 1.155 1.928 2.135 2.5 1.622.95 3.765 1.421 5.03 2.922a1.358 1.358 0 0 0 2.08 0c1.265-1.5 3.408-1.972 5.03-2.921.98-.573 1.818-1.343 2.135-2.5.31-1.133.125-2.326-.029-3.468z"/>
            <path fill="#4F4C5F" d="M69.998 81.74c-.31-1.245-.125-2.556.03-3.81.526-4.296 1.998-10.077 5.759-11.822-5.084.492-6.922 6.73-7.524 11.2-.154 1.143-.339 2.336-.029 3.468.317 1.158 1.155 1.928 2.135 2.5.232.137.476.263.726.384a4.094 4.094 0 0 1-1.097-1.92z"/>
            <path fill="#FFB25A" d="M76.44 82.795c-2.897 0-3.124-.851-3.124-2.576s.151-5.312 3.123-5.312c2.972 0 3.124 3.587 3.124 5.312s-.227 2.576-3.124 2.576z"/>
            <path fill="#FF9C20" d="M74.244 80.219c0-1.63.136-4.923 2.66-5.28a3.314 3.314 0 0 0-.465-.032c-2.972 0-3.123 3.587-3.123 5.312s.227 2.576 3.123 2.576c.163 0 .318-.003.464-.009-2.456-.09-2.659-.94-2.659-2.567z"/>
            <g fill="#423E4F">
                <path d="M77.863 80.202a.34.34 0 0 0-.492.034.435.435 0 0 1-.335.15.435.435 0 0 1-.335-.15.347.347 0 0 0-.262-.123c-.1 0-.197.045-.262.123a.436.436 0 0 1-.335.15.436.436 0 0 1-.335-.15.34.34 0 0 0-.491-.034.37.37 0 0 0-.033.508c.212.253.526.397.859.397.215 0 .42-.06.597-.17a1.127 1.127 0 0 0 1.457-.227.37.37 0 0 0-.033-.508zM73.063 75.467a.355.355 0 0 1-.348-.36v-.771c0-.2.156-.36.348-.36.192 0 .348.16.348.36v.77c0 .2-.156.361-.348.361zM79.815 75.467a.355.355 0 0 1-.348-.36v-.771c0-.2.156-.36.348-.36.193 0 .348.16.348.36v.77c0 .2-.155.361-.348.361z"/>
            </g>
            <path fill="#FF9DB0" d="M81.257 76.506h-.826a.355.355 0 0 1-.348-.36c0-.2.155-.361.348-.361h.826c.193 0 .349.161.349.36 0 .2-.156.36-.349.36zM72.447 76.506h-.826a.355.355 0 0 1-.348-.36c0-.2.156-.361.348-.361h.826c.193 0 .349.161.349.36 0 .2-.156.36-.349.36z"/>
            <path fill="#423E4F" d="M77.663 78.476a.224.224 0 0 0-.221-.223h-2.006a.223.223 0 0 0-.221.223v.002c0 .555.548 1.005 1.224 1.005.676 0 1.224-.45 1.224-1.005v-.002z"/>
        </g>
        <path fill="#E3E8F4" fill-rule="nonzero" d="M95.422 142.027a261.746 261.746 0 0 1-4.726 16.32s-8.573 8.93-29.28 0c0 0-2.069-5.832-4.344-15.746-5.009-21.8-11.016-63.341 1.783-106.01A158.82 158.82 0 0 1 74.978 0s10.935 12.554 18.96 36.583c8.026 24.029 13.133 59.537 1.484 105.444z"/>
        <circle cx="76.718" cy="70.464" r="17.191" fill="#AFC0E0" fill-rule="nonzero"/>
        <path fill="#A2D5F2" fill-rule="nonzero" d="M88.91 70.474a12.192 12.192 0 0 1-19.92 9.43 12.32 12.32 0 0 1-3.072-3.774 12.168 12.168 0 0 1-1.39-5.656v-.29a12.206 12.206 0 0 1 8.88-11.454 12.607 12.607 0 0 1 2.938-.446h.365a12.192 12.192 0 0 1 12.2 12.19z" opacity=".414"/>
        <path fill="#AFC0E0" fill-rule="nonzero" d="M93.936 36.583c-19.505 9.339-35.093 0-35.093 0A158.82 158.82 0 0 1 74.978 0s10.935 12.554 18.958 36.583zM95.422 142.027a257.56 257.56 0 0 1-3.048 10.956 226.704 226.704 0 0 1-1.68 5.357s-8.573 8.93-29.28 0c0 0-.672-1.894-1.68-5.357a196.473 196.473 0 0 1-2.672-10.39s7.71 3.291 18.65 3.291a51.386 51.386 0 0 0 19.71-3.857z"/>
        <path fill="#E3E8F4" fill-rule="nonzero" d="M92.374 152.983a226.704 226.704 0 0 1-1.68 5.357s-8.573 8.93-29.28 0c0 0-.672-1.894-1.68-5.357-.003 0 21.103 6.072 32.64 0z"/>
        <path fill="#FFF" fill-rule="nonzero" d="M73.416 58.714l-.026.019-8.856 11.433v.29a12.168 12.168 0 0 0 1.39 5.658l10.434-17.847-2.942.447zM76.243 69.034l-7.253 10.86a12.32 12.32 0 0 1-2.284-2.48l8.64-9.273.897.893z" opacity=".2"/>
        <path fill="#FFF" fill-rule="nonzero" d="M66.048 158.342s-2.069-5.834-4.344-15.746c-5.009-21.802-11.016-63.343 1.783-106.013A159.403 159.403 0 0 1 77.611 3.442c-1.625-2.278-2.64-3.44-2.64-3.44a158.803 158.803 0 0 0-16.128 36.581c-12.799 42.67-6.792 84.211-1.783 106.013 2.275 9.912 4.344 15.746 4.344 15.746 8.182 3.526 14.467 4.265 19.08 3.872-3.94-.3-8.726-1.412-14.436-3.872z" opacity=".2"/>
        <path stroke="#535461" stroke-width=".5" d="M225.115 174.943s11.218-13.958 10.474-27.938a27.132 27.132 0 0 1 4.45-16.575 45.646 45.646 0 0 1 5.28-6.48"/>
        <path fill="#A2D5F2" fill-rule="nonzero" d="M244.894 115.147c-.802 1.947.398 9.043.398 9.043s5.849-4.195 6.65-6.141a3.811 3.811 0 0 0-7.048-2.902zM234.626 123.533c.387 2.069 5.252 7.373 5.252 7.373s2.64-6.699 2.244-8.77a3.812 3.812 0 0 0-7.496 1.397zM227.297 142.066c1.377 1.59 8.256 3.715 8.256 3.715s-1.114-7.111-2.491-8.705a3.811 3.811 0 0 0-5.76 4.99h-.005zM224.909 157.337c1.087 1.802 7.507 5.057 7.507 5.057s.106-7.2-.982-9a3.812 3.812 0 1 0-6.525 3.943zM247.123 134.33c-1.953.78-9.038-.492-9.038-.492s4.253-5.805 6.209-6.588a3.812 3.812 0 0 1 2.83 7.08zM244.104 152.155c-2.098.161-8.477-3.173-8.477-3.173s5.794-4.27 7.894-4.43a3.814 3.814 0 0 1 .583 7.603zM238.793 169.075c-2.043.514-8.892-1.694-8.892-1.694s4.99-5.187 7.032-5.698a3.811 3.811 0 1 1 1.86 7.392z"/>
        <path fill="#000" fill-rule="nonzero" d="M244.894 115.147c-.802 1.947.398 9.043.398 9.043s5.849-4.195 6.65-6.141a3.811 3.811 0 0 0-7.048-2.902zM234.626 123.533c.387 2.069 5.252 7.373 5.252 7.373s2.64-6.699 2.244-8.77a3.812 3.812 0 0 0-7.496 1.397zM227.297 142.066c1.377 1.59 8.256 3.715 8.256 3.715s-1.114-7.111-2.491-8.705a3.811 3.811 0 0 0-5.76 4.99h-.005zM224.909 157.337c1.087 1.802 7.507 5.057 7.507 5.057s.106-7.2-.982-9a3.812 3.812 0 1 0-6.525 3.943zM247.123 134.33c-1.953.78-9.038-.492-9.038-.492s4.253-5.805 6.209-6.588a3.812 3.812 0 0 1 2.83 7.08zM244.104 152.155c-2.098.161-8.477-3.173-8.477-3.173s5.794-4.27 7.894-4.43a3.814 3.814 0 0 1 .583 7.603zM238.793 169.075c-2.043.514-8.892-1.694-8.892-1.694s4.99-5.187 7.032-5.698a3.811 3.811 0 1 1 1.86 7.392z" opacity=".25"/>
        <path stroke="#535461" stroke-width=".5" d="M225.216 174.36s15.912-8.218 20.897-21.298a27.12 27.12 0 0 1 10.785-13.35 45.578 45.578 0 0 1 7.44-3.783"/>
        <path fill="#A2D5F2" fill-rule="nonzero" d="M267.528 127.704c-1.522 1.457-3.3 8.431-3.3 8.431s7.046-1.466 8.568-2.92a3.815 3.815 0 1 0-5.268-5.52v.009zM254.746 131.21c-.48 2.05 1.812 8.88 1.812 8.88s5.11-5.056 5.604-7.118a3.811 3.811 0 0 0-7.416-1.762zM240.533 145.183c.614 2.014 6.043 6.742 6.043 6.742s1.865-6.96 1.25-8.964a3.812 3.812 0 0 0-7.293 2.222zM232.162 158.177c.264 2.09 4.814 7.665 4.814 7.665s3.014-6.535 2.748-8.625a3.812 3.812 0 0 0-7.562.96zM261.794 146.146c-2.104-.077-8.064-4.112-8.064-4.112s6.24-3.583 8.345-3.506a3.811 3.811 0 0 1-.28 7.618zM251.81 161.218c-1.984-.704-6.465-6.336-6.465-6.336s7.03-1.553 9.012-.85a3.812 3.812 0 1 1-2.547 7.186zM240.096 174.535c-2.074-.357-7.44-5.153-7.44-5.153s6.665-2.716 8.738-2.359a3.811 3.811 0 1 1-1.296 7.512h-.002z"/>
        <path stroke="#B2DCF4" d="M91.977 78.188c.876 1.536 2.97 1.993 4.676 1.565 1.706-.427 3.153-1.524 4.62-2.491 6.563-4.336 14.787-6.377 22.57-4.977 7.784 1.4 15.007 6.418 18.45 13.544 1.837 3.8 2.594 8.058 4.574 11.774 3.914 7.425 12.39 11.832 20.771 12.11 8.381.276 15.37-6.547 22-11.62 0 0 25.867-6.287 26.909-14.936"/>
        <g fill-rule="nonzero" transform="rotate(19 16.424 656.516)">
            <path fill="#938EA3" d="M11.057 10.439a.33.33 0 0 0-.359.128c-.542.78-2.408 3.978.008 8.242l3.064-5.984s-.8-1.854-2.713-2.386zM19.75 8.11a.33.33 0 0 1 .375-.069c.86.404 4.075 2.241 4.114 7.142l-5.645-3.65S18.36 9.526 19.75 8.11z"/>
            <path fill="#77718C" d="M24.066 13.375a10.075 10.075 0 0 0-1.68-1.437c-.917-.62-2.198-1.248-3.762-1.41-.078.588-.03 1.004-.03 1.004l5.645 3.65a9.985 9.985 0 0 0-.173-1.807zM10.69 15.072c-.32.656-.567 1.363-.737 2.085.183.53.43 1.08.753 1.652l3.064-5.984s-.167-.385-.528-.854c-1.274.922-2.069 2.106-2.553 3.1z"/>
            <path fill="#FFB2C1" d="M11.382 12.537c-.446.994-.871 2.856-.04 5.096L12.85 14c-.042-.095-.458-1.008-1.212-1.535a.172.172 0 0 0-.256.07zm1.508 1.484a.13.13 0 0 0 .006.013l-.006-.013zM20.26 10.156c-.39.833-.292 1.831-.281 1.935l3.12 2.392c-.399-2.357-1.698-3.756-2.582-4.394a.172.172 0 0 0-.256.067zm-.24 1.954l.002.015c0-.004 0-.01-.002-.015z"/>
            <path fill="#E7E7E7" d="M11.411 25.048c1.638 2.1 4.623 4.574 9.122 3.369 4.5-1.206 5.847-4.84 6.215-7.479l-.553-2.066-4.544-3.719-8.952 2.399-1.89 5.248.602 2.248z"/>
            <path fill="#C7C5CB" d="M11.411 25.048c.18.23.374.464.586.697.212.234.44.466.684.693 1.746 1.617 4.337 2.92 7.852 1.979a11.82 11.82 0 0 0 .565-.17l.01-.003c-4.175.851-6.973-1.498-8.539-3.507a13.174 13.174 0 0 1-1.355-2.13l.197 2.441z"/>
            <g fill="#FF889E">
                <path d="M20.022 12.125c0-.004 0-.01-.002-.015l.002.015z"/>
                <path d="M20.047 10.814c-.132.63-.077 1.2-.068 1.277l3.12 2.392a7.249 7.249 0 0 0-1.061-2.768 8.52 8.52 0 0 0-1.991-.9zM12.89 14.02l.006.014-.006-.013zM10.879 14.705a7.25 7.25 0 0 0 .464 2.928l1.507-3.632a4.44 4.44 0 0 0-.698-1.072 8.52 8.52 0 0 0-1.273 1.776z"/>
            </g>
            <path fill="#938EA3" d="M26.857 18.416c.029.507.044 1.429-.109 2.522-.683-1.38-1.851-1.898-2.63-2.094a2.008 2.008 0 0 1-1.2-.869c-.503-.785-1.221-1.392-2.2-1.13-2.302.617-.95 4.684-.95 4.684l-.848.867-1.168-.327s-.863-4.198-3.165-3.58c-.979.261-1.298 1.146-1.34 2.078a2.01 2.01 0 0 1-.604 1.352c-.578.56-1.33 1.593-1.232 3.129a13.174 13.174 0 0 1-1.355-2.13.735.735 0 0 1 .018-.706l.502-.826c.162-.265.224-.59.177-.914-.406-2.769.863-7.552 5.308-8.743 4.446-1.191 7.936 2.317 8.97 4.917.12.304.337.555.609.704l.848.464a.735.735 0 0 1 .369.602z"/>
            <path fill="#77718C" d="M11.652 23.4c-.19-.317-.336-.59-.438-.792a.735.735 0 0 1 .018-.706l.503-.827c.161-.265.223-.59.176-.913-.388-2.646.754-7.132 4.736-8.564a7.047 7.047 0 0 0-.586.13c-1.805.485-3.087 1.561-3.945 2.855a8.618 8.618 0 0 0-1.168 2.71 9.025 9.025 0 0 0-.264 2.352c.007.29.031.568.069.827.046.313-.011.643-.177.914l-.502.826a.742.742 0 0 0-.018.706c.375.746.838 1.467 1.355 2.13a3.88 3.88 0 0 1 .241-1.647z"/>
            <path fill="#423E4F" d="M20.55 23.381a.3.3 0 0 0-.4.137.443.443 0 0 1-.287.228.443.443 0 0 1-.363-.054.303.303 0 0 0-.244-.04.304.304 0 0 0-.191.157.443.443 0 0 1-.287.228.443.443 0 0 1-.362-.054.3.3 0 1 0-.334.498c.246.165.556.214.851.135.196-.053.369-.157.501-.3.186.057.388.062.584.01.295-.08.539-.278.67-.544a.3.3 0 0 0-.138-.4zM14.82 20.237a.3.3 0 0 0-.212.367l.185.692a.3.3 0 1 0 .58-.155l-.186-.692a.3.3 0 0 0-.367-.212z"/>
            <path fill="#FFB2C1" d="M15.097 21.916l-.779.209a.3.3 0 1 0 .155.58l.779-.21a.3.3 0 1 0-.155-.579z"/>
            <path fill="#423E4F" d="M21.943 19.38l-.185-.692a.3.3 0 1 0-.58.155l.186.692a.3.3 0 1 0 .579-.155z"/>
            <path fill="#FFB2C1" d="M22.77 19.86l-.78.21a.3.3 0 1 0 .156.578l.778-.208a.3.3 0 1 0-.155-.58z"/>
            <path fill="#423E4F" d="M20.048 21.686a.229.229 0 0 0-.28-.157l-2.016.54a.229.229 0 0 0-.165.276v.002c.145.539.813.828 1.492.646.68-.182 1.114-.766.97-1.305l-.001-.002z"/>
            <path fill="#E6E6E6" d="M26.779 1.898h1v13.696h-1z"/>
            <path fill="#94C2DC" d="M30.779 21.357a10.306 10.306 0 1 1-18.577-6.147l.002-.003a10.305 10.305 0 0 1 18.575 6.15z" opacity=".514"/>
            <g fill="#000" opacity=".1">
                <path d="M29.314 17.084l-.84 4.815c-6.318-16.4-16.367-6.325-16.54-6.15a10.305 10.305 0 0 1 17.38 1.335z"/>
            </g>
            <path fill="#FFF" d="M29.586 16.542l-.841 4.815c-6.318-16.4-16.367-6.326-16.54-6.15a10.305 10.305 0 0 1 17.38 1.335z"/>
            <path fill="#FFF" d="M28.113 21.015c-6.318-16.4-15.975-5.71-16.149-5.533.441-.593.276-.991.793-1.51.332-.332.59-.77.981-1.068.34-.26.695-.627 1.074-.847 1.767-1.023 3.911-1.464 5.82-1.317 3.527.27 6.669 2.332 8.322 5.46l-.84 4.815z"/>
            <path fill="#FFF" d="M28.173 14.509l1.413 4.904s-2.933 8.79-16.532 9.096l-.445 1.255-1.492.407-.678 2.847 1.898 18.035s-.813 1.763.543 1.627c0 0 8.95-2.983 16.678-.27 0 0 1.628.677 1.22-.814 0 0 5.425-3.39 5.018-6.916-.407-3.526.407-19.933.407-19.933s.813-4.746-1.627-5.83c0 0-3.585-5.018-6.403-4.408z"/>
            <circle cx="28.88" cy="20.408" r="2.509" fill="#E6E6E6"/>
            <circle cx="27.118" cy="1.831" r="1.831" fill="#E6E6E6"/>
            <path fill="#F2F2F2" d="M19.231 17.38h-.43v-.43h-.083v.43h-.43v.083h.43v.43h.084v-.43h.43zM14.986 21.39h-.43v-.43h-.084v.43h-.43v.083h.43v.43h.084v-.43h.43z"/>
        </g>
    </g>
</svg>
