<svg xmlns="http://www.w3.org/2000/svg" width="375" height="293" viewBox="0 0 375 293">
    <g fill="none" fill-rule="nonzero" transform="rotate(-13 398.76 241.992)">
        <path fill="#231553" d="M481.52 1.5v114.857a169.52 169.52 0 0 1-49.65 119.87A169.52 169.52 0 0 1 312 285.877H0V171.019C0 109.644 32.62 55.881 81.474 26.132a168.26 168.26 0 0 1 26.457-13.094 166.447 166.447 0 0 1 16.515-5.476c.11-.036.224-.067.333-.093 1.654-.453 3.318-.879 4.992-1.28a169.58 169.58 0 0 1 31.72-4.503c1.253-.057 2.507-.104 3.77-.13.453-.015.91-.026 1.373-.026.957-.02 1.919-.03 2.886-.03h312z" opacity=".405"/>
        <path fill="#F2F2F2" d="M224.64 211.86C100.835 211.86.426 245.245.005 286.48h449.27c-.42-41.235-100.83-74.62-224.635-74.62z" opacity=".405"/>
        <ellipse cx="41.6" cy="11.96" fill="#000" opacity=".1" rx="41.6" ry="11.556" transform="translate(141.44 244.88)"/>
        <ellipse cx="41.6" cy="11.96" fill="#000" opacity=".1" rx="41.6" ry="11.556" transform="translate(231.4 224.08)"/>
        <ellipse cx="37.44" cy="10.4" fill="#000" opacity=".1" rx="37.44" ry="10.4" transform="translate(145.6 246.44)"/>
        <ellipse cx="37.44" cy="10.4" fill="#000" opacity=".1" rx="37.44" ry="10.4" transform="translate(235.56 225.64)"/>
        <circle cx="71.76" cy="47.8" r="3.64" fill="#F2F2F2"/>
        <circle cx="384.8" cy="190.28" r="3.64" fill="#F2F2F2"/>
        <circle cx="213.2" cy="73.28" r="3.64" fill="#F2F2F2"/>
        <circle cx="393.64" cy="51.44" r="2.08" fill="#FF6584"/>
        <circle cx="80.08" cy="155.44" r="2.08" fill="#FF6584"/>
        <path fill="#F2F2F2" d="M48.88 199.287h-.947v-.947h-.186v.947H46.8v.186h.947v.947h.186v-.947h.947zM353.08 122.327h-.947v-.947h-.186v.947H351v.186h.947v.947h.186v-.947h.947zM262.6 148.327h-.947v-.947h-.186v.947h-.947v.186h.947v.947h.186v-.947h.947zM232.44 175.887h-.947v-.947h-.186v.947h-.947v.186h.947v.947h.186v-.947h.947zM299 176.927h-.947v-.947h-.186v.947h-.947v.186h.947v.947h.186v-.947H299zM49.92 88.527h-.947v-.947h-.186v.947h-.947v.186h.947v.947h.186v-.947h.947z"/>
        <g transform="rotate(41 172.668 462.737)">
            <path fill="#E7E7E7" d="M62.424 60.322l1.1.225a.177.177 0 0 0 .206-.22c-.76-2.771-2.865-5.095-3.753-5.982a.177.177 0 0 1 .152-.299l1.088.169a.177.177 0 0 0 .194-.233c-.96-2.76-3.217-4.839-4.272-5.695-.14-.115-.037-.342.142-.311l1.061.18a.177.177 0 0 0 .197-.232c-.998-2.898-4.043-5.817-5.144-6.804a.177.177 0 0 1 .133-.308l1.49.122a.178.178 0 0 0 .173-.257c-3.535-7.025-12.412-9.652-17.516-6.162a2.79 2.79 0 0 1-1.789.48c-6.164-.471-12.538 6.242-12.087 14.093a.177.177 0 0 0 .278.137l1.23-.85c.139-.097.32.038.268.199-.46 1.405-1.637 5.456-1.052 8.465a.177.177 0 0 0 .286.102l.829-.687c.14-.115.343.029.278.199-.485 1.269-1.4 4.197-.852 7.068.025.13.181.188.285.104l.858-.69a.177.177 0 0 1 .281.184c-.325 1.212-.987 4.277-.259 7.056.033.128.19.175.289.088l.84-.745c.129-.114.329.006.288.174-.243.997-.643 3.147-.178 5.097a.178.178 0 0 0 .218.132l37.155-9.956a.178.178 0 0 0 .123-.223c-.573-1.922-1.994-3.583-2.703-4.325-.12-.125-.006-.33.163-.295z"/>
            <path fill="#C7C5CB" d="M42.497 46.413c2.753.319 5.164 2.31 5.924 5.146l.913 3.408a1.41 1.41 0 0 1-1.515 1.766c-2.175-.234-5.443-1.098-6.258-4.139.815 3.04-1.583 5.424-3.35 6.714a1.41 1.41 0 0 1-2.195-.772l-.936-3.492a6.896 6.896 0 0 1 2.577-7.342l4.84-1.289z"/>
            <path fill="#423E4F" d="M42.497 46.413a2.549 2.549 0 0 1-4.84 1.289 6.888 6.888 0 0 1 2.349-1.115 6.758 6.758 0 0 1 2.49-.174z"/>
            <path fill="#423E4F" d="M47.921 41.78l-17.275 4.629a.586.586 0 0 0 .303 1.131l2.073-.555.23.855a.586.586 0 1 0 1.131-.304l-.229-.854L45.02 43.77l.23.855a.586.586 0 0 0 1.131-.303l-.229-.855 2.074-.556a.586.586 0 1 0-.304-1.131z"/>
            <path fill="#FFB2C1" d="M33.807 48.646l-1.201.322a.586.586 0 0 0 .303 1.132l1.201-.322a.586.586 0 0 0-.303-1.132zM47.504 44.976l-1.202.322a.586.586 0 0 0 .304 1.132l1.201-.322a.586.586 0 0 0-.303-1.132z"/>
            <path fill="#C7C5CB" d="M28.582 37.71c-2.986 2.606-5.046 6.798-4.783 11.378a.177.177 0 0 0 .278.137l1.23-.85c.139-.097.32.038.268.199-.46 1.405-1.637 5.456-1.052 8.465a.177.177 0 0 0 .286.102l.83-.687c.14-.115.342.029.277.199-.485 1.269-1.4 4.197-.852 7.068.025.13.181.188.285.104l.858-.69a.177.177 0 0 1 .281.184c-.325 1.212-.987 4.277-.259 7.056.033.128.19.175.289.088l.84-.745c.129-.114.329.006.288.174-.243.997-.643 3.147-.178 5.097a.178.178 0 0 0 .218.132l3.094-.83c-3.735-18.392-3.316-29.94-2.198-36.58z"/>
            <path fill="#E6E6E6" d="M54.538 4.185h1.495v30.193h-1.495z"/>
            <path fill="#FF7E67" d="M63.357 47.083a22.72 22.72 0 1 1-40.955-13.55l.006-.007a22.717 22.717 0 0 1 40.95 13.557z" opacity=".707"/>
            <path fill="#000" d="M60.129 37.663L58.275 48.28C44.348 12.125 22.193 34.333 21.81 34.722a22.72 22.72 0 0 1 38.319 2.941z" opacity=".1"/>
            <path fill="#FFF" d="M60.727 36.468l-1.854 10.615C44.945 10.93 22.791 33.138 22.408 33.526a22.72 22.72 0 0 1 38.319 2.942z"/>
            <path fill="#FFF" d="M57.612 31.986l3.115 10.811S54.262 62.174 24.282 62.85l-.983 2.768-3.288.897-1.495 6.278 4.185 39.76s-1.793 3.885 1.196 3.586c0 0 19.73-6.576 36.77-.598 0 0 3.587 1.495 2.69-1.793 0 0 11.958-7.474 11.061-15.246-.897-7.773.897-43.944.897-43.944s1.794-10.463-3.587-12.855c0 0-7.903-11.062-14.116-9.716z"/>
            <circle cx="59.172" cy="44.991" r="5.53" fill="#E6E6E6"/>
            <circle cx="55.286" cy="4.036" r="4.036" fill="#E6E6E6"/>
            <path fill="#F2F2F2" d="M37.9 38.314h-.947v-.947h-.186v.947h-.947v.185h.947v.948h.186v-.948h.947zM28.54 47.154h-.947v-.947h-.186v.947h-.947v.185h.947v.948h.186v-.948h.947z"/>
        </g>
        <path fill="#F2F2F2" d="M250.12 80.207h-.947v-.947h-.186v.947h-.947v.186h.947v.947h.186v-.947h.947z"/>
        <circle cx="289.12" cy="35.84" r="2.08" fill="#F2F2F2"/>
    </g>
</svg>
