<svg xmlns="http://www.w3.org/2000/svg" width="168" height="117" viewBox="0 0 168 117">
    <g fill="none" fill-rule="nonzero">
        <path fill="#FFA190" d="M66.744 14.928C53.927 2.712 34.542.529 19.33 9.588c15.196 5.44 31.964 5.64 47.414 5.34z" opacity=".4"/>
        <path fill="#A2D5F2" d="M154.822 103.277l-16.595-28.744a.528.528 0 0 0-.917 0l-16.595 28.744a.528.528 0 0 0 .458.8h4.95c.292 0 .529.237.53.53v6.134a.53.53 0 0 0 .528.53h6.459a.53.53 0 0 0 .53-.53v-2.965c0-.292.236-.528.528-.528h6.14a.53.53 0 0 1 .53.528v2.965c0 .292.237.53.53.53h6.457a.53.53 0 0 0 .53-.53V104.6a.53.53 0 0 1 .53-.53h4.95a.53.53 0 0 0 .457-.793zm-23.142 3.18a.528.528 0 0 1-.374.16h-2.325a.53.53 0 0 1 0-1.059h2.33a.53.53 0 0 1 .374.904l-.005-.004zm15.245 0a.528.528 0 0 1-.375.16h-2.323a.53.53 0 0 1 0-1.059h2.333a.53.53 0 0 1 .374.904l-.01-.004zM52.248 103.53L35.653 74.786a.53.53 0 0 0-.917 0L20.402 99.613a43.787 43.787 0 0 0 5.998 6.193h2.336a.53.53 0 0 1 0 1.06h-.986a25.646 25.646 0 0 0 3.84 2.388v-1.224a.53.53 0 0 1 .53-.53h6.14a.53.53 0 0 1 .529.53v2.964a.53.53 0 0 0 .53.53h6.459a.518.518 0 0 0 .42-.214.509.509 0 0 0 .108-.32v-6.136a.53.53 0 0 1 .53-.53h4.95a.53.53 0 0 0 .462-.794zm-10.968 2.432a.528.528 0 0 1 .374-.16h2.33a.53.53 0 0 1 0 1.059h-2.331a.53.53 0 0 1-.375-.904l.002.005zM30.856 95.325a.53.53 0 0 1-.53-.53v-4.022a.53.53 0 0 1 .53-.53h8.68a.53.53 0 0 1 .528.53v4.022a.53.53 0 0 1-.528.53h-8.68z" opacity=".1"/>
        <path fill="#619EC1" d="M117.845 51.894H97.309v-4.441c0-.587-.476-1.063-1.063-1.063h-6.03v-4.73c0-.37-.3-.67-.669-.67H81.78c-.37 0-.669.3-.669.67v4.729h-7.09c-.586 0-1.062.475-1.062 1.062v4.442H53.376a.216.216 0 0 0-.214.216v58.965c0 .118.095.215.214.216H66.39c.12 0 .216-.097.216-.216v-7.933c.001-.12.097-.215.216-.216h5.498c.119 0 .215.097.216.216v7.933c0 .118.096.215.214.216h25.72a.218.218 0 0 0 .216-.216v-7.933c0-.119.096-.215.215-.216h5.497c.12 0 .216.097.216.216v7.933c.001.119.097.215.216.216h13.015a.218.218 0 0 0 .216-.216V52.11a.218.218 0 0 0-.216-.216zM64.277 100.17a.214.214 0 0 1-.215.214h-8.038a.214.214 0 0 1-.216-.214v-2.741c0-.12.097-.216.216-.216h8.038c.12 0 .215.097.215.216v2.74zm0-7.095a.214.214 0 0 1-.215.216h-8.038a.214.214 0 0 1-.216-.216v-2.744a.214.214 0 0 1 .216-.216h8.038a.214.214 0 0 1 .215.216v2.744zm0-7.093a.216.216 0 0 1-.215.216h-8.038a.216.216 0 0 1-.216-.216v-2.745c0-.12.097-.216.216-.216h8.038c.12 0 .215.097.215.216v2.745zm0-7.094a.214.214 0 0 1-.215.216h-8.038a.214.214 0 0 1-.216-.216v-2.74a.214.214 0 0 1 .216-.215h8.038a.214.214 0 0 1 .215.216v2.739zm0-7.093a.216.216 0 0 1-.215.216h-8.038a.216.216 0 0 1-.216-.216V69.05a.214.214 0 0 1 .216-.215h8.038c.119 0 .215.096.215.215v2.745zm0-7.093a.214.214 0 0 1-.215.215h-8.038a.214.214 0 0 1-.216-.215v-2.745c0-.12.097-.216.216-.216h8.038c.12 0 .215.097.215.216v2.745zm0-7.094a.214.214 0 0 1-.215.216h-8.038a.214.214 0 0 1-.216-.216v-2.74a.214.214 0 0 1 .216-.215h8.038a.214.214 0 0 1 .215.216v2.739zm19.057 42.56a.214.214 0 0 1-.216.214H75.08a.216.216 0 0 1-.216-.214v-2.74c0-.118.097-.214.216-.215h8.038c.12 0 .216.097.216.216v2.739zm0-7.094a.214.214 0 0 1-.216.216H75.08a.216.216 0 0 1-.216-.216V90.33a.216.216 0 0 1 .216-.216h8.038a.214.214 0 0 1 .216.216v2.743zm0-7.093c0 .12-.096.216-.216.216H75.08a.218.218 0 0 1-.216-.216v-2.744c0-.12.097-.215.216-.216h8.038c.12 0 .216.097.216.216v2.744zm0-7.095a.214.214 0 0 1-.216.216H75.08a.216.216 0 0 1-.216-.216V76.15a.216.216 0 0 1 .216-.216h8.038a.214.214 0 0 1 .216.216v2.737zm0-7.092c0 .119-.096.216-.216.216H75.08a.218.218 0 0 1-.216-.216V69.05c0-.12.097-.215.216-.215h8.038a.214.214 0 0 1 .216.215v2.744zm0-7.093a.214.214 0 0 1-.216.214H75.08a.216.216 0 0 1-.216-.214v-2.744c0-.12.097-.215.216-.216h8.038c.12 0 .216.097.216.216V64.7zm0-7.095a.214.214 0 0 1-.216.216H75.08a.216.216 0 0 1-.216-.216V54.87a.216.216 0 0 1 .216-.216h8.038a.214.214 0 0 1 .216.216v2.737zm13.023 42.56a.214.214 0 0 1-.216.215h-8.039a.216.216 0 0 1-.216-.215V97.43c.001-.12.097-.215.216-.216h8.039c.12 0 .216.097.216.216v2.737zm0-7.094a.214.214 0 0 1-.216.216h-8.039a.216.216 0 0 1-.216-.216v-2.74a.216.216 0 0 1 .216-.217h8.039a.214.214 0 0 1 .216.216v2.741zm0-7.093c0 .12-.097.216-.216.216h-8.039a.218.218 0 0 1-.216-.216v-2.742c.001-.12.097-.215.216-.216h8.039c.12 0 .216.097.216.216v2.742zm0-7.094a.214.214 0 0 1-.216.216h-8.039a.216.216 0 0 1-.216-.216v-2.736a.216.216 0 0 1 .216-.216h8.039a.214.214 0 0 1 .216.216v2.736zm0-7.093c0 .12-.097.216-.216.216h-8.039a.218.218 0 0 1-.216-.216V69.05c.001-.12.098-.215.216-.215h8.039a.214.214 0 0 1 .216.215v2.742zm0-7.093a.214.214 0 0 1-.216.215h-8.039a.216.216 0 0 1-.216-.215v-2.742c.001-.12.097-.215.216-.216h8.039c.12 0 .216.097.216.216v2.742zm0-7.094a.214.214 0 0 1-.216.216h-8.039a.216.216 0 0 1-.216-.216v-2.736a.216.216 0 0 1 .216-.216h8.039a.214.214 0 0 1 .216.216v2.736zm19.057 42.56a.216.216 0 0 1-.216.214h-8.038a.214.214 0 0 1-.216-.214v-2.736c0-.12.097-.216.216-.216h8.04c.119 0 .215.097.216.216l-.002 2.736zm0-7.095c0 .12-.096.216-.216.216h-8.038a.214.214 0 0 1-.216-.216v-2.739a.214.214 0 0 1 .216-.216h8.04c.12 0 .216.097.216.216l-.002 2.74zm0-7.092a.218.218 0 0 1-.216.216h-8.038a.216.216 0 0 1-.216-.216v-2.741c0-.12.097-.216.216-.216h8.04c.119 0 .215.097.216.216l-.002 2.74zm0-7.095c0 .12-.096.216-.216.216h-8.038a.214.214 0 0 1-.216-.216V76.15a.214.214 0 0 1 .216-.216h8.04c.12 0 .216.097.216.216l-.002 2.734zm0-7.093a.218.218 0 0 1-.216.216h-8.038a.216.216 0 0 1-.216-.216v-2.74a.214.214 0 0 1 .216-.215h8.04c.119 0 .215.096.216.215l-.002 2.74zm0-7.092a.216.216 0 0 1-.214.219h-8.04a.214.214 0 0 1-.216-.215v-2.745c0-.12.097-.216.216-.216h8.04c.119 0 .215.097.216.216l-.002 2.74zm0-7.095c0 .12-.096.216-.216.216h-8.038a.214.214 0 0 1-.216-.216V54.87a.214.214 0 0 1 .216-.216h8.04c.12 0 .216.097.216.216l-.002 2.734z" opacity=".2"/>
        <path fill="#A2D5F2" d="M59.36 35.914a4.622 4.622 0 0 0-2.683.29 3.954 3.954 0 0 1-3.237-.007 4.515 4.515 0 0 0-3.789.075 2.36 2.36 0 0 1-1.091.272c-1.536 0-2.814-1.547-3.08-3.589.307-.223.568-.504.768-.827.9-1.451 2.296-2.384 3.862-2.384 1.567 0 2.944.922 3.84 2.357a2.962 2.962 0 0 0 2.552 1.401h.04c1.236 0 2.295.981 2.818 2.412z" opacity=".1"/>
        <path fill="#A2D5F2" d="M64.032 29.506l-2.483 1.574 1.507-2.74a2.454 2.454 0 0 0-1.502-.537h-.04a2.906 2.906 0 0 1-.516-.038l-.838.534.362-.656a2.992 2.992 0 0 1-1.472-1.12l-1.508.96.95-1.734c-.882-1.058-2.07-1.706-3.375-1.706-1.567 0-2.962.931-3.863 2.383a2.888 2.888 0 0 1-2.56 1.377h-.084c-1.73 0-3.132 1.96-3.132 4.38 0 2.419 1.402 4.379 3.132 4.379.38-.001.755-.095 1.09-.274a4.515 4.515 0 0 1 3.79-.074 3.954 3.954 0 0 0 3.222 0 4.514 4.514 0 0 1 3.757.072c.333.175.703.266 1.078.268 1.73 0 3.131-1.962 3.131-4.38a5.562 5.562 0 0 0-.646-2.668zM133.12 65.109a3.25 3.25 0 0 0-1.878.203 2.763 2.763 0 0 1-2.256 0 3.162 3.162 0 0 0-2.653.053c-.235.124-.497.19-.763.19-1.076 0-1.97-1.083-2.156-2.512.215-.157.397-.354.538-.579.63-1.016 1.6-1.669 2.702-1.669 1.103 0 2.063.64 2.693 1.65a2.07 2.07 0 0 0 1.786.98h.029c.848-.003 1.588.684 1.958 1.684z" opacity=".1"/>
        <path fill="#A2D5F2" d="M136.387 60.629l-1.737 1.102 1.054-1.92a1.718 1.718 0 0 0-1.051-.374h-.027a2.062 2.062 0 0 1-.36-.027l-.59.372.252-.457a2.11 2.11 0 0 1-1.03-.783l-1.058.666.666-1.211c-.616-.741-1.44-1.195-2.362-1.195-1.096 0-2.08.652-2.704 1.668a2.02 2.02 0 0 1-1.787.96h-.053c-1.21 0-2.192 1.372-2.192 3.064 0 1.693.982 3.066 2.192 3.066.266 0 .528-.066.763-.19a3.155 3.155 0 0 1 2.653-.052 2.78 2.78 0 0 0 2.256 0 3.16 3.16 0 0 1 2.629.052c.233.12.492.184.755.185 1.211 0 2.192-1.371 2.192-3.065a3.897 3.897 0 0 0-.46-1.861zM38.18 54.869a3.251 3.251 0 0 1 1.878.203 2.758 2.758 0 0 0 2.254 0 3.162 3.162 0 0 1 2.653.053c.235.124.497.19.763.19 1.075 0 1.971-1.083 2.157-2.512a2.069 2.069 0 0 1-.538-.579c-.627-1.02-1.608-1.675-2.707-1.675-1.1 0-2.06.64-2.691 1.65a2.08 2.08 0 0 1-1.789.983h-.027c-.851 0-1.594.687-1.954 1.687z" opacity=".1"/>
        <path fill="#A2D5F2" d="M34.902 50.389l1.738 1.097-1.056-1.92c.3-.238.669-.37 1.051-.374h.029c.12.001.241-.008.36-.027l.589.373-.253-.458c.417-.146.778-.42 1.032-.782l1.054.668-.667-1.21c.618-.742 1.448-1.196 2.363-1.196 1.096 0 2.08.653 2.704 1.669.38.618 1.063.984 1.788.96h.057c1.211 0 2.192 1.371 2.192 3.064s-.98 3.065-2.192 3.065a1.654 1.654 0 0 1-.763-.19 3.155 3.155 0 0 0-2.653-.051 2.776 2.776 0 0 1-2.254 0 3.163 3.163 0 0 0-2.63.051 1.651 1.651 0 0 1-.756.186c-1.21 0-2.192-1.372-2.192-3.066a3.897 3.897 0 0 1 .46-1.86z" opacity=".1"/>
        <path fill="#3F3D56" d="M34.989 112.01c2.166 1.376 5.288-.016 7.469 1.339.563.349 1.017.862 1.6 1.179.699.382 1.521.451 2.316.48 6.66.258 13.43-1.6 19.924-.1 1.816.42 3.592 1.102 5.452 1.2 3.215.175 6.295-1.393 9.512-1.48 4.88-.13 9.676 3.135 14.384 1.847 1.55-.424 2.97-1.328 4.568-1.48 1.781-.16 3.493.616 5.224 1.069 6.14 1.6 12.533-.992 18.88-1.186 4.14-.126 8.239.776 12.375.984 2.94.148 5.888-.059 8.825-.264 1.12-.078 2.293-.174 3.23-.788.938-.615 1.514-1.935.935-2.895l-114.694.095z"/>
        <path fill="#000" d="M34.989 112.01c2.166 1.376 5.288-.016 7.469 1.339.563.349 1.017.862 1.6 1.179.699.382 1.521.451 2.316.48 6.66.258 13.43-1.6 19.924-.1 1.816.42 3.592 1.102 5.452 1.2 3.215.175 6.295-1.393 9.512-1.48 4.88-.13 9.676 3.135 14.384 1.847 1.55-.424 2.97-1.328 4.568-1.48 1.781-.16 3.493.616 5.224 1.069 6.14 1.6 12.533-.992 18.88-1.186 4.14-.126 8.239.776 12.375.984 2.94.148 5.888-.059 8.825-.264 1.12-.078 2.293-.174 3.23-.788.938-.615 1.514-1.935.935-2.895l-114.694.095z" opacity=".1"/>
        <path fill="#3F3D56" d="M34.989 111.21c2.166 1.376 5.288-.016 7.469 1.339.563.349 1.017.862 1.6 1.179.699.382 1.521.451 2.316.48 6.66.258 13.43-1.6 19.924-.1 1.816.42 3.592 1.102 5.452 1.2 3.215.175 6.295-1.393 9.512-1.48 4.88-.13 9.676 3.135 14.384 1.847 1.55-.424 2.97-1.328 4.568-1.48 1.781-.16 3.493.616 5.224 1.069 6.14 1.6 12.533-.992 18.88-1.186 4.14-.126 8.239.776 12.375.984 2.94.148 5.888-.059 8.825-.264 1.12-.078 2.293-.174 3.23-.788.938-.615 1.514-1.935.935-2.895l-114.694.095z"/>
        <g opacity=".1" transform="translate(5.12 33.28)">
            <path fill="#3F3D56" d="M14.456 58.218a3.912 3.912 0 0 1-.517 1.98c.69 1.231.69 2.731 0 3.962.175.3.307.623.39.96a72.656 72.656 0 0 1-4.814-7.2 3.84 3.84 0 0 1 .506-1.69 3.912 3.912 0 0 1-.517-1.98c-.002-.47.077-.936.234-1.378.074-.21.169-.412.283-.603.451-.767 1.161-1.261 1.958-1.261.797 0 1.509.494 1.96 1.26.11.187.203.382.277.585.16.448.242.92.24 1.397a3.912 3.912 0 0 1-.517 1.98c.346.605.525 1.291.517 1.988z"/>
            <ellipse cx="11.979" cy="50.296" fill="#3F3D56" rx="2.475" ry="3.242"/>
            <ellipse cx="11.979" cy="46.334" fill="#3F3D56" rx="2.475" ry="3.242"/>
            <path fill="#A2D5F2" d="M23.787 26.549c.004 2.66-.89 5.244-2.539 7.333a11.86 11.86 0 0 1-10.627 19.123c-.301-.032-.598-.076-.891-.133a11.728 11.728 0 0 1-3.68-1.346C3.92 47.176 2.06 42.7.48 38.12a11.806 11.806 0 0 1 2.126-4.232A11.87 11.87 0 0 1 .686 22.75l9.005 3.023-8.445-4.387c.372-.768.826-1.493 1.352-2.164A11.86 11.86 0 1 1 22.188 5.95l-8.706 6.4 9.44-4.896a11.875 11.875 0 0 1-.228 9.397l-7.04-.053 6.506 1.07c-.276.472-.585.926-.923 1.356a11.808 11.808 0 0 1 2.55 7.325z"/>
            <path fill="#000" d="M23.787 41.22a11.864 11.864 0 0 1-17.73 10.313A118.166 118.166 0 0 1 .48 38.12a11.806 11.806 0 0 1 2.126-4.232 11.813 11.813 0 0 1-2.539-7.34c0-1.33 22.771 5.316 21.181 7.334a11.805 11.805 0 0 1 2.54 7.339z"/>
        </g>
        <g opacity=".1">
            <path fill="#3F3D56" d="M162.384 88.413c-.464 1.481-.96 2.952-1.469 4.389a4.102 4.102 0 0 1-.211-1.314c0-1.429.704-2.642 1.68-3.075z"/>
            <path fill="#A2D5F2" d="M167.36 62.883c0 2.808-.566 7.245-1.6 12.32a135.318 135.318 0 0 1-3.384 13.21c-.464 1.481-.96 2.952-1.469 4.389a88.035 88.035 0 0 1-1.845 4.737 11.906 11.906 0 0 1-5.265-18.523 11.917 11.917 0 0 1-1.92-11.162l9.005 3.03-8.445-4.398c.372-.769.825-1.495 1.352-2.168a11.904 11.904 0 0 1 4.659-18.28 20.408 20.408 0 0 1 7.8 10.23l-1.56 1.16 1.674-.868c.561 1.725.889 3.518.974 5.33h-.47l.48.078c.014.302.014.606.014.915z"/>
            <path fill="#000" d="M165.768 75.203a135.318 135.318 0 0 1-3.384 13.21c-.464 1.481-.96 2.952-1.469 4.389a88.035 88.035 0 0 1-1.845 4.737 11.906 11.906 0 0 1-5.265-18.523 11.856 11.856 0 0 1-2.538-7.347c0-.8 8.275 1.296 14.501 3.534z"/>
        </g>
        <path fill="#FFA190" d="M167.34 61.965v-.075a20.309 20.309 0 0 0-.975-5.33c-.032-.098-.064-.197-.098-.293a20.408 20.408 0 0 0-7.8-10.229c-8.428-5.742-19.81-4.335-26.585 3.287a28.704 28.704 0 0 0-1.618-5.675 91.136 91.136 0 0 1-16.1.6 64.96 64.96 0 0 0 10.207 3.707l-.125.464a65.554 65.554 0 0 1-11.41-4.272l-1.106-.536 1.225.08c5.71.374 11.442.21 17.12-.491a28.867 28.867 0 0 0-5.043-8.013c-9.21-.928-18.347-2.861-26.88-6.693l.197-.437c8.305 3.733 17.206 5.651 26.192 6.595a28.762 28.762 0 0 0-45.717 4.86 39.502 39.502 0 0 0-9.798-22.224 92.26 92.26 0 0 1-15.164 4.593A91.704 91.704 0 0 1 30.16 23.77a64.96 64.96 0 0 0 10.208 3.707l-.125.464a65.554 65.554 0 0 1-11.408-4.272l-1.105-.536 1.225.08a91.074 91.074 0 0 0 39.738-6.296 41.087 41.087 0 0 0-1.466-1.523c-15.747.32-32.897.16-48.424-5.493A39.605 39.605 0 0 0 0 43.64c0 7.434 2.043 17.656 5.6 27.912 1.585 4.59 3.45 9.079 5.586 13.44a96.671 96.671 0 0 0 3.45 6.408 72.734 72.734 0 0 0 4.815 7.2c.314.413.631.818.952 1.216a43.922 43.922 0 0 0 5.997 6.22c.445.37.892.724 1.342 1.06a25.568 25.568 0 0 0 3.84 2.4c2.348 1.176 4.77 1.866 7.248 1.965.199.008.399.013.597.013v.081h107.52v-.081h.08a5.44 5.44 0 0 0 1.818-.32c3.801-1.35 7.302-6.765 10.213-13.61a92.248 92.248 0 0 0 1.844-4.738c.516-1.44 1.005-2.907 1.47-4.388a135.318 135.318 0 0 0 3.383-13.21c1.026-5.075 1.6-9.512 1.6-12.32.005-.314.005-.618-.016-.923z" opacity=".4"/>
        <path fill="#A2D5F2" d="M53.45 106.846l3.062-1.801a7.38 7.38 0 0 0-1.566-1.874l-5.778 1.797 4.528-2.66a7.36 7.36 0 0 0-10.896 6.455c0 4.064 3.294 4.205 7.36 4.205 4.066 0 7.36-.14 7.36-4.205a7.327 7.327 0 0 0-.632-2.987l-3.438 1.07z"/>
        <path fill="#000" d="M54.229 110.797a5.722 5.722 0 0 0-1.085-.851c-.557-.37-1.131-.748-1.787-.872-.576-.11-1.17-.018-1.76-.052a4.106 4.106 0 0 1-2.69-1.232c-.417-.432-.747-.96-1.25-1.294-.542-.355-1.23-.432-1.873-.344a4.651 4.651 0 0 0-.554.114 7.336 7.336 0 0 0-.435 2.497c0 4.064 3.295 4.205 7.36 4.205 1.973 0 3.763-.034 5.085-.531l-.22-.413a5.824 5.824 0 0 0-.791-1.227z" opacity=".1"/>
        <circle cx="87.574" cy="29.723" r="5.72" fill="#3F3D56"/>
        <path fill="#3F3D56" d="M84.256 74.22c.59 4.142-.13 8.366-1.251 12.396-.21.75-.435 1.507-.827 2.18-.392.674-.938 1.254-1.399 1.887-.96 1.322-1.523 2.88-2.05 4.423a124.744 124.744 0 0 0-3.65 13.01.891.891 0 0 0 0 .556c.139.32.561.362.908.36l4.49-.024c.16-.307-.136-.64-.32-.934-.64-.996-.026-2.288.539-3.33a35.798 35.798 0 0 0 3.165-8c.307-1.173.557-2.371 1.056-3.477.603-1.34 1.549-2.494 2.317-3.749.892-1.457 1.544-3.04 2.19-4.628.902-2.205 1.813-4.437 2.168-6.792.334-2.212.17-4.464-.048-6.69a.422.422 0 0 0-.49-.48l-6.024-.31c-1.241-.064-1.536-.336-1.347.883.131.91.442 1.797.573 2.718z"/>
        <path fill="#000" d="M84.256 74.22c.59 4.142-.13 8.366-1.251 12.396-.21.75-.435 1.507-.827 2.18-.392.674-.938 1.254-1.399 1.887-.96 1.322-1.523 2.88-2.05 4.423a124.744 124.744 0 0 0-3.65 13.01.891.891 0 0 0 0 .556c.139.32.561.362.908.36l4.49-.024c.16-.307-.136-.64-.32-.934-.64-.996-.026-2.288.539-3.33a35.798 35.798 0 0 0 3.165-8c.307-1.173.557-2.371 1.056-3.477.603-1.34 1.549-2.494 2.317-3.749.892-1.457 1.544-3.04 2.19-4.628.902-2.205 1.813-4.437 2.168-6.792.334-2.212.17-4.464-.048-6.69a.422.422 0 0 0-.49-.48l-6.024-.31c-1.241-.064-1.536-.336-1.347.883.131.91.442 1.797.573 2.718z" opacity=".1"/>
        <path fill="#3F3D56" d="M85.44 64.149c-1.224 1.76-2.507 3.785-2.1 5.893.308 1.6 1.527 2.84 2.678 4 4.598 4.617 9.12 9.747 10.684 16.075.404 1.635.599 3.313.946 4.96.63 2.992 1.76 5.853 2.88 8.696l3.002 7.576a4.538 4.538 0 0 0 4.336-2.88c-.394-.03-.908-.411-1.138-.731-1.28-1.772-1.542-4.05-1.87-6.21-.364-2.387-.848-4.755-1.335-7.122l-2.15-10.47c-.248-1.208-.496-2.418-.82-3.608-1.25-4.611-3.622-8.96-3.988-13.728-.055-.7-.088-1.47-.563-1.99-.5-.55-1.319-.64-2.06-.684-2.996-.192-5.582-.484-8.502.223z"/>
        <path fill="#F2F2F2" d="M77.355 108.01a4.778 4.778 0 0 0-.995-.128 2.067 2.067 0 0 0-1.626.888 4.04 4.04 0 0 0-.436.96l-.434 1.244c-.128.365-.253.786-.062 1.12.141.208.345.366.582.45 1.05.467 2.24.493 3.376.605 1.11.109 2.211.304 3.307.509.378.072.754.144 1.136.182.855.086 1.715 0 2.57-.077l.881-.085c.296-.012.587-.066.868-.16.282-.096.514-.303.64-.574.217-.54-.25-1.178-.821-1.29-.232-.044-.48-.024-.707-.054a3.34 3.34 0 0 1-.775-.232c-1.12-.443-2.267-.891-3.259-1.589-.275-.193-.563-.464-.533-.8a1.63 1.63 0 0 1 .143-.414c.134-.344.139-.724.012-1.07-.054-.148-.16-.303-.308-.32-.423-.052-.372.564-.434.8-.085.32-.238.348-.54.32-.863-.079-1.727-.122-2.585-.285zM102.614 112.309c.008.625.223 1.23.612 1.72.118.146.267.265.435.35.253.104.527.148.8.127a6.408 6.408 0 0 0 2.222-.45c.25-.113.506-.21.768-.29a8.62 8.62 0 0 1 .999-.144c1.323-.19 2.484-.97 3.763-1.366a7.912 7.912 0 0 0 1.12-.368c.505-.238.915-.64 1.317-1.029.236-.21.44-.454.604-.725.236-.436.25-.96.26-1.454a.414.414 0 0 0-.039-.226.336.336 0 0 0-.144-.113c-.389-.192-.85-.096-1.28-.021-1.555.277-3.147.226-4.726.174a.686.686 0 0 1-.727-.414l-.6-.96c-.17-.275-.443-.59-.753-.496-.248.075-.349.38-.34.64.01.26.09.52.04.774a1.058 1.058 0 0 1-.511.666 3.27 3.27 0 0 1-.8.307c-.884.25-1.91.533-2.594 1.183-.502.46-.456 1.492-.426 2.115z"/>
        <path fill="#FBBEBE" d="M102.304 48.83c.345-.263.64-.585.874-.95.2-.412.327-.857.372-1.314l.252-1.587c.139-.875.302-1.801.886-2.469.584-.667 1.747-.905 2.34-.246.26.286.362.68.426 1.062a7.734 7.734 0 0 1-1.89 6.4c-.72.788-1.6 1.413-2.36 2.157-.663.64-1.238 1.375-1.849 2.07a25.507 25.507 0 0 1-5.035 4.4c.022-1.19.174-2.467 0-3.649-.13-.854-.48-1.315.347-1.874 1.92-1.305 3.858-2.486 5.637-4zM86.17 37.122c-.063.85-.416 1.721-1.12 2.212a87.485 87.485 0 0 1 5.899 2.308c-.375-.36-.488-.912-.506-1.43-.05-1.356.42-2.689 1.104-3.857a.936.936 0 0 0 .181-.509c-.022-.377-.47-.552-.838-.64a20.618 20.618 0 0 0-3.828-.555c-.552-.017-1.206-.192-1.081.51.118.657.238 1.297.189 1.96z"/>
        <circle cx="90.026" cy="32.901" r="4.677" fill="#FBBEBE"/>
        <path fill="#64578F" d="M94.656 45.533a5.658 5.658 0 0 0-.594-.995c-.848-1.218-1.718-2.434-2.806-3.442a17.47 17.47 0 0 0-2.664-1.957 6.046 6.046 0 0 0-1.667-.8 6.523 6.523 0 0 0-1.07-.145l-1.215-.1a.994.994 0 0 0-.32.01c-.33.083-.48.493-.41.824.07.331.32.6.541.851.055 2.479-1.048 4.923-1.197 7.399-.26 4.328 2.381 8.353 2.592 12.684.022.196.001.394-.06.581-.036.09-.088.171-.128.26-.125.271-.12.58-.143.88a4.47 4.47 0 0 1-1.317 2.819c.199.246.453.44.743.566.51.222 1.12.242 1.662.397 1.415.413 2.864.829 4.335.74.182-.397.295-.823.334-1.259.208-.13.448.148.48.39.032.244-.014.527.16.703.174.176.395.149.608.122.898-.114 1.76-.416 2.64-.62.88-.203 1.82-.3 2.677-.009.173-.22.099-.544-.042-.784-.14-.24-.34-.451-.42-.718a1.613 1.613 0 0 1-.052-.472c0-1.368.282-2.75.015-4.093-.079-.394-.204-.778-.284-1.173-.16-.766-.136-1.557-.115-2.34.021-.782-.073-1.628-.09-2.422 0-.328-.021-.655-.063-.98-.055-.341-.16-.674-.19-1.018-.086-.874.266-1.74.214-2.618-.088-1.33-1.636-2.054-2.154-3.281z"/>
        <path fill="#FBBEBE" d="M84.1 44.906c-1.132 3.004-1.686 6.192-2.24 9.356l-1.28 7.434c-.362 2.1-.727 4.214-.713 6.346 0 .598.039 1.208-.118 1.785-.205.759-.714 1.39-1.1 2.08a6.845 6.845 0 0 0-.735 4.629c.13.664.49 1.418 1.163 1.494.553.061 1.032-.379 1.355-.833.742-1.042 1.11-2.3 1.44-3.538a80.018 80.018 0 0 0 2.22-12.334c.039-.527.113-1.051.222-1.568.14-.533.322-1.055.54-1.562l1.47-3.641c1.132-2.805 2.27-5.623 3.823-8.218-1.536-.442-3.134-.96-4.67-1.397-.443-.131-.919-.053-1.376-.033z"/>
        <path fill="#504281" d="M86.763 47.189c-1.075-.232-2.187-.16-3.285-.187a.709.709 0 0 1-.441-.116c-.223-.19-.128-.547-.016-.817l.531-1.28c.087-.265.233-.506.426-.707.27-.24.65-.3 1.01-.343 1.166-.134 2.366-.179 3.497.136 1.131.315 2.195 1.032 2.7 2.093.212.442.31.998.03 1.4-.417.597-1.35 1.264-2.045.938-.834-.396-1.472-.919-2.407-1.117z"/>
        <path fill="#3F3D56" d="M92.48 25.637a4.723 4.723 0 0 0-2.608.752 5.72 5.72 0 0 0-5.616-1.315 3.269 3.269 0 1 0-3.776 3.782 5.72 5.72 0 1 0 10.98 3.214c.337.07.68.104 1.025.104 2.256 0 4.086-1.464 4.086-3.268 0-1.805-1.838-3.27-4.091-3.27z"/>
        <path fill="#000" d="M93.294 30.54c-.344 0-.688-.035-1.025-.105a5.691 5.691 0 0 1-.749 1.647c.316.06.638.092.96.092 2.109 0 3.84-1.28 4.062-2.918-.75.78-1.926 1.283-3.248 1.283zM86.757 34.626a5.728 5.728 0 0 1-5.469-7.405 3.269 3.269 0 0 1-2.65-3.805 3.269 3.269 0 0 0 1.834 5.44 5.72 5.72 0 0 0 10.926 3.389 5.709 5.709 0 0 1-4.641 2.38z" opacity=".1"/>
        <rect width="1" height="1" x="107.3" y="44.112" fill="#3A3768" rx=".054" transform="rotate(35.51 107.353 44.555)"/>
        <rect width="1" height="1" x="104.972" y="41.512" fill="#3A3768" rx=".03" transform="rotate(35.51 105.022 41.658)"/>
        <rect width="1" height="1" x="104.595" y="41.929" fill="#3A3768" rx=".034" transform="rotate(35.51 104.645 42.183)"/>
        <rect width="1" height="1" x="104.198" y="42.487" fill="#3A3768" rx=".032" transform="rotate(35.51 104.248 42.743)"/>
        <rect width="3.597" height="7.31" x="103.341" y="41.421" fill="#3A3768" rx=".403" transform="rotate(35.51 105.14 45.076)"/>
        <rect width="3.597" height="7.31" x="103.341" y="41.421" fill="#000" opacity=".1" rx=".403" transform="rotate(35.51 105.14 45.076)"/>
        <rect width="3.597" height="7.31" x="103.193" y="41.122" fill="#3A3768" rx=".403" transform="rotate(35.51 104.991 44.777)"/>
        <path fill="#A2D5F2" d="M108.045 42.709l-.335-.24-.028.04a.234.234 0 0 1-.32.056l-1.07-.763a.235.235 0 0 1-.054-.328l.03-.04-.32-.224a.285.285 0 0 0-.4.065l-3.692 5.176a.286.286 0 0 0 .066.399l2.102 1.499a.285.285 0 0 0 .398-.067l3.693-5.175a.285.285 0 0 0-.07-.398z"/>
        <rect width="1" height="1" x="106.628" y="41.916" fill="#E6E8EC" rx=".051" transform="rotate(35.51 106.879 41.967)"/>
        <circle cx="107.184" cy="42.195" r="1" fill="#E6E8EC"/>
        <path fill="#A2D5F2" d="M107.2 2.229c-5.92 0-10.72 4.8-10.72 10.72 0 5.92 11.232 25.526 11.232 25.526S117.92 18.877 117.92 12.95c0-5.92-4.8-10.72-10.72-10.72zm0 17.869a5.616 5.616 0 1 1 5.616-5.616 5.614 5.614 0 0 1-5.616 5.62v-.004z"/>
        <path fill="#000" d="M107.2 2.229c-5.92 0-10.72 4.8-10.72 10.72 0 5.92 11.232 25.526 11.232 25.526S117.92 18.877 117.92 12.95c0-5.92-4.8-10.72-10.72-10.72zm0 17.869a5.616 5.616 0 1 1 5.616-5.616 5.614 5.614 0 0 1-5.616 5.62v-.004z" opacity=".1"/>
        <path fill="#A2D5F2" d="M107.2 0c-5.92 0-10.72 4.8-10.72 10.72 0 5.92 11.232 27.76 11.232 27.76s10.208-21.837 10.208-27.758A10.72 10.72 0 0 0 107.2 0zm0 17.869a5.616 5.616 0 1 1 0-11.232 5.616 5.616 0 0 1 0 11.232z"/>
    </g>
</svg>
