<svg xmlns="http://www.w3.org/2000/svg" xmlns:xlink="http://www.w3.org/1999/xlink" width="375" height="513" viewBox="0 0 375 513">
    <defs>
        <linearGradient id="a" x1="50%" x2="50%" y1="100%" y2=".036%">
            <stop offset="0%" stop-color="gray" stop-opacity=".25"/>
            <stop offset="54%" stop-color="gray" stop-opacity=".12"/>
            <stop offset="100%" stop-color="gray" stop-opacity=".1"/>
        </linearGradient>
        <linearGradient id="b" x1="50%" x2="50%" y1="99.957%" y2="0%">
            <stop offset="0%" stop-color="gray" stop-opacity=".25"/>
            <stop offset="54%" stop-color="gray" stop-opacity=".12"/>
            <stop offset="100%" stop-color="gray" stop-opacity=".1"/>
        </linearGradient>
        <linearGradient id="c" x1="49.993%" x2="49.993%" y1="100.005%" y2="-.002%">
            <stop offset="0%" stop-color="gray" stop-opacity=".25"/>
            <stop offset="54%" stop-color="gray" stop-opacity=".12"/>
            <stop offset="100%" stop-color="gray" stop-opacity=".1"/>
        </linearGradient>
        <linearGradient id="d" x1="50.021%" x2="50.021%" y1="0%" y2="100%">
            <stop offset="0%" stop-color="#E0E0E0"/>
            <stop offset="31%" stop-color="#FCCC63"/>
            <stop offset="77%" stop-color="#F55F44"/>
        </linearGradient>
        <linearGradient id="e" x1="50%" x2="50%" y1="0%" y2="100%">
            <stop offset="0%" stop-color="#E0E0E0"/>
            <stop offset="31%" stop-color="#FCCC63"/>
            <stop offset="77%" stop-color="#F55F44"/>
        </linearGradient>
        <linearGradient id="f" x1="50%" x2="50%" y1="0%" y2="100%">
            <stop offset="0%" stop-color="#E0E0E0"/>
            <stop offset="31%" stop-color="#FCCC63"/>
            <stop offset="77%" stop-color="#F55F44"/>
        </linearGradient>
        <rect id="g" width="31.5" height="37.5" rx="10.5"/>
        <linearGradient id="i" x1="49.972%" x2="49.972%" y1="99.913%" y2="-.087%">
            <stop offset="0%" stop-color="gray" stop-opacity=".25"/>
            <stop offset="54%" stop-color="gray" stop-opacity=".12"/>
            <stop offset="100%" stop-color="gray" stop-opacity=".1"/>
        </linearGradient>
        <linearGradient id="j" x1="50.289%" x2="50.289%" y1="99.999%" y2=".187%">
            <stop offset="0%" stop-color="gray" stop-opacity=".25"/>
            <stop offset="54%" stop-color="gray" stop-opacity=".12"/>
            <stop offset="100%" stop-color="gray" stop-opacity=".1"/>
        </linearGradient>
    </defs>
    <g fill="none" fill-rule="evenodd" transform="translate(-135)">
        <path fill="#A2D5F2" fill-rule="nonzero" d="M624.96 446.267a88.15 88.15 0 0 1-17.451-.233c-63.706-7.044-150.457-5.04-221.174 38.776-97.801 60.587-251.074 8.72-318.686-19.498-51.66-21.553-78.479-74.34-62.37-123.89.227-.7.46-1.398.706-2.098 10.137-29.446 30.145-52.491 54.923-64.707 21.597-10.647 53.128-32.88 67.158-75.6 5.796-17.64 13.747-34.234 24.073-48.699 27.65-38.739 85.535-96.428 185.087-96.07a160.484 160.484 0 0 1 51.289 8.683c36.37 12.392 69.218 37.585 94.267 72.513 15.983 22.276 39.935 42.985 74.226 44.673 47.59 2.356 93.007 24.513 127.077 63.945a309.528 309.528 0 0 1 2.924 3.427c60.662 72.268 18.528 191.734-62.049 198.778z" opacity=".677"/>
        <circle cx="9.11" cy="9.015" r="8.694" fill="url(#a)" fill-rule="nonzero" opacity=".7" transform="translate(166.32 421.47)"/>
        <circle cx="175.43" cy="430.485" r="8.303" fill="#000" fill-rule="nonzero" opacity=".2"/>
        <circle cx="357.909" cy="447.388" r="3.213" fill="#FFF" fill-rule="nonzero"/>
        <circle cx="222.459" cy="463.768" r="1.796" fill="#FFF" fill-rule="nonzero"/>
        <circle cx="185.289" cy="155.698" r="3.213" fill="#FFF" fill-rule="nonzero"/>
        <path fill="#FFF" fill-rule="nonzero" d="M168.802 371.832h-2.86v-2.86h-1.166v2.86h-2.86v1.166h2.86v2.854h1.166v-2.854h2.86zM271.492 429.792h-2.86v-2.86h-1.166v2.86h-2.86v1.166h2.86v2.854h1.166v-2.854h2.86zM414.521 82.347h-1.304v-1.304h-.53v1.304h-1.303v.53h1.304v1.304h.529v-1.305h1.304zM490.751 280.167h-1.304v-1.304h-.53v1.304h-1.303v.53h1.304V282h.529v-1.304h1.304zM266.471 98.097h-1.304v-1.304h-.53v1.304h-1.303v.53h1.304v1.304h.529v-1.305h1.304zM187.091 286.467h-1.304v-1.304h-.53v1.304h-1.303v.53h1.304v1.304h.529v-1.304h1.304zM204.101 232.287h-1.304v-1.304h-.53v1.304h-1.303v.53h1.304v1.304h.529v-1.305h1.304z"/>
        <circle cx="7.654" cy="7.34" r="7.258" fill="url(#b)" fill-rule="nonzero" opacity=".7" transform="translate(464.31 342.72)"/>
        <circle cx="471.964" cy="350.06" r="6.722" fill="#000" fill-rule="nonzero" opacity=".2"/>
        <circle cx="490.064" cy="397.379" r="7.516" fill="#000" fill-rule="nonzero" opacity=".2"/>
        <path fill="url(#c)" fill-rule="nonzero" d="M183.312 193.429a97.512 97.512 0 0 0-11.026-45.36c-3.459-6.577-6.615-10.66-9.047-13.173a6.457 6.457 0 0 0-7.396-1.424 6.703 6.703 0 0 0-2.59 1.67c-3.281 3.401-6.249 7.9-8.82 12.681a97.92 97.92 0 0 0-11.572 46.62v9.753h-6.256V90.789c0-23.763-5.317-47.206-15.75-67.996-4.94-9.853-9.45-15.976-12.909-19.738a8.946 8.946 0 0 0-13.45 0c-4.688 5.097-8.921 11.838-12.6 19.001C60.94 43.3 55.377 67.416 55.377 91.873V204.15h-5.405v-10.224a97.896 97.896 0 0 0-11.574-46.589c-2.589-4.782-5.556-9.28-8.82-12.682a6.47 6.47 0 0 0-7.56-1.373l.227.12a6.779 6.779 0 0 0-2.11 1.474c-2.426 2.52-5.582 6.596-9.04 13.173A97.512 97.512 0 0 0 .068 193.41v169.47h19.303l-2.129 13.93v41.661h15.788V376.81l-2.11-13.935h19.025v-154.35h5.406v153.682h15.416l-2.211 14.603v41.662h15.787V376.81l-2.21-14.622h20.79l-2.225 14.622v41.662h15.788V376.81l-2.211-14.622h12.31V208.543h6.256v154.583h5.071v-.233h16.77l-2.103 13.916v41.662h15.787V376.81l-2.11-13.935h17.055V193.429z" opacity=".7" transform="translate(239.4)"/>
        <path fill="#535461" fill-rule="nonzero" d="M275.562 368.707h-14.95l2.671-18.15h9.608z"/>
        <path fill="#000" fill-rule="nonzero" d="M262.54 357.764h11.094l-.743-5.071h-9.608z" opacity=".1"/>
        <path fill="#535461" fill-rule="nonzero" d="M403.673 368.707h-14.944l2.665-18.15h9.614z"/>
        <path fill="#000" fill-rule="nonzero" d="M390.65 357.764h11.101l-.743-5.071h-9.614z" opacity=".1"/>
        <path fill="#535461" fill-rule="nonzero" d="M324.135 368.707h-14.944l2.665-18.15h9.614z"/>
        <path fill="#000" fill-rule="nonzero" d="M311.113 357.764h11.1l-.743-5.071h-9.614z" opacity=".1"/>
        <path fill="#535461" fill-rule="nonzero" d="M354.564 368.707H339.62l2.665-18.15h9.608z"/>
        <path fill="#000" fill-rule="nonzero" d="M341.542 357.764h11.1l-.75-5.071h-9.607z" opacity=".1"/>
        <path fill="#535461" fill-rule="nonzero" d="M275.562 200.56h106.76v4.271h-106.76z"/>
        <path fill="#E0E0E0" fill-rule="nonzero" d="M398.822 133.1a6.016 6.016 0 0 0-8.921 0c-3.106 3.314-5.916 7.692-8.367 12.348a97.505 97.505 0 0 0-10.955 45.36v164.33h47.25V190.114a97.159 97.159 0 0 0-10.44-44.188c-3.282-6.4-6.268-10.408-8.567-12.827zM263.327 133.1a6.016 6.016 0 0 1 8.921 0c3.112 3.314 5.916 7.692 8.373 12.348a97.58 97.58 0 0 1 10.956 45.36v164.33h-47.25V190.114a97.159 97.159 0 0 1 10.439-44.188c3.276-6.4 6.262-10.408 8.561-12.827z"/>
        <path fill="#535461" fill-rule="nonzero" d="M244.597 193.618l11.214.057v13.822h-11.214zM280.363 193.618l11.214.057v13.822h-11.214zM370.579 193.618l11.207.057v13.822H370.58zM406.344 193.618l11.207.057v13.822h-11.207z"/>
        <path fill="#000" fill-rule="nonzero" d="M280.62 145.234c-2.456-4.656-5.26-9.034-8.372-12.348a5.991 5.991 0 0 0-7.138-1.342 6.37 6.37 0 0 1 1.802 1.342c3.106 3.314 5.916 7.692 8.367 12.348a97.492 97.492 0 0 1 10.955 45.36V354.91h5.343V190.6a97.574 97.574 0 0 0-10.956-45.367zM385.806 145.688c2.45-4.656 5.26-9.035 8.366-12.348a6.25 6.25 0 0 1 2.066-1.475 6.01 6.01 0 0 0-6.867 1.474c-3.112 3.314-5.922 7.693-8.372 12.348a97.58 97.58 0 0 0-10.956 45.36V355.39h4.807V191.06a97.505 97.505 0 0 1 10.956-45.372z" opacity=".1"/>
        <path fill="url(#d)" fill-rule="nonzero" d="M268.292 409.28h-.41a7.27 7.27 0 0 1-7.27-7.27v-33.303h14.95v33.302a7.27 7.27 0 0 1-7.27 7.27z"/>
        <path fill="url(#e)" fill-rule="nonzero" d="M316.871 409.28h-.416a7.27 7.27 0 0 1-7.264-7.27v-33.303h14.944v33.302a7.27 7.27 0 0 1-7.264 7.27zM347.294 409.28h-.422a7.27 7.27 0 0 1-7.252-7.27v-33.303h14.944v33.302a7.27 7.27 0 0 1-7.27 7.27z"/>
        <path fill="url(#f)" fill-rule="nonzero" d="M396.409 409.28h-.397a7.27 7.27 0 0 1-7.283-7.27v-33.303h14.944v33.302a7.27 7.27 0 0 1-7.264 7.27z"/>
        <path fill="#EEE" fill-rule="nonzero" d="M337.006 4.253a8.316 8.316 0 0 0-12.732 0c-4.41 4.964-8.442 11.522-11.97 18.503-10.37 20.689-15.637 44.175-15.637 67.99v263.723h67.41V89.688c0-23.14-5.04-45.99-14.893-66.213-4.63-9.595-8.896-15.561-12.178-19.221z"/>
        <g transform="translate(315 46.5)">
            <mask id="h" fill="#fff">
                <use xlink:href="#g"/>
            </mask>
            <use fill="#C3E4F6" fill-rule="nonzero" xlink:href="#g"/>
            <g fill-rule="nonzero" mask="url(#h)">
                <path fill="#FFB25A" d="M26.181 5.448a.791.791 0 0 0-.964-.145c-1.236.704-4.268 2.761-5.556 6.59l10.665 13.633s3.042-12.572-4.145-20.078zM5.685 5.448a.791.791 0 0 1 .964-.145c1.236.704 4.268 2.761 5.556 6.59L1.539 25.526S-1.503 12.954 5.685 5.448z"/>
                <path fill="#FF9C20" d="M30.964 19.512a26.91 26.91 0 0 0-1.209-2.304c-2.308-3.914-5.342-6.535-8.921-7.759a11.14 11.14 0 0 0-1.173 2.444l10.665 13.633s.614-2.538.638-6.014zM2.11 17.208c-.44.745-.841 1.517-1.209 2.304.025 3.476.638 6.014.638 6.014l10.666-13.633a11.13 11.13 0 0 0-1.173-2.444c-3.58 1.224-6.613 3.845-8.922 7.76z"/>
                <path fill="#FFB2C1" d="M27.402 24.826c.025-.104 2.182-9.518-2.203-15.84-.975.836-2.747 3.957-3.338 5.713l5.541 10.127zM4.463 24.826c-.024-.104-2.181-9.518 2.204-15.84.975.836 2.747 3.957 3.338 5.713L4.463 24.826z"/>
                <path fill="#FF889E" d="M4.529 13.869c-1.34 5.4-.085 10.878-.066 10.957l5.542-10.127c-.355-1.056-1.138-2.605-1.917-3.854-1.283.797-2.473 1.807-3.56 3.024zM23.778 10.845c-.78 1.249-1.562 2.798-1.918 3.854l5.542 10.127c.019-.079 1.274-5.558-.065-10.957-1.086-1.217-2.276-2.228-3.559-3.024z"/>
                <path fill="#5C586F" d="M31.75 32.33c-1.214-8.699-5.02-20.981-15.817-20.981S1.33 23.63.116 32.329c-.298 2.134-.656 4.362-.056 6.478.613 2.163 2.235 3.6 4.13 4.67 3.138 1.773 7.284 2.653 9.73 5.457a2.667 2.667 0 0 0 2.013.901c.769 0 1.506-.322 2.012-.901 2.447-2.804 6.593-3.684 9.732-5.457 1.894-1.071 3.516-2.508 4.129-4.67.6-2.116.242-4.344-.056-6.477z"/>
                <path fill="#4F4C5F" d="M3.473 40.605c-.6-2.324-.242-4.772.056-7.116 1.019-8.024 3.866-18.821 11.142-22.08-9.835.92-13.39 12.57-14.555 20.92-.298 2.134-.656 4.362-.056 6.478.613 2.162 2.235 3.599 4.13 4.67.45.254.92.49 1.404.715-.977-.953-1.742-2.117-2.121-3.587z"/>
                <path fill="#FFB25A" d="M15.933 42.576c-5.603 0-6.043-1.59-6.043-4.81 0-3.222.293-9.923 6.043-9.923s6.042 6.7 6.042 9.922c0 3.222-.44 4.811-6.042 4.811z"/>
                <path fill="#FF9C20" d="M11.687 37.765c0-3.044.262-9.195 5.144-9.862a6.637 6.637 0 0 0-.898-.06c-5.75 0-6.043 6.7-6.043 9.922 0 3.222.44 4.811 6.043 4.811.316 0 .614-.005.898-.015-4.752-.17-5.144-1.756-5.144-4.796z"/>
                <g fill="#423E4F">
                    <path d="M18.687 37.733a.674.674 0 0 0-.95.063.854.854 0 0 1-.65.281.855.855 0 0 1-.647-.28.68.68 0 0 0-.507-.23.679.679 0 0 0-.507.23.856.856 0 0 1-.649.28.856.856 0 0 1-.648-.28.674.674 0 0 0-1.014.886 2.201 2.201 0 0 0 1.662.741c.416 0 .814-.112 1.156-.317.341.205.74.317 1.155.317a2.2 2.2 0 0 0 1.663-.74.674.674 0 0 0-.064-.951zM9.402 28.89a.674.674 0 0 1-.674-.674v-1.44a.674.674 0 0 1 1.347 0v1.44a.674.674 0 0 1-.673.674zM22.464 28.89a.674.674 0 0 1-.673-.674v-1.44a.673.673 0 1 1 1.346 0v1.44a.673.673 0 0 1-.673.674z"/>
                </g>
                <path fill="#FF9DB0" d="M25.254 30.83h-1.6a.674.674 0 0 1 0-1.347h1.6a.674.674 0 0 1 0 1.347zM8.21 30.83H6.613a.673.673 0 1 1 0-1.347h1.599a.673.673 0 1 1 0 1.347z"/>
                <path fill="#423E4F" d="M18.301 34.51a.425.425 0 0 0-.429-.417h-3.879a.425.425 0 0 0-.428.417v.004c0 1.036 1.06 1.877 2.368 1.877 1.308 0 2.368-.84 2.368-1.877v-.004z"/>
            </g>
        </g>
        <path fill="#000" fill-rule="nonzero" d="M297.032 99.761h66.723v2.589h-66.723z" opacity=".1"/>
        <path fill="url(#i)" fill-rule="nonzero" d="M480.085 196.138a21.81 21.81 0 0 0-6.438-5.67 21.628 21.628 0 1 0-10.817 40.364c.46 0 .92 0 1.367-.05a21.622 21.622 0 0 0 15.894-34.606l-.006-.038z"/>
        <path fill="#000" fill-rule="nonzero" d="M483.267 209.166c-.002 10.788-8.386 19.718-19.152 20.4-.422 0-.857.044-1.292.044a20.45 20.45 0 1 1 10.225-38.153 20.532 20.532 0 0 1 6.086 5.393 20.35 20.35 0 0 1 4.133 12.316z" opacity=".2"/>
        <path fill="#000" fill-rule="nonzero" d="M457.79 196.195a21.974 21.974 0 0 0-3.05 1.606 4.794 4.794 0 0 0-1.631 1.462 1.89 1.89 0 0 0-.038 2.085c.497.68 1.455.781 2.3.832a5.884 5.884 0 0 0 2.633-.265 5.67 5.67 0 0 0 1.537-1.115l1.758-1.594c.63-.554 1.26-1.317 1.014-2.098a1.89 1.89 0 0 0-1.493-1.008 6.25 6.25 0 0 0-4.41.775" opacity=".1"/>
        <circle cx="1.26" cy="1.147" r="1.077" fill="#000" fill-rule="nonzero" opacity=".1" transform="translate(449.19 216.09)"/>
        <circle cx="4.234" cy="4.41" r="3.944" fill="#000" fill-rule="nonzero" opacity=".1" transform="translate(468.09 206.01)"/>
        <path fill="#000" fill-rule="nonzero" d="M479.172 196.85a5.38 5.38 0 1 1-6.092-5.393 20.532 20.532 0 0 1 6.092 5.393zM479.537 220.935a20.393 20.393 0 0 1-15.422 8.63c0-.283-.038-.566-.038-.856a9.69 9.69 0 0 1 15.46-7.774z" opacity=".1"/>
        <path fill="url(#j)" fill-rule="nonzero" d="M200.819 312.845a15.214 15.214 0 0 0-4.498-3.981 15.12 15.12 0 1 0-7.56 28.161c.32 0 .63 0 .957-.032a15.12 15.12 0 0 0 11.088-24.148h.013z"/>
        <path fill="#000" fill-rule="nonzero" d="M203.036 321.936c-.001 7.527-5.85 13.757-13.362 14.232h-.9a14.263 14.263 0 1 1 7.13-26.618 14.282 14.282 0 0 1 4.247 3.78 14.188 14.188 0 0 1 2.885 8.606z" opacity=".2"/>
        <path fill="#000" fill-rule="nonzero" d="M185.258 312.89c-.737.313-1.447.686-2.123 1.115-.451.251-.84.6-1.14 1.02a1.342 1.342 0 0 0 0 1.456c.423.417 1.007.629 1.6.58.619.079 1.248.017 1.84-.184.4-.197.764-.462 1.077-.78l1.222-1.11c.428-.39.894-.92.705-1.461a1.26 1.26 0 0 0-1.04-.706 4.328 4.328 0 0 0-3.067.542" opacity=".1"/>
        <circle cx="1.216" cy="1.222" r="1" fill="#000" fill-rule="nonzero" opacity=".1" transform="translate(178.92 326.34)"/>
        <circle cx="3.251" cy="2.772" r="2.753" fill="#000" fill-rule="nonzero" opacity=".1" transform="translate(192.15 320.04)"/>
        <path fill="#000" fill-rule="nonzero" d="M200.157 313.343a3.78 3.78 0 1 1-4.252-3.78 14.282 14.282 0 0 1 4.252 3.78zM200.434 330.145a14.232 14.232 0 0 1-10.76 6.023v-.63a6.76 6.76 0 0 1 10.786-5.424l-.026.031z" opacity=".1"/>
    </g>
</svg>
