<svg xmlns="http://www.w3.org/2000/svg" width="216" height="194" viewBox="0 0 216 194">
    <defs>
        <linearGradient id="a" x1="50%" x2="50%" y1="100%" y2="0%">
            <stop offset="0%" stop-color="gray" stop-opacity=".25"/>
            <stop offset="54%" stop-color="gray" stop-opacity=".12"/>
            <stop offset="100%" stop-color="gray" stop-opacity=".1"/>
        </linearGradient>
        <linearGradient id="b" x1="50.003%" x2="50.003%" y1="100%" y2="-.006%">
            <stop offset="0%" stop-color="gray" stop-opacity=".25"/>
            <stop offset="54%" stop-color="gray" stop-opacity=".12"/>
            <stop offset="100%" stop-color="gray" stop-opacity=".1"/>
        </linearGradient>
        <linearGradient id="c" x1="49.999%" x2="49.999%" y1="100%" y2=".007%">
            <stop offset="0%" stop-color="gray" stop-opacity=".25"/>
            <stop offset="54%" stop-color="gray" stop-opacity=".12"/>
            <stop offset="100%" stop-color="gray" stop-opacity=".1"/>
        </linearGradient>
        <linearGradient id="d" x1="49.987%" x2="49.987%" y1="100%" y2="-.013%">
            <stop offset="0%" stop-color="gray" stop-opacity=".25"/>
            <stop offset="54%" stop-color="gray" stop-opacity=".12"/>
            <stop offset="100%" stop-color="gray" stop-opacity=".1"/>
        </linearGradient>
        <linearGradient id="e" x1="94.246%" x2="4.529%" y1="69.398%" y2="31.123%">
            <stop offset="0%" stop-color="gray" stop-opacity=".25"/>
            <stop offset="54%" stop-color="gray" stop-opacity=".12"/>
            <stop offset="100%" stop-color="gray" stop-opacity=".1"/>
        </linearGradient>
    </defs>
    <g fill="none" fill-rule="evenodd" transform="translate(-47 -19)">
        <circle cx="146.745" cy="115.226" r="83.636" fill="url(#a)" fill-rule="nonzero"/>
        <circle cx="146.745" cy="115.226" r="81.585" fill="#A2D5F2" fill-rule="nonzero"/>
        <circle cx="120.365" cy="68.07" r="10.134" fill="#000" fill-rule="nonzero" opacity=".05"/>
        <circle cx="151.363" cy="176.598" r="10.134" fill="#000" fill-rule="nonzero" opacity=".05"/>
        <circle cx="161.497" cy="103.626" r="20.721" fill="#000" fill-rule="nonzero" opacity=".05"/>
        <path fill="url(#b)" fill-rule="nonzero" d="M179.518 139.508c-10.263 0-21.189-.491-32.357-1.478-24.824-2.192-47.964-6.566-65.153-12.316-17.312-5.796-26.563-12.344-26.026-18.437.272-3.085 2.99-5.84 8.075-8.186l.259.582c-4.863 2.243-7.455 4.819-7.706 7.661-.25 2.843 1.9 5.902 6.396 8.998 4.418 3.041 10.876 5.992 19.196 8.785 17.145 5.737 40.23 10.099 65.008 12.285s48.272 1.935 66.15-.708c8.678-1.292 15.554-3.06 20.438-5.28 4.971-2.258 7.62-4.863 7.873-7.739.29-3.274-2.67-6.863-8.553-10.377l.328-.55c6.202 3.703 9.181 7.398 8.863 10.984-.537 6.096-10.785 10.923-28.853 13.592-9.837 1.45-21.405 2.181-33.938 2.184z"/>
        <path stroke="#BDBDBD" stroke-width=".775" d="M233.291 112.376c5.869 3.506 9.021 7.15 8.708 10.68-1.082 12.265-43.53 18.54-94.81 14.012-51.279-4.527-91.972-18.14-90.889-30.406.259-3.03 3.062-5.684 7.89-7.922" opacity=".5"/>
        <path fill="url(#c)" fill-rule="nonzero" d="M157.208 151.523a378.158 378.158 0 0 1-22.432-10.579c-22.189-11.349-41.995-24.085-55.77-35.868-13.881-11.871-19.99-21.409-17.204-26.858 1.41-2.76 4.963-4.292 10.555-4.558l.031.638c-5.349.258-8.718 1.669-10.018 4.21-1.3 2.54-.455 6.183 2.553 10.738 2.954 4.476 7.832 9.639 14.499 15.339 13.736 11.757 33.499 24.465 55.644 35.79a378.547 378.547 0 0 0 22.395 10.562l-.253.586z"/>
        <path stroke="#BDBDBD" stroke-width=".775" d="M158.4 151.229a378.812 378.812 0 0 1-22.414-10.569c-45.833-23.44-78.44-51.331-72.833-62.292 1.385-2.708 4.974-4.135 10.287-4.393"/>
        <path fill="url(#d)" fill-rule="nonzero" d="M217.245 169.818c-6.719 0-16.194-2.197-28.985-6.605l.21-.604c24.408 8.408 36.483 8.749 40.374 1.14 1.496-2.926.101-7.363-4.033-12.83l.516-.385c4.357 5.757 5.734 10.302 4.093 13.506-1.976 3.848-5.873 5.775-12.175 5.778z"/>
        <path stroke="#BDBDBD" stroke-width=".775" d="M225.066 150.084c4.135 5.452 5.685 10.013 4.065 13.178-3.718 7.27-14.625 8.01-40.765-.982"/>
        <g fill="#47E6B1" fill-rule="nonzero" opacity=".5">
            <path d="M72.191 190.88h1v4.711h-1z"/>
            <path d="M74.962 192.82v1h-4.711v-1z"/>
        </g>
        <g fill="#47E6B1" fill-rule="nonzero" opacity=".5">
            <path d="M241.234 20.729h1v4.711h-1z"/>
            <path d="M244.005 22.67v1h-4.711v-1z"/>
        </g>
        <g fill="#47E6B1" fill-rule="nonzero" opacity=".5">
            <path d="M259.248 149.31h1v4.712h-1z"/>
            <path d="M262.017 151.252v1h-4.71v-1z"/>
        </g>
        <g fill="#47E6B1" fill-rule="nonzero" opacity=".5">
            <path d="M74.962 32.09h1v4.712h-1z"/>
            <path d="M77.735 34.03v1h-4.711v-1z"/>
        </g>
        <path fill="#4D8AF0" fill-rule="nonzero" d="M99.54 207.035a1.018 1.018 0 0 1-.568-1.23.488.488 0 0 0 .024-.113.517.517 0 0 0-.918-.339.488.488 0 0 0-.057.1 1.018 1.018 0 0 1-1.23.57.488.488 0 0 0-.113-.024.517.517 0 0 0-.339.917.488.488 0 0 0 .101.057c.474.206.719.735.569 1.23a.488.488 0 0 0-.024.114.517.517 0 0 0 .918.338.488.488 0 0 0 .056-.1 1.018 1.018 0 0 1 1.23-.569c.037.012.075.02.114.023a.517.517 0 0 0 .339-.917.488.488 0 0 0-.101-.057zM150.252 210.371a1.018 1.018 0 0 1-.569-1.23.488.488 0 0 0 .024-.113.517.517 0 0 0-.918-.339.488.488 0 0 0-.057.1 1.018 1.018 0 0 1-1.23.57.488.488 0 0 0-.113-.024.517.517 0 0 0-.339.917.488.488 0 0 0 .101.057c.474.206.719.735.569 1.23a.488.488 0 0 0-.024.114.517.517 0 0 0 .918.338.488.488 0 0 0 .056-.1 1.018 1.018 0 0 1 1.23-.569c.037.012.075.02.114.023a.517.517 0 0 0 .339-.917.488.488 0 0 0-.101-.057zM250.57 76.52a1.018 1.018 0 0 1-.568-1.23.488.488 0 0 0 .023-.114.517.517 0 0 0-.917-.338.488.488 0 0 0-.057.1 1.018 1.018 0 0 1-1.23.57.488.488 0 0 0-.114-.024.517.517 0 0 0-.338.917.488.488 0 0 0 .1.057c.475.206.72.735.57 1.23a.488.488 0 0 0-.024.114.517.517 0 0 0 .917.338.488.488 0 0 0 .057-.1 1.018 1.018 0 0 1 1.23-.57c.037.013.075.021.114.024a.517.517 0 0 0 .338-.917.488.488 0 0 0-.1-.057zM53.04 149.854a1.018 1.018 0 0 1-.57-1.23.488.488 0 0 0 .024-.114.517.517 0 0 0-.917-.338.488.488 0 0 0-.057.1 1.018 1.018 0 0 1-1.23.569.488.488 0 0 0-.114-.023.517.517 0 0 0-.338.917.488.488 0 0 0 .1.057c.475.206.72.735.569 1.23a.488.488 0 0 0-.023.114.517.517 0 0 0 .917.338.488.488 0 0 0 .057-.1 1.018 1.018 0 0 1 1.23-.57c.037.013.075.02.113.024a.517.517 0 0 0 .339-.917.488.488 0 0 0-.1-.057z" opacity=".5"/>
        <circle cx="49.466" cy="81.417" r="1.662" fill="#F55F44" fill-rule="nonzero" opacity=".5"/>
        <circle cx="184.978" cy="25.716" r="1.662" fill="#4D8AF0" fill-rule="nonzero" opacity=".5"/>
        <circle cx="93.528" cy="21.558" r="1.662" fill="#47E6B1" fill-rule="nonzero" opacity=".5"/>
        <circle cx="216.57" cy="198.64" r="1.662" fill="#F55F44" fill-rule="nonzero" opacity=".5"/>
        <path fill="url(#e)" fill-rule="nonzero" d="M177.415 146.327a1.969 1.969 0 0 0-2.654.84l-.201.387-.46-.24-4.112-2.135-.894-.465a.775.775 0 0 0-.405-.085c-3.936-1.292-7.093 1.196-9.13 5.116a12.842 12.842 0 0 0-1.418 4.31l-.047-.023c-.227 1.615-.015 3.13.775 4.411l.068-.132c.395.651.905 1.225 1.504 1.695a.6.6 0 0 0 .307.393l5.628 2.923-.429.824c-.5.965-.124 2.153.84 2.654l1.336-2.584 6.94 3.604.455-.873.455-.873.68-1.31h.023l-1.576 3.033 3.32 1.747c4.041 2.098 7.13-.597 9.372-4.773v-.023l.137-.258v-.024l.116-.23c2.145-4.25 2.584-8.323-1.478-10.429l-3.31-1.705-1.827 3.52h-.023l.933-1.796.429-.825.478-.922-6.94-3.618 1.108-2.134z"/>
        <path fill="#4F617D" fill-rule="nonzero" d="M168.831 163l6.828-13.144 6.572 3.414-6.827 13.143z"/>
        <path fill="#FF656A" fill-rule="nonzero" d="M187.082 164.087v-.024c-2.122 4.083-5.07 6.783-8.96 4.765l-3.128-1.625 7.695-14.788 3.126 1.625c3.89 2.02 3.388 5.964 1.267 10.047z"/>
        <path fill="#4A5C81" fill-rule="nonzero" d="M184.666 167.554a14.38 14.38 0 0 0 2.416-3.478 15.274 15.274 0 0 0 1.336-3.434l-1.336-.695-3.618 6.977 1.202.63zM176.47 164.358l4.48-8.626.241.125a1.116 1.116 0 0 1 .476 1.505l-3.454 6.65c-.284.547-.958.76-1.505.476l-.241-.125.002-.005z"/>
        <path fill="#FF6469" fill-rule="nonzero" d="M161.697 158.66l.166-.32 13.965 7.253-.853 1.642-12.641-6.567a1.488 1.488 0 0 1-.637-2.008zM167.862 146.789l.167-.321a1.488 1.488 0 0 1 2.007-.635l12.644 6.568-.853 1.642-13.965-7.254z"/>
        <path fill="#FF656A" fill-rule="nonzero" d="M174.071 147.91l-7.68 14.789-3.875-2.008c-4.272-2.22-4.249-6.41-2.13-10.493 2.122-4.083 5.538-6.512 9.82-4.295l3.865 2.008z"/>
        <path fill="#FFF6D5" fill-rule="nonzero" d="M159.738 158.381l1.55-2.971-2.271-1.179c-.222 1.52-.02 2.943.72 4.15zM166.64 145.092l-1.55 2.971-2.272-1.178c1.129-1.052 2.408-1.708 3.822-1.793z"/>
        <path fill="#FF6469" fill-rule="nonzero" d="M166.235 164.088l.596-1.146 1.642.853-1.282 2.467-.316-.164a1.488 1.488 0 0 1-.64-2.01zM177.182 146.966l-1.28 2.465-1.642-.853.595-1.146a1.488 1.488 0 0 1 2.007-.635l.321.167v.002z"/>
        <path fill="#53678B" fill-rule="nonzero" d="M175.05 149.986l-6.423 12.37-5.577-4.988a2.623 2.623 0 0 1-.578-3.163l2.387-4.594a2.623 2.623 0 0 1 2.933-1.344l7.258 1.719z"/>
        <path fill="#658BC8" fill-rule="nonzero" d="M168.908 161.921c-2.723-1.413-3.64-5.041-2.049-8.106 1.592-3.064 5.088-4.393 7.81-2.984"/>
        <path fill="#FF656A" fill-rule="nonzero" d="M175.495 150.247l-6.4 12.323-1.233-.641.868-.667 5.258-10.121.274-1.535z"/>
        <path fill="#000" fill-rule="nonzero" d="M175.495 150.247l-6.4 12.323-1.233-.641.868-.667 5.258-10.121.274-1.535z" opacity=".05"/>
        <path fill="#53678B" fill-rule="nonzero" d="M171.425 158.06l.853-1.642 1.642.853-.853 1.641z"/>
        <ellipse cx="173.498" cy="158.09" fill="#53678B" fill-rule="nonzero" rx="1.85" ry="1" transform="rotate(-62.55 173.498 158.09)"/>
        <path fill="#000" fill-rule="nonzero" d="M178.001 166.676a3.17 3.17 0 0 0 4.515-1.008M183.764 155.59a3.17 3.17 0 0 1 1.767 4.27M163.797 155.645s-.364-3.318 2.987-5.75M165.348 156.45s-.365-3.317 2.987-5.749" opacity=".05"/>
        <circle cx="168.535" cy="157.599" r="1.388" fill="#4A77BE" fill-rule="nonzero" transform="rotate(-62.55 168.535 157.6)"/>
        <circle cx="170.471" cy="152.869" r="1" fill="#4A77BE" fill-rule="nonzero" transform="rotate(-62.55 170.471 152.869)"/>
        <path fill="#CDEFFF" fill-rule="nonzero" d="M173.47 156.313l-.053-.266a.558.558 0 0 1 .435-.659l2.976-.607a.571.571 0 0 1 .673.445l.164.803-3.545.724a.558.558 0 0 1-.65-.44z"/>
        <path fill="#000" fill-rule="nonzero" d="M175.218 156.794l-.275-1.36 1.623-.33a1.116 1.116 0 0 1 1.316.873l.054.266-2.718.55z" opacity=".05"/>
        <path fill="#CDEFFF" fill-rule="nonzero" d="M172.723 162.598l1.119-2.153 2.55 1.325-1.119 2.153a1.15 1.15 0 0 1-1.55.49l-.498-.258a1.15 1.15 0 0 1-.502-1.557z"/>
        <path fill="#CDEFFF" fill-rule="nonzero" d="M175.332 163.67l-.462.99c-.502.832-1.716 1.06-2.763.517l-1.214-.63.659-1.272 3.78.396z"/>
        <path fill="#CDEFFF" fill-rule="nonzero" d="M168.622 162.733l.129-.247a.576.576 0 0 1 .777-.246l2.03 1.054-.66 1.27-2.03-1.054a.576.576 0 0 1-.246-.777z"/>
        <path fill="#000" fill-rule="nonzero" d="M174.916 161.792c.421.219.903.292 1.37.207l.067-.132-2.48-1.292a2.14 2.14 0 0 0 1.043 1.217z" opacity=".05"/>
        <path fill="#CDEFFF" fill-rule="nonzero" d="M178.84 156.966l-1.116 2.15-2.541-1.32 1.118-2.152a1.15 1.15 0 0 1 1.55-.49l.498.258a1.15 1.15 0 0 1 .49 1.55l.002.004z"/>
        <path fill="#000" fill-rule="nonzero" d="M176.932 157.916c.422.218.76.571.958 1.003l-.067.131-2.48-1.292a2.14 2.14 0 0 1 1.589.158z" opacity=".05"/>
        <circle cx="175.93" cy="159.789" r="2.147" fill="#CDEFFF" fill-rule="nonzero" transform="rotate(-62.55 175.93 159.789)"/>
        <circle cx="175.823" cy="159.821" r="2.147" fill="#CDEFFF" fill-rule="nonzero" transform="rotate(-62.55 175.823 159.82)"/>
        <path fill="#658BC8" fill-rule="nonzero" d="M173.903 158.81a2.145 2.145 0 0 0 .096 2.145 2.147 2.147 0 0 0 1.713-3.297 2.145 2.145 0 0 0-1.809 1.152z"/>
    </g>
</svg>
