<svg xmlns="http://www.w3.org/2000/svg" width="162" height="136" viewBox="0 0 162 136">
    <g fill="none" fill-rule="nonzero">
        <path fill="#D4EBF9" d="M21.6 33.216L38.658 0 158.6 131.416l-27.912.813z"/>
        <circle cx="81" cy="21.416" r="6.6" fill="#F2F2F2"/>
        <circle cx="110" cy="35.016" r="2.2" fill="#3F3D56"/>
        <circle cx="110" cy="52.416" r="2.2" fill="#3F3D56"/>
        <circle cx="132" cy="56.816" r="2.2" fill="#3F3D56"/>
        <ellipse cx="81" cy="131.416" fill="#D4EBF9" rx="81" ry="4"/>
        <path fill="#3F3D56" d="M128.383 66.447c-.919-1.515-4.128-1.476-4.128-1.476-2.921 4.34-9.945-.27-9.945-.27-5.216 2.333-8.399-5.104-8.399-5.104-7.02-1.05-5.935-8.421-5.935-8.421-3.492-.701-2.512-7.015-2.512-7.015s1.938-1.59.984-2.752c-.606-.739-.644-2.86-.59-4.308A48.19 48.19 0 0 0 83.8 35.016c-26.62 0-48.2 21.58-48.2 48.2 0 26.62 21.58 48.2 48.2 48.2 26.62 0 48.2-21.58 48.2-48.2a48.09 48.09 0 0 0-3.062-16.935c-.248.28-.44.356-.555.166z"/>
        <path fill="#000" d="M128.383 66.447c-.919-1.515-4.128-1.476-4.128-1.476-2.921 4.34-9.945-.27-9.945-.27-5.216 2.333-8.399-5.104-8.399-5.104-7.02-1.05-5.935-8.421-5.935-8.421-3.492-.701-2.512-7.015-2.512-7.015s1.938-1.59.984-2.752c-.606-.739-.644-2.86-.59-4.308A48.19 48.19 0 0 0 83.8 35.016c-26.62 0-48.2 21.58-48.2 48.2 0 26.62 21.58 48.2 48.2 48.2 26.62 0 48.2-21.58 48.2-48.2a48.09 48.09 0 0 0-3.062-16.935c-.248.28-.44.356-.555.166z" opacity=".1"/>
        <path fill="#3F3D56" d="M125.527 66.257c-.874-1.441-3.926-1.404-3.926-1.404-2.779 4.128-9.458-.257-9.458-.257-4.962 2.22-7.989-4.854-7.989-4.854-6.675-.998-5.644-8.009-5.644-8.009-3.32-.667-2.389-6.671-2.389-6.671s1.843-1.512.936-2.617c-.577-.703-.612-2.72-.562-4.098a45.831 45.831 0 0 0-13.37-1.983c-25.316 0-45.84 20.524-45.84 45.84 0 25.318 20.524 45.841 45.84 45.841 25.318 0 45.841-20.523 45.841-45.84a45.736 45.736 0 0 0-2.912-16.106c-.235.265-.418.338-.527.158z"/>
        <path fill="#000" d="M55.487 89.957l1.011 1.685 2.022 3.371.674 2.36-1.348 2.022 1.685 4.045.675 2.359-1.349 1.348 2.697 2.023M105.035 75.126v2.697l-1.685 4.382-1.012 2.359 1.686 3.034.674 2.022 2.696 1.011 1.012 1.686v4.044M122.225 77.823l-2.696 1.685s-1.349.674-1.349 1.011v2.697M110.091 68.385l.674 3.37-.674 2.36M112.787 98.72l-2.022 3.034-2.36 2.023v1.348l1.349 1.685v2.023l-1.011 2.022M93.575 41.42h-3.37l-2.697 2.36-4.382 2.359-2.023 1.685v.674l-4.381 2.36-1.349 2.36M57.172 47.15l-3.034 6.067-1.01 2.36-2.36 3.033s-1.685 3.034-2.023 3.37c-.337.338-2.696 1.012-2.696 1.012l3.37 3.37M43.69 70.407l-.675 4.382.675 2.697v4.719l-2.023 8.763 2.023 2.36 2.359 3.033M48.745 72.43l2.023 1.011 1.348 4.382 2.697-.674 1.348 2.36M85.822 116.248l5.393-.674 2.36-2.36h3.37M53.127 109.17l2.023 2.359 3.37 1.011 2.36.674.674 3.708M92.9 97.71l2.36-1.686 1.011-2.696 2.023-.337 1.01-3.371" opacity=".1"/>
        <path fill="#2F2E41" d="M32.367 13.016h5.644a6.718 6.718 0 0 1 6.719 6.718v12.362H25.649V19.734a6.718 6.718 0 0 1 6.718-6.718z"/>
        <path fill="#FBBEBE" d="M38.162 119.032s-.6 3.8-1.6 4.4c-1 .6 5.2 2 5.2 2l1-6-4.6-.4z"/>
        <path fill="#2F2E41" d="M45.562 75.632l2.2 2.6-1 9-.8 17.8s1.6 15.4 0 15.8c-1.6.4-8.8.2-8.6-.8.2-1 .4-1.8.8-3.2.4-1.4-.4-6.4-.4-6.4l1-5.6-3.6-24.2 10.4-5zM38.362 122.832s-2.2-.4-2.4 0c-.2.4-4 4.6-4.6 4.6-.6 0-5 4-.4 4.2 4.6.2 12.2-3.4 12.2-3.4s-1.119-5.09-1.06-4.845c.06.245-3.74.445-3.74-.555z"/>
        <path fill="#FBBEBE" d="M35.962 113.632s5.6 6.2 5.8 6.8c.2.6 3.2 0 3.2 0l1.2-4-1-1.4-5.6-4.6-3.6 3.2z"/>
        <path fill="#2F2E41" d="M43.962 118.232l-2.9 2.73s3.7 5.67 3.7 6.27c0 .6.2 5.6 2.2 4.8 2-.8 2.2-8.8 2.2-8.8s-.2-8.2-1.4-8.8c-1.2-.6-3.83-.41-3.83-.41s1.63 4.01.03 4.21zM27.362 57.832s-1 3.2-1.2 4c-.2.8-1.4 3-1.4 6.4 0 3.4.4 7.4 0 7.8-.4.4-6.8 22.8-4 25.2 2.8 2.4 12 10.4 12.6 11.4.6 1 .8 3.4 2 3 1.2-.4 5.8-4.4 6-5.2.2-.8-2.6-2.2-2.6-2.2s-5.6-8.2-7-8c-1.4.2-1.2-1-1-1.6.2-.6.6-1 0-1s-.2-1.6 0-2.4c.2-.8 4.8-11.6 4.8-11.6l12.2-5.4s-.6-14.6-5-18.6l-1-2.4s-11.2-.8-14.4.6z"/>
        <path fill="#FBBEBE" d="M32.362 26.232s1 7-1.4 7.4c-2.4.4-4.4.2-4.4.4s6 6.4 6 6.4l5.6-.4 5-5.4s-4.6-.8-4.6-3.6-.2-4.8-.2-4.8h-6z"/>
        <path fill="#000" d="M32.362 26.232s1 7-1.4 7.4c-2.4.4-4.4.2-4.4.4s6 6.4 6 6.4l5.6-.4 5-5.4s-4.6-.8-4.6-3.6-.2-4.8-.2-4.8h-6z" opacity=".1"/>
        <circle cx="35.462" cy="22.932" r="6.2" fill="#FBBEBE"/>
        <path fill="#FFA190" d="M29.962 33.032s-7.8 1-8.4 3.6c-.6 2.6 4 18.8 4.6 20.2.6 1.4.4 2.4.4 2.4a7.913 7.913 0 0 1 6.4-1.4c3.8.8 9.2.4 9.2.4s1.8-7.4 2.2-8.2c.4-.8 2-5.2 2-6.4 0-1.2 2.4-6.2 2.4-6.2s-1.2-3.6-5.6-3.4c0 0-1.92-.859-2.46-.23-.54.63-3.54 3.43-7.34 2.23-3.8-1.2-3.4-3-3.4-3z"/>
        <path fill="#FFA190" d="M23.762 36.432h-2.2l-1.2 15.8s4.4 1.2 5 .4c.6-.8-1.6-16.2-1.6-16.2zM44.962 36.432l3.8 1s2.8 10.2 3 10.4c.2.2.4 1.4.4 1.4s0 .2.4.8c.4.6 1 .2.6 1s-1 .4-.6 1.2c.4.8.2 3 .2 3s-1-3.8-4.6-2.8l-2.4-10.8-.8-5.2z"/>
        <path fill="#2F2E41" d="M40.302 21.424H30.67l-2.181-5.013h13.45z"/>
        <ellipse cx="29.045" cy="23.85" fill="#FFB9B9" rx="1" ry="1.294" transform="rotate(-16.16 29.045 23.85)"/>
        <ellipse cx="41.972" cy="23.85" fill="#FFB9B9" rx="1.294" ry="1" transform="rotate(-73.84 41.972 23.85)"/>
        <circle cx="40.8" cy="46.816" r="3.6" fill="#3F3D56"/>
        <circle cx="40.8" cy="46.816" r="3.6" fill="#000" opacity=".1"/>
        <circle cx="40.8" cy="46.816" r="3.243" fill="#3F3D56"/>
        <path fill="#000" d="M40.657 44.983s-.826-.526-1.615 0a1.14 1.14 0 0 0-.477.709c-.107.47.007.963.31 1.338l1.784 2.254a.53.53 0 0 0 .529.193l.011-.003a.532.532 0 0 0 .337-.255l1.24-2.18a2.11 2.11 0 0 0 .269-1.312 1.18 1.18 0 0 0-.886-1.082s-.713-.3-1.502.338z" opacity=".1"/>
        <path fill="#A2D5F2" d="M40.665 45.11s-.775-.494-1.515 0a1.07 1.07 0 0 0-.447.665c-.1.44.007.903.29 1.255l1.674 2.115c.117.15.31.22.496.18l.011-.002a.499.499 0 0 0 .316-.24l1.164-2.044a1.98 1.98 0 0 0 .251-1.231 1.106 1.106 0 0 0-.83-1.016s-.67-.281-1.41.317z"/>
        <path fill="#000" d="M40.696 45.955a.711.711 0 0 0-.738 0 .52.52 0 0 0-.217.324.72.72 0 0 0 .141.61s.965 1.138 1.056 1.117h.005c.065-.016.72-1.112.72-1.112a.963.963 0 0 0 .122-.599.538.538 0 0 0-.404-.494.7.7 0 0 0-.685.154z" opacity=".1"/>
        <circle cx="37.6" cy="48.816" r="3.6" fill="#3F3D56"/>
        <circle cx="37.6" cy="48.816" r="3.6" fill="#000" opacity=".1"/>
        <circle cx="37.6" cy="48.816" r="3.243" fill="#3F3D56"/>
        <path fill="#000" d="M37.457 46.983s-.826-.526-1.615 0a1.14 1.14 0 0 0-.477.709c-.107.47.007.963.31 1.338l1.784 2.254a.53.53 0 0 0 .529.193l.011-.003a.532.532 0 0 0 .337-.255l1.24-2.18a2.11 2.11 0 0 0 .269-1.312 1.18 1.18 0 0 0-.886-1.082s-.713-.3-1.502.338z" opacity=".1"/>
        <path fill="#A2D5F2" d="M37.465 47.11s-.775-.494-1.515 0a1.07 1.07 0 0 0-.447.665c-.1.44.007.903.29 1.255l1.674 2.115c.117.15.31.22.496.18l.011-.002a.499.499 0 0 0 .316-.24l1.164-2.044a1.98 1.98 0 0 0 .251-1.231 1.106 1.106 0 0 0-.83-1.016s-.67-.281-1.41.317z"/>
        <path fill="#000" d="M37.496 47.955a.711.711 0 0 0-.738 0 .52.52 0 0 0-.217.324.72.72 0 0 0 .141.61s.965 1.138 1.056 1.117h.005c.065-.016.72-1.112.72-1.112a.963.963 0 0 0 .122-.599.538.538 0 0 0-.404-.494.7.7 0 0 0-.685.154z" opacity=".1"/>
        <path fill="#3F3D56" d="M34.855 39.815c-.088-.144-.394-.14-.394-.14-.279.414-.95-.026-.95-.026-.497.223-.8-.487-.8-.487-.67-.1-.567-.804-.567-.804-.333-.067-.24-.67-.24-.67s.185-.151.094-.262a.808.808 0 0 1-.056-.411 4.597 4.597 0 1 0 2.966 2.785c-.024.026-.042.034-.053.015z"/>
        <path fill="#000" d="M34.855 39.815c-.088-.144-.394-.14-.394-.14-.279.414-.95-.026-.95-.026-.497.223-.8-.487-.8-.487-.67-.1-.567-.804-.567-.804-.333-.067-.24-.67-.24-.67s.185-.151.094-.262a.808.808 0 0 1-.056-.411 4.597 4.597 0 1 0 2.966 2.785c-.024.026-.042.034-.053.015z" opacity=".1"/>
        <path fill="#3F3D56" d="M34.582 39.797c-.083-.137-.374-.134-.374-.134-.266.394-.903-.024-.903-.024-.474.212-.762-.463-.762-.463-.638-.096-.54-.765-.54-.765-.316-.063-.227-.636-.227-.636s.176-.145.09-.25a.768.768 0 0 1-.054-.391 4.372 4.372 0 1 0 2.82 2.648c-.022.026-.04.033-.05.015z"/>
        <path fill="#A2D5F2" d="M30.013 39.53s-.754-.48-1.474 0c-.224.152-.38.384-.436.648-.097.43.007.88.283 1.222l1.629 2.058a.484.484 0 0 0 .483.176l.01-.002a.486.486 0 0 0 .308-.233l1.133-1.99c.21-.362.295-.783.244-1.199a1.077 1.077 0 0 0-.808-.988s-.652-.274-1.372.309z"/>
        <path fill="#000" d="M30.013 39.53s-.754-.48-1.474 0c-.224.152-.38.384-.436.648-.097.43.007.88.283 1.222l1.629 2.058a.484.484 0 0 0 .483.176l.01-.002a.486.486 0 0 0 .308-.233l1.133-1.99c.21-.362.295-.783.244-1.199a1.077 1.077 0 0 0-.808-.988s-.652-.274-1.372.309z" opacity=".1"/>
        <path fill="#A2D5F2" d="M30.021 39.647s-.708-.45-1.383 0a.977.977 0 0 0-.409.607 1.35 1.35 0 0 0 .265 1.147l1.529 1.93a.454.454 0 0 0 .453.165l.01-.002a.456.456 0 0 0 .288-.219l1.062-1.866c.197-.34.278-.735.23-1.125a1.01 1.01 0 0 0-.758-.927s-.611-.257-1.287.29z"/>
        <path fill="#000" d="M30.049 40.419a.65.65 0 0 0-.673 0 .475.475 0 0 0-.2.295.657.657 0 0 0 .13.558s.881 1.038.964 1.02l.005-.002c.236-.326.455-.665.657-1.014a.88.88 0 0 0 .111-.547.491.491 0 0 0-.368-.451.64.64 0 0 0-.626.14zM27.898 42.06l.096.16.193.322.065.225-.129.193.161.386.064.225-.128.129.257.193M32.627 40.644v.257l-.161.418-.097.225.161.29.064.193.258.096.096.161v.386M34.267 40.901l-.257.161s-.129.064-.129.096v.258M33.109 40l.064.322-.064.225M33.366 42.896l-.193.289-.225.193v.129l.129.16v.194l-.097.193M31.533 37.427h-.322l-.257.225-.418.225-.193.161v.065l-.419.225-.128.225M28.059 37.974l-.29.579-.096.225-.225.29s-.161.29-.193.321a1.324 1.324 0 0 1-.258.097l.322.321M26.772 40.193l-.064.419.064.257v.45l-.193.837.193.225.225.29M27.255 40.386l.193.097.128.418.258-.064.128.225M30.793 44.568l.515-.064.225-.225h.322M27.673 43.893l.193.225.321.096.226.065.064.354M31.469 42.799l.225-.16.096-.258.193-.032.097-.322" opacity=".1"/>
        <path fill="#FFA190" d="M20.962 50.632l-.6 1.6s-.4 5.2 2 5c2.4-.2 3.8-3.2 3.8-3.2s-1.4-3.8-3-3.4c-1.6.4-2.2 0-2.2 0z"/>
        <path fill="#FBBEBE" d="M22.962 51.632s-1.2 3.6.2 3.6 4-2.2 4.2-4c.2-1.8 3.8-8.6 1.2-8-2.6.6-3.8 5.6-3.8 5.6l-1.8 2.8zM51.562 51.832l1.249 2.088s.55 3.912-2.25 3.912-6.8-3.8-6.8-3.8-2-.8-3.2-.6c-1.2.2-7.8 0-5-3.4s7.6 0 7.6 0l5 2.4 2.6-1.4.8.8z"/>
        <path fill="#FFA190" d="M49.862 49.132l-2 3.2s4.6.6 5 1.6c.4 1-1.8-5.2-1.8-5.2l-1.2.4z"/>
    </g>
</svg>
