<svg xmlns="http://www.w3.org/2000/svg" width="171" height="136" viewBox="0 0 171 136">
    <defs>
        <linearGradient id="a" x1="49.998%" x2="49.998%" y1="100.006%" y2="-.002%">
            <stop offset="0%" stop-color="gray" stop-opacity=".25"/>
            <stop offset="54%" stop-color="gray" stop-opacity=".12"/>
            <stop offset="100%" stop-color="gray" stop-opacity=".1"/>
        </linearGradient>
    </defs>
    <g fill="none" fill-rule="evenodd">
        <path fill="#D4EBF9" fill-rule="nonzero" d="M99.937 22.894c-10.783-.375-21.054-3.855-30.86-7.663-9.806-3.809-19.518-8.029-30.043-10.046-6.769-1.298-14.51-1.481-19.963 2.147-5.25 3.499-6.946 9.521-7.857 15.116-.687 4.208-1.09 8.636.791 12.576 1.305 2.736 3.622 5.035 5.223 7.664 5.576 9.116 1.636 20.358-4.406 29.26-2.833 4.177-6.123 8.163-8.309 12.605-2.186 4.441-3.199 9.538-1.286 14.073 1.898 4.498 6.417 7.87 11.312 10.244 9.945 4.823 21.658 6.202 33.089 6.984 25.294 1.73 50.723.98 76.084.231 9.386-.278 18.813-.56 28.046-2.01 5.128-.807 10.42-2.085 14.144-5.174 4.725-3.92 5.896-10.559 2.73-15.473-5.312-8.245-19.991-10.293-23.71-19.143-2.043-4.87.057-10.294 3.025-14.812 6.371-9.69 17.049-18.191 17.612-29.267.386-7.608-4.748-15.225-12.685-18.826-8.319-3.786-19.857-3.307-25.991 2.94-6.321 6.435-17.427 8.904-26.946 8.574z"/>
        <path fill="#A2D5F2" fill-rule="nonzero" d="M72.546 115.037l-57.024-.278-5.666-13.29 20.035-1.454-3.492-14.57 39.628-5.137L28.08 67.116l3.352-.796 61.018 9.954-3.36 22.74-4.804 12.496z"/>
        <path fill="#A2D5F2" fill-rule="nonzero" d="M16.397 109.193s3.498-.56 5.598 1.913c0 0-1.54 1.212-4.852-.467l-.746-1.446zM16.03 109.138s-2.232 2.747-1.133 5.806c0 0 1.82-.728 2.018-4.437l-.885-1.369zM14.024 104.621s1.4-2.567 6.998 1.027c0 0-.747 1.726-3.22 1.586-2.471-.14-3.125-1.26-3.778-2.613zM13.663 104.437s-2.904-.334-3.186 6.314c0 0 1.841.381 3.15-1.721 1.307-2.103.77-3.282.036-4.593zM11.972 99.134s1.633-4.525 7.557-1.306c0 0-1.353 4.151-6.95 2.845l-.607-1.54zM10.153 92.37s3.078-4.572 8.536-.333c0 0-1.912 4.291-8.07 1.959l-.466-1.626zM9.5 85.932s3.591-4.2 8.996 0c0 0-3.405 3.685-8.996 1.073v-1.073zM8.94 79.68s3.638-4.385 8.816-.233c0 0-4.105 3.871-8.816 1.259V79.68zM9.266 74.129s3.832-5.645 8.677-1.82c0 0-4.105 4.852-8.677 2.893v-1.073zM10.153 67.645s4.058-5.598 8.77-1.307c0 0-4.805 4.852-8.77 2.333v-1.026zM11.505 61.849s4.805-5.262 8.997-3.166c0 0-5.007 5.588-9.207 4.562l.21-1.396zM13.185 56.354s5.544-6.444 8.77-4.291c0 0-4.085 4.997-9.163 5.497l.393-1.206zM15.609 49.982s4.853-5.262 8.398-3.955c0 0-4.152 5.457-9.05 5.597l.652-1.642zM17.803 44.02s5.364-5.037 7.697-4.151c0 0-3.872 5.598-7.93 5.271l.233-1.12zM19.949 38.516s4.618-6.019 7.138-5.553c0 0-2.8 5.367-7.138 6.165v-.612zM22.278 31.094s4.081-4.613 6.287-4.603c0 0-3.222 6.164-6.456 6.108l.169-1.505zM23.657 26.153l3.944-9.61s.196 8.687-4.445 11.392l.501-1.782zM25.258 15.555s.653-8.025.233-8.678c0 0 2.82 6.673-.26 12.224l.027-3.546zM11.819 99.027s-4.089-2.534-6.736 3.665c0 0 3.639 2.416 7.217-2.084l-.481-1.581zM10.021 92.111s-5.015-2.287-7.447 4.185c0 0 3.873 2.666 7.903-2.549l-.456-1.636zM9.266 86.317s-3.592-4.2-8.996 0c0 0 3.405 3.685 8.996 1.073v-1.073zM8.816 79.68S5.178 75.295 0 79.447c0 0 4.105 3.871 8.816 1.259V79.68z"/>
        <path fill="#A2D5F2" fill-rule="nonzero" d="M9.266 74.289s-2.552-6.323-8.1-3.604c0 0 2.999 5.606 7.874 4.653l.226-1.05zM10.474 67.613s-2.537-6.432-8.163-3.45c0 0 3.445 5.896 7.913 4.443l.25-.993zM12.047 61.88s-1-7.052-5.665-7.683c0 0 .99 7.437 5.037 8.954l.628-1.27zM13.303 56.367s-.39-8.496-4.247-8.793c0 0 .13 6.45 3.812 9.996l.435-1.203zM16.009 49.743s-1.15-7.065-4.832-7.928c0 0 .457 6.842 4.467 9.663l.365-1.735zM18.24 44.079s-.039-7.36-2.288-8.442c0 0-1.394 6.664 1.636 9.382l.651-.94zM20.12 38.433s-.315-7.579-2.644-8.647c0 0-.796 5.998 2.296 9.143l.348-.496zM22.603 31.699s-.014-6.164-1.676-7.61c0 0-1.653 6.752.808 8.85l.868-1.24z"/>
        <path fill="#A2D5F2" fill-rule="nonzero" d="M23.462 25.85l-1.617-10.26s-2.198 8.407 1.694 12.112l-.077-1.852zM23.777 15.652s-4.152-6.897-4.067-7.664c0 0 .442 7.23 5.665 10.83l-1.598-3.166zM24.264 13.615s-3.919-9.797-5.691-10.59c0 0 5.597 2.846 6.017 10.31l-.326.28z"/>
        <path fill="#444053" fill-rule="nonzero" d="M22.09 32.657l-.269-.082c3.307-10.784 4.132-17.66 2.324-19.384l.192-.203c1.917 1.82 1.14 8.62-2.248 19.669z"/>
        <path fill="#444053" fill-rule="nonzero" d="M12.983 57.907l-.396-.142c.351-.988.73-1.99 1.126-2.979 3.452-8.603 6.39-16.606 8.275-22.75l.345-.167c-1.888 6.156-4.775 14.466-8.23 23.08-.395.97-.772 1.968-1.12 2.958z"/>
        <path fill="#444053" fill-rule="nonzero" d="M21.326 117.263c-.053-.058-5.412-6.094-9.15-16.398a60.672 60.672 0 0 1-3.61-18.79c-.256-8.018 1.427-16.971 4.309-25.104l.313.366c-6.47 18.254-3.9 33.896-.49 43.316 3.697 10.211 8.997 16.18 9.048 16.24l-.42.37z"/>
        <path fill="#D5D6DB" fill-rule="nonzero" d="M105.08 104.448s-3.777 4.61-.778 11.579l-30.155 13.078-2.894.606-1.333-5.83.892-7.36V112.5l34.268-8.052z"/>
        <path fill="#A2D5F2" fill-rule="nonzero" d="M9.856 101.47l41.737-7.61 55.303 8.81-34.35 12.367z"/>
        <path fill="#A2D5F2" fill-rule="nonzero" d="M9.856 101.47l41.737-7.61 55.303 8.81-34.35 12.367z"/>
        <path fill="#A2D5F2" fill-rule="nonzero" d="M9.856 101.468s-3.903 7.395.595 14.226l61.892 13.411s-3.842-5.891.198-14.068l-62.685-13.57z"/>
        <path fill="#000" fill-rule="nonzero" d="M9.856 101.468s-3.903 7.395.595 14.226l61.892 13.411s-3.842-5.891.198-14.068l-62.685-13.57zM11.7 104.032s-2.23 5.41 0 8.913" opacity=".1"/>
        <path fill="#A2D5F2" fill-rule="nonzero" d="M72.343 129.105l34.553-14.744s1.932.416.683 1.833c-1.25 1.416-34.57 14.327-34.57 14.327l-62.558-14.827 61.892 13.411z"/>
        <path fill="#000" fill-rule="nonzero" d="M72.343 129.105l34.553-14.744s1.932.416.683 1.833c-1.25 1.416-34.57 14.327-34.57 14.327l-62.558-14.827 61.892 13.411zM69.51 116.527s-3.331 3.998 0 9.996" opacity=".1"/>
        <path fill="#000" fill-rule="nonzero" d="M70.697 121.445l14.945-4.986.316.949-14.945 4.986z" opacity=".1"/>
        <path fill="#000" fill-rule="nonzero" d="M70.692 122.786l17.944-6.823.355.934-17.943 6.824zM70.792 124.368l20.592-8.43.379.926-20.593 8.43z" opacity=".1"/>
        <path fill="#000" fill-rule="nonzero" d="M71.032 125.761l23.342-10.544.412.912-23.342 10.544z" opacity=".1"/>
        <path fill="#000" fill-rule="nonzero" d="M71.217 126.44l25.67-11.22.4.917-25.67 11.22zM71.604 127.58l30.775-13.292.397.918L72 128.498z" opacity=".1"/>
        <path fill="#FFF" fill-rule="nonzero" d="M25.362 102.282l29.321-6.164 17.863 3.416-24.027 7.746z" opacity=".3"/>
        <path fill="#A2D5F2" fill-rule="nonzero" d="M106.896 102.67s1.516.612.626 1.557c-.89.944-34.981 10.81-34.981 10.81l34.355-12.366z"/>
        <path fill="#D5D6DB" fill-rule="nonzero" d="M121.621 88.425s-3.775 4.608-.776 11.578L90.69 113.081l-2.893.61-1.333-5.83.904-7.358v-4.027l34.253-8.051z"/>
        <path fill="#3A3768" fill-rule="nonzero" d="M26.4 85.444l41.734-7.607 55.305 8.81-34.35 12.367z"/>
        <path fill="#3A3768" fill-rule="nonzero" d="M26.393 85.444s-3.905 7.396.593 14.226l61.892 13.411s-3.84-5.896.205-14.069l-62.69-13.568z"/>
        <path fill="#000" fill-rule="nonzero" d="M26.393 85.444s-3.905 7.396.593 14.226l61.892 13.411s-3.84-5.896.205-14.069L69.51 94.775l-43.118-9.33zM28.242 88.008s-2.23 5.41 0 8.913" opacity=".1"/>
        <path fill="#3A3768" fill-rule="nonzero" d="M88.884 113.081l34.555-14.744s1.93.417.681 1.833c-1.25 1.416-34.57 14.328-34.57 14.328L26.994 99.67l61.891 13.411z"/>
        <path fill="#000" fill-rule="nonzero" d="M88.884 113.081l34.555-14.744s1.93.417.681 1.833c-1.25 1.416-34.57 14.328-34.57 14.328L26.994 99.67l61.891 13.411zM86.052 100.503s-3.332 3.999 0 9.996" opacity=".1"/>
        <path fill="#000" fill-rule="nonzero" d="M87.24 105.423l14.945-4.986.316.949-14.945 4.986z" opacity=".1"/>
        <path fill="#000" fill-rule="nonzero" d="M87.237 106.764l17.944-6.823.355.934-17.943 6.824zM87.334 108.343l20.593-8.43.379.926-20.593 8.43z" opacity=".1"/>
        <path fill="#000" fill-rule="nonzero" d="M87.577 109.736l23.342-10.544.412.911-23.342 10.545z" opacity=".1"/>
        <path fill="#000" fill-rule="nonzero" d="M87.76 110.414l25.668-11.22.4.916-25.668 11.22zM88.148 111.553l30.775-13.292.396.918-30.775 13.292z" opacity=".1"/>
        <path fill="#FFF" fill-rule="nonzero" d="M41.905 86.259l29.321-6.164L89.09 83.51l-24.027 7.747z" opacity=".45"/>
        <path fill="#3A3768" fill-rule="nonzero" d="M123.439 86.647s1.514.611.626 1.554c-.888.943-34.976 10.811-34.976 10.811l34.35-12.365z"/>
        <path fill="#D5D6DB" fill-rule="nonzero" d="M123.187 70.094s-3.776 8.275-.778 15.244L92.255 94.75l-2.887.612-1.333-5.831.891-7.359v-4.027l34.261-8.051z"/>
        <path fill="#A2D5F2" fill-rule="nonzero" d="M27.97 67.115l41.737-7.609 55.305 8.81L90.66 80.683z"/>
        <path fill="#A2D5F2" fill-rule="nonzero" d="M27.97 67.113s-3.91 7.396.589 14.226L90.45 94.75s-3.841-5.896.204-14.067L27.97 67.113z"/>
        <path fill="#000" fill-rule="nonzero" d="M27.97 67.113s-3.91 7.396.589 14.226L90.45 94.75s-3.841-5.896.204-14.067L27.97 67.113zM29.815 69.677s-2.231 5.411 0 8.913" opacity=".1"/>
        <path fill="#A2D5F2" fill-rule="nonzero" d="M90.457 94.75l34.553-11.078s1.933.416.683 1.832c-1.25 1.416-34.57 10.663-34.57 10.663L28.566 81.339 90.457 94.75z"/>
        <path fill="#000" fill-rule="nonzero" d="M90.457 94.75l34.553-11.078s1.933.416.683 1.832c-1.25 1.416-34.57 10.663-34.57 10.663L28.566 81.339 90.457 94.75zM87.625 82.172s-3.332 3.999 0 9.996" opacity=".1"/>
        <path fill="#000" fill-rule="nonzero" d="M88.813 87.092l14.945-4.986.316.949L89.13 88.04z" opacity=".1"/>
        <path fill="#000" fill-rule="nonzero" d="M88.81 88.433l17.943-6.823.355.934-17.943 6.824zM88.905 90.014l20.592-8.43.38.926-20.593 8.43z" opacity=".1"/>
        <path fill="#000" fill-rule="nonzero" d="M89.15 91.406L112.49 80.86l.412.912L89.56 92.317z" opacity=".1"/>
        <path fill="#000" fill-rule="nonzero" d="M89.333 92.084l25.669-11.22.4.916L89.734 93zM89.721 93.225l30.775-13.292.397.918-30.776 13.292z" opacity=".1"/>
        <path fill="#FFF" fill-rule="nonzero" d="M43.476 67.928l29.322-6.164 17.862 3.415-24.027 7.747z" opacity=".3"/>
        <path fill="#A2D5F2" fill-rule="nonzero" d="M125.01 68.316s1.516.611.626 1.556c-.89.945-34.976 10.81-34.976 10.81l34.35-12.366zM51.716 17.743s-6.33-.382-5.591 4.06c0 0-.148.785.563 1.141 0 0 .012-.333.65-.218.227.039.459.05.69.033.31-.021.605-.143.84-.346 0 0 1.782-.737 2.475-3.649 0 0 .513-.635.5-.798l-1.073.457s.365.771.078 1.412c0 0-.035-1.384-.242-1.352-.041 0-.554.268-.554.268s.628 1.344.153 2.32c0 0 .18-1.655-.35-2.224l-.753.44s.735 1.388.237 2.52c0 0 .128-1.737-.395-2.413l-.683.533s.691 1.368.27 2.307c0 0-.055-2.022-.417-2.175 0 0-.598.526-.688.743 0 0 .473 1 .178 1.517 0 0-.178-1.347-.333-1.354 0 0-.595.893-.656 1.5a3.242 3.242 0 0 1 .511-1.59 1.784 1.784 0 0 0-.91.471s.092-.631 1.058-.686c0 0 .492-.678.623-.718 0 0-.96-.082-1.542.177 0 0 .513-.595 1.717-.334l.667-.55s-1.263-.166-1.8.019c0 0 .619-.526 1.981-.143l.735-.438s-1.078-.232-1.72-.149c0 0 .677-.365 1.935.03l.523-.235s-.788-.155-1.02-.18c-.231-.025-.243-.088-.243-.088a2.75 2.75 0 0 1 1.483.167s1.125-.405 1.103-.475z"/>
        <path fill="#A2D5F2" fill-rule="nonzero" d="M140.78 35.999s-6.33-.382-5.59 4.06c0 0-.149.785.562 1.141 0 0 .012-.333.65-.218.228.038.46.05.69.033.308-.022.6-.144.833-.346 0 0 1.782-.737 2.474-3.649 0 0 .513-.635.5-.798l-1.07.457s.365.771.078 1.412c0 0-.035-1.384-.24-1.352-.041 0-.556.268-.556.268s.628 1.344.155 2.32c0 0 .18-1.655-.352-2.224l-.753.44s.735 1.388.237 2.521c0 0 .128-1.738-.395-2.414l-.681.533s.69 1.368.268 2.307c0 0-.055-2.022-.417-2.175 0 0-.596.526-.688.743 0 0 .474 1 .18 1.517 0 0-.18-1.347-.333-1.354 0 0-.595.893-.656 1.5a3.232 3.232 0 0 1 .513-1.59c-.343.065-.66.229-.911.471 0 0 .093-.63 1.057-.686 0 0 .492-.678.624-.72 0 0-.96-.08-1.543.179 0 0 .513-.595 1.717-.334l.667-.55s-1.265-.166-1.8.019c0 0 .617-.526 1.981-.143l.733-.438s-1.077-.232-1.719-.149c0 0 .677-.365 1.934.03l.525-.235s-.79-.155-1.021-.18c-.232-.025-.243-.088-.243-.088a2.73 2.73 0 0 1 1.482.167s1.128-.405 1.108-.475zM62.378 45.182s-2.759-5.72-6.27-2.9c0 0-.758.253-.722 1.047 0 0 .292-.151.5.462.078.217.18.423.307.616.17.262.42.46.714.567 0 0 1.511 1.196 4.392.38 0 0 .804.138.936.041l-.92-.711s-.5.695-1.196.756c0 0 1.193-.705 1.065-.868-.027-.033-.5-.355-.5-.355s-.868 1.205-1.95 1.266c0 0 1.532-.65 1.768-1.39l-.75-.444s-.854 1.32-2.085 1.436c0 0 1.58-.734 1.914-1.52l-.796-.334s-.858 1.27-1.884 1.361c0 0 1.739-1.034 1.696-1.426 0 0-.752-.263-.985-.238 0 0-.636.898-1.236.898 0 0 1.088-.815 1.021-.946 0 0-1.07-.084-1.633.166a3.244 3.244 0 0 1 1.638-.333 1.794 1.794 0 0 0-.856-.565s.596-.226 1.114.588c0 0 .833.099.932.193 0 0-.399-.876-.907-1.257 0 0 .77.155 1.121 1.332l.808.32s-.464-1.186-.892-1.56c0 0 .76.28 1.09 1.665l.74.427s-.321-1.055-.708-1.573c0 0 .648.413.917 1.703l.461.343s-.25-.765-.333-.978c-.083-.213-.042-.257-.042-.257.317.396.518.872.58 1.375 0 0 .891.763.951.713zM126.316 27.919s-2.757-5.72-6.27-2.9c0 0-.757.253-.722 1.047 0 0 .293-.15.5.462.077.217.18.425.308.618.17.26.42.459.713.565 0 0 1.513 1.196 4.392.381 0 0 .804.137.938.04l-.915-.713s-.5.696-1.195.758c0 0 1.192-.706 1.063-.87-.026-.033-.5-.354-.5-.354s-.866 1.204-1.95 1.266c0 0 1.534-.65 1.77-1.39l-.76-.44s-.854 1.318-2.087 1.437c0 0 1.58-.737 1.916-1.523l-.798-.333s-.858 1.27-1.882 1.36c0 0 1.737-1.034 1.694-1.424 0 0-.75-.265-.983-.238 0 0-.636.896-1.238.896 0 0 1.09-.814 1.023-.946 0 0-1.07-.083-1.634.167a3.242 3.242 0 0 1 1.637-.334 1.784 1.784 0 0 0-.854-.564s.596-.227 1.114.588c0 0 .833.1.932.195 0 0-.399-.878-.908-1.26 0 0 .77.157 1.12 1.341l.81.32s-.464-1.188-.892-1.562c0 0 .76.281 1.09 1.666l.74.426s-.323-1.053-.71-1.573c0 0 .65.413.917 1.703l.462.343s-.249-.765-.334-.978c-.085-.213-.041-.255-.041-.255.316.396.516.872.578 1.375 0 0 .904.756.956.703zM135.128 56.21s-2.758-5.722-6.276-2.903c0 0-.757.253-.722 1.048 0 0 .294-.15.5.461.077.218.18.425.307.618.17.261.42.46.713.565 0 0 1.513 1.198 4.393.382 0 0 .803.138.936.04l-.92-.712s-.5.697-1.196.758c0 0 1.192-.706 1.063-.87-.026-.033-.5-.354-.5-.354s-.866 1.204-1.95 1.268c0 0 1.534-.652 1.77-1.391l-.75-.444s-.854 1.32-2.087 1.437c0 0 1.58-.737 1.916-1.523l-.798-.333s-.858 1.27-1.882 1.36c0 0 1.74-1.034 1.696-1.425 0 0-.752-.265-.985-.239 0 0-.636.897-1.238.897 0 0 1.09-.815 1.023-.947 0 0-1.07-.083-1.634.167a3.252 3.252 0 0 1 1.64-.333 1.781 1.781 0 0 0-.857-.565s.596-.228 1.114.588c0 0 .833.098.932.193 0 0-.398-.876-.907-1.26 0 0 .77.158 1.122 1.342l.808.32s-.465-1.188-.893-1.561c0 0 .76.28 1.09 1.666l.74.425s-.323-1.053-.71-1.573c0 0 .65.413.919 1.704l.461.334s-.25-.765-.333-.978c-.083-.214-.041-.255-.041-.255.316.395.517.871.578 1.374 0 0 .906.768.958.718z" opacity=".1"/>
        <ellipse cx="33.645" cy="130.213" fill="#A2D5F2" fill-rule="nonzero" opacity=".1" rx="3.83" ry="1"/>
        <ellipse cx="8.537" cy="122.936" fill="#A2D5F2" fill-rule="nonzero" opacity=".1" rx="3.83" ry="1"/>
        <ellipse cx="52.784" cy="135.046" fill="#A2D5F2" fill-rule="nonzero" opacity=".1" rx="3.83" ry="1"/>
        <ellipse cx="118.989" cy="122.441" fill="#A2D5F2" fill-rule="nonzero" opacity=".1" rx="3.83" ry="1"/>
        <ellipse cx="98.371" cy="132.224" fill="#A2D5F2" fill-rule="nonzero" opacity=".1" rx="4.53" ry="1"/>
        <path fill="#A2D5F2" fill-rule="nonzero" d="M100.391 124.404s-6.307 3.258-3.048 7.097c0 0 .306.833 1.193.774 0 0-.177-.323.5-.581.24-.093.469-.214.68-.362.287-.198.501-.484.61-.814 0 0 1.29-1.726.29-4.92 0 0 .13-.903.017-1.05l-.766 1.052s.791.531.883 1.313c0 0-.833-1.312-1-1.167-.037.03-.38.575-.38.575s1.373.931 1.475 2.14c0 0-.773-1.693-1.608-1.935l-.478.853s1.5.913 1.666 2.286c0 0-.872-1.741-1.761-2.093l-.352.902s1.446.92 1.58 2.062c0 0-1.21-1.91-1.645-1.85 0 0-.273.845-.236 1.107 0 0 1.021.683 1.04 1.355 0 0-.944-1.192-1.089-1.113 0 0-.06 1.197.23 1.82 0 0-.5-.89-.418-1.82a2 2 0 0 0-.605.973s-.271-.658.624-1.265c0 0 .084-.931.188-1.046 0 0-.968.473-1.38 1.053 0 0 .152-.865 1.465-1.295l.333-.913s-1.313.557-1.718 1.047c0 0 .292-.858 1.821-1.27l.453-.833s-1.166.393-1.736.833c0 0 .442-.738 1.876-1.078l.369-.525s-.847.302-1.083.41c-.237.108-.284.055-.284.055a3.064 3.064 0 0 1 1.518-.69s.835-1.03.776-1.087z"/>
        <path fill="url(#a)" fill-rule="nonzero" d="M119.112 62.857c-1.09-2.961-7.087-3.24-9.69-2.484-1.848.538-5.747 1.144-7.83 1.449l-.134-.128c.27-.08.276-.277.243-.568-.02-.385-.014-.77.017-1.153 1.276.396 2.412-.542 2.412-.542 1.5-.666 1.096-3.518 1.383-4.298.215-.583.446-4.018.55-5.731h.021l.012-.575c.015-.248.022-.393.022-.393s.146-4.188.433-5.036c.266-.78.483-4.708.516-5.332v-.081l-.022-.363c.015-.265.022-.56.02-.87 0-1.424-.148-3.219-.166-3.509v-.151c.012-.608-.065-3.654-2.656-4.805-.954-.426-2.102-.935-3.213-1.43-.287-2.473-.942-4.934-.885-7.426 0-.375.033-.75.07-1.123 0 .108-.012.218-.013.333v.726c.098-3.117 1.276-6.25 1.166-9.301-.01.298-.032.598-.06.898a9.684 9.684 0 0 0-.32-3.064c-.1-.351-.235-.715-.523-.95a2.154 2.154 0 0 0-.913-.361c-.789-.202-1.59-.35-2.398-.446a3.702 3.702 0 0 0-.54-1.048c-1.689-2.32-4.191-4.499-7.15-4.998-1.484-.25-3.192-.042-4.201 1.02a3.152 3.152 0 0 0-.297.3c-.543.647-.776 1.499-1.333 2.145-.036.043-.078.083-.118.125-1.09.974-2.787 1.178-3.998 2.052a4.8 4.8 0 0 0-.599.522 10.143 10.143 0 0 0-1.306 1.588c-.545.766-1.104 1.564-1.278 2.479-.348 1.832.9 3.57 1.132 5.414.516 4.127-4.05 7.789-3.186 11.86.231 1 .74 1.915 1.47 2.638a79.295 79.295 0 0 0-3.297 3.177v.093h-.282l.028.333h-.028l.155 1.808-.155 2.632v.248h.01c.052.965.257 4.433.5 5.165.286.848.431 5.036.431 5.036s.317 5.92.607 6.702c.29.784-.122 3.627 1.383 4.299.44.337.96.553 1.51.626-.076.623-.028 1.075.22 1.216a.726.726 0 0 0 .35.1c-.102.152-.192.31-.271.475a7.057 7.057 0 0 1-1.746-.411c-1.616-.667-6.979-2.166-8.537-1.112-1.557 1.055-5.306 2.011-3.575 6.256 1.731 4.245 2.537 4.352 2.537 4.352.533.387 1 .856 1.385 1.39.52.782 5.363 2.57 6.574 2.57a11.86 11.86 0 0 1 1.541.077s-1.315 1.152-1.14 1.822c.175.67-.4 6.031-.4 6.031s1.333 1.343 1.903-.418l.02.027c.107.145.683.8 1.768-.027a9.91 9.91 0 0 1 1.41-.893l5.25-.743a14.867 14.867 0 0 1 1.645-.012c.833.069 1.65-.425 2.166-.806 1.087.413 2.31.865 2.892 1.03 1.18.333 6.6 1.787 7.868 1.332.264-.105.498-.271.683-.486l1.21.038-.567.113s1.103.019 2.603.039l-.064.036 1.881-.016c2.753.025 5.845.033 6.251-.059.637-.141 3.944-.041 4.918 0h.272s3.633-.724 2.134-4.411c-1.153-2.832-4.697-3.655-6.27-3.882.444-.088.825-.157 1.079-.197 1.098-.166 3.23-1.166 3.403-1.507.174-.342 1.961-1.333 2.423-1.898.461-.565 1.779-4.568.684-7.528zm-30.096 8.285l-.178.058-.12.04-.23.226c-.183-.123-.38-.253-.585-.386.362.022.733.043 1.113.062z"/>
        <path fill="#BE6F72" fill-rule="nonzero" d="M99.638 53.575s2.55 6.664 3.999 5.998c1.45-.667 1.056-3.499 1.333-4.275.276-.776.583-6.664.583-6.664s.14-4.165.416-5.008c.257-.775.465-4.682.5-5.296v-.082l-.275-4.831-1.556-.389-3.608 1.333-.5 2.854-.195 1.115-.083.474-.614 14.771z"/>
        <path fill="#000" fill-rule="nonzero" d="M100.478 52.459s2.432 1.99 3.166 2.166c.733.175 1.182 1.727 1.182 1.727" opacity=".1"/>
        <path fill="#BE6F72" fill-rule="nonzero" d="M79.705 53.867s-2.55 6.664-3.999 5.997c-1.449-.666-1.056-3.498-1.332-4.275-.277-.776-.584-6.664-.584-6.664s-.14-4.165-.416-5.008c-.257-.774-.465-4.681-.5-5.296v-.081l.277-4.832 1.556-.388 3.608 1.333.5 2.854.195 1.114.083.475.612 14.77z"/>
        <path fill="#3E373A" fill-rule="nonzero" d="M90.614 18.204h5.689v8.868h-5.689z"/>
        <path fill="#000" fill-rule="nonzero" d="M90.614 18.204h5.689v8.868h-5.689z" opacity=".1"/>
        <path fill="#4B4B5B" fill-rule="nonzero" d="M78.705 60.504s-1.944 2.138-1.223 2.526c.722.388 5.388 7.663 5.388 7.663s15.327 1.888 18.218-.944c2.89-2.832 2.832-7.892 2.832-7.892s-2.322.5-2.576.228c-.253-.271-1.644-1.58-1.644-1.58s-19.662-1.194-20.995 0z"/>
        <path fill="#000" fill-rule="nonzero" d="M78.705 60.504s-1.944 2.138-1.223 2.526c.722.388 5.388 7.663 5.388 7.663s15.327 1.888 18.218-.944c2.89-2.832 2.832-7.892 2.832-7.892s-2.322.5-2.576.228c-.253-.271-1.644-1.58-1.644-1.58s-19.662-1.194-20.995 0z" opacity=".02"/>
        <path fill="#BE6F72" fill-rule="nonzero" d="M106.297 33.487l-4.998 3.998-1.51.11-.555.04-9.318.683-9.663-.706-1.438-.105-1.832-.134-3.832-3.665s2.712-2.905 5.088-4.866c.936-.775 1.82-1.401 2.465-1.648l.11-.038c.406-.158.768-.41 1.057-.737 1.875-1.934 3.61-6.707 3.61-6.707s8.275-4.275 7.275 1.333c-1 5.608 3.72 4.222 3.72 4.222l1.556.71.615.28 1.568.719 3.537 1.623c2.775 1.277 2.545 4.888 2.545 4.888z"/>
        <circle cx="89.528" cy="16.837" r="7.442" fill="#000" fill-rule="nonzero" opacity=".1"/>
        <path fill="#000" fill-rule="nonzero" d="M106.31 38.788H72.873v-.082l.277-4.831s2.712-2.906 5.088-4.867l20.991-.833.977-1.03 3.536 1.623c2.778 1.277 2.554 4.887 2.554 4.887s.38 4.183.012 5.133z" opacity=".1"/>
        <path fill="#FFA190" fill-rule="nonzero" d="M106.31 38.621H72.873v-.081l.277-4.832s2.712-2.905 5.088-4.866l20.991-.833.977-1.03 3.536 1.623c2.778 1.276 2.554 4.886 2.554 4.886s.38 4.184.012 5.133z"/>
        <path fill="#000" fill-rule="nonzero" d="M84.168 25.073s5.275 6.72 12.3-.138c7.026-6.859.778 15.299.778 15.299l-15.16 1.8 2.082-16.96z" opacity=".1"/>
        <path fill="#FFA190" fill-rule="nonzero" d="M84.168 25.407s5.275 6.72 12.3-.139c7.026-6.859.778 15.3.778 15.3l-15.16 1.798 2.082-16.96z"/>
        <path fill="#000" fill-rule="nonzero" d="M98.639 26.586l.558 8.512.598 2.832.457 2.166s1.166 16.66.833 17.493c-.334.833.166 1.499.236 1.942.07.443-.07 1.556-.015 2.056.055.5 0 .721-1.276.543-1.276-.178-3.055-.488-3.055-.488s-4.499.333-6.053-.222c-1.554-.554-4.498-.556-4.498-.556s-4.443.112-5.886-.055c-1.443-.167-2.223 1.778-3.166 1.221-.943-.556 1.11-5.94 1.776-7.497.667-1.556-.888-5.498-.888-5.498l2-11.09.444-2.514v-7.904l.11-.038c.406-.158.768-.41 1.057-.736l.5 7.953 15.66.557V26.31" opacity=".1"/>
        <path fill="#FFA190" fill-rule="nonzero" d="M98.639 26.253l.558 8.511.598 2.833.457 2.165s1.166 16.66.833 17.493c-.334.833.166 1.5.236 1.943.07.443-.07 1.556-.015 2.056.055.5 0 .721-1.276.543-1.276-.178-3.055-.488-3.055-.488s-4.499.333-6.053-.222c-1.554-.555-4.498-.556-4.498-.556s-4.443.111-5.886-.055c-1.443-.167-2.223 1.777-3.166 1.221-.943-.556 1.11-5.941 1.776-7.497.667-1.556-.888-5.498-.888-5.498l2-11.09.444-2.514v-7.904l.11-.038c.406-.158.768-.41 1.057-.737l.5 7.954 15.66.556v-8.951"/>
        <path fill="#000" fill-rule="nonzero" d="M100.44 8.49c-.095-.348-.227-.71-.5-.943a2.046 2.046 0 0 0-.88-.36 17.38 17.38 0 0 0-2.312-.443c-.111-.37-.28-.72-.5-1.038C94.615 3.4 92.2 1.226 89.358.735 87.87.476 86.146.708 85.193 1.88c-.524.645-.748 1.5-1.277 2.132-1.018 1.23-2.855 1.382-4.138 2.333-.685.5-1.181 1.224-1.666 1.927-.525.762-1.064 1.555-1.231 2.464-.333 1.818.868 3.55 1.09 5.385.5 4.103-3.899 7.743-3.068 11.792.485 2.36 2.666 4.023 4.922 4.866.794.298 1.702.595 2.074 1.358.166.333.195.718.351 1.055.527 1.122 2.258 1.166 3.187.348.93-.818 1.223-2.141 1.333-3.376.447-5.39-1.712-10.717-1.46-16.121.074-1.635.534-3.489 1.998-4.229 1.971-1 4.342.667 6.511.348a12.916 12.916 0 0 1 .623 7.882c-.345 1.438-.941 2.833-.984 4.315-.065 2.258 1.152 4.32 2.205 6.316.226.373.377.787.445 1.218.017.437-.065.873-.238 1.274-.595 1.601-1.621 3.087-1.738 4.792a.775.775 0 0 0 .125.57c.118.11.27.179.43.193 1.8.308 3.355-1.286 4.233-2.887a13.535 13.535 0 0 0 1.67-5.751c.181-3.392-1.035-6.73-.96-10.125.087-3.86 1.831-7.747.81-11.47z" opacity=".1"/>
        <path fill="#3E373A" fill-rule="nonzero" d="M100.606 8.323c-.095-.348-.226-.71-.5-.943a2.046 2.046 0 0 0-.879-.36 17.38 17.38 0 0 0-2.312-.443c-.112-.37-.28-.72-.5-1.038-1.633-2.305-4.049-4.48-6.89-4.97-1.489-.26-3.213-.028-4.166 1.145-.523.645-.748 1.5-1.276 2.133-1.018 1.23-2.856 1.38-4.138 2.332-.685.5-1.182 1.225-1.666 1.928-.525.761-1.065 1.554-1.231 2.464-.334 1.817.867 3.55 1.09 5.384.499 4.104-3.9 7.744-3.068 11.792.485 2.361 2.666 4.024 4.921 4.867.795.298 1.703.594 2.074 1.357.167.334.195.718.352 1.055.526 1.123 2.257 1.166 3.187.348.93-.818 1.223-2.14 1.333-3.375.446-5.391-1.713-10.718-1.461-16.122.075-1.634.535-3.489 1.999-4.228 1.97-1 4.342.666 6.51.348a12.916 12.916 0 0 1 .624 7.882c-.345 1.437-.941 2.832-.985 4.315-.065 2.257 1.153 4.32 2.206 6.315.226.374.377.787.445 1.218.016.438-.065.873-.238 1.275-.595 1.6-1.621 3.087-1.738 4.791a.775.775 0 0 0 .125.57c.117.111.269.18.43.193 1.799.308 3.355-1.286 4.233-2.887a13.535 13.535 0 0 0 1.67-5.751c.18-3.392-1.035-6.729-.96-10.124.086-3.86 1.83-7.747.81-11.47z"/>
        <path fill="#C3C7D9" fill-rule="nonzero" d="M96.926 82.089l6.61.211-.949-4.901-5.063.482z"/>
        <path fill="#4B4B5B" fill-rule="nonzero" d="M117.405 70.472c-.445.555-2.166 1.554-2.333 1.887-.166.334-2.22 1.333-3.277 1.5-1.056.166-4.386.89-4.998 1.278-.438.28-3.955 1.166-6.266 1.657-.625.148-1.259.262-1.897.342-1 .055-11.939-3.665-11.939-3.665l2.11-2.166.116-.04c.597-.202 3.352-1.133 4.881-1.576 1.723-.5 3.722-2.554 3.722-2.554s2.942-1 3.332-1.111c.39-.112-1-3.887-1-3.887s6.386-.887 8.885-1.638c2.5-.751 8.276-.473 9.33 2.47 1.055 2.945-.215 6.948-.666 7.503z"/>
        <path fill="#E7C7CA" fill-rule="nonzero" d="M88.305 79.856s-1.276 1.333-2.554 1.223c-1.278-.11-5.746.333-5.746.333a8.958 8.958 0 0 0-2.251 1.305c-1.045.823-1.6.166-1.703.027l-.018-.027c-.557 1.75-1.833.416-1.833.416s.555-5.33.385-5.997c-.17-.667 1.098-1.811 1.098-1.811l1.5-.382 3.798-.973 5.443 1.888 1.88 3.998z"/>
        <path fill="#000" fill-rule="nonzero" d="M77.176 74.943l-1.125 7.8-.018-.026c-.557 1.75-1.833.416-1.833.416s.555-5.33.385-5.997c-.17-.667 1.098-1.811 1.098-1.811l1.493-.382zM85.036 52.756s2.942 1 5.498 0M95.08 54.645s1.221.61 2.166 0M95.08 56.09s2.054.276 2.444-.279M94.414 59.198s3.858-.5 4.816-1.166M82.64 58.032s2.166 1.221 3.777 1.166M100.53 76.794c-.626.148-1.26.262-1.898.342-1 .055-11.938-3.665-11.938-3.665l2.109-2.166.116-.04c.334.235.607.436.802.59.918.723 1.804-.222 2.137-.222.333 0 3.22 2.387 3.22 2.387s2.666.612 3.111 1.167c.445.554 2 .444 2.276.833.083.12.093.414.065.774z" opacity=".1"/>
        <path fill="#4B4B5B" fill-rule="nonzero" d="M80.005 62.363s-2.696.155-4.25-.5c-1.555-.654-6.72-2.165-8.219-1.104-1.5 1.061-5.11 2-3.443 6.22 1.666 4.223 2.444 4.332 2.444 4.332.515.387.965.854 1.333 1.383.5.778 5.164 2.554 6.33 2.554 1.167 0 3.22 0 6.108 2 2.887 1.999 5.498 2.222 5.498 2.222s3.665 1.5 4.806 1.832c1.141.334 6.356 1.776 7.579 1.333 1.223-.443 1.999-3.222 1.999-3.222s.555-2.499.276-2.887c-.278-.388-1.832-.278-2.275-.833-.443-.555-3.11-1.166-3.11-1.166s-2.881-2.39-3.214-2.39c-.334 0-1.22.944-2.138.222a48.762 48.762 0 0 0-5.75-3.665c-2.108-1.111-3.974-6.33-3.974-6.33z"/>
        <path fill="#000" fill-rule="nonzero" d="M74.585 63.974a3.182 3.182 0 0 1 2.73.722c1.334 1.111 5.818 3.342 5.818 3.342M107.908 63.904s-5.942.9-7.052 2.121" opacity=".1"/>
        <path fill="#E7C7CA" fill-rule="nonzero" d="M114.74 82.3h-.262c-.94-.033-4.124-.133-4.737 0-.721.167-10.274 0-10.274 0l1.867-.388s-.693-2.429-.253-2.63c0 0-2.499-1.646-.615-2.758 1.885-1.11 3.916-.643 3.916-.643l4.73-1.602.907-.309s5.332.279 6.774 3.944c1.443 3.665-2.054 4.386-2.054 4.386z"/>
        <path fill="#000" fill-rule="nonzero" d="M114.74 82.3h-.262c1.55-1.28 5.06-5.174-5.367-8.013l.908-.308s5.332.278 6.774 3.943c1.443 3.665-2.054 4.378-2.054 4.378z" opacity=".1"/>
        <circle cx="104.938" cy="77.691" r="1" fill="#4B4B5B" fill-rule="nonzero"/>
        <circle cx="103.244" cy="78.172" r="1" fill="#4B4B5B" fill-rule="nonzero"/>
        <g fill="#000" fill-rule="nonzero" opacity=".1">
            <path d="M94.989 16.562a12.926 12.926 0 0 0-.957-5.355c-2.165.323-4.538-1.348-6.51-.348-1.46.74-1.918 2.594-2 4.228-.02.432-.023.863-.015 1.295 0-.153 0-.308.015-.462.077-1.634.535-3.488 2-4.228 1.972-1 4.341.666 6.51.348.589 1.437.913 2.97.957 4.522zM78.205 16.257a5.551 5.551 0 0 0-.021-1.09c-.177-1.466-.978-2.867-1.123-4.296-.187 1.724.911 3.38 1.123 5.13.021.09.021.17.021.256zM86.984 31.208c-.104 1.236-.395 2.557-1.333 3.376-.938.82-2.666.775-3.187-.348-.167-.333-.192-.721-.354-1.054-.37-.763-1.279-1.06-2.074-1.358-2.257-.845-4.435-2.5-4.92-4.866a5.111 5.111 0 0 1-.088-.65c-.04.496-.01.995.089 1.483.484 2.36 2.665 4.021 4.92 4.866.794.298 1.704.595 2.073 1.358.167.333.195.718.354 1.054.524 1.123 2.255 1.166 3.187.348.931-.818 1.22-2.14 1.333-3.376.05-.651.067-1.304.051-1.956 0 .378-.021.751-.051 1.123zM99.852 19.004v.721c.093-3.098 1.23-6.214 1.118-9.248-.087 2.806-1.055 5.675-1.118 8.527zM96.276 31.539c.041-.198.054-.4.039-.601a3.332 3.332 0 0 0-.445-1.218c-.963-1.833-2.06-3.709-2.19-5.743 0 .087-.012.167-.014.26-.067 2.256 1.151 4.32 2.204 6.316.179.309.316.64.406.986zM100.81 29.128a13.556 13.556 0 0 1-1.681 5.751c-.88 1.601-2.434 3.196-4.235 2.888a.708.708 0 0 1-.43-.195.417.417 0 0 1-.078-.13c-.02.13-.037.261-.047.395a.768.768 0 0 0 .125.568.708.708 0 0 0 .43.195c1.8.308 3.355-1.287 4.235-2.888a13.556 13.556 0 0 0 1.68-5.75c.02-.39.022-.779.01-1.167-.003.112-.003.222-.01.333z"/>
        </g>
        <path stroke="#000" stroke-width=".5" d="M101.081 79.282s4.217 1.769 6.997-2.146M101.91 82.374s3.445-2.24 7.831-.074M78.86 81.866s1.446-3.262 5.308-.775" opacity=".1"/>
        <path fill="#000" fill-rule="nonzero" d="M74.172 33.625l2.949-2.666s11.434-.75 11.907 3.137c0 0 4.053-4.608 12.578-3.582l3.607 2.873-9.97 4.375-9.687 3.36-7.136-3.194-4.248-4.303z" opacity=".1"/>
        <path fill="#D5D6DB" fill-rule="nonzero" d="M74.172 33.791l2.949-2.665s11.434-.75 11.907 3.137c0 0 4.053-4.608 12.578-3.582l3.607 2.872-9.97 4.375-9.687 3.36-7.136-3.193-4.248-4.304z"/>
        <path fill="#000" fill-rule="nonzero" d="M72.868 34.125l1.304 15.605L88 50.425l-.6-15.539-.012-.262z" opacity=".1"/>
        <path fill="#A2D5F2" fill-rule="nonzero" d="M72.868 33.791l1.304 15.606L88 50.092l-.6-15.54-.012-.26z"/>
        <path fill="#000" fill-rule="nonzero" d="M105.846 33.791l-14.264 2.14v15.675l13.94-2.014z" opacity=".1"/>
        <path fill="#A2D5F2" fill-rule="nonzero" d="M105.846 33.458l-14.264 2.14v15.675l13.94-2.014z"/>
        <path fill="#FFF" fill-rule="nonzero" d="M102.482 37.283l-7.705.857.168 2.625 7.532-.823z" opacity=".3"/>
        <path fill="#BE6F72" fill-rule="nonzero" d="M74.922 57.754l.784 2.11s1.167 1 2.443.5 2.389-.748 2.944-1.234c.554-.487 1.332-2.93 1.332-2.93s.778-2.666 1.555-3.333c.776-.666 2.832-9.848 0-8.95-2.832.898-4.998 9.228-4.998 9.228s-.5.61-1.221.667c-.722.056-2.166-.112-2.444.5-.279.611-1.228 2.22-.395 3.442z"/>
        <path fill="#000" fill-rule="nonzero" d="M91.582 35.929a4.798 4.798 0 0 1-4.184-1.043L88 50.423s1.416 1.533 3.582 1.183V35.929z" opacity=".1"/>
        <path fill="#A2D5F2" fill-rule="nonzero" d="M91.582 35.596a4.798 4.798 0 0 1-4.184-1.043L88 50.09s1.416 1.533 3.582 1.183V35.596z"/>
        <path fill="#000" fill-rule="nonzero" d="M91.582 35.596a4.798 4.798 0 0 1-4.184-1.043L88 50.09s1.416 1.533 3.582 1.183V35.596zM91.915 33.845s5.803-1.774 7.315-1.525M85.424 33.07s-5.624-1.333-6.564-.955M95.573 34.066s3.88-1.422 5.283-.746M93.62 69.757c.6-.451 1.24-.849 1.912-1.188 1-.481 2.832-1.73 2.832-1.73M78.86 52.756s-2.434 1.99-3.165 2.165c-.732.175-1.183 1.728-1.183 1.728" opacity=".1"/>
        <path fill="#BE6F72" fill-rule="nonzero" d="M104.415 57.457l-.776 2.116s-1.167 1-2.444.5c-1.278-.5-2.388-.748-2.944-1.235-.557-.486-1.333-2.93-1.333-2.93s-.776-2.666-1.554-3.332c-.779-.667-2.833-9.848 0-8.95 2.832.898 4.998 9.228 4.998 9.228s.5.61 1.22.666c.722.057 2.166-.111 2.445.5.278.611 1.22 2.22.388 3.437z"/>
        <path fill="#000" fill-rule="nonzero" d="M103.054 53.565s1.59 1.023 1.584 2.246" opacity=".1"/>
        <circle cx="89.554" cy="16.472" r="7.442" fill="#BE6F72" fill-rule="nonzero"/>
        <path fill="#3E373A" fill-rule="nonzero" d="M84.881 14.474c.903-.141 1.694-.666 2.557-.968 1.931-.678 4.067-.213 6.021.398.75.235 1.511.5 2.298.5.786 0 1.62-.321 2.022-1 .37-.622.298-1.432-.013-2.087-.312-.655-.833-1.181-1.36-1.678-1.732-1.636-3.881-3.165-6.259-2.998-.956.068-1.87.41-2.75.788a30.321 30.321 0 0 0-3.229 1.626c-.801.465-2.286 1.086-2.747 1.936-1.05 1.914 1.827 3.74 3.46 3.483z"/>
        <path fill="#000" fill-rule="nonzero" d="M97.78 12.705c-.402.678-1.237 1-2.023 1-.787 0-1.548-.255-2.3-.49-1.954-.612-4.088-1.078-6.02-.398-.862.301-1.655.833-2.558.966-1.316.206-3.435-.94-3.665-2.398-.258 1.685 2.2 3.128 3.665 2.898.903-.142 1.696-.667 2.558-.967 1.932-.68 4.066-.213 6.02.399.752.234 1.512.5 2.3.49.788-.01 1.62-.32 2.022-1 .208-.37.29-.798.233-1.218a1.796 1.796 0 0 1-.233.718z" opacity=".1"/>
    </g>
</svg>
