<svg xmlns="http://www.w3.org/2000/svg" width="135" height="120" viewBox="0 0 135 120">
    <g fill="none" fill-rule="nonzero">
        <circle cx="52.16" cy="67.474" r="51.984" fill="#FFA190" opacity=".4"/>
        <path fill="#A2D5F2" d="M122.036 29.196l-5.423 6.43c-.293 2.77-.708 5.864-1.296 9.11l8.91-9.217.042.16c-.507-2.477-1.274-4.724-2.282-6.635l.05.152zM116.664 35.14l5.253-6.228c-1.147-2.132-2.599-3.835-4.334-4.952a9.738 9.738 0 0 0-.272-.167c.001.757-.02 5.2-.647 11.347zM123.393 55.074l.011.186a47.65 47.65 0 0 0 .78-3.433l-12.922 8.343-.008-.085a68.015 68.015 0 0 1-.754 1.96l12.893-6.971zM124.933 44.937l.026.176a39.33 39.33 0 0 0-.656-9.26l-9.08 9.393c-.565 3.04-1.23 5.934-1.996 8.681l11.706-8.99zM102.023 29.22a32.84 32.84 0 0 0-3.467 5.638l14.965 17.084c.617-2.397 1.113-4.72 1.513-6.887l-13.09-15.666.079-.17zM97.498 37.204l.077-.172 15.368 17.052c.166-.584.324-1.165.475-1.742L98.397 35.195l.077-.17c-.34.7-.665 1.427-.976 2.179zM124.207 51.424l.018.183c.383-2.078.625-4.18.725-6.29l-11.864 9.112a80.273 80.273 0 0 1-1.693 5.269l12.814-8.274zM107.081 69.148c-2.01 3.5-4.289 6.458-6.812 8.84 2.79-1.125 14.035-6.085 19.863-15.028l-13.051 6.188zM95.16 45.883a45.436 45.436 0 0 0-.261 6.077l.094-.182 12.053 16.909a56.488 56.488 0 0 0 2.958-6.09L95.161 45.883zM116.442 35.121c.676-6.65.64-11.284.639-11.35l.115-.047c-2.714-1.573-5.713-1.518-8.633-.12l7.879 11.517zM110.297 62.54c-.081.197-.162.396-.245.592a56.122 56.122 0 0 1-2.673 5.49l12.927-6.129.006.183a22.25 22.25 0 0 0 2.406-5.074 46.15 46.15 0 0 0 .626-2.117l-13.047 7.054zM115.113 44.622c.58-3.21.988-6.268 1.277-9.005l-8.06-11.782.086-.16c-2.195 1.085-4.342 2.928-6.287 5.409l12.984 15.538z"/>
        <path fill="#A2D5F2" d="M106.869 68.998L94.904 52.213c.288 12.167 4.442 25.153 4.71 25.978 2.874-2.573 5.265-5.736 7.255-9.193zM110.143 62.237l.012-.006a76.234 76.234 0 0 0 2.677-7.758L97.425 37.38a45.253 45.253 0 0 0-1.16 3.187 27.316 27.316 0 0 0-1.05 4.86l14.928 16.81zM134.228 79.15l-8.278 1.494a125.003 125.003 0 0 1-6.809 6.19l12.742-1.417-.07.151c1.19-2.231 2.032-4.451 2.474-6.567l-.059.15zM126.299 80.302l8.019-1.447c.476-2.373.444-4.61-.18-6.578a9.732 9.732 0 0 0-.103-.302c-.482.584-3.333 3.992-7.736 8.327zM118.768 99.946l-.11.151a47.65 47.65 0 0 0 2.79-2.147l-15.274-1.816.048-.07c-.613.356-1.223.699-1.83 1.028l14.376 2.854zM126.42 93.12l-.093.154a39.33 39.33 0 0 0 5.402-7.551l-12.985 1.443a101.289 101.289 0 0 1-7.075 5.413l14.75.542zM118.799 66.403a32.84 32.84 0 0 0-6.266 2.132l.63 22.703a102.133 102.133 0 0 0 5.557-4.34l-.09-20.415.169-.08zM110.222 69.667l.168-.083.961 22.935c.5-.344.992-.69 1.477-1.04l-.633-22.786.169-.082c-.71.323-1.423.675-2.142 1.056zM121.722 97.654l-.102.152a46.969 46.969 0 0 0 4.57-4.381l-14.95-.549a80.276 80.276 0 0 1-4.664 2.978l15.146 1.8zM97.228 100.382c-3.78 1.413-7.423 2.238-10.885 2.464 2.867.913 14.69 4.265 24.883 1.094l-13.998-3.558z"/>
        <path fill="#A2D5F2" d="M102.886 74.86a45.437 45.437 0 0 0-4.078 4.514l.189-.08-1.502 20.71a56.488 56.488 0 0 0 6.162-2.803l-.771-22.34zM126.14 80.145c4.762-4.69 7.69-8.282 7.732-8.334l.118.037c-1.087-2.942-3.431-4.812-6.572-5.598l-1.278 13.895zM103.92 97.343c-.189.1-.378.203-.567.3a56.121 56.121 0 0 1-5.56 2.525l13.865 3.524-.112.145a22.25 22.25 0 0 0 5.09-2.374 46.15 46.15 0 0 0 1.832-1.23l-14.548-2.89zM119.057 86.616a124.457 124.457 0 0 0 6.727-6.122l1.308-14.215.168-.07c-2.383-.563-5.213-.512-8.292.158l.089 20.249zM97.16 100.132l1.49-20.56c-7.538 9.555-12.62 22.206-12.94 23.013 3.853-.15 7.713-1.06 11.45-2.453zM103.994 97.013l.013.002a76.234 76.234 0 0 0 7.01-4.267l-.964-22.992a45.257 45.257 0 0 0-2.926 1.715 27.316 27.316 0 0 0-3.91 3.073l.777 22.469zM91.235 51.47l-3.17 7.792c.577 2.724 1.14 5.796 1.583 9.065l5.625-11.52.09.14c-1.249-2.2-2.673-4.1-4.223-5.606l.095.13zM87.962 58.784l3.071-7.547c-1.75-1.673-3.656-2.843-5.652-3.37a9.74 9.74 0 0 0-.31-.075c.235.72 1.587 4.953 2.891 10.992zM100.524 75.662l.068.174a47.65 47.65 0 0 0-.32-3.506l-9.71 11.928-.034-.078a68.017 68.017 0 0 1-.112 2.096l10.108-10.614zM98.855 65.545l.08.16a39.33 39.33 0 0 0-3.487-8.605l-5.732 11.74c.402 3.067.664 6.025.785 8.874l8.354-12.17zM72.208 57.679a32.84 32.84 0 0 0-1.554 6.434l19.513 11.621c-.154-2.47-.4-4.833-.69-7.017L72.186 57.864l.022-.185zM70.373 66.67l.02-.186L90.279 77.95a89.253 89.253 0 0 0-.087-1.803L70.607 64.482l.02-.186a40.44 40.44 0 0 0-.254 2.374zM100.17 71.94l.073.167a46.968 46.968 0 0 0-1.254-6.206l-8.467 12.334c.07 1.9.076 3.745.018 5.533l9.63-11.829z"/>
        <path fill="#A2D5F2" d="M89.36 94.089c-.83 3.95-2.082 7.467-3.746 10.513 2.307-1.934 11.468-10.126 14.245-20.433l-10.498 9.92zM70.833 75.647a45.437 45.437 0 0 0 1.63 5.86l.032-.202 16.69 12.356c.444-2.215.755-4.454.93-6.706L70.834 75.647zM87.745 58.835c-1.412-6.534-2.879-10.93-2.9-10.993l.095-.08c-3.067-.657-5.902.322-8.248 2.555l11.053 8.518zM90.377 86.81c-.017.213-.032.427-.05.639a56.121 56.121 0 0 1-.845 6.048l10.399-9.825.063.172a22.25 22.25 0 0 0 .719-5.57 46.152 46.152 0 0 0-.059-2.206L90.377 86.81zM89.419 68.281a124.458 124.458 0 0 0-1.57-8.96l-11.306-8.713.031-.179c-1.752 1.71-3.223 4.128-4.306 7.088l17.15 10.764z"/>
        <path fill="#A2D5F2" d="M89.113 94.012L72.545 81.747c4.035 11.482 12 22.548 12.51 23.25 1.937-3.335 3.234-7.083 4.058-10.985zM90.136 86.57l.01-.01c.197-2.73.246-5.47.148-8.205L70.358 66.861a45.296 45.296 0 0 0-.118 3.39c.017 1.66.186 3.317.503 4.947L90.136 86.57z"/>
        <path fill="#1B1041" d="M96.24 109.766c0 6.302-9.77 8.479-29.311 6.53-19.41 1.949-29.115-.228-29.115-6.53 0-9.453 13.175-11.51 29.309-11.51s29.117 2.057 29.117 11.51z" opacity=".801"/>
        <path fill="#64578F" d="M96.24 107.438c0 9.454-13.177 6.53-29.311 6.53s-29.115 2.924-29.115-6.53c0-9.453 13.175-11.51 29.309-11.51s29.117 2.057 29.117 11.51z"/>
        <circle cx="48.133" cy="76.091" r="13.072" fill="#A2D5F2"/>
        <path fill="#A2D5F2" d="M41.484 56.678a10.248 10.248 0 0 1-12.621-5.548L14.693 19.31A13.722 13.722 0 0 1 22.863.718 13.722 13.722 0 0 1 40.62 10.731l7.606 33.993a10.248 10.248 0 0 1-6.74 11.954z"/>
        <circle cx="48.133" cy="76.091" r="13.072" fill="#000" opacity=".1"/>
        <path fill="#000" d="M41.484 56.678a10.248 10.248 0 0 1-12.621-5.548L14.693 19.31A13.722 13.722 0 0 1 22.863.718 13.722 13.722 0 0 1 40.62 10.731l7.606 33.993a10.248 10.248 0 0 1-6.74 11.954z" opacity=".1"/>
        <circle cx="47.649" cy="74.65" r="10.488" fill="#A2D5F2"/>
        <path fill="#A2D5F2" d="M40.239 52.927a9.403 9.403 0 0 1-11.581-5.09l-13-29.197a12.59 12.59 0 0 1 7.496-17.057 12.59 12.59 0 0 1 16.29 9.187l6.98 31.19a9.403 9.403 0 0 1-6.185 10.967z"/>
    </g>
</svg>
