<svg xmlns="http://www.w3.org/2000/svg" width="204" height="37" viewBox="0 0 204 37">
    <defs>
        <linearGradient id="a" x1="80.603%" x2="2.846%" y1="45.953%" y2="56.235%">
            <stop offset="0%" stop-color="#619EC1"/>
            <stop offset="51.258%" stop-color="#B620E0"/>
            <stop offset="100%" stop-color="#FF7E67"/>
        </linearGradient>
    </defs>
    <g fill="none" fill-rule="evenodd" transform="translate(3)">
        <text fill="#FFF" font-family="Funbold" font-size="48" font-weight="bold" letter-spacing="3.371">
            <tspan x="24" y="40">O</tspan>
        </text>
        <ellipse cx="34.5" cy="20" stroke="url(#a)" stroke-width="3" rx="15" ry="4.5" transform="rotate(-23 34.5 20)"/>
        <path fill="#FFF" d="M34.764 1.051a7.215 7.215 0 0 1 1.512.336c.464.16.904.352 1.32.576.832.448 1.552.96 2.16 1.536a14.487 14.487 0 0 1 1.632 1.824c.256.32.48.64.672.96l.288.48c.096.16.176.32.24.48.192.352.36.688.504 1.008l.456 1.008c.256.672.488 1.344.696 2.016.208.672.392 1.36.552 2.064.13.638.238 1.271.323 1.9l-5.945 2.523c-.032-.502-.078-1-.138-1.495a26.777 26.777 0 0 0-.648-3.072 14.165 14.165 0 0 0-1.08-2.784 13.738 13.738 0 0 1-.36-.672 3.24 3.24 0 0 0-.36-.576c-.256-.32-.528-.64-.816-.96-.608-.608-1.136-.944-1.584-1.008a1.212 1.212 0 0 0-.48 0 .597.597 0 0 0-.432.192c-.16.128-.352.336-.576.624-.224.288-.432.64-.624 1.056a6.795 6.795 0 0 0-.264.6c-.08.208-.168.44-.264.696-.064.32-.128.56-.192.72l-.192.816a31.112 31.112 0 0 0-.624 3.264 39.917 39.917 0 0 0-.336 3.336 28.954 28.954 0 0 0-.014 3.075l-6.017 2.555a42.555 42.555 0 0 1-.065-6.854c.096-1.344.256-2.672.48-3.984.224-1.312.512-2.624.864-3.936.192-.704.424-1.4.696-2.088.272-.688.632-1.4 1.08-2.136.224-.352.472-.704.744-1.056.272-.352.584-.704.936-1.056a8.307 8.307 0 0 1 2.64-1.632c1.088-.352 2.16-.464 3.216-.336z"/>
        <text fill="#FFF" font-family="Funbold" font-size="48" font-weight="bold" letter-spacing="8.271">
            <tspan x="0" y="36">D g</tspan>
        </text>
        <text fill="#FFF" font-family='Funbold' font-size="48" font-weight="bold" letter-spacing="3">
            <tspan x="77" y="36">SPACE</tspan>
        </text>
    </g>
</svg>
